<svg width="90" height="139" viewBox="0 0 90 139" fill="none" xmlns="http://www.w3.org/2000/svg">
<path fill-rule="evenodd" clip-rule="evenodd" d="M20.9603 101.831C24.0473 101.423 25.8693 99.672 27.5603 97.1805C28.1533 96.3075 26.7373 95.4885 26.1488 96.3555C24.8308 98.297 23.4068 99.8725 20.9603 100.196C19.9318 100.332 19.9183 101.969 20.9603 101.831" fill="#DB1606"/>
<path fill-rule="evenodd" clip-rule="evenodd" d="M71.3206 100.059C68.7876 99.5452 67.4691 97.9262 66.2266 95.7862C65.6986 94.8767 64.2851 95.6987 64.8146 96.6112C66.2601 99.1002 67.9496 101.04 70.8861 101.636C71.9136 101.844 72.3526 100.268 71.3206 100.059" fill="#DB1606"/>
<path fill-rule="evenodd" clip-rule="evenodd" d="M24.2859 100.136C25.4064 99.4236 28.0464 102.327 29.3524 102.649C30.6864 102.979 32.0694 102.679 33.3079 102.165C34.9979 101.463 36.3439 100.207 37.9899 99.4396C40.3799 98.3261 41.9374 99.5626 44.0309 100.519C47.1459 101.941 49.0694 100.854 51.9299 99.4986C54.2869 98.3806 55.5999 100.033 57.7149 100.809C59.1394 101.331 60.3079 101.258 61.6714 100.667C63.2519 99.9801 61.8864 97.6666 60.3159 98.3481C58.5684 99.1061 56.6369 96.9291 54.9974 96.4766C53.6954 96.1171 52.4294 96.3476 51.2129 96.8761C49.3434 97.6886 47.8744 99.0836 45.7039 98.3331C44.0314 97.7541 42.6699 96.6036 40.8799 96.3251C37.2874 95.7666 35.1964 98.6426 32.1054 99.7421C29.4894 100.672 28.5469 98.5191 26.4784 97.6016C25.2494 97.0566 24.0604 97.1001 22.9309 97.8166C21.4759 98.7406 22.8214 101.065 24.2859 100.136" fill="#DB1606"/>
<path fill-rule="evenodd" clip-rule="evenodd" d="M69.1165 96.4457C71.4035 96.1047 74.025 95.7377 75.789 94.0852C77.3615 92.6122 77.798 90.3082 79.468 88.9392L77.224 87.6327C76.533 90.1757 74.306 92.7912 71.803 93.7562C70.523 94.2492 70.534 96.6047 72.16 96.3937L74.142 96.1357C75.8315 95.9152 75.8535 93.2272 74.142 93.4502C73.481 93.5367 72.8205 93.6227 72.16 93.7082C72.2785 94.5872 72.3975 95.4662 72.517 96.3457C75.9115 95.0372 78.8595 91.8572 79.8135 88.3467C80.1895 86.9627 78.557 86.2307 77.569 87.0402C76.148 88.2062 75.5965 89.8942 74.584 91.3647C73.2385 93.3167 70.5665 93.5342 68.4025 93.8562C66.6995 94.1097 67.4235 96.6977 69.1165 96.4457" fill="#DB1606"/>
<path fill-rule="evenodd" clip-rule="evenodd" d="M60.6609 99.6333C62.0934 100.05 63.6004 100.445 65.1049 100.25C66.4979 100.07 67.6654 99.2778 68.9939 98.8743C70.0624 98.5508 71.0384 97.8713 72.0624 97.6983C73.1474 97.5158 74.0169 97.6253 75.0649 97.1513C77.6634 95.9773 79.1744 92.8743 79.7094 90.1858C80.1109 88.1668 79.5824 85.7908 80.7319 83.9993C81.5634 82.7033 79.6909 81.3048 78.6234 82.3728C75.6889 85.3073 74.5204 89.8743 71.0709 92.2958C69.6679 93.2813 71.0079 95.6103 72.4264 94.6143C76.1769 91.9813 77.3789 87.4148 80.5219 84.2708C79.8189 83.7283 79.1159 83.1863 78.4134 82.6438C76.1504 86.1713 78.3619 91.0203 74.7974 94.1013C73.3954 95.3128 71.3799 94.8728 69.7549 95.6628C68.7384 96.1568 67.6924 96.3213 66.6559 96.7643C65.6514 97.1923 65.1959 97.6688 64.0079 97.6183C63.1174 97.5798 62.2219 97.2903 61.3749 97.0438C59.7124 96.5603 59.0024 99.1503 60.6609 99.6333" fill="#DB1606"/>
<mask id="mask0" mask-type="alpha" maskUnits="userSpaceOnUse" x="0" y="35" width="8" height="23">
<path fill-rule="evenodd" clip-rule="evenodd" d="M0 35.7285H7.13051V57.8798H0V35.7285Z" fill="white"/>
</mask>
<g mask="url(#mask0)">
<path fill-rule="evenodd" clip-rule="evenodd" d="M4.52377 36.1703C-0.840229 42.4118 -2.37923 52.3668 5.17877 57.6393C6.59827 58.6298 7.94227 56.3033 6.53377 55.3203C0.478772 51.0963 2.26527 42.9063 6.42277 38.0693C7.54327 36.7648 5.65227 34.8573 4.52377 36.1703" fill="#DB1606"/>
</g>
<path fill-rule="evenodd" clip-rule="evenodd" d="M80.2068 79.6545C85.3093 75.937 86.9648 69.057 84.6403 63.261C84.0053 61.677 81.4068 62.3685 82.0508 63.975C83.8878 68.5555 83.0253 74.2955 78.8513 77.336C77.4683 78.3435 78.8068 80.6745 80.2068 79.6545" fill="#DB1606"/>
<path fill-rule="evenodd" clip-rule="evenodd" d="M73.4969 35.7558C73.9074 38.3433 74.2834 40.7993 74.1134 43.4278C74.0024 45.1533 76.6884 45.1463 76.7989 43.4278C76.9834 40.5723 76.5319 37.8513 76.0859 35.0418C75.8159 33.3403 73.2279 34.0623 73.4969 35.7558" fill="#DB1606"/>
<path fill-rule="evenodd" clip-rule="evenodd" d="M88.2352 49.4716C88.6872 45.0021 86.7812 43.6701 86.3517 39.1981C86.1072 36.6511 85.8507 34.0556 84.8407 31.7126C83.8297 29.3701 81.9197 27.2801 79.4612 26.7531C81.4162 21.0861 78.0202 14.1141 72.4067 12.2696C71.9562 12.1216 71.4882 11.9991 71.0957 11.7306C70.6767 11.4446 70.3767 11.0161 70.0857 10.5971C67.5137 6.89158 62.9237 2.69308 58.4677 2.76658C45.7777 2.97558 49.3577 5.90508 43.8852 5.10008C42.1557 4.84558 40.5512 4.06308 38.8857 3.52408C34.7367 2.18358 29.6162 2.64908 26.8457 6.06808C25.8067 7.35058 25.1512 8.97308 23.8757 10.0106C22.3292 11.2681 20.2147 11.4061 18.2767 11.8176C16.3392 12.2296 14.2157 13.2376 13.7337 15.1926C13.4557 16.3201 12.0522 16.7236 11.5957 17.7891C11.1992 18.7146 10.7602 20.1131 9.9582 20.7071C6.1442 23.5341 4.9442 28.1681 4.6612 32.9626C4.5517 34.8146 4.7487 36.7031 4.3142 38.5041C3.9362 40.0726 3.1007 41.4821 2.5487 42.9961C1.3397 46.3126 1.4237 51.6126 3.0242 54.7521C5.0322 58.6906 8.5947 60.2601 8.3692 64.6921C8.2917 66.2206 8.3817 67.8536 7.8932 69.3011C6.6152 73.0876 6.1857 77.3126 7.5272 81.0761C8.8682 84.8401 12.2362 87.9951 16.1602 88.2566C14.6087 90.7551 15.0262 94.3366 17.1087 96.3956C19.1912 98.4546 22.7187 98.7736 25.1252 97.1211C25.6117 98.2491 26.0982 99.3776 26.5842 100.505C27.2527 100.219 27.7722 99.7001 28.1507 99.0701C28.1932 99.1561 28.2412 99.2391 28.2937 99.3191C28.0262 100.4 29.5162 101.549 30.5827 100.589C30.6807 100.501 30.7862 100.402 30.8942 100.298C31.4682 100.218 32.0022 99.9971 32.4977 99.6906C33.9537 100.867 36.0907 100.045 37.4932 98.9816C38.8522 97.9506 37.5162 95.6181 36.1377 96.6631C35.8277 96.9136 35.5032 97.1441 35.1647 97.3546C35.0782 97.3751 35.0027 97.3881 34.9287 97.4011C35.8367 96.3586 37.3572 95.4531 37.7122 94.0476C37.8397 93.5426 37.7817 93.1156 37.6012 92.7611C40.4832 90.5566 46.1762 92.6766 49.5867 93.0811C50.2547 93.1601 50.9352 93.2431 51.5477 93.5266C52.6522 94.0386 53.3767 95.1226 54.3112 95.9101C55.9367 97.2801 58.1217 97.7016 59.9987 98.6821C61.8762 99.6626 63.5477 96.9611 62.8862 99.0016C63.4637 97.4606 64.0692 98.8131 64.6592 98.5536C64.8982 98.6606 65.1817 98.6976 65.4997 98.6296C70.1437 97.6386 75.3492 91.1306 74.8802 85.8806C78.1942 85.2111 81.1747 83.5216 82.6842 80.4131C84.4127 76.8566 83.8492 72.2736 84.7762 68.4196C85.4747 65.5186 84.3047 62.0516 84.7762 58.3241C85.1112 55.6796 87.9207 52.5776 88.2352 49.4716" fill="#DB1606"/>
<path fill-rule="evenodd" clip-rule="evenodd" d="M74.6639 87.0567C82.2379 86.4547 86.7269 79.3377 84.2524 72.1857C83.6904 70.5627 81.0954 71.2602 81.6629 72.8997C83.5184 78.2612 80.6039 83.8997 74.6639 84.3717C72.9529 84.5072 72.9384 87.1937 74.6639 87.0567" fill="#DB1606"/>
<path fill-rule="evenodd" clip-rule="evenodd" d="M85.096 40.4989C86.829 43.6104 86.8165 47.2019 85.071 50.3029C84.2225 51.8109 86.541 53.1659 87.3895 51.6584C89.607 47.7189 89.614 43.0924 87.415 39.1439C86.574 37.6339 84.2535 38.9864 85.096 40.4989" fill="#DB1606"/>
<path fill-rule="evenodd" clip-rule="evenodd" d="M78.8813 28.1378C83.1193 30.1853 85.6498 34.7673 84.9223 39.4653C84.6603 41.1558 87.2468 41.8843 87.5113 40.1793C88.4158 34.3383 85.6433 28.4313 80.2363 25.8188C78.6873 25.0708 77.3243 27.3853 78.8813 28.1378" fill="#DB1606"/>
<path fill-rule="evenodd" clip-rule="evenodd" d="M81.1634 27.4075C82.6609 26.4785 84.1159 27.125 85.2869 28.261C85.9924 28.9455 87.0734 27.867 86.3669 27.181C84.7144 25.5775 82.4779 24.795 80.3929 26.0885C79.5594 26.6055 80.3249 27.9275 81.1634 27.4075" fill="#DB1606"/>
<path fill-rule="evenodd" clip-rule="evenodd" d="M82.2484 26.2607C81.6859 22.2287 80.3999 17.9462 77.9669 14.6182C75.7304 11.5577 72.3369 11.0267 68.7589 10.9942C67.0304 10.9782 67.0294 13.6632 68.7589 13.6792C72.4369 13.7127 74.9844 14.4562 76.8079 17.8622C78.3334 20.7107 79.2144 23.7867 79.6589 26.9747C79.8969 28.6787 82.4844 27.9537 82.2484 26.2607" fill="#DB1606"/>
<path fill-rule="evenodd" clip-rule="evenodd" d="M73.1839 13.2257C73.5069 10.7872 73.9689 8.71317 73.0539 6.33067C72.7054 5.42267 71.2284 5.81717 71.5819 6.73617C72.4384 8.96667 71.9589 10.9447 71.6564 13.2257C71.5274 14.1967 73.0564 14.1877 73.1839 13.2257" fill="#DB1606"/>
<path fill-rule="evenodd" clip-rule="evenodd" d="M46.3352 6.93707C49.9217 3.42807 56.6687 3.56557 61.1757 4.92007C63.4752 5.61157 65.6617 6.69207 67.2202 8.57307C68.6392 10.2871 69.4947 12.4301 70.5147 14.3866C71.3142 15.9196 73.6327 14.5636 72.8337 13.0311C71.5907 10.6481 70.5257 8.11207 68.6427 6.14007C66.6427 4.04707 63.8637 2.82257 61.0987 2.11057C55.7782 0.739073 48.5672 0.997073 44.4362 5.03807C43.1992 6.24857 45.0982 8.14707 46.3352 6.93707" fill="#DB1606"/>
<path fill-rule="evenodd" clip-rule="evenodd" d="M45.1971 5.2405C42.6966 3.647 39.6836 3.2435 36.8536 4.1335C35.2106 4.65 35.9126 7.2435 37.5671 6.723C39.7576 6.034 41.9041 6.3245 43.8421 7.559C45.3036 8.49 46.6521 6.1675 45.1971 5.2405" fill="#DB1606"/>
<path fill-rule="evenodd" clip-rule="evenodd" d="M45.5506 3.92012C36.1346 -2.46738 25.4686 2.66062 20.0041 11.5401C19.0961 13.0156 21.4176 14.3661 22.3231 12.8951C27.0546 5.20612 36.0121 0.687116 44.1956 6.23862C45.6291 7.21112 46.9746 4.88612 45.5506 3.92012" fill="#DB1606"/>
<path fill-rule="evenodd" clip-rule="evenodd" d="M22.1282 11.3656C19.9052 8.79812 14.6722 11.5491 12.9757 13.4876C10.0317 16.8531 9.57469 21.0996 9.66019 25.3961C9.69519 27.1216 12.3807 27.1271 12.3462 25.3961C12.2897 22.5996 12.3312 19.7351 13.6557 17.1961C14.3212 15.9201 15.2887 14.6406 16.5832 13.9641C17.1257 13.6811 19.7157 12.6706 20.2297 13.2641C21.3632 14.5726 23.2552 12.6671 22.1282 11.3656" fill="#DB1606"/>
<path fill-rule="evenodd" clip-rule="evenodd" d="M13.948 19.456C9.71202 19.5955 6.04352 23.7895 4.37052 27.3825C2.31252 31.8015 2.50402 36.6665 4.39152 41.0925C5.06702 42.677 7.38052 41.311 6.71002 39.7375C5.24002 36.289 5.13102 32.376 6.62152 28.915C7.78452 26.213 10.6745 22.249 13.948 22.1415C15.6715 22.085 15.6795 19.3995 13.948 19.456" fill="#DB1606"/>
<path fill-rule="evenodd" clip-rule="evenodd" d="M15.1444 82.8311C14.2649 86.8676 13.3399 91.4456 15.4744 95.2606C17.1269 98.2146 20.1174 99.9551 23.4879 99.3986C25.1889 99.1171 24.4674 96.5291 22.7744 96.8091C19.9629 97.2736 17.7199 94.6636 17.1279 92.1586C16.4524 89.3031 17.1229 86.3486 17.7339 83.5451C18.1009 81.8606 15.5129 81.1411 15.1444 82.8311" fill="#DB1606"/>
<path fill-rule="evenodd" clip-rule="evenodd" d="M11.0033 19.8142C8.60226 19.4037 6.61826 20.0222 4.66026 21.4382C3.87126 22.0087 4.63326 23.3342 5.43126 22.7572C7.02876 21.6017 8.60376 20.9457 10.5973 21.2867C11.5583 21.4512 11.9718 19.9797 11.0033 19.8142" fill="#DB1606"/>
<mask id="mask1" mask-type="alpha" maskUnits="userSpaceOnUse" x="42" y="0" width="4" height="5">
<path fill-rule="evenodd" clip-rule="evenodd" d="M42.8165 0H45.9829V4.8915H42.8165V0Z" fill="white"/>
</mask>
<g mask="url(#mask1)">
<path fill-rule="evenodd" clip-rule="evenodd" d="M45.9661 4.15956C46.1111 2.53606 45.3076 0.992557 43.9426 0.123057C43.1116 -0.406943 42.3446 0.914557 43.1721 1.44156C44.1101 2.03956 44.5361 3.07156 44.4386 4.15956C44.3516 5.13856 45.8791 5.13256 45.9661 4.15956" fill="#DB1606"/>
</g>
<path fill-rule="evenodd" clip-rule="evenodd" d="M38.1443 93.5246C37.0233 93.7401 35.9233 94.0666 34.8668 94.4991C34.1353 94.7986 33.4078 95.1601 32.8673 95.7361C32.3263 96.3116 31.9998 97.1411 32.1993 97.9056C32.4643 98.9196 33.5658 99.5196 34.6113 99.5911C35.6568 99.6621 36.6813 99.3321 37.7033 99.0996C42.3443 98.0441 47.1723 98.9841 51.8788 99.6906C54.6898 100.112 57.8298 100.373 60.1143 98.6821C60.5123 98.3881 60.8948 97.9936 60.9348 97.5006C60.9698 97.0746 60.7388 96.6721 60.4758 96.3346C58.9858 94.4261 56.4258 93.7751 54.0508 93.3031C52.2648 92.9481 50.4563 92.6251 48.6353 92.6751C47.3538 92.7106 46.0848 92.9301 44.8078 93.0501C41.6063 93.3501 38.3138 93.0301 35.2218 93.9131" fill="#DB1606"/>
<path fill-rule="evenodd" clip-rule="evenodd" d="M49.455 9.37533C49.455 9.37533 53.5555 3.01933 61.757 7.83783C61.757 7.83783 54.171 4.86483 49.455 9.37533" fill="#BA0E00"/>
<path fill-rule="evenodd" clip-rule="evenodd" d="M80.6351 35.3164C80.6351 35.3164 85.4481 40.2254 83.0411 48.2149C83.0411 48.2149 88.6246 39.1669 80.6351 35.3164" fill="#BA0E00"/>
<path fill-rule="evenodd" clip-rule="evenodd" d="M21.7147 71.1641C21.7147 71.1641 17.9337 77.5456 24.8662 81.5636C24.8662 81.5636 20.6907 77.9396 21.7147 71.1641" fill="#EA2C22"/>
<path fill-rule="evenodd" clip-rule="evenodd" d="M67.4979 95.5637C68.0189 95.5882 76.0504 96.3187 75.8904 89.2617C75.8904 89.2617 77.8454 97.7877 68.0189 95.5882" fill="#BA0E00"/>
<path fill-rule="evenodd" clip-rule="evenodd" d="M26.1853 96.8857C25.7103 96.8177 19.7613 96.5442 19.4963 89.2852C19.4963 89.2852 16.4878 97.2077 25.7103 96.8177" fill="#BA0E00"/>
<path fill-rule="evenodd" clip-rule="evenodd" d="M40.162 90.6171C33.591 88.5441 33.663 82.0786 33.663 82.0786C34.67 79.7166 38.9565 79.6301 38.9565 79.6301L41.052 79.1276L41.043 74.5346L51.526 74.4141L51.734 78.7066L54.4305 79.3001C54.4305 79.3001 57.6915 79.9731 59.364 81.9806L55.574 87.0081L52.3215 90.3866L44.971 91.7986" fill="#E08957"/>
<path fill-rule="evenodd" clip-rule="evenodd" d="M20.8578 54.5092C20.8708 61.0537 17.6253 61.4292 13.8833 61.4967C8.9023 61.5867 5.4723 57.7387 6.3088 53.2217C7.0478 49.2312 10.3958 47.5407 14.2558 47.5332C18.1158 47.5252 20.8463 48.6082 20.8578 54.5092" fill="#E08957"/>
<path fill-rule="evenodd" clip-rule="evenodd" d="M69.8772 53.4444C69.8647 59.9889 72.6672 60.6914 76.4092 60.7494C81.7627 60.8334 83.8467 57.3239 83.8542 53.4724C83.8622 49.6209 80.7397 46.4924 76.8797 46.4844C73.0202 46.4764 69.8887 47.5434 69.8772 53.4444" fill="#E08957"/>
<path fill-rule="evenodd" clip-rule="evenodd" d="M16.8616 30.9916C16.8151 34.2741 15.6106 37.5721 15.1716 40.8251C13.8151 50.8806 14.1881 60.9921 20.4411 67.5561C26.9586 74.3981 36.4696 77.6326 49.5851 77.4511C57.5821 77.3401 73.8176 71.3691 76.7366 60.4736C77.3331 58.2466 77.2881 54.8511 76.0341 50.0766C74.9861 46.0851 75.0861 39.1481 75.7851 34.0781C75.7851 34.0781 74.2676 24.0306 67.6721 21.6896C61.0771 19.3491 49.5386 18.2031 49.5386 18.2031L37.6731 20.2606L29.7656 23.8241C29.7656 23.8241 16.9636 23.7926 16.8616 30.9916" fill="#EA9A67"/>
<path fill-rule="evenodd" clip-rule="evenodd" d="M56.5793 42.813C56.5793 42.813 57.2483 37.6645 62.1938 37.659C62.1938 37.659 66.8073 37.1195 67.6628 43.122C67.6628 43.122 62.3988 39.251 56.5793 42.813" fill="#EA80C9"/>
<path fill-rule="evenodd" clip-rule="evenodd" d="M37.058 42.812C37.058 42.812 36.1175 37.391 31.4435 37.658C31.4435 37.658 26.81 37.391 25.975 43.121C25.975 43.121 31.2385 39.25 37.058 42.812" fill="#EA80C9"/>
<path fill-rule="evenodd" clip-rule="evenodd" d="M47.6688 53.1379C47.2008 53.1379 46.8158 52.7659 46.8023 52.2954C46.7878 51.8164 47.1648 51.4169 47.6438 51.4029C49.2693 51.3559 49.6243 50.5989 49.7493 50.0334C49.9523 49.1179 49.7588 47.8979 48.5438 47.4734C48.0288 47.2929 47.1898 47.2964 46.6753 47.6129C46.4078 47.7779 46.0718 47.7849 45.7978 47.6319C45.5233 47.4794 45.3528 47.1899 45.3523 46.8764L45.3468 44.4774C45.3458 43.9984 45.7338 43.6084 46.2128 43.6074H46.2148C46.6933 43.6074 47.0813 43.9949 47.0823 44.4734L47.0848 45.6659C47.8168 45.5519 48.5573 45.6394 49.1168 45.8354C50.9423 46.4729 51.8993 48.3539 51.4438 50.4094C51.2253 51.3939 50.4483 53.0574 47.6948 53.1374C47.6858 53.1379 47.6773 53.1379 47.6688 53.1379" fill="#C9804A"/>
<path fill-rule="evenodd" clip-rule="evenodd" d="M55.3005 55.7329C47.5595 58.2689 40.8715 56.8004 37.923 55.8684C37.131 55.6184 36.372 56.3124 36.5385 57.1314C37.104 59.9094 39.121 64.8689 46.2955 65.3979C53.844 65.9539 56.362 60.7229 56.7095 56.9829C56.788 56.1429 56.0975 55.4719 55.3005 55.7329" fill="#D34236"/>
<path fill-rule="evenodd" clip-rule="evenodd" d="M41.6937 59.5717C46.0782 60.2377 48.6457 60.2508 52.1772 59.4028C52.1772 59.4028 55.4467 58.7652 55.3772 55.7188C55.3512 55.7253 55.3272 55.7268 55.3007 55.7328C49.2747 57.1967 43.2052 56.8718 38.1707 55.9428C38.0417 56.5317 38.4192 59.0747 41.6937 59.5717" fill="white"/>
<path fill-rule="evenodd" clip-rule="evenodd" d="M31.932 59.361C31.9375 62.099 28.956 64.324 25.273 64.331C21.5895 64.3385 18.6 62.125 18.5945 59.388C18.5885 56.65 21.57 54.425 25.2535 54.418C28.9365 54.411 31.9265 56.6235 31.932 59.361" fill="#FFA67B"/>
<path fill-rule="evenodd" clip-rule="evenodd" d="M74.4852 59.4474C74.4907 62.1849 71.5092 64.4099 67.8262 64.4169C64.1427 64.4244 61.1527 62.2114 61.1472 59.4739C61.1417 56.7364 64.1232 54.5114 67.8067 54.5039C71.4897 54.4969 74.4792 56.7099 74.4852 59.4474" fill="#FFA67B"/>
<path fill-rule="evenodd" clip-rule="evenodd" d="M58.5544 34.7821C58.3834 34.7821 58.2174 34.6986 58.1174 34.5491C57.9739 34.3351 58.0069 34.0486 58.1949 33.8731C58.2234 33.8471 60.9994 31.3131 64.3669 33.7341C64.5854 33.8916 64.6494 34.1876 64.5169 34.4206C64.3849 34.6536 64.0989 34.7501 63.8509 34.6431C63.8269 34.6321 61.3074 33.5751 58.7724 34.7346C58.7019 34.7671 58.6274 34.7821 58.5544 34.7821" fill="#723E1A"/>
<path fill-rule="evenodd" clip-rule="evenodd" d="M35.0355 34.7832C34.9625 34.7832 34.888 34.7682 34.8175 34.7357C32.2675 33.5697 29.764 34.6327 29.739 34.6442C29.491 34.7512 29.205 34.6542 29.073 34.4217C28.9405 34.1887 29.0045 33.8927 29.223 33.7352C32.5875 31.3162 35.367 33.8482 35.395 33.8742C35.583 34.0497 35.616 34.3362 35.4725 34.5502C35.3725 34.6997 35.2065 34.7832 35.0355 34.7832" fill="#723E1A"/>
<path fill-rule="evenodd" clip-rule="evenodd" d="M80.4222 85.6693C80.4222 85.6693 82.4702 85.6718 83.9977 84.9863C85.6412 84.2493 88.4532 82.8213 88.4842 79.7173C88.5207 76.0968 83.4177 74.5953 83.4177 74.5953L84.1942 73.0288C86.0582 68.5688 84.7282 67.6978 84.7282 67.6978C82.1522 65.5853 81.5137 69.2598 81.5137 69.2598C79.3097 75.4533 78.0322 78.0023 77.1032 79.6503C76.7517 80.2743 76.7812 82.4323 76.7812 82.4323" fill="#EA9A67"/>
<path fill-rule="evenodd" clip-rule="evenodd" d="M83.6542 67.1094C83.6542 67.1094 85.5342 69.3004 82.6952 74.8054L82.2427 75.6509L83.3992 74.7574C83.3992 74.7574 86.2107 69.9364 84.7282 67.6974C84.7282 67.6974 84.1822 67.2149 83.6542 67.1094" fill="#E08957"/>
<path fill-rule="evenodd" clip-rule="evenodd" d="M86.6043 81.8809C86.6043 81.8809 87.0593 81.3934 87.4358 80.7519C87.8133 80.1084 88.1538 79.4889 88.3878 78.8359C88.3878 78.8359 88.5528 81.2304 87.4058 82.5739C87.4058 82.5739 85.5378 84.9894 82.9188 85.1464C82.9188 85.1464 86.7273 83.5724 86.6043 81.8809" fill="#E08957"/>
<path fill-rule="evenodd" clip-rule="evenodd" d="M84.761 76.6317C81.402 74.8167 78.644 78.1267 78.644 78.1267C78.644 78.1267 77.74 79.3532 77.1255 80.5007C77.0475 80.6212 76.9745 80.7422 76.9115 80.8652C77.0875 84.2187 81.203 83.4952 81.9125 84.3597C82.9765 84.2517 83.285 83.1017 82.885 82.2552C82.609 81.5162 82.0795 80.9387 82.1335 80.5062C82.217 79.8412 83.71 80.0012 83.71 80.0012C85.2 80.2312 85.7135 79.3662 85.749 79.2167C85.768 79.1932 85.764 79.1627 85.764 79.1627C86.223 77.5287 84.761 76.6317 84.761 76.6317" fill="#E08957"/>
<path fill-rule="evenodd" clip-rule="evenodd" d="M76.7043 80.844C76.9783 78.891 77.9718 77.8845 77.9718 77.8845C77.9718 77.8845 80.7398 75.219 84.3783 77.0325C84.3783 77.0325 85.4353 77.5425 85.2353 78.7785C85.2353 78.7785 85.1398 80.041 83.3288 79.5895C83.3288 79.5895 82.2778 79.373 81.5938 80.3685C81.0143 81.2125 82.8643 82.355 82.6523 83.88C82.6523 83.88 82.4203 84.299 81.6613 84.699C80.9513 83.834 76.8808 84.1975 76.7043 80.844" fill="#EA9A67"/>
<path fill-rule="evenodd" clip-rule="evenodd" d="M82.3031 79.9454C82.3031 79.9454 84.1236 83.2334 87.5816 82.3634C87.5816 82.3634 87.7906 82.1219 87.9046 81.6434C87.9046 81.6434 84.0146 82.0529 83.1496 79.7884C83.1496 79.7884 82.4826 79.6834 82.3031 79.9454" fill="#E08957"/>
<path fill-rule="evenodd" clip-rule="evenodd" d="M81.6063 76.4584C81.6063 76.4584 81.4898 75.5219 83.1968 74.6914L83.3188 74.7174C83.3188 74.7174 82.6238 75.4939 82.3833 76.0719C82.3053 76.2574 82.1403 76.3899 81.9408 76.4154L81.6063 76.4584Z" fill="#E08957"/>
<path fill-rule="evenodd" clip-rule="evenodd" d="M58.1903 89.0231C69.3428 94.3056 81.7058 85.3126 81.7058 85.3126L78.2373 79.6191C69.8458 87.7651 58.2743 81.1411 58.2743 81.1411C58.2743 81.1411 57.0163 80.2191 56.5968 80.2191C56.1783 80.2191 56.6808 80.9731 56.6808 80.9731L56.7648 85.3336L57.1003 86.9271L58.1903 89.0231" fill="#EA9A67"/>
<path fill-rule="evenodd" clip-rule="evenodd" d="M36.7582 115.956V128.336H43.9752L44.3547 112.275L36.7582 115.956Z" fill="#EA9A67"/>
<path fill-rule="evenodd" clip-rule="evenodd" d="M58.7259 115.751L59.5144 128.106L52.5344 128.552L51.1444 112.547L58.7259 115.751Z" fill="#EA9A67"/>
<path fill-rule="evenodd" clip-rule="evenodd" d="M34.7654 88.7016C24.5874 93.3346 12.5149 84.0306 12.5149 84.0306L16.9009 78.9141C24.8779 86.8441 34.8799 80.7221 34.8799 80.7221L37.1434 79.8836L37.7304 85.6696L34.9154 88.6996" fill="#EA9A67"/>
<path fill-rule="evenodd" clip-rule="evenodd" d="M16.7113 79.5933C17.8228 77.8013 16.9168 74.6058 16.9008 72.4778C16.8938 71.5768 16.6788 70.4138 15.7898 70.2653C14.9478 70.1248 14.3353 71.0998 14.2618 71.9503C14.1883 72.8008 14.0283 73.4193 13.8048 74.3378C12.5973 73.1373 11.7553 71.8453 9.9398 70.2838C9.5698 69.9648 8.6878 69.4983 8.1543 69.7683C7.4908 70.1043 7.5038 70.8413 7.5968 71.3693C7.8183 72.6133 9.6078 73.9158 10.1593 75.2323C9.5148 74.7658 9.2248 74.5093 8.8008 74.0348C8.2808 73.4533 7.3788 72.6343 6.6483 72.1468C5.5493 71.4133 4.7103 71.7358 4.4678 72.5803C4.3223 73.0858 4.5333 73.6853 4.8523 74.1038C5.8728 75.4408 7.1138 76.5548 8.1158 77.5993C7.0193 76.6158 5.6268 75.3853 4.3263 74.9093C3.7613 74.7023 2.9763 74.6593 2.6768 75.5673C2.5578 75.9258 2.5718 76.3213 2.7963 76.6248C3.6363 77.7593 4.8723 78.7338 6.0343 79.5368C5.0578 78.9988 3.0868 78.2108 2.5853 79.1738C2.1503 79.9268 3.2898 80.9133 5.1558 81.8968C7.5608 83.1663 9.9373 84.2628 11.9708 83.9153C12.7133 84.0183 13.7463 84.3738 16.7113 79.5933" fill="#EA9A67"/>
<path fill-rule="evenodd" clip-rule="evenodd" d="M60.3216 129.453C60.3216 129.453 60.9056 126.84 59.6211 126.881C59.6211 126.881 57.5966 126.84 56.4456 127.441C56.0821 127.63 55.9216 128.089 55.9486 128.513C55.9856 129.091 56.0611 129.951 55.9616 130.76C55.9616 130.841 56.2341 131.78 56.7401 131.862C57.2466 131.944 58.9591 131.25 59.3096 130.964C59.6601 130.678 60.5166 130.27 60.3216 129.453" fill="#BF7FD1"/>
<path fill-rule="evenodd" clip-rule="evenodd" d="M60.2029 129.461C57.6714 129.339 56.6154 130.896 56.4519 130.923C56.2889 130.95 56.1259 130.679 56.1259 130.679C55.8369 129.774 56.1934 129.196 55.9214 128.27C55.8274 127.95 55.5854 127.691 55.2669 127.592C54.6004 127.383 53.3129 127.384 52.5944 127.447C52.1794 127.483 51.8389 127.792 51.7719 128.203C51.5424 129.598 51.5534 132.241 52.0024 133.863C54.7724 136.178 57.8774 138.471 61.7859 138.955C63.2909 139.142 64.7954 138.64 65.7494 137.373C66.2354 136.727 66.4609 135.923 66.3144 135.128C66.1609 134.295 65.7089 133.92 65.1344 133.25C64.1549 132.107 62.9659 131.017 61.2464 130.272C61.3789 129.301 61.4944 129.093 61.2699 127.821C61.2699 127.821 61.0194 127.012 60.2434 127.297C60.2434 127.297 60.4884 129.053 60.2029 129.461" fill="#9D4DB2"/>
<path fill-rule="evenodd" clip-rule="evenodd" d="M60.8564 134.23C60.5029 134.293 60.1809 134.261 59.9504 134.054C59.7054 133.835 59.6824 133.399 59.9629 133.197C61.0734 132.395 62.5714 131.645 63.8044 131.561C64.1989 131.695 64.7109 132.095 64.5679 132.414C64.2589 133.101 63.4559 133.129 63.0149 133.316C62.5409 133.515 61.6229 134.095 60.8564 134.23" fill="white"/>
<path fill-rule="evenodd" clip-rule="evenodd" d="M59.4344 132.694C59.1239 132.823 58.7954 132.73 58.5354 132.579C58.2509 132.414 58.2079 131.945 58.7384 131.537C59.8239 130.702 60.8099 130.148 62.0459 130.148C62.5354 130.148 63.2294 130.802 62.4069 131.229C61.7174 131.587 60.4534 132.271 59.4344 132.694" fill="white"/>
<path fill-rule="evenodd" clip-rule="evenodd" d="M57.7327 131.034C57.4112 131.134 57.0927 131.012 56.8477 130.837C56.5792 130.647 56.5797 130.175 57.1462 129.818C58.3042 129.086 59.3367 128.626 60.5667 128.74C61.0547 128.785 61.6857 129.499 60.8272 129.849C60.1077 130.142 58.7857 130.708 57.7327 131.034" fill="white"/>
<path fill-rule="evenodd" clip-rule="evenodd" d="M65.3934 133.414C64.6584 132.842 63.1889 133.332 62.0459 134.149C61.2709 134.702 60.4534 136.027 60.5754 137.619C60.5754 137.619 62.5899 138.884 65.7744 137.251C65.7744 137.251 67.4484 135.012 65.3934 133.414" fill="#C2C2C2"/>
<path fill-rule="evenodd" clip-rule="evenodd" d="M52.9559 130.959C52.7999 130.581 52.7474 130.106 52.8639 129.693C53.1279 128.76 54.1439 128.548 54.5009 129.506C54.9149 130.412 54.3399 131.697 53.6684 131.642C53.3714 131.618 53.1119 131.337 52.9559 130.959" fill="#BF7FD1"/>
<mask id="mask2" mask-type="alpha" maskUnits="userSpaceOnUse" x="51" y="132" width="15" height="7">
<path fill-rule="evenodd" clip-rule="evenodd" d="M51.7761 132.803H65.9243V138.996H51.7761V132.803Z" fill="white"/>
</mask>
<g mask="url(#mask2)">
<path fill-rule="evenodd" clip-rule="evenodd" d="M65.9242 136.967C65.9417 136.887 62.9437 139.09 58.1667 136.763C54.1727 134.817 51.7982 132.803 51.7982 132.803C51.7982 132.803 51.5532 134.19 52.6962 135.048C54.0772 136.083 56.9827 138.028 60.5622 138.804C63.7492 139.495 65.6517 138.192 65.9242 136.967" fill="#A9A9A9"/>
</g>
<path fill-rule="evenodd" clip-rule="evenodd" d="M36.0862 129.453C36.0862 129.453 35.5022 126.84 36.7867 126.881C36.7867 126.881 38.8112 126.84 39.9627 127.441C40.3257 127.63 40.4862 128.089 40.4592 128.513C40.4222 129.091 40.3467 129.951 40.4467 130.76C40.4467 130.841 40.1742 131.78 39.6677 131.862C39.1612 131.944 37.4487 131.25 37.0982 130.964C36.7477 130.678 35.8912 130.27 36.0862 129.453" fill="#BF7FD1"/>
<path fill-rule="evenodd" clip-rule="evenodd" d="M36.2054 129.461C38.7364 129.339 39.7924 130.896 39.9559 130.923C40.1189 130.95 40.2824 130.679 40.2824 130.679C40.5709 129.774 40.2144 129.196 40.4869 128.27C40.5804 127.95 40.8224 127.691 41.1409 127.592C41.8079 127.383 43.0949 127.384 43.8134 127.447C44.2284 127.483 44.5689 127.792 44.6364 128.203C44.8654 129.598 44.8544 132.241 44.4059 133.863C41.6354 136.178 38.5304 138.471 34.6224 138.955C33.1169 139.142 31.6124 138.64 30.6589 137.373C30.1729 136.727 29.9469 135.923 30.0934 135.128C30.2469 134.295 30.6989 133.92 31.2734 133.25C32.2534 132.107 33.4419 131.017 35.1614 130.272C35.0289 129.301 34.9134 129.093 35.1379 127.821C35.1379 127.821 35.3884 127.012 36.1644 127.297C36.1644 127.297 35.9194 129.053 36.2054 129.461" fill="#9D4DB2"/>
<path fill-rule="evenodd" clip-rule="evenodd" d="M35.5516 134.23C35.9051 134.293 36.2271 134.261 36.4576 134.054C36.7026 133.835 36.7261 133.399 36.4451 133.197C35.3346 132.395 33.8366 131.645 32.6036 131.561C32.2096 131.695 31.6971 132.095 31.8401 132.414C32.1491 133.101 32.9526 133.129 33.3931 133.316C33.8671 133.515 34.7851 134.095 35.5516 134.23" fill="white"/>
<path fill-rule="evenodd" clip-rule="evenodd" d="M36.9735 132.694C37.284 132.823 37.6125 132.73 37.873 132.579C38.1575 132.414 38.2 131.945 37.6695 131.537C36.584 130.702 35.598 130.148 34.3625 130.148C33.8725 130.148 33.1785 130.802 34.001 131.229C34.691 131.587 35.955 132.271 36.9735 132.694" fill="white"/>
<path fill-rule="evenodd" clip-rule="evenodd" d="M38.6756 131.034C38.9966 131.134 39.3151 131.012 39.5601 130.837C39.8286 130.647 39.8281 130.175 39.2616 129.818C38.1041 129.086 37.0716 128.626 35.8411 128.74C35.3531 128.785 34.7226 129.499 35.5806 129.849C36.3001 130.142 37.6221 130.708 38.6756 131.034" fill="white"/>
<path fill-rule="evenodd" clip-rule="evenodd" d="M31.0145 133.414C31.7495 132.842 33.2195 133.332 34.3625 134.149C35.1375 134.702 35.955 136.027 35.8325 137.619C35.8325 137.619 33.818 138.884 30.6335 137.251C30.6335 137.251 28.9595 135.012 31.0145 133.414" fill="#C2C2C2"/>
<path fill-rule="evenodd" clip-rule="evenodd" d="M43.4521 130.959C43.6081 130.581 43.6606 130.106 43.5441 129.693C43.2806 128.76 42.2646 128.548 41.9071 129.506C41.4931 130.412 42.0681 131.697 42.7401 131.642C43.0366 131.618 43.2961 131.337 43.4521 130.959" fill="#BF7FD1"/>
<mask id="mask3" mask-type="alpha" maskUnits="userSpaceOnUse" x="30" y="132" width="15" height="7">
<path fill-rule="evenodd" clip-rule="evenodd" d="M30.4836 132.803H44.6322V138.996H30.4836V132.803Z" fill="white"/>
</mask>
<g mask="url(#mask3)">
<path fill-rule="evenodd" clip-rule="evenodd" d="M30.4837 136.967C30.4662 136.887 33.4642 139.09 38.2412 136.763C42.2352 134.817 44.6102 132.803 44.6102 132.803C44.6102 132.803 44.8547 134.19 43.7117 135.048C42.3307 136.083 39.4252 138.028 35.8462 138.804C32.6587 139.495 30.7562 138.192 30.4837 136.967" fill="#A9A9A9"/>
</g>
<path fill-rule="evenodd" clip-rule="evenodd" d="M44.0164 21.31C44.3464 22.045 44.7159 22.758 45.1264 23.4515C45.8794 24.7235 47.8669 23.5685 47.1109 22.2915C46.7004 21.598 46.3309 20.885 46.0014 20.15C45.7474 19.5835 44.9234 19.448 44.4289 19.7375C43.8459 20.0785 43.7614 20.7415 44.0164 21.31" fill="#DB1606"/>
<path fill-rule="evenodd" clip-rule="evenodd" d="M42.7792 24.2026C42.9012 24.4326 43.0352 24.6776 43.2672 24.7961C43.4452 24.8866 43.6537 24.8881 43.8532 24.8871C45.1837 24.8821 46.5132 24.8776 47.8427 24.8721C48.3387 24.8701 48.8617 24.8606 49.2872 24.6056C49.6672 24.3771 49.9137 23.9831 50.1362 23.5986C51.4267 21.3706 52.4162 18.9676 53.0692 16.4771C53.2832 15.6621 42.4872 16.4511 41.6582 16.6441C39.4577 17.1556 38.3797 17.2016 39.7237 19.2741C40.7807 20.9031 41.8662 22.4821 42.7792 24.2026" fill="#DB1606"/>
<path fill-rule="evenodd" clip-rule="evenodd" d="M47.3177 24.4042C47.5182 23.1622 47.8407 21.9377 48.3427 20.7812C48.5912 20.2077 48.5072 19.5547 47.9302 19.2087C47.4472 18.9192 46.6042 19.0527 46.3577 19.6212C45.7717 20.9722 45.3362 22.3372 45.1012 23.7932C44.8677 25.2402 47.0817 25.8632 47.3177 24.4042" fill="#DB1606"/>
<path fill-rule="evenodd" clip-rule="evenodd" d="M48.2898 25.477C49.9968 22.5035 51.9438 18.1445 56.1188 18.905C60.5028 19.704 61.3058 23.5985 62.5623 27.1455C63.8023 30.6455 68.0988 37.2315 72.6073 34.691C73.8963 33.965 72.7388 31.9785 71.4468 32.7065C69.4063 33.856 66.6853 30.2425 65.8943 28.9425C64.8818 27.277 64.4418 25.394 63.8478 23.5605C62.9963 20.931 61.5548 18.955 59.1063 17.594C56.7793 16.301 54.1433 16.071 51.7758 17.4155C49.1098 18.9295 47.7703 21.7645 46.3053 24.317C45.5678 25.602 47.5528 26.761 48.2898 25.477" fill="#DB1606"/>
<path fill-rule="evenodd" clip-rule="evenodd" d="M15.5619 45.697C21.7819 43.046 26.4329 37.9575 27.9679 31.322C28.9379 27.1265 29.3919 22.983 33.6604 20.813C38.0024 18.6055 42.4844 21.5195 44.3839 25.5165C45.0599 26.9395 47.1729 25.698 46.4989 24.28C42.9764 16.866 33.4964 15.2935 28.4474 22.1025C25.7304 25.7665 26.2184 30.7435 24.2209 34.7435C22.1614 38.8675 18.5084 41.799 14.3254 43.582C12.8794 44.198 14.1264 46.309 15.5619 45.697" fill="#DB1606"/>
<path fill-rule="evenodd" clip-rule="evenodd" d="M49.6298 25.3994C50.9708 21.4634 55.2873 19.2474 59.2683 20.2324C60.4168 20.5169 60.9073 18.7439 59.7573 18.4594C54.7688 17.2249 49.5248 20.0139 47.8563 24.9104C47.4738 26.0334 49.2493 26.5149 49.6298 25.3994" fill="#BA0E00"/>
<path fill-rule="evenodd" clip-rule="evenodd" d="M50.5936 25.7414C51.9981 22.5649 55.1236 20.7089 58.5861 21.0209C59.7646 21.1269 59.7571 19.2879 58.5861 19.1824C54.5501 18.8184 50.6456 21.1039 49.0056 24.8134C48.5316 25.8859 50.1156 26.8224 50.5936 25.7414" fill="#BA0E00"/>
<path fill-rule="evenodd" clip-rule="evenodd" d="M51.6468 26.0752C53.3353 24.1182 55.3213 22.2082 58.0268 21.9872C59.1978 21.8922 59.2078 20.0522 58.0268 20.1482C54.7873 20.4127 52.3978 22.3982 50.3463 24.7747C49.5768 25.6667 50.8718 26.9727 51.6468 26.0752" fill="#BA0E00"/>
<path fill-rule="evenodd" clip-rule="evenodd" d="M52.7074 26.0763C54.5044 24.0423 56.9234 22.9198 59.5844 22.5323C60.7509 22.3628 60.2549 20.5908 59.0954 20.7593C56.1489 21.1878 53.3909 22.5303 51.4069 24.7758C50.6264 25.6598 51.9224 26.9653 52.7074 26.0763" fill="#BA0E00"/>
<path fill-rule="evenodd" clip-rule="evenodd" d="M54.1219 26.2529C55.3829 25.1724 57.1049 23.9894 58.8549 24.3104C60.0114 24.5229 60.5074 22.7509 59.3434 22.5374C56.8584 22.0814 54.6494 23.3869 52.8214 24.9524C51.9219 25.7234 53.2274 27.0194 54.1219 26.2529" fill="#BA0E00"/>
<path fill-rule="evenodd" clip-rule="evenodd" d="M46.5007 25.345C44.1967 19.536 37.4807 15.5005 32.2232 20.532C31.3667 21.3525 32.6687 22.651 33.5237 21.8325C37.6937 17.8415 42.9387 21.3235 44.7277 25.834C45.1587 26.9205 46.9377 26.447 46.5007 25.345" fill="#BA0E00"/>
<path fill-rule="evenodd" clip-rule="evenodd" d="M43.5086 24.7421C41.4741 23.1171 39.6621 20.8261 36.9791 20.2926C34.6861 19.8361 32.4236 20.7961 30.9821 22.5871C30.2471 23.5011 31.5401 24.8101 32.2821 23.8876C35.6861 19.6581 39.3101 23.7271 42.2081 26.0426C43.1236 26.7736 44.4336 25.4811 43.5086 24.7421" fill="#BA0E00"/>
<path fill-rule="evenodd" clip-rule="evenodd" d="M42.1297 23.6108C38.5037 22.7398 32.8732 20.3063 30.3062 24.3348C29.6682 25.3358 31.2592 26.2593 31.8937 25.2633C33.6987 22.4313 39.0827 24.7688 41.6407 25.3838C42.7912 25.6603 43.2822 23.8878 42.1297 23.6108" fill="#BA0E00"/>
<path fill-rule="evenodd" clip-rule="evenodd" d="M38.9955 25.0742C36.6665 23.3697 34.5425 23.3902 31.9675 24.5432C30.8895 25.0262 31.8235 26.6117 32.896 26.1312C34.902 25.2327 36.2885 25.3602 38.068 26.6617C39.024 27.3612 39.9425 25.7667 38.9955 25.0742" fill="#BA0E00"/>
<path fill-rule="evenodd" clip-rule="evenodd" d="M48.0257 25.3699C48.5022 20.3729 54.7672 18.7949 58.7967 19.5649C59.9527 19.7854 60.4487 18.0139 59.2857 17.7914C53.9832 16.7779 46.7852 19.0989 46.1867 25.3699C46.0747 26.5474 47.9142 26.5399 48.0257 25.3699" fill="#BA0E00"/>
<path fill-rule="evenodd" clip-rule="evenodd" d="M62.263 18.2324C61.6575 22.3684 64.583 28.9649 66.0415 31.5469C67.601 34.3079 67.591 35.6599 70.502 36.7829C73.807 38.0579 76.5675 39.5634 79.161 38.9879L76.5675 26.5139L70.5445 21.4944L62.263 18.2324Z" fill="#DB1606"/>
<path fill-rule="evenodd" clip-rule="evenodd" d="M31.6268 24.0752C31.6513 23.9962 31.8093 23.7152 31.9368 23.5232C32.1143 23.2562 32.3088 23.0027 32.5138 22.7562C32.8898 22.3037 33.2858 21.8442 33.7463 21.4742C34.1368 21.1607 34.0668 20.5017 33.7463 20.1737C33.3678 19.7872 32.8308 19.8647 32.4463 20.1737C31.9068 20.6072 31.4478 21.1577 31.0178 21.6962C30.5608 22.2697 30.0743 22.8752 29.8538 23.5857C29.5023 24.7187 31.2768 25.2037 31.6268 24.0752" fill="#BA0E00"/>
<path fill-rule="evenodd" clip-rule="evenodd" d="M58.9939 17.7821C57.3294 25.8981 63.8204 34.6181 71.4939 36.9066C72.9144 37.3301 73.5214 35.1126 72.1049 34.6896C65.7024 32.7806 59.8054 25.2441 61.2104 18.3936C61.5064 16.9496 59.2914 16.3321 58.9939 17.7821" fill="#DB1606"/>
<path fill-rule="evenodd" clip-rule="evenodd" d="M40.9305 25.1291C39.964 23.8476 38.7965 22.7906 37.386 22.0146C36.349 21.4436 35.42 23.0311 36.4585 23.6021C37.578 24.2186 38.57 25.0331 39.3425 26.0571C39.644 26.4566 40.133 26.6536 40.6005 26.3876C40.9935 26.1631 41.229 25.5251 40.9305 25.1291" fill="#BA0E00"/>
<path fill-rule="evenodd" clip-rule="evenodd" d="M42.513 25.1365C41.6615 23.727 40.529 22.5595 39.159 21.648C38.1705 20.991 37.249 22.583 38.231 23.236C39.336 23.971 40.2395 24.9295 40.9255 26.064C41.537 27.076 43.1275 26.1525 42.513 25.1365" fill="#BA0E00"/>
<path fill-rule="evenodd" clip-rule="evenodd" d="M44.5877 25.1999C43.3032 23.0934 41.5242 21.3794 39.3592 20.1934C38.3207 19.6249 37.3917 21.2114 38.4312 21.7814C40.3277 22.8204 41.8727 24.2799 42.9997 26.1279C43.6152 27.1369 45.2057 26.2139 44.5877 25.1999" fill="#BA0E00"/>
<path fill-rule="evenodd" clip-rule="evenodd" d="M44.7093 23.5157C42.8048 21.2347 40.4598 19.0962 37.2823 19.3097C36.1078 19.3887 36.0988 21.2282 37.2823 21.1487C39.9813 20.9672 41.8163 22.9072 43.4093 24.8162C44.1683 25.7252 45.4633 24.4187 44.7093 23.5157" fill="#BA0E00"/>
<path fill-rule="evenodd" clip-rule="evenodd" d="M37.0267 20.9903C36.5417 20.9363 36.0582 20.8043 35.5957 20.6443C35.1262 20.4813 34.5902 20.8298 34.4647 21.2863C34.3257 21.7923 34.6362 22.2538 35.1067 22.4173C35.7332 22.6343 36.3687 22.7553 37.0267 22.8293C37.5207 22.8848 37.9462 22.3673 37.9462 21.9098C37.9462 21.3668 37.5222 21.0458 37.0267 20.9903" fill="#BA0E00"/>
<path fill-rule="evenodd" clip-rule="evenodd" d="M26.3762 21.2422C26.3762 21.2422 33.4027 43.0757 9.81274 47.8437L10.5657 31.0297L21.1057 20.7402L26.3762 21.2422Z" fill="#DB1606"/>
<path fill-rule="evenodd" clip-rule="evenodd" d="M29.6385 16.7266C29.6385 16.7266 24.285 17.7026 22.3605 28.5216C22.3605 28.5216 18.8475 41.0696 11.3185 42.5751C11.3185 42.5751 18.796 36.8696 21.106 26.7646C23.1135 17.9816 29.6385 16.7266 29.6385 16.7266" fill="#EA2C22"/>
<path fill-rule="evenodd" clip-rule="evenodd" d="M26.2923 13.2402C26.2923 13.2402 17.9273 16.6977 16.9233 27.2937C16.9233 27.2937 15.5848 32.2012 12.7968 34.4322C12.6848 33.3167 14.3583 35.1012 16.6998 23.0552C18.2083 15.3002 26.2923 13.2402 26.2923 13.2402" fill="#EA2C22"/>
<path fill-rule="evenodd" clip-rule="evenodd" d="M62.6532 17.7012C62.6532 17.7012 63.2112 30.8622 78.6027 34.7662C78.6027 34.7662 67.7842 30.9742 62.6532 17.7012" fill="#EA2C22"/>
<path fill-rule="evenodd" clip-rule="evenodd" d="M62.7649 12.1241C62.7649 12.1241 70.7959 10.0051 72.9149 22.3856C72.9149 22.3856 69.0109 12.7936 62.7649 12.1241" fill="#EA2C22"/>
<path fill-rule="evenodd" clip-rule="evenodd" d="M26.0691 10.1177C26.0691 10.1177 31.3111 2.75623 40.0116 8.77923C40.0116 8.77923 32.7616 5.09873 26.0691 10.1177" fill="#BA0E00"/>
<path fill-rule="evenodd" clip-rule="evenodd" d="M48.7113 9.5604C48.7113 9.5604 53.1728 2.6449 62.0958 7.8869C62.0958 7.8869 53.8423 4.6529 48.7113 9.5604" fill="#BA0E00"/>
<path fill-rule="evenodd" clip-rule="evenodd" d="M42.7996 14.0205C42.7996 14.0205 38.5611 9.00101 31.9806 11.455C31.9806 11.455 37.5576 11.1205 42.7996 14.0205" fill="#EA2C22"/>
<path fill-rule="evenodd" clip-rule="evenodd" d="M32.6717 16.9681C30.1867 18.9371 28.7577 21.2736 28.3752 24.4091C27.8767 28.5046 29.4637 33.5801 26.5197 36.9456C25.4857 38.1276 27.2117 39.8676 28.2522 38.6781C30.9172 35.6311 30.6922 32.3381 30.6357 28.5376C30.5752 24.5101 31.0542 21.3551 34.4042 18.7006C35.6392 17.7216 33.8952 15.9986 32.6717 16.9681" fill="#DB1606"/>
<path fill-rule="evenodd" clip-rule="evenodd" d="M27.6684 21.8496C26.5089 22.2846 25.5644 23.1936 24.9334 24.2601C24.4409 25.0916 24.1224 26.1186 24.4649 27.0226C24.8069 27.9266 26.0319 28.4976 26.7989 27.9096C27.0569 27.7121 27.2254 27.4226 27.3879 27.1406C27.8034 26.4191 28.2189 25.6971 28.6344 24.9756C28.8134 24.6646 28.9959 24.3421 29.0339 23.9851C29.1334 23.0526 28.2234 22.3166 27.3344 22.0186" fill="#DB1606"/>
<path fill-rule="evenodd" clip-rule="evenodd" d="M8.76053 37.8125C8.76053 37.8125 1.33303 40.033 3.97103 49.7955C3.97103 49.7955 3.57203 41.245 8.76053 37.8125" fill="#BA0E00"/>
<path fill-rule="evenodd" clip-rule="evenodd" d="M75.3577 71.6367C75.3577 71.6367 72.0117 74.7597 71.9002 79.7792C71.9002 79.7792 70.0037 73.8677 75.3577 71.6367" fill="#EA2C22"/>
<path fill-rule="evenodd" clip-rule="evenodd" d="M36.5775 96.7185C36.5855 96.769 36.5935 96.8205 36.6015 96.8745C36.646 97.178 36.556 97.4915 36.351 97.7345C34.943 99.409 29.317 106.046 27.058 113.235C26.9225 113.666 27.067 114.123 27.4265 114.387C28.3415 115.06 30.262 116.786 33.6175 117.584C35.601 118.057 39.6285 117.395 42.796 118.512C45.941 119.621 50.723 118.399 53.798 116.358C53.8425 116.329 53.8875 116.304 53.936 116.281C55.3985 115.602 55.6885 115.268 59.849 115.301C59.8915 115.302 59.8205 116.33 61.9705 115.79C64.1685 115.237 65.042 115.297 66.83 113.599C67.186 113.261 67.3575 112.786 67.1825 112.35C66.2055 109.911 62.0935 101.423 56.5655 95.9825C56.337 95.7575 56.213 95.446 56.252 95.125C56.253 95.119 56.254 95.1125 56.2545 95.106C56.338 94.3755 55.65 93.8125 54.911 93.993C51.756 94.7625 42.8575 95.465 37.7325 95.43C37.0255 95.425 36.47 96.045 36.5775 96.7185" fill="#8E37A5"/>
<path fill-rule="evenodd" clip-rule="evenodd" d="M60.8519 116.318C59.0319 116.506 57.3274 116.496 55.4094 117.45C54.1519 118.076 52.6064 118.162 51.2969 118.671C49.9634 119.188 47.8014 119.064 46.3834 119.08C43.7179 119.111 41.1619 118.238 38.5104 118.062C37.3299 117.984 36.1359 118.046 34.9579 117.943C32.4264 117.723 29.2444 116.538 27.7229 115.186C27.4544 114.948 27.2499 114.683 27.1319 114.306C27.0134 113.929 27.0329 113.115 27.0999 112.92C28.5414 108.703 30.2844 105.629 32.8109 102.608C31.8764 104.228 31.3684 105.697 30.7999 106.759C29.9739 108.301 30.1229 109.379 29.4289 110.977C28.9024 112.191 28.4624 113.727 29.3624 114.656C29.7639 115.071 30.3529 115.258 30.9189 115.423C31.7144 115.656 32.5144 115.876 33.3189 116.083C33.5759 116.149 33.8554 116.213 34.1089 116.116C34.5419 115.951 34.6749 115.429 34.7559 114.987C35.4969 110.933 37.1564 107.005 39.5824 103.566C37.5279 107.103 36.3584 111.097 36.2069 115.092C36.1909 115.519 36.1954 115.978 36.4499 116.317C37.0064 117.058 38.2004 116.72 39.1604 116.608C41.8959 116.288 44.5764 118.445 47.1774 117.5C47.4064 117.417 47.6349 117.305 47.7919 117.121C47.9999 116.878 48.0494 116.549 48.0904 116.24C48.2269 115.209 48.1674 112.13 48.3039 111.099C48.5189 112.244 48.9954 116.024 49.2104 117.169C50.1159 116.945 50.9534 116.529 51.7454 116.033C51.9634 115.896 52.1839 115.74 52.2979 115.515C52.4254 115.261 52.3939 114.967 52.3594 114.692C51.9599 111.531 51.5294 107.829 51.1309 104.668C52.9349 108.617 52.9359 112.88 54.6994 115.941C58.3064 114.566 59.9049 114.935 63.4549 114.432C63.4549 114.432 65.4689 114.125 65.6464 113.043C66.0579 110.533 62.6769 104.658 61.1614 101.607C61.1614 101.607 66.0869 108.69 67.1824 112.35C67.1824 112.35 68.1724 114.029 66.0579 115.186C66.0579 115.186 64.7014 115.921 60.8519 116.318" fill="#802C8F"/>
<path fill-rule="evenodd" clip-rule="evenodd" d="M36.389 83.5729C36.389 83.5729 36.124 80.7514 36.47 79.7629C36.47 79.7629 37.273 78.8979 38.7145 79.4909C38.7145 79.4909 38.652 81.8959 39.0895 83.1409C39.0895 83.1409 37.1115 83.9064 36.389 83.5729" fill="white"/>
<path fill-rule="evenodd" clip-rule="evenodd" d="M56.681 83.3229C56.681 83.3229 57.036 80.6259 56.7045 79.6274C56.7045 79.6274 55.926 78.9624 54.4545 79.1964C54.4545 79.1964 54.445 81.7204 53.9865 82.9584C53.9865 82.9584 55.951 83.6419 56.681 83.3229" fill="white"/>
<path fill-rule="evenodd" clip-rule="evenodd" d="M58.7093 85.1312C58.7093 85.1312 58.1008 92.4797 58.1268 96.4497C58.1318 97.2162 57.6153 97.8782 56.9088 98.0027C52.9333 98.7057 40.6813 99.7867 36.6343 97.9192C36.2058 97.7217 35.9193 97.2862 35.9003 96.7842C35.8038 94.2702 35.4293 88.5532 34.7153 86.6742C34.7153 86.6742 49.7128 79.4652 58.7093 85.1312" fill="white"/>
<path fill-rule="evenodd" clip-rule="evenodd" d="M34.5189 85.6522C34.5189 85.6522 33.9139 87.0942 33.8379 88.5147C33.7544 90.0817 34.7629 89.6297 34.9314 89.5542C35.0994 89.4787 35.8169 88.5362 36.9479 88.5792C38.0909 88.6217 38.3204 89.3977 39.2209 89.2332C40.3519 89.0262 40.6634 88.5967 41.1799 88.1877C42.0154 87.5267 43.1989 87.3547 44.2299 88.0402C45.2599 88.7252 46.0014 89.0627 46.7894 88.9007C48.3659 88.5767 48.8034 87.7832 49.6444 87.4062C49.9304 87.2777 50.7109 87.0237 51.9174 88.0602C51.9174 88.0602 53.0714 89.3117 54.6939 88.4172C54.6939 88.4172 56.3799 87.8772 57.4699 88.7747C57.4699 88.7747 58.8514 90.0917 59.8524 89.2127C60.6714 88.4942 59.3799 85.0987 59.3799 85.0987C59.3799 85.0987 58.9904 84.3242 58.1139 83.9212C56.0614 82.9767 50.2879 82.5527 46.8439 82.7817C44.2984 82.9507 39.4569 83.3162 37.3044 83.8507C36.9764 83.9327 36.7104 84.0182 36.5249 84.1077C35.7184 84.4962 35.0129 84.8572 34.5189 85.6522" fill="#C2C2C2"/>
<path fill-rule="evenodd" clip-rule="evenodd" d="M34.5028 84.7985C34.5028 84.7985 33.8978 86.2405 33.8218 87.6615C33.7383 89.228 34.7473 88.776 34.9153 88.701C35.0833 88.6255 35.8008 87.683 36.9318 87.7255C38.0748 87.7685 38.3043 88.5445 39.2053 88.3795C40.3358 88.1725 40.6473 87.7435 41.1638 87.3345C41.9993 86.673 43.1833 86.501 44.2138 87.1865C45.2438 87.872 45.9853 88.209 46.7733 88.047C48.3498 87.723 48.7873 86.9295 49.6283 86.553C49.9143 86.4245 50.6953 86.17 51.9013 87.207C51.9013 87.207 53.0553 88.4585 54.6783 87.564C54.6783 87.564 56.3638 87.0235 57.4543 87.921C57.4543 87.921 58.8358 89.238 59.8368 88.359C60.6553 87.6405 59.3638 84.2455 59.3638 84.2455C59.3638 84.2455 58.9743 83.471 58.0978 83.0675C56.0453 82.123 50.2718 81.6995 46.8278 81.928C44.2823 82.0975 39.4408 82.4625 37.2888 82.9975C36.9603 83.0795 36.6943 83.1645 36.5093 83.2545C35.7023 83.643 34.9968 84.0035 34.5028 84.7985" fill="white"/>
<path fill-rule="evenodd" clip-rule="evenodd" d="M19.4364 18.7093C18.4454 15.9468 17.5414 13.2403 19.0089 10.6983C19.0889 10.5598 19.1834 10.4178 19.3289 10.3513C19.6569 10.2018 20.0099 10.5113 20.1969 10.8198C21.5244 13.0048 20.9239 15.3838 20.9924 17.8493" fill="#F1ED2B"/>
<path fill-rule="evenodd" clip-rule="evenodd" d="M20.4861 18.4184C20.1341 17.4289 19.7746 16.4349 19.5471 15.4079C19.4731 15.0729 18.9871 12.1504 19.5931 12.0119C20.0431 11.9084 19.8991 17.4054 19.9036 17.8479C19.9161 19.2489 22.0946 19.2529 22.0816 17.8479C22.0636 15.9324 22.3726 13.9544 21.8901 12.0714C21.5866 10.8874 20.7571 8.91492 19.1841 9.28092C17.7466 9.61442 17.2921 11.7944 17.1836 13.0264C17.0011 15.0814 17.7076 17.0919 18.3861 18.9974C18.8521 20.3089 20.9576 19.7434 20.4861 18.4184" fill="#F1ED2B"/>
<path fill-rule="evenodd" clip-rule="evenodd" d="M19.5707 19.0213C18.6007 18.0263 17.1602 17.5108 15.7787 17.6658C14.3977 17.8203 13.0397 18.0348 12.3142 19.2198C12.6252 20.3613 15.8407 20.9833 18.6842 19.6973" fill="#F1ED2B"/>
<path fill-rule="evenodd" clip-rule="evenodd" d="M20.3406 18.2516C18.9456 16.9511 17.2576 16.4046 15.3661 16.6261C13.9841 16.7876 12.0191 17.2266 11.3736 18.6706C10.8216 19.9051 12.1616 20.8466 13.1826 21.1871C15.0496 21.8096 17.1971 21.4816 18.9736 20.7476C20.2506 20.2201 19.6906 18.1116 18.3941 18.6471C17.4121 19.0531 13.8791 20.1491 13.2546 18.6706V19.7701C14.4551 18.1056 17.5051 18.5841 18.8001 19.7916C19.8251 20.7466 21.3686 19.2096 20.3406 18.2516" fill="#F1ED2B"/>
<path fill-rule="evenodd" clip-rule="evenodd" d="M18.5522 20.5499C17.0857 22.2274 16.2557 24.0949 16.6732 26.4059C16.7002 26.5534 16.6527 26.7134 16.7222 26.8459C16.9572 27.2949 17.6457 26.9779 17.9842 26.6014C19.6167 24.7839 20.5627 22.3644 20.5972 19.9219" fill="#F1ED2B"/>
<path fill-rule="evenodd" clip-rule="evenodd" d="M17.7815 19.7798C16.6835 21.0848 15.801 22.5173 15.56 24.2333C15.391 25.4333 15.216 27.7343 16.766 28.0988C18.3275 28.4658 19.4835 26.5988 20.1315 25.4858C21.1235 23.7838 21.613 21.8823 21.686 19.9218C21.738 18.5198 19.56 18.5218 19.5075 19.9218C19.4655 21.0498 19.265 22.1568 18.8395 23.2068C18.592 23.8168 17.6555 26.0353 16.911 25.9398C17.1675 26.0463 17.424 26.1528 17.681 26.2588C17.9185 26.4898 17.6725 25.7578 17.6605 25.5043C17.6345 24.9623 17.692 24.4443 17.8365 23.9213C18.109 22.9363 18.6695 22.0948 19.322 21.3198C20.219 20.2538 18.686 18.7058 17.7815 19.7798" fill="#F1ED2B"/>
<path fill-rule="evenodd" clip-rule="evenodd" d="M20.4192 20.2242C21.4037 22.2132 23.4812 23.6152 25.6932 23.7842C25.8847 23.7987 26.0912 23.8007 26.2517 23.6957C26.5392 23.5067 26.5357 23.0867 26.4627 22.7507C25.9977 20.6152 23.8277 19.5317 21.6497 19.2207" fill="#F1ED2B"/>
<path fill-rule="evenodd" clip-rule="evenodd" d="M19.4789 20.7741C20.2849 22.2896 21.5514 23.5066 23.1184 24.2161C24.2624 24.7336 26.3774 25.4571 27.2719 24.1761C28.1094 22.9756 27.1959 21.1926 26.3359 20.2636C25.2034 19.0396 23.5484 18.4306 21.9389 18.1706C20.5679 17.9491 19.9774 20.0476 21.3604 20.2711C22.2819 20.4201 23.2129 20.6431 24.0094 21.1531C24.3989 21.4021 24.7584 21.7011 25.0179 22.0891C25.2309 22.4076 25.2684 23.1396 25.5529 22.8676C25.8729 22.5611 24.8864 22.5566 24.6129 22.4696C24.1449 22.3201 23.7039 22.1096 23.2919 21.8426C22.4464 21.2936 21.8299 20.5586 21.3599 19.6746C20.7014 18.4366 18.8209 19.5356 19.4789 20.7741" fill="#F1ED2B"/>
<path fill-rule="evenodd" clip-rule="evenodd" d="M22.2278 19.4208C24.4478 18.9168 26.4273 17.4353 27.5368 15.4478C27.6688 15.2123 27.7923 14.9488 27.7473 14.6823C27.6823 14.2923 27.2633 14.0413 26.8683 14.0353C26.4733 14.0293 26.1013 14.2083 25.7533 14.3958C24.2328 15.2163 22.8398 16.2713 21.6383 17.5133" fill="#F1ED2B"/>
<path fill-rule="evenodd" clip-rule="evenodd" d="M22.5174 20.47C24.1039 20.071 25.5589 19.3015 26.7579 18.1845C27.7184 17.2895 29.1889 15.6795 28.7429 14.2595C28.2369 12.647 26.3989 12.8405 25.2039 13.4545C23.5939 14.2815 22.1364 15.4615 20.8679 16.742C19.8809 17.739 21.4199 19.28 22.4084 18.2825C23.0929 17.591 23.8134 16.9455 24.6089 16.383C25.0399 16.0785 25.5354 15.8445 25.9544 15.5285C26.3569 15.226 26.8519 14.5415 26.3164 15.357C25.2979 16.908 23.7199 17.9215 21.9389 18.3695C20.5799 18.7105 21.1554 20.8125 22.5174 20.47" fill="#F1ED2B"/>
<path fill-rule="evenodd" clip-rule="evenodd" d="M18.1634 16.9912C17.4314 18.0467 17.2289 19.6677 18.5484 20.3847C19.7804 21.0552 21.3314 19.9882 21.7989 18.8382C22.2629 17.6967 21.7589 16.2862 20.5834 15.8192C19.3199 15.3182 17.6804 16.3557 17.8604 17.7907C17.9329 18.3742 18.3084 18.8797 18.9489 18.8797C19.4814 18.8797 20.1114 18.3782 20.0384 17.7907C20.0104 17.5682 19.9884 17.7502 19.8924 17.8532C19.8984 17.8472 19.7034 17.8192 19.7294 17.7942C19.7774 17.7492 19.8034 17.9897 19.7669 18.0647C19.7294 18.1427 19.6734 18.2032 19.6084 18.2602C19.4094 18.4337 19.1454 18.3427 19.5144 18.5137C19.8624 18.6747 19.8244 18.4077 20.0444 18.0907C20.3804 17.6072 20.1334 16.8812 19.6534 16.6007C19.1119 16.2837 18.4999 16.5067 18.1634 16.9912" fill="#EFB92D"/>
<path fill-rule="evenodd" clip-rule="evenodd" d="M25.0228 47.6789C25.1873 44.7954 26.7078 42.9729 28.4503 42.2939C30.0983 41.3064 31.7918 41.5879 31.7918 41.5879C36.9653 41.5409 38.5933 45.4964 38.3513 48.5869C38.1298 51.4219 35.7513 54.4729 31.9403 54.5599C31.9403 54.5599 24.9243 54.5599 25.0228 47.6789" fill="white"/>
<path fill-rule="evenodd" clip-rule="evenodd" d="M34.8031 47.9106C34.8376 44.7856 33.6841 42.6851 31.9311 41.5576C32.5011 41.5276 33.7341 41.5676 34.9456 42.2941C36.6881 42.9726 38.2091 44.7956 38.3736 47.6786C38.4721 54.5596 31.4561 54.5596 31.4561 54.5596C31.3541 54.5571 31.2536 54.5516 31.1536 54.5451C33.1286 53.5896 34.7636 51.4471 34.8031 47.9106" fill="white"/>
<path fill-rule="evenodd" clip-rule="evenodd" d="M25.0447 48.5881C24.8032 45.4971 26.4302 41.5416 31.6042 41.5891C31.6042 41.5891 31.7252 41.5696 31.9307 41.5586C33.6837 42.6861 34.8377 44.7866 34.8032 47.9116C34.7632 51.4486 33.1287 53.5911 31.1537 54.5461C27.5192 54.3101 25.2602 51.3476 25.0447 48.5881" fill="#94215A"/>
<path fill-rule="evenodd" clip-rule="evenodd" d="M68.5975 47.6789C68.433 44.7954 66.912 42.9729 65.17 42.2939C63.522 41.3064 61.8285 41.5879 61.8285 41.5879C56.655 41.5409 55.027 45.4964 55.269 48.5869C55.49 51.4219 57.8685 54.4729 61.68 54.5599C61.68 54.5599 68.696 54.5599 68.5975 47.6789" fill="white"/>
<path fill-rule="evenodd" clip-rule="evenodd" d="M65.0066 48.5878C65.2206 45.8473 63.9626 42.4288 60.0686 41.7223C61.1571 41.4483 62.0161 41.5888 62.0161 41.5888C67.1891 41.5413 68.8171 45.4968 68.5756 48.5878C68.3536 51.4228 65.9756 54.4733 62.1641 54.5603C62.1641 54.5603 61.3721 54.5588 60.3261 54.2988C63.1181 53.4933 64.8206 50.9648 65.0066 48.5878" fill="white"/>
<path fill-rule="evenodd" clip-rule="evenodd" d="M55.2469 47.6782C55.4114 44.7947 56.9319 42.9722 58.6744 42.2932C59.1499 42.0082 59.6279 41.8317 60.0689 41.7207C63.9629 42.4272 65.2204 45.8457 65.0069 48.5862C64.8204 50.9632 63.1179 53.4917 60.3259 54.2972C58.2549 53.7822 55.1814 52.2492 55.2469 47.6782" fill="#94215A"/>
<path fill-rule="evenodd" clip-rule="evenodd" d="M56.1429 43.3295C56.1429 43.3295 62.4759 38.789 68.2559 44.5615C68.2559 44.5615 62.9264 38.15 56.1429 43.3295" fill="#84592D"/>
<path fill-rule="evenodd" clip-rule="evenodd" d="M68.2557 45.3473C68.0547 45.3473 67.8532 45.2703 67.7007 45.1173C62.4752 39.8993 56.8372 43.7998 56.5997 43.9688C56.2492 44.2168 55.7652 44.1398 55.5107 43.7948C55.2567 43.4498 55.3257 42.9648 55.6657 42.7048C62.9642 37.1313 68.8017 43.9888 68.8602 44.0588C69.1282 44.3818 69.0957 44.8583 68.7857 45.1418C68.6352 45.2788 68.4452 45.3473 68.2557 45.3473" fill="#723E1A"/>
<path fill-rule="evenodd" clip-rule="evenodd" d="M67.5096 43.0692C67.5096 43.0692 68.3786 43.0827 69.5176 42.4982C70.0646 42.2172 70.1011 42.7232 70.0541 43.0237C69.9311 43.8182 69.3591 44.7772 68.6026 45.2047L67.5096 43.0692Z" fill="#723E1A"/>
<path fill-rule="evenodd" clip-rule="evenodd" d="M37.2772 43.3295C37.2772 43.3295 30.9442 38.789 25.1642 44.5615C25.1642 44.5615 30.4937 38.15 37.2772 43.3295" fill="#84592D"/>
<path fill-rule="evenodd" clip-rule="evenodd" d="M25.1644 45.3472C24.9749 45.3472 24.7849 45.2787 24.6349 45.1417C24.3244 44.8582 24.2919 44.3817 24.5604 44.0587C24.6184 43.9892 30.4554 37.1312 37.7544 42.7047C38.0949 42.9647 38.1644 43.4517 37.9089 43.7962C37.6539 44.1412 37.1704 44.2182 36.8204 43.9687C36.5834 43.7997 30.9444 39.8997 25.7194 45.1172C25.5669 45.2702 25.3654 45.3472 25.1644 45.3472" fill="#723E1A"/>
<path fill-rule="evenodd" clip-rule="evenodd" d="M25.9105 43.0692C25.9105 43.0692 25.0415 43.0827 23.9025 42.4982C23.3555 42.2172 23.319 42.7232 23.3655 43.0237C23.489 43.8182 24.061 44.7772 24.817 45.2047L25.9105 43.0692Z" fill="#723E1A"/>
</svg>
