<svg width="100" height="147" viewBox="0 0 100 147" fill="none" xmlns="http://www.w3.org/2000/svg">
<path fill-rule="evenodd" clip-rule="evenodd" d="M38.6379 115.256L38.6664 137.808H45.0594L45.3959 115.448L38.6379 115.256Z" fill="#BE8751"/>
<path fill-rule="evenodd" clip-rule="evenodd" d="M41.6325 131.451L38.5955 131.289C38.5955 131.289 38.5545 131.296 38.498 132.305C38.4415 133.327 38.518 138.193 38.518 138.193L36.7305 140.867L45.2115 141.07L45.1575 133.171C45.1575 133.171 45.362 131.416 45.109 131.416C45.109 131.416 42.704 131.443 41.6325 131.451" fill="white"/>
<path fill-rule="evenodd" clip-rule="evenodd" d="M60.9426 115.256L60.9136 137.808H54.5206L54.1841 115.448L60.9426 115.256Z" fill="#BE8751"/>
<path fill-rule="evenodd" clip-rule="evenodd" d="M57.9474 131.451L60.9844 131.289C60.9844 131.289 61.0259 131.296 61.0824 132.305C61.1389 133.327 61.0619 138.193 61.0619 138.193L62.8494 140.867L54.3689 141.07L54.4224 133.171C54.4224 133.171 54.2184 131.416 54.4714 131.416C54.4714 131.416 56.8759 131.443 57.9474 131.451" fill="white"/>
<path fill-rule="evenodd" clip-rule="evenodd" d="M62.0443 136.843C62.0443 136.843 62.6598 134.215 61.3053 134.256C61.3053 134.256 59.1708 134.215 57.9563 134.819C57.5738 135.01 57.4043 135.47 57.4328 135.897C57.4713 136.479 57.5513 137.343 57.4463 138.157C57.4463 138.239 57.7338 139.183 58.2673 139.265C58.8013 139.347 60.6073 138.649 60.9768 138.362C61.3463 138.075 62.2493 137.664 62.0443 136.843" fill="#FFC139"/>
<path fill-rule="evenodd" clip-rule="evenodd" d="M61.9621 136.843C59.4166 136.72 58.1031 138.293 57.9386 138.321C57.7746 138.348 57.6106 138.075 57.6106 138.075C57.3201 137.165 57.6791 136.583 57.4051 135.652C57.3101 135.33 57.0671 135.07 56.7466 134.97C56.0766 134.761 54.7821 134.762 54.0596 134.825C53.6421 134.861 53.3001 135.172 53.2321 135.585C53.0016 136.988 53.0131 139.646 53.4641 141.277C56.2496 143.604 59.3716 145.91 63.3021 146.397C64.8156 146.585 66.3281 146.081 67.2871 144.806C67.7766 144.157 68.0031 143.349 67.8556 142.549C67.7016 141.711 67.2466 141.334 66.6696 140.661C65.6841 139.511 64.4891 138.415 62.7596 137.666C62.8926 136.689 63.0091 136.48 62.7831 135.201C62.7831 135.201 62.7831 134.379 62.0031 134.667C62.0031 134.667 62.2491 136.432 61.9621 136.843" fill="#F6921E"/>
<path fill-rule="evenodd" clip-rule="evenodd" d="M62.3674 141.645C62.0119 141.708 61.6889 141.676 61.4564 141.468C61.2104 141.248 61.1869 140.809 61.4689 140.606C62.5859 139.8 64.0919 139.046 65.3324 138.961C65.7284 139.096 66.2434 139.499 66.0994 139.819C65.7889 140.51 64.9814 140.538 64.5379 140.725C64.0614 140.927 63.1384 141.509 62.3674 141.645" fill="white"/>
<path fill-rule="evenodd" clip-rule="evenodd" d="M60.9377 140.101C60.6252 140.23 60.2947 140.137 60.0332 139.986C59.7472 139.819 59.7042 139.347 60.2382 138.937C61.3292 138.097 62.3207 137.541 63.5632 137.541C64.0557 137.541 64.7537 138.198 63.9272 138.628C63.2332 138.988 61.9622 139.676 60.9377 140.101" fill="white"/>
<path fill-rule="evenodd" clip-rule="evenodd" d="M59.2264 138.432C58.9034 138.532 58.5829 138.409 58.3369 138.234C58.0674 138.042 58.0679 137.568 58.6364 137.209C59.8004 136.473 60.8394 136.01 62.0764 136.125C62.5674 136.17 63.2014 136.888 62.3389 137.24C61.6149 137.535 60.2854 138.103 59.2264 138.432" fill="white"/>
<path fill-rule="evenodd" clip-rule="evenodd" d="M66.9294 140.825C66.1904 140.251 64.7124 140.743 63.5634 141.564C62.7839 142.121 61.9619 143.453 62.0854 145.054C62.0854 145.054 64.1104 146.326 67.3129 144.684C67.3129 144.684 68.9964 142.433 66.9294 140.825" fill="#CBCBCB"/>
<path fill-rule="evenodd" clip-rule="evenodd" d="M54.423 138.356C54.2665 137.976 54.2135 137.498 54.3305 137.083C54.596 136.145 55.6175 135.931 55.9765 136.894C56.3925 137.806 55.8145 139.098 55.1395 139.043C54.841 139.019 54.5795 138.736 54.423 138.356" fill="#FFC139"/>
<path fill-rule="evenodd" clip-rule="evenodd" d="M67.4632 144.396C67.4812 144.316 64.4667 146.531 59.6632 144.191C55.6467 142.234 53.2587 140.209 53.2587 140.209C53.2587 140.209 53.0127 141.604 54.1617 142.467C55.5507 143.508 58.4727 145.464 62.0717 146.243C65.2767 146.938 67.1897 145.628 67.4632 144.396" fill="#B2B2B2"/>
<path fill-rule="evenodd" clip-rule="evenodd" d="M37.5364 136.843C37.5364 136.843 36.9204 134.215 38.2754 134.256C38.2754 134.256 40.4099 134.215 41.6239 134.819C42.0069 135.01 42.1759 135.47 42.1479 135.897C42.1089 136.479 42.0289 137.343 42.1339 138.157C42.1339 138.239 41.8469 139.183 41.3134 139.265C40.7794 139.347 38.9729 138.649 38.6039 138.362C38.2344 138.075 37.3309 137.664 37.5364 136.843" fill="#FFC139"/>
<path fill-rule="evenodd" clip-rule="evenodd" d="M37.6184 136.843C40.1639 136.72 41.4774 138.293 41.6414 138.321C41.8059 138.348 41.9699 138.075 41.9699 138.075C42.2599 137.165 41.9014 136.583 42.1749 135.652C42.2699 135.33 42.5134 135.07 42.8339 134.97C43.5039 134.761 44.7979 134.762 45.5209 134.825C45.9379 134.861 46.2804 135.172 46.3484 135.585C46.5789 136.988 46.5674 139.646 46.1164 141.277C43.3309 143.604 40.2089 145.91 36.2779 146.397C34.7649 146.585 33.2524 146.081 32.2929 144.806C31.8039 144.157 31.5774 143.349 31.7249 142.549C31.8784 141.711 32.3334 141.334 32.9109 140.661C33.8964 139.511 35.0914 138.415 36.8204 137.666C36.6879 136.689 36.5714 136.48 36.7969 135.201C36.7969 135.201 36.7969 134.379 37.5774 134.667C37.5774 134.667 37.3309 136.432 37.6184 136.843" fill="#F6921E"/>
<path fill-rule="evenodd" clip-rule="evenodd" d="M37.213 141.645C37.5685 141.708 37.8915 141.676 38.124 141.468C38.37 141.248 38.3935 140.809 38.1115 140.606C36.9945 139.8 35.4885 139.046 34.248 138.961C33.852 139.096 33.337 139.499 33.481 139.819C33.7915 140.51 34.5985 140.538 35.042 140.725C35.519 140.927 36.442 141.509 37.213 141.645" fill="white"/>
<path fill-rule="evenodd" clip-rule="evenodd" d="M38.6429 140.101C38.9554 140.23 39.2854 140.137 39.5474 139.986C39.8334 139.819 39.8764 139.347 39.3424 138.937C38.2514 138.097 37.2594 137.541 36.0174 137.541C35.5249 137.541 34.8264 138.198 35.6534 138.628C36.3469 138.988 37.6184 139.676 38.6429 140.101" fill="white"/>
<path fill-rule="evenodd" clip-rule="evenodd" d="M40.3541 138.432C40.6771 138.532 40.9971 138.409 41.2436 138.234C41.5131 138.042 41.5126 137.568 40.9436 137.209C39.7796 136.473 38.7406 136.01 37.5041 136.125C37.0131 136.17 36.3791 136.888 37.2416 137.24C37.9656 137.535 39.2946 138.103 40.3541 138.432" fill="white"/>
<path fill-rule="evenodd" clip-rule="evenodd" d="M32.6505 140.825C33.39 140.251 34.8675 140.743 36.017 141.564C36.796 142.121 37.6185 143.453 37.4945 145.054C37.4945 145.054 35.47 146.326 32.2675 144.684C32.2675 144.684 30.5835 142.433 32.6505 140.825" fill="#CBCBCB"/>
<path fill-rule="evenodd" clip-rule="evenodd" d="M45.1569 138.356C45.3139 137.976 45.3669 137.498 45.2499 137.083C44.9844 136.145 43.9629 135.931 43.6039 136.894C43.1879 137.806 43.7659 139.098 44.4409 139.043C44.7394 139.019 45.0004 138.736 45.1569 138.356" fill="#FFC139"/>
<path fill-rule="evenodd" clip-rule="evenodd" d="M32.1168 144.396C32.0993 144.316 35.1138 146.531 39.9173 144.191C43.9333 142.234 46.3213 140.209 46.3213 140.209C46.3213 140.209 46.5678 141.604 45.4188 142.467C44.0298 143.508 41.1073 145.464 37.5083 146.243C34.3038 146.938 32.3908 145.628 32.1168 144.396" fill="#B2B2B2"/>
<path fill-rule="evenodd" clip-rule="evenodd" d="M36.4513 108.457C36.4513 111.999 36.3668 118.571 36.6198 123.443C41.2203 123.496 42.3748 123.742 46.8853 123.482L47.4128 120.51L51.5363 120.436L52.1343 123.229C56.5243 123.678 58.8523 123.512 62.8428 123.512C63.0918 119.937 63.2583 113.452 63.2643 108.963" fill="#63524B"/>
<path fill-rule="evenodd" clip-rule="evenodd" d="M47.7145 99.1236C41.107 97.0391 36.344 89.3496 36.344 89.3496C37.356 86.9746 41.6665 86.8876 41.6665 86.8876L43.774 86.3821L43.765 81.7636L54.306 81.6426L54.5155 85.9591L57.2265 86.5556C57.2265 86.5556 60.233 87.3306 61.9155 89.3496L58.3765 94.3071L55.106 97.7036L47.7145 99.1236" fill="#B17A47"/>
<path fill-rule="evenodd" clip-rule="evenodd" d="M23.0612 60.6376C23.0742 67.2186 19.8107 67.5961 16.0477 67.6641C11.0387 67.7546 7.59017 63.8851 8.43067 59.3426C9.17417 55.3311 12.5412 53.6306 16.4222 53.6231C20.3032 53.6151 23.0497 54.7041 23.0612 60.6376" fill="#B17A47"/>
<path fill-rule="evenodd" clip-rule="evenodd" d="M72.3533 59.5669C72.3403 66.1479 75.1583 66.8544 78.9218 66.9129C84.3048 66.9969 86.4003 63.4679 86.4078 59.5949C86.4158 55.7224 83.2758 52.5764 79.3943 52.5684C75.5133 52.5604 72.3648 53.6334 72.3533 59.5669" fill="#B17A47"/>
<path fill-rule="evenodd" clip-rule="evenodd" d="M18.359 36.9628C18.314 40.2643 17.078 43.5788 16.63 46.8493C15.244 56.9603 15.637 67.1288 22.0735 73.7353C28.7835 80.6213 38.5675 83.8828 52.057 83.7118C60.2815 83.6078 76.9735 77.6188 79.966 66.6643C80.5775 64.4258 80.528 61.0113 79.234 56.2088C78.152 52.1938 78.2485 45.2183 78.963 40.1198C78.963 40.1198 77.393 30.0148 70.6075 27.6553C63.8225 25.2958 51.954 24.1328 51.954 24.1328L39.571 24.5868L31.5235 26.5988C31.5235 26.5988 18.4575 29.7233 18.359 36.9628" fill="#BE8751"/>
<path fill-rule="evenodd" clip-rule="evenodd" d="M82.2878 49.979C81.7178 52.2765 81.1238 55.034 79.4203 56.518C78.7773 57.078 77.7713 56.591 77.8108 55.717C77.8113 55.7115 77.8113 55.7055 77.8118 55.6995C78.2928 47.0765 79.1043 40.682 75.9858 34.747C75.7423 34.283 75.1603 33.4965 75.4603 33.0745C75.9628 32.368 65.5588 14.761 66.3523 14.9865C79.3903 18.6875 83.5078 32.3055 83.5078 35.5945C83.5078 41.228 83.1548 46.4815 82.2878 49.979" fill="#563A36"/>
<path fill-rule="evenodd" clip-rule="evenodd" d="M80.4098 37.1372C77.9413 8.00417 47.4823 11.2547 47.4823 11.2547C14.3108 11.1102 13.2983 36.4057 13.2983 36.4057C13.2983 36.4057 19.4673 38.3677 20.0558 36.9267C23.9453 27.4037 30.3753 28.4097 35.7483 26.8002C37.6193 26.2397 42.4543 24.9337 50.4353 24.7882C55.9678 24.6877 60.0918 24.6877 65.7253 26.5992C72.9378 29.0457 76.1068 34.7947 76.5893 35.5517" fill="#563A36"/>
<path fill-rule="evenodd" clip-rule="evenodd" d="M13.5516 50.8249C14.1216 53.1219 15.2486 55.0349 16.9521 56.5189C17.5946 57.0789 18.6006 56.5914 18.5616 55.7174C18.5611 55.7119 18.4466 53.7659 18.4466 53.7599C17.9656 45.1364 18.5806 42.1584 20.4581 35.9884C20.6106 35.4874 22.2331 29.5694 21.9341 29.1479C21.4316 28.4409 27.7086 16.4364 26.9171 16.6694C15.4891 20.0339 12.1541 30.1604 12.1541 33.4494C12.1541 40.4239 12.6846 47.3274 13.5516 50.8249" fill="#563A36"/>
<path fill-rule="evenodd" clip-rule="evenodd" d="M34.1964 65.5154C34.2024 68.2684 31.2044 70.5054 27.5004 70.5129C23.7969 70.5204 20.7899 68.2949 20.7849 65.5424C20.7794 62.7894 23.7774 60.5519 27.4809 60.5449C31.1844 60.5374 34.1909 62.7629 34.1964 65.5154" fill="#C89261"/>
<path fill-rule="evenodd" clip-rule="evenodd" d="M76.9865 65.6014C76.992 68.3539 73.994 70.5909 70.29 70.5989C66.5865 70.6064 63.5805 68.3809 63.5745 65.6279C63.569 62.8754 66.567 60.6379 70.2705 60.6309C73.9745 60.6234 76.9805 62.8484 76.9865 65.6014" fill="#C89261"/>
<path fill-rule="evenodd" clip-rule="evenodd" d="M27.2176 53.7692C27.3836 50.8702 28.9126 49.0372 30.6651 48.3547C32.3216 47.3617 34.0246 47.6447 34.0246 47.6447C39.2271 47.5967 40.8641 51.5747 40.6211 54.6827C40.3976 57.5332 38.0061 60.6012 34.1741 60.6887C34.1741 60.6887 27.1191 60.6887 27.2176 53.7692" fill="white"/>
<path fill-rule="evenodd" clip-rule="evenodd" d="M30.8083 54.0027C30.7733 50.8597 31.9333 48.7477 33.6958 47.6142C33.1228 47.5842 31.8823 47.6242 30.6648 48.3542C28.9123 49.0367 27.3833 50.8697 27.2173 53.7687C27.1188 60.6882 34.1738 60.6882 34.1738 60.6882C34.2763 60.6857 34.3773 60.6802 34.4778 60.6737C32.4913 59.7132 30.8478 57.5582 30.8083 54.0027" fill="white"/>
<path fill-rule="evenodd" clip-rule="evenodd" d="M40.6209 54.6818C40.8634 51.5738 39.2269 47.5958 34.0249 47.6438C34.0249 47.6438 33.9024 47.6243 33.6959 47.6133C31.9334 48.7473 30.7734 50.8588 30.8084 54.0023C30.8479 57.5578 32.4914 59.7128 34.4779 60.6728C38.1319 60.4358 40.4039 57.4563 40.6209 54.6818" fill="#542E29"/>
<path fill-rule="evenodd" clip-rule="evenodd" d="M71.035 53.7692C70.8695 50.8702 69.34 49.0372 67.588 48.3547C65.931 47.3617 64.228 47.6447 64.228 47.6447C59.026 47.5967 57.389 51.5747 57.632 54.6827C57.855 57.5332 60.2465 60.6012 64.079 60.6887C64.079 60.6887 71.134 60.6887 71.035 53.7692" fill="white"/>
<path fill-rule="evenodd" clip-rule="evenodd" d="M61.221 54.6816C61.0055 51.9256 62.2705 48.4881 66.1865 47.7776C65.0915 47.5026 64.228 47.6436 64.228 47.6436C59.026 47.5956 57.389 51.5736 57.632 54.6816C57.855 57.5321 60.2465 60.6001 64.079 60.6876C64.079 60.6876 64.8755 60.6861 65.9275 60.4241C63.1205 59.6141 61.408 57.0716 61.221 54.6816" fill="white"/>
<path fill-rule="evenodd" clip-rule="evenodd" d="M71.0348 53.7693C70.8693 50.8703 69.3398 49.0373 67.5878 48.3548C67.1098 48.0688 66.6293 47.8903 66.1863 47.7793C62.2703 48.4893 61.0053 51.9268 61.2208 54.6828C61.4078 57.0728 63.1203 59.6153 65.9273 60.4258C68.0103 59.9078 71.1008 58.3658 71.0348 53.7693" fill="#542E29"/>
<path fill-rule="evenodd" clip-rule="evenodd" d="M58.511 49.3955C58.511 49.3955 64.879 44.83 70.691 50.6345C70.691 50.6345 65.3325 44.187 58.511 49.3955" fill="#8D592D"/>
<path fill-rule="evenodd" clip-rule="evenodd" d="M70.6911 51.424C70.4891 51.424 70.2866 51.347 70.1326 51.193C64.8791 45.948 59.2086 49.8695 58.9701 50.0385C58.6181 50.2885 58.1316 50.211 57.8751 49.863C57.6196 49.5165 57.6886 49.029 58.0316 48.7675C65.3691 43.1635 71.2396 50.0585 71.2991 50.129C71.5686 50.454 71.5356 50.933 71.2236 51.2175C71.0726 51.3555 70.8816 51.424 70.6911 51.424" fill="#562920"/>
<path fill-rule="evenodd" clip-rule="evenodd" d="M39.5403 49.3955C39.5403 49.3955 33.1723 44.83 27.3608 50.6345C27.3608 50.6345 32.7188 44.187 39.5403 49.3955" fill="#8D592D"/>
<path fill-rule="evenodd" clip-rule="evenodd" d="M27.3605 51.4245C27.17 51.4245 26.979 51.356 26.828 51.218C26.516 50.934 26.483 50.4545 26.7525 50.1295C26.8115 50.059 32.68 43.163 40.0195 48.768C40.363 49.0295 40.4325 49.5185 40.1755 49.866C39.919 50.2125 39.432 50.289 39.0805 50.039C38.833 49.863 33.168 45.9505 27.919 51.1935C27.765 51.3475 27.5625 51.4245 27.3605 51.4245" fill="#562920"/>
<path fill-rule="evenodd" clip-rule="evenodd" d="M49.8714 58.1158C49.4014 58.1158 49.0134 57.7418 48.9999 57.2688C48.9859 56.7873 49.3644 56.3853 49.8464 56.3713C51.4814 56.3233 51.8379 55.5623 51.9634 54.9943C52.1679 54.0728 51.9729 52.8463 50.7509 52.4188C50.5444 52.3468 50.3574 52.2668 50.1809 52.1903C49.7074 51.9863 49.5819 51.9493 49.3494 52.0268C49.1074 52.1088 48.8399 52.0783 48.6214 51.9453C48.4024 51.8128 48.2529 51.5903 48.2124 51.3378L47.8054 48.8088C47.7289 48.3328 48.0524 47.8848 48.5279 47.8088C49.0049 47.7293 49.4524 48.0558 49.5279 48.5313L49.8059 50.2588C50.2179 50.3058 50.5674 50.4568 50.8734 50.5883C51.0134 50.6493 51.1619 50.7138 51.3264 50.7718C53.1634 51.4138 54.1259 53.3053 53.6669 55.3718C53.4479 56.3613 52.6664 58.0343 49.8974 58.1153C49.8884 58.1158 49.8804 58.1158 49.8714 58.1158" fill="#9A6745"/>
<path fill-rule="evenodd" clip-rule="evenodd" d="M60.6965 42.7967C60.3825 42.7967 60.074 42.6522 59.877 42.3817C59.5635 41.9507 59.634 41.3527 60.0435 41.0122C63.522 38.1152 67.7655 38.6947 67.9445 38.7197C68.437 38.7912 68.8045 39.2112 68.8105 39.7092C68.816 40.2072 68.458 40.6357 67.967 40.7187C62.993 41.5592 61.257 42.6287 61.24 42.6397C61.072 42.7452 60.8835 42.7967 60.6965 42.7967" fill="#562920"/>
<path fill-rule="evenodd" clip-rule="evenodd" d="M38.9187 43.2003C38.7597 43.2003 38.5982 43.1628 38.4487 43.0843C38.3942 43.0573 36.5557 42.1638 31.5762 41.7788C31.0797 41.7403 30.6852 41.3463 30.6457 40.8498C30.6067 40.3533 30.9347 39.9018 31.4192 39.7863C31.5947 39.7433 35.7682 38.7843 39.4942 41.3558C39.9362 41.6608 40.0632 42.2583 39.7832 42.7163C39.5932 43.0268 39.2607 43.2003 38.9187 43.2003" fill="#562920"/>
<path fill-rule="evenodd" clip-rule="evenodd" d="M17.6418 29.4143C16.2178 31.0063 13.0123 30.0158 11.6063 28.4083C10.1973 26.7993 9.88979 23.6538 11.2038 21.9703C12.4393 20.3868 14.2968 19.1113 16.2838 19.4023C18.2708 19.6928 20.0243 21.5038 19.9348 23.5098C19.8848 24.6338 18.9913 25.8603 17.8823 25.6723C17.3493 25.5813 16.9203 25.1903 16.5673 24.7803C14.5268 22.4113 12.7043 16.4493 14.5113 13.6098C16.1903 10.9718 19.4158 10.0778 22.5268 10.3913C23.8653 10.5263 26.0298 12.4743 26.8343 13.5533C28.2323 15.4293 27.0548 18.5893 24.7708 19.0933C22.3103 19.6363 21.3813 16.7788 21.2353 14.2638C21.0898 11.7488 22.4813 9.87034 23.9453 7.82034C24.5908 6.91684 26.3613 4.85984 29.8468 4.60134C33.2043 4.35284 35.1848 6.39384 36.2788 8.72084C37.3733 11.0483 36.4548 14.2558 34.0998 15.2883C33.1873 12.4568 33.9313 9.18434 35.8828 6.93884C37.8353 4.69384 40.9013 3.50684 43.8683 3.72084C45.7228 3.85484 47.5898 4.54434 48.8648 5.89684C50.1408 7.24934 50.7178 9.31984 50.0368 11.0498C49.5693 12.2368 48.2083 13.2413 47.0518 12.7018C46.1883 12.2988 45.8488 11.2258 45.8733 10.2728C45.9423 7.58084 48.1513 5.34384 50.6313 4.29484C52.8393 3.36034 55.4278 3.16284 57.6238 4.12584C59.8193 5.08834 61.5008 7.32684 61.4543 9.72384C61.4078 12.1203 59.3818 14.4183 56.9853 14.4453C56.6323 14.4488 56.2518 14.3958 55.9968 14.1523C55.6843 13.8543 55.6563 13.3693 55.6898 12.9388C55.9873 9.05484 59.9868 6.13434 63.8258 5.47684C68.3443 4.70184 70.9073 6.39734 72.2168 7.80034C74.0248 9.73684 74.6303 13.0758 73.3763 16.6703C73.0603 17.5748 72.2588 18.6703 71.4018 18.2423C71.0248 18.0548 70.8368 17.6203 70.7703 17.2043C70.4508 15.2018 72.3123 13.4443 74.2563 12.8653C77.5538 11.8833 81.6008 13.5678 82.7278 16.8193C83.8543 20.0708 81.1763 24.1913 77.7393 24.0123C78.4248 23.0303 79.1453 22.0168 80.1883 21.4288C81.2313 20.8413 82.1363 21.6413 82.9428 22.5263C83.5033 23.1408 85.6428 25.2138 85.6428 27.5518C85.6428 29.4878 85.1938 29.9378 84.3518 30.7788C83.5773 31.5538 82.3213 31.8723 80.6083 31.6828C79.6553 31.5773 77.4683 30.4788 77.2733 29.5403" fill="#563A36"/>
<mask id="mask0" mask-type="alpha" maskUnits="userSpaceOnUse" x="6" y="0" width="84" height="36">
<path fill-rule="evenodd" clip-rule="evenodd" d="M6.86938 0H89.1362V35.2304H6.86938V0Z" fill="white"/>
</mask>
<g mask="url(#mask0)">
<path fill-rule="evenodd" clip-rule="evenodd" d="M53.4742 7.07506C53.5827 7.44006 53.6662 7.81106 53.7247 8.18406C53.9742 7.77606 54.2527 7.37706 54.5607 6.98856C54.2072 6.98406 53.8427 7.01156 53.4742 7.07506M27.4012 9.16856C28.4567 10.0556 29.2687 10.9746 29.6352 11.4666C29.8637 11.7731 30.0627 12.0971 30.2317 12.4351C30.2757 10.9791 30.5782 9.52306 31.1202 8.15756C30.7137 8.04256 30.3557 8.06806 30.1047 8.08656C28.8527 8.17956 27.9872 8.64656 27.4012 9.16856M17.2852 16.0356C17.5087 16.0841 17.7292 16.1421 17.9452 16.2101C17.8772 15.8156 17.8272 15.4286 17.7922 15.0571C17.6712 15.1866 17.5592 15.3296 17.4592 15.4866C17.3752 15.6181 17.3177 15.8056 17.2852 16.0356M81.0907 28.2216C81.5982 28.2696 81.8737 28.2291 81.9872 28.2031C82.0367 28.1536 82.0862 28.1036 82.1292 28.0591C82.1387 27.9576 82.1492 27.7951 82.1492 27.5531C82.1492 27.3826 82.0752 27.0651 81.7237 26.5251C81.1462 26.8416 80.5387 27.0856 79.9137 27.2526C80.0742 27.4376 80.2162 27.6406 80.3362 27.8586C80.5597 27.9986 80.8887 28.1591 81.0907 28.2216M81.5142 35.2306C81.1082 35.2306 80.6787 35.2071 80.2242 35.1566C78.8197 35.0016 74.5262 33.4926 73.8527 30.2531C73.5487 28.7941 74.2037 27.3571 75.3882 26.5981C75.0672 26.3061 74.7972 25.9516 74.6007 25.5476C74.0432 24.4076 74.1482 23.0546 74.8747 22.0136C75.6512 20.9006 76.7152 19.3771 78.4722 18.3866C78.7392 18.2361 79.0602 18.0851 79.4267 17.9656C79.4267 17.9651 79.4262 17.9646 79.4262 17.9636C79.1282 17.1041 78.2007 16.4421 77.1482 16.1896C77.0222 16.7331 76.8647 17.2781 76.6747 17.8221C76.3842 18.6541 75.4892 20.6761 73.4482 21.5061C72.2627 21.9871 70.9827 21.9391 69.8417 21.3701C68.5007 20.7026 67.5797 19.3851 67.3197 17.7561C66.8832 15.0196 68.2437 12.6481 70.2177 11.1001C70.0702 10.7266 69.8797 10.4181 69.6632 10.1861C68.5912 9.03756 66.9937 8.58856 64.9132 8.84756C64.9422 9.16056 64.9537 9.47606 64.9472 9.79256C64.8627 14.1616 61.2347 17.8926 57.0242 17.9396C55.2747 17.9531 54.1947 17.2646 53.5827 16.6786C53.0472 16.1686 52.4517 15.3386 52.2542 14.0821C51.5727 14.9106 50.6972 15.5686 49.7272 15.9556C48.3477 16.5061 46.8727 16.4751 45.5742 15.8691C43.5387 14.9186 42.3152 12.7406 42.3807 10.1846C42.4067 9.16056 42.6217 8.15306 43.0022 7.19406C41.8742 7.22856 40.7472 7.57206 39.8057 8.15206C40.4187 10.0086 40.3757 12.0836 39.6632 13.9806C38.8857 16.0521 37.4082 17.6536 35.5032 18.4891C34.5977 18.8861 33.5667 18.8811 32.6662 18.4756C31.8312 18.1001 31.1797 17.4131 30.8477 16.5661C30.7702 17.0661 30.6407 17.5661 30.4577 18.0581C29.6042 20.3501 27.7597 22.0126 25.5242 22.5061C24.7967 22.6666 24.0757 22.6951 23.3862 22.5986C23.4272 22.9506 23.4412 23.3076 23.4247 23.6666C23.3497 25.3706 22.5317 27.0126 21.2372 28.0576C21.1422 28.1346 21.0447 28.2081 20.9457 28.2771C21.3432 29.4351 21.1197 30.7676 20.2457 31.7446C19.1082 33.0171 17.4592 33.7161 15.6002 33.7161H15.5597C13.1467 33.7031 10.5627 32.5231 8.97672 30.7101C6.39072 27.7556 6.14922 22.7696 8.44922 19.8221C9.02672 19.0816 9.66372 18.4356 10.3422 17.8926C10.1537 15.6516 10.4707 13.4526 11.5637 11.7351C13.3957 8.85656 16.5732 7.12706 20.3372 6.87056C20.5572 6.55306 20.7787 6.24306 20.9962 5.93906L21.1022 5.79056C22.2417 4.19556 24.8592 1.46856 29.5887 1.11806C31.8052 0.95356 33.8357 1.47156 35.5532 2.59156C38.0107 0.89356 41.0847 0.0235599 44.1202 0.23706C45.7212 0.35306 47.2242 0.75456 48.5497 1.40856C48.7842 1.29206 49.0247 1.18156 49.2697 1.07806C52.5357 -0.30444 56.0922 -0.35994 59.0267 0.92706C59.9222 1.31956 60.7417 1.83406 61.4667 2.44156C62.0327 2.27606 62.6222 2.13956 63.2357 2.03406C69.5182 0.95606 73.1612 3.69156 74.7712 5.41806C75.7462 6.46206 76.4702 7.72006 76.9307 9.11256C80.9707 9.37906 84.7252 11.9156 86.0287 15.6761C86.5942 17.3091 86.6157 19.1216 86.1407 20.8406C87.2717 22.1051 89.1362 24.5196 89.1362 27.5531C89.1362 30.6831 88.0882 31.9856 86.8212 33.2516C85.8812 34.1921 84.2277 35.2301 81.5142 35.2306" fill="#563A36"/>
</g>
<path fill-rule="evenodd" clip-rule="evenodd" d="M21.8346 21.0783C19.3126 23.2818 20.7096 27.9253 23.7591 29.3108C26.8081 30.6958 30.4776 29.5483 33.1761 27.5653C35.8256 25.6173 37.9691 22.6513 37.9881 19.3623C37.9941 18.3193 37.5961 17.0668 36.5766 16.8453C36.1821 16.7593 35.7696 16.8548 35.3936 17.0023C33.0266 17.9303 31.9116 21.0083 32.8386 23.3758C33.7656 25.7428 36.3711 27.2233 38.9131 27.1723C41.4546 27.1218 43.8506 25.7133 45.4616 23.7458C46.2446 22.7898 46.8881 21.6038 46.7491 20.3753C46.6106 19.1473 45.3966 18.0053 44.2046 18.3333C43.4276 18.5473 42.9071 19.2788 42.5816 20.0168C40.7616 24.1408 42.4896 27.4763 46.7851 28.8433C49.6256 29.7468 53.0676 30.2428 56.9401 27.4028C58.7156 26.1013 63.1536 23.9148 63.2891 21.7173C63.4251 19.5203 62.1151 17.1473 59.9806 16.6078C57.2746 15.9233 54.4986 18.7488 54.8156 21.5218C55.1326 24.2948 56.3871 26.2698 59.1786 26.2613C61.9696 26.2533 66.1081 24.5923 67.6376 22.2573C67.9731 21.7458 68.2766 21.1613 68.2141 20.5523C68.1516 19.9428 67.5701 19.3583 66.9766 19.5093C66.1481 22.0703 66.6676 25.1168 68.5781 27.0133C70.4891 28.9093 73.8036 29.3413 75.9496 27.7168C76.9526 26.9583 77.6396 25.8503 78.1411 24.6968C78.9041 22.9423 79.2826 20.9473 78.7731 19.1033C78.2636 17.2588 76.7256 15.6303 74.8261 15.4018C72.9271 15.1738 70.8801 16.6803 70.8686 18.5938" fill="#563A36"/>
<path fill-rule="evenodd" clip-rule="evenodd" d="M59.1241 19.9953C59.0861 20.0018 58.8406 20.0978 58.6011 20.3803C58.3591 20.6653 58.2686 20.9668 58.2871 21.1258C58.3406 21.5938 58.4231 21.9418 58.5061 22.1908C59.0351 21.8168 59.5171 21.4408 59.7876 21.1423C59.7036 20.5383 59.3421 20.0508 59.1241 19.9953V19.9953ZM70.6481 24.0378C70.7626 24.2218 70.8931 24.3888 71.0396 24.5343C71.7661 25.2548 73.1536 25.4518 73.8416 24.9313C74.1056 24.7318 74.5101 24.2873 74.9371 23.3043C75.4776 22.0603 75.6441 20.8988 75.4056 20.0338C75.2211 19.3653 74.7016 18.9063 74.4101 18.8713C74.3981 18.8788 74.3006 18.9303 74.2661 18.9703C74.2971 18.9343 74.3616 18.7998 74.3626 18.6148L71.2246 18.5963C71.4721 19.0973 71.6326 19.6403 71.6896 20.1968C71.8741 21.9933 71.0371 23.4313 70.6481 24.0378V24.0378ZM26.7046 33.4203C25.1701 33.4203 23.6836 33.1143 22.3136 32.4923C19.6166 31.2668 17.5811 28.4868 17.1291 25.4093C16.7271 22.6728 17.6041 20.1353 19.5361 18.4478L24.1336 23.7098C24.0171 23.8118 24.0051 24.1353 24.0426 24.3938C24.1511 25.1323 24.6506 25.8788 25.2041 26.1303C26.6401 26.7833 28.4751 26.2803 29.9606 25.4758C29.8216 25.2083 29.6961 24.9328 29.5851 24.6508C27.9356 20.4373 30.0541 15.3433 34.1186 13.7498C35.2221 13.3168 36.2986 13.2103 37.3206 13.4318C38.9126 13.7778 40.1686 14.8688 40.8686 16.3928C41.5591 15.7018 42.3751 15.2143 43.2761 14.9658C44.7366 14.5648 46.3226 14.8408 47.6281 15.7243C49.0601 16.6938 50.0296 18.2858 50.2211 19.9838C50.3721 21.3183 50.1666 23.3698 48.3886 25.6783C49.8181 26.0808 51.1166 26.2193 52.4701 25.8243C51.9331 24.8063 51.5281 23.5263 51.3446 21.9188C51.0561 19.3963 52.1361 16.7278 54.1626 14.9558C56.0916 13.2683 58.5236 12.6348 60.8371 13.2208C62.6341 13.6753 64.1666 14.8203 65.2271 16.3503L66.1131 16.1248C66.7081 15.9723 67.3266 15.9533 67.9251 16.0608C68.3151 15.1858 68.9031 14.3828 69.6576 13.7173C71.1916 12.3643 73.2796 11.6968 75.2431 11.9338C78.4441 12.3183 81.2166 14.8258 82.1411 18.1738C82.8131 20.6088 82.5381 23.3458 81.3456 26.0903C80.5056 28.0218 79.4306 29.4658 78.0576 30.5038C74.5831 33.1338 69.3376 32.6903 66.1176 29.4938C65.7706 29.1498 65.4526 28.7808 65.1626 28.3918C63.3501 29.1863 61.4156 29.6548 59.7206 29.7413C59.4361 29.9238 59.1866 30.0888 59.0061 30.2208C53.7416 34.0818 48.9051 33.1843 45.7261 32.1738C44.2406 31.7003 42.9501 31.0373 41.8811 30.2053C40.9296 30.4888 39.9541 30.6468 38.9831 30.6663C37.8066 30.6943 36.6491 30.5043 35.5636 30.1418C35.4586 30.2218 35.3521 30.3018 35.2456 30.3813C32.5206 32.3838 29.5311 33.4203 26.7046 33.4203V33.4203Z" fill="#563A36"/>
<path fill-rule="evenodd" clip-rule="evenodd" d="M12.8673 23.0801C12.3728 24.1301 11.9938 25.3006 12.2188 26.4396C12.4443 27.5776 13.4513 28.6266 14.6083 28.5436C15.6693 28.4671 16.4478 27.5426 17.0538 26.6681C18.0323 25.2571 18.9118 23.7771 19.6828 22.2426C19.8948 21.8206 20.0133 21.1611 19.5678 21.0046C18.6388 21.3826 18.8603 22.9241 19.7383 23.4101C20.6158 23.8961 21.7058 23.6471 22.6588 23.3346C26.0203 22.2316 29.3023 20.3391 31.1048 17.2951C31.3698 16.8471 31.6013 16.2816 31.3493 15.8266C30.9433 15.0936 29.8183 15.3951 29.1318 15.8756C27.2188 17.2141 25.8003 19.2436 25.2018 21.5006C25.0218 22.1796 24.9178 22.9211 25.1843 23.5711C25.3893 24.0711 25.7978 24.4666 26.2593 24.7481C27.4843 25.4941 29.1468 25.4466 30.3273 24.6321C31.5073 23.8171 32.1413 22.2796 31.8778 20.8696C31.4528 22.2591 32.4573 23.7771 33.7818 24.3751C35.1063 24.9731 36.6373 24.8576 38.0673 24.6001C42.1148 23.8711 45.9658 22.0791 49.1303 19.4531C49.9143 18.8031 50.7123 17.9831 50.7238 16.9656C49.7328 17.8096 48.8343 18.8081 48.3443 20.0136C47.8543 21.2196 47.8213 22.6601 48.4878 23.7781C49.7268 25.8566 52.7853 26.0151 54.9988 25.0381C57.0318 24.1401 58.8203 22.2976 58.9348 20.0771C58.9568 19.6526 58.9078 19.1981 58.6488 18.8606C58.2563 18.3471 57.5178 18.2611 56.8748 18.3246C54.6178 18.5476 52.5653 20.1946 51.8583 22.3496C51.5033 23.4336 52.1668 23.9541 52.6483 24.9881C53.5653 26.9591 59.3328 28.3621 61.5008 28.2076C65.2558 27.9396 66.9418 25.6521 69.1448 21.4146C67.9993 22.6946 67.1098 24.7771 68.3138 26.0021C68.7738 26.4706 69.4403 26.6736 70.0893 26.7711C72.6988 27.1636 75.4823 26.0226 77.0653 23.9111C75.9463 24.1041 75.4448 25.6161 75.9703 26.6226C76.4958 27.6296 77.6898 28.1236 78.8228 28.1936C79.0873 28.2101 79.3668 28.2041 79.5968 28.0726C79.9158 27.8901 80.0618 27.5161 80.1848 27.1701C80.4138 26.5271 80.6458 25.8611 80.5983 25.1796C80.5513 24.4986 80.1483 23.7936 79.4898 23.6121C78.8313 23.4316 78.0233 24.0266 78.1703 24.6931C78.0138 22.2776 77.0723 19.7786 75.0988 18.3781C73.1253 16.9766 70.0148 17.0966 68.5853 19.0491C70.5763 18.1831 66.5133 17.4621 65.6583 15.4656C64.8033 13.4691 67.5603 10.1741 65.4893 9.52011C64.7863 9.29861 64.0463 9.13561 63.3153 9.22561C60.9808 9.51111 59.7108 12.1146 59.2983 14.4301C59.2233 14.8531 59.2363 15.4136 59.6403 15.5591C60.0313 15.7001 60.3958 15.3076 60.6168 14.9561C61.7608 13.1346 62.5888 11.1156 63.0518 9.01561C60.8358 9.06361 58.6188 9.11111 56.4023 9.15861C53.9283 9.21211 51.3863 9.27861 49.1053 10.2381C47.1098 11.0771 45.4068 12.5941 44.3428 14.4791C45.4078 14.2106 45.9353 12.9651 45.9193 11.8666C45.8843 9.47411 43.7933 7.29311 41.4043 7.15711C39.0158 7.02161 36.6908 8.95261 36.3858 11.3251C36.2858 12.1021 36.4048 12.9576 36.9368 13.5321C37.8288 14.4966 39.6093 14.1671 40.3213 13.0631C41.0333 11.9596 40.7738 10.4186 39.9558 9.39111C39.1368 8.36411 37.8698 7.78461 36.5903 7.48711C32.2323 6.47361 27.3283 8.66961 25.1818 12.5956C24.9633 12.9946 24.8358 13.6126 25.2493 13.8036C26.3493 13.1111 27.1008 11.8911 27.2243 10.5966C27.2558 10.2596 27.2408 9.89611 27.0443 9.62061C26.6613 9.08111 25.8423 9.16161 25.2133 9.36611C21.3108 10.6336 18.4943 14.6711 18.6518 18.7716C19.4613 18.0316 18.7948 16.4811 17.7143 16.2971C16.6333 16.1126 15.5873 16.9771 15.2183 18.0096" fill="#563A36"/>
<path fill-rule="evenodd" clip-rule="evenodd" d="M30.5466 11.8972C30.9006 11.8987 31.2481 11.9372 31.5826 12.0142C32.0586 12.1247 32.5016 12.3062 32.9006 12.5522C32.8426 12.0177 32.8476 11.4642 32.9181 10.9017C32.0841 11.0857 31.2761 11.4192 30.5516 11.8752C30.5501 11.8827 30.5481 11.8897 30.5466 11.8972V11.8972ZM50.7241 13.4727C51.2271 13.4727 51.7326 13.5812 52.2056 13.8032C52.9716 14.1617 53.5641 14.7762 53.9021 15.5162C54.5006 15.2662 55.1261 15.0777 55.7691 14.9577C55.7601 14.5992 55.7876 14.2197 55.8586 13.8202C55.9296 13.4227 56.0151 13.0357 56.1136 12.6612C54.1046 12.7067 52.0606 12.7872 50.4596 13.4607C50.4376 13.4702 50.4156 13.4792 50.3936 13.4892C50.5036 13.4782 50.6141 13.4727 50.7241 13.4727V13.4727ZM22.4106 18.8652C22.4116 18.8667 22.4131 18.8682 22.4146 18.8702C22.7126 18.1572 23.0711 17.4722 23.4841 16.8237C23.1651 16.6422 22.8776 16.4212 22.6256 16.1657C22.5326 16.3832 22.4516 16.6047 22.3836 16.8297C22.5366 17.5177 22.5421 18.2097 22.4106 18.8652V18.8652ZM15.5261 18.1212C15.5376 18.2392 15.5601 18.3547 15.5936 18.4677C15.7136 18.8767 15.9641 19.1777 16.2596 19.3867C16.4486 19.1062 16.6691 18.8482 16.9166 18.6182L15.5261 18.1212ZM35.4261 21.2622C35.8426 21.3622 36.5231 21.3287 37.4491 21.1632C40.3496 20.6407 43.1111 19.4912 45.5241 17.8122C45.5326 17.7972 45.5401 17.7817 45.5486 17.7662C45.4331 17.8042 45.3161 17.8387 45.1976 17.8682C43.8536 18.2072 42.4366 17.7202 41.5866 16.6277C40.7781 17.1557 39.8321 17.4887 38.8386 17.5747C37.3971 17.6992 36.0156 17.2917 34.9486 16.4422C34.9251 17.0472 34.7781 17.7322 34.4271 18.4817C34.8716 18.9552 35.1866 19.5557 35.3126 20.2302C35.3766 20.5732 35.4136 20.9177 35.4261 21.2622V21.2622ZM72.6151 21.0117C72.6941 21.6852 72.5781 22.3867 72.2446 23.0277C72.2121 23.0912 72.1791 23.1537 72.1461 23.2172C72.4621 23.1312 72.7691 23.0077 73.0566 22.8507C73.2576 22.5137 73.4911 22.2057 73.7521 21.9302C73.5516 21.6427 73.3246 21.4052 73.0766 21.2287C72.9351 21.1287 72.7771 21.0577 72.6151 21.0117V21.0117ZM60.8246 24.7222C60.9861 24.7317 61.1301 24.7332 61.2516 24.7242C62.4941 24.6357 63.3076 24.3432 64.5936 22.3602C64.7921 21.7567 65.0736 21.1537 65.4351 20.5637C65.3376 20.3602 65.2606 20.1492 65.2041 19.9337C64.4096 19.3977 63.5386 18.6892 62.9006 17.6962C62.6801 17.9307 62.4496 18.1312 62.2141 18.3002C62.3901 18.8997 62.4606 19.5542 62.4241 20.2597C62.3416 21.8582 61.7761 23.3887 60.8246 24.7222V24.7222ZM14.4931 32.0432C11.8146 32.0432 9.35212 29.9477 8.79162 27.1202C8.45562 25.4202 8.75512 23.6127 9.70662 21.5927L14.6821 23.9367C14.9686 23.4997 15.2446 23.0552 15.5096 22.6047C15.4741 22.3107 15.4651 22.0127 15.4826 21.7142C15.5056 21.3312 15.5726 20.9612 15.6796 20.6092C15.3686 20.1057 15.1841 19.5222 15.1611 18.9077C15.1491 18.6007 15.1486 18.2952 15.1601 17.9907L11.9286 16.8357C12.6731 14.7527 14.4516 13.2617 16.4366 12.8787C17.9576 9.71266 20.7196 7.15416 24.1346 6.04516C25.1546 5.71266 26.1526 5.64166 27.0511 5.80716C30.0986 3.96216 33.8281 3.25866 37.3821 4.08616C37.6211 4.14116 37.8556 4.20316 38.0846 4.27116C39.1806 3.82166 40.3796 3.60166 41.6026 3.67066C44.0806 3.81166 46.3066 5.11566 47.7421 7.02316C47.7446 7.02166 47.7476 7.02016 47.7511 7.01916C50.6761 5.78866 53.6786 5.72416 56.3276 5.66716L62.9766 5.52416C63.4051 5.51566 63.8261 5.58466 64.2201 5.72416C65.1436 5.78416 65.9491 6.00316 66.5401 6.18966C68.4921 6.80616 69.7296 8.46766 69.7716 10.5252C69.7931 11.5647 69.5156 12.5202 69.2711 13.3632C69.2071 13.5822 69.1256 13.8652 69.0651 14.1082C69.1851 14.1907 69.3206 14.2772 69.4506 14.3582C71.9116 13.5497 74.8176 13.8952 77.1216 15.5312C78.7411 16.6802 79.9901 18.3537 80.7691 20.3577C82.6246 21.0302 83.9381 22.8262 84.0841 24.9417C84.1826 26.3602 83.7576 27.5537 83.4761 28.3437C83.2891 28.8692 82.7911 30.2712 81.3331 31.1062C80.1551 31.7802 78.9896 31.7077 78.6041 31.6817C76.8641 31.5747 75.3111 30.9392 74.1701 29.9087C72.6896 30.3392 71.1191 30.4612 69.5696 30.2277C68.7796 30.1087 68.0661 29.8972 67.4336 29.5947C65.9541 30.7502 64.1311 31.5242 61.7491 31.6942C60.2931 31.8037 55.1971 31.2532 51.9161 29.1002C49.4701 29.0172 47.0741 28.0237 45.6326 25.8032C43.4336 26.8502 41.0966 27.6062 38.6866 28.0402C37.0651 28.3317 34.6436 28.5992 32.3436 27.5607C32.3221 27.5512 32.3011 27.5412 32.2796 27.5317C29.9721 29.1037 26.8286 29.1872 24.4421 27.7337C24.0001 27.4647 23.6016 27.1557 23.2516 26.8122C22.6691 26.9842 21.8406 27.1787 20.9036 27.1802C20.5876 27.6812 20.2616 28.1757 19.9251 28.6602C19.3261 29.5252 17.7331 31.8237 14.8586 32.0302C14.7366 32.0387 14.6141 32.0432 14.4931 32.0432V32.0432Z" fill="#563A36"/>
<path fill-rule="evenodd" clip-rule="evenodd" d="M71.1189 18.4693C70.8494 18.2668 70.4329 18.4133 70.2434 18.6918C70.0539 18.9703 70.0374 19.3298 70.0549 19.6663C70.1084 20.6998 70.4824 21.7933 71.3434 22.3683C72.1104 22.8803 73.1944 22.8638 73.9454 22.3278C74.6959 21.7918 75.0644 20.7718 74.8289 19.8798" fill="#563A36"/>
<path fill-rule="evenodd" clip-rule="evenodd" d="M73.5969 19.7874C73.5879 19.7679 73.5659 19.7289 73.5259 19.6799C73.5449 19.5544 73.5439 19.4764 73.5434 19.4679C73.5529 19.6539 73.5854 19.7604 73.5969 19.7874M72.6134 26.2409C71.4924 26.2409 70.3704 25.9194 69.4034 25.2739C67.7214 24.1514 66.6869 22.1729 66.5654 19.8469C66.5424 19.3974 66.4704 18.0254 67.3554 16.7259C67.9994 15.7774 69.0199 15.1249 70.1529 14.9364C71.2504 14.7564 72.3404 15.0164 73.2184 15.6764L69.0194 21.2614C69.6744 21.7544 70.5039 21.9619 71.2979 21.8294C72.0519 21.7044 72.7039 21.2874 73.1329 20.6554C73.2239 20.5224 73.2949 20.3924 73.3494 20.2699L78.2074 18.9884C78.8159 21.2979 77.9199 23.7819 75.9764 25.1704C74.9784 25.8829 73.7959 26.2409 72.6134 26.2409" fill="#563A36"/>
<path fill-rule="evenodd" clip-rule="evenodd" d="M22.0392 18.6951C20.9437 18.6951 19.9492 18.2086 19.1822 17.2646C17.6557 15.3866 17.7762 12.4356 19.4497 10.6876C20.4012 9.69456 21.7572 9.19906 23.1167 9.19606C23.0877 8.90706 23.0837 8.61056 23.1057 8.30956C23.2122 6.87656 23.8982 5.62256 24.9882 4.87006C26.0782 4.11806 27.4932 3.91906 28.8712 4.32656C30.2492 4.73356 31.3292 5.66956 31.8347 6.89406C32.0897 7.51206 31.7952 8.21956 31.1772 8.47456C30.5587 8.72806 29.8522 8.43456 29.5972 7.81706C29.3762 7.28056 28.8482 6.84306 28.1852 6.64706C27.5217 6.45106 26.8412 6.53106 26.3632 6.86106C25.8857 7.19106 25.5702 7.79956 25.5192 8.48906C25.4677 9.17856 25.6902 9.82706 26.1137 10.2236C26.5822 10.6626 26.6267 11.3901 26.2157 11.8826C25.8032 12.3741 25.0792 12.4591 24.5652 12.0781C23.6012 11.3621 22.0277 11.4946 21.1977 12.3616C20.3672 13.2286 20.3032 14.8066 21.0602 15.7381C21.5267 16.3121 22.0492 16.4186 22.8117 16.0931C23.4247 15.8306 24.1372 16.1141 24.4007 16.7286C24.6637 17.3431 24.3792 18.0546 23.7647 18.3176C23.1747 18.5706 22.5937 18.6951 22.0392 18.6951" fill="#684946"/>
<path fill-rule="evenodd" clip-rule="evenodd" d="M71.7869 16.8934C70.6799 16.8939 69.7804 16.3239 69.2729 15.2544C68.9859 14.6509 69.2434 13.9289 69.8474 13.6424C70.4504 13.3559 71.1724 13.6129 71.4594 14.2169C71.5594 14.4269 71.6629 14.6429 72.4149 14.3269C72.7089 14.1889 72.9084 13.9459 72.9829 13.6049C73.1019 13.0569 72.8784 12.3504 72.4134 11.8039C72.0769 11.4089 71.4974 11.1899 70.8734 11.2279C70.4684 11.2499 70.0969 11.3719 69.8054 11.5704C69.6149 11.8404 69.3794 12.0779 69.1014 12.2749C68.6249 12.6129 67.9734 12.5594 67.5549 12.1499C67.1379 11.7394 67.0734 11.0899 67.4024 10.6059C67.5514 10.3869 67.7234 10.1849 67.9154 10.0009C67.9849 9.77935 67.9469 9.52885 67.9184 9.40135C67.7854 8.80635 67.3379 8.29585 66.8769 8.21435C65.6534 7.99785 64.4429 9.20885 64.1199 10.4329C63.9494 11.0794 63.2864 11.4664 62.6419 11.2949C61.9954 11.1249 61.6099 10.4629 61.7799 9.81685C62.3809 7.53485 64.6634 5.36485 67.2999 5.83135C68.7284 6.08485 69.9229 7.30085 70.2769 8.85985C70.4299 8.83635 70.5859 8.81985 70.7429 8.81135C72.1139 8.73285 73.4334 9.26935 74.2559 10.2359C75.2214 11.3694 75.6299 12.8209 75.3474 14.1189C75.1119 15.2009 74.4194 16.0599 73.3969 16.5384C72.8294 16.7774 72.2869 16.8934 71.7869 16.8934" fill="#684946"/>
<path fill-rule="evenodd" clip-rule="evenodd" d="M36.5329 14.71C35.4109 14.71 34.1594 13.8545 33.5274 11.96C33.1604 10.8575 33.5744 9.15048 34.5124 7.90048C35.8289 6.14448 37.6974 6.02948 39.1989 5.93698C40.3604 5.86198 41.4844 6.21898 42.3599 6.85398C42.4789 6.67598 42.6099 6.50448 42.7539 6.34098C43.5819 5.40048 44.7264 4.83648 45.8949 4.79398C47.0699 4.74848 48.2464 5.22948 49.1399 6.10598C50.0339 6.98298 50.5354 8.15648 50.5154 9.32548C50.5034 9.99398 49.9489 10.536 49.2844 10.5145C48.6164 10.503 48.0844 9.95198 48.0954 9.28348C48.1044 8.77648 47.8674 8.24748 47.4454 7.83398C47.0234 7.41998 46.4769 7.19698 45.9834 7.21198C45.4764 7.23098 44.9609 7.49598 44.5704 7.93948C44.1799 8.38348 43.9824 8.92748 44.0284 9.43298C44.0864 10.0705 43.6379 10.6425 43.0049 10.739C42.3784 10.8315 41.7744 10.422 41.6404 9.79598C41.4399 8.86048 40.3124 8.30448 39.3474 8.35198C37.8154 8.44698 37.0304 8.57598 36.4484 9.35248C35.8639 10.1315 35.7674 10.979 35.8254 11.201C36.0769 11.9545 36.4124 12.222 36.5359 12.279C37.1424 12.131 37.7694 12.4705 37.9694 13.0725C38.1809 13.706 37.8379 14.3915 37.2039 14.6025C36.9904 14.674 36.7644 14.71 36.5329 14.71" fill="#684946"/>
<path fill-rule="evenodd" clip-rule="evenodd" d="M27.5915 28.8445C25.513 28.8445 23.978 27.6665 23.6885 25.777C23.587 25.1165 24.04 24.499 24.701 24.3975C25.3615 24.294 25.9785 24.75 26.0805 25.41C26.2305 26.3875 27.191 26.4875 27.9695 26.4025C28.9295 26.296 30.097 25.781 30.663 24.6885C30.3695 23.8845 30.3075 23.0275 30.504 22.2245C30.5865 21.8875 30.8095 21.6025 31.1165 21.441C31.602 21.1855 32.1705 21.1895 32.6755 21.45C33.2255 21.7345 33.6175 22.287 33.698 22.892C33.779 23.505 33.5275 23.9685 33.377 24.246C33.352 24.293 33.3225 24.3395 33.3035 24.3895C33.2965 24.424 33.2895 24.4585 33.2825 24.492C33.311 24.5295 33.3405 24.5665 33.372 24.6035C33.837 25.155 34.4745 25.4625 35.063 25.4165C35.657 25.3745 36.2395 24.9835 36.622 24.372C37.004 23.76 37.1 23.065 36.878 22.513C36.6285 21.8935 36.9295 21.188 37.5495 20.939C38.172 20.69 38.874 20.991 39.123 21.6105C39.633 22.8775 39.465 24.3895 38.674 25.6545C37.883 26.9195 36.5975 27.733 35.235 27.8305C34.1455 27.902 33.0405 27.525 32.15 26.787C31.126 27.98 29.627 28.6535 28.237 28.808C28.017 28.8325 27.8015 28.8445 27.5915 28.8445" fill="#684946"/>
<path fill-rule="evenodd" clip-rule="evenodd" d="M21.8352 29.2784C21.2037 29.2784 20.5857 29.1444 20.0292 28.8779C18.9762 28.3734 18.1557 27.4004 17.7777 26.2074C17.7257 26.0444 17.6832 25.8804 17.6497 25.7154C17.0137 25.8949 16.3477 25.9289 15.7052 25.7979C13.8367 25.4164 12.5092 23.6414 12.7452 21.8399C13.0397 19.5984 14.6487 18.4094 17.1542 18.5689C17.8212 18.6124 18.3262 19.1879 18.2832 19.8544C18.2402 20.5214 17.6637 21.0264 16.9977 20.9839C15.4467 20.8804 15.2332 21.4799 15.1447 22.1554C15.0752 22.6849 15.5827 23.3029 16.1892 23.4269C16.8572 23.5599 17.6802 23.2119 18.1837 22.5714C18.5742 22.0749 19.2802 21.9609 19.8067 22.3119C20.3322 22.6629 20.4997 23.3584 20.1917 23.9099C19.9467 24.3474 19.9077 24.9184 20.0842 25.4764C20.2612 26.0344 20.6222 26.4784 21.0747 26.6954C21.5272 26.9129 22.0992 26.9149 22.6447 26.7029C23.1902 26.4909 23.6112 26.1024 23.7982 25.6374C24.0487 25.0179 24.7517 24.7179 25.3727 24.9669C25.9927 25.2169 26.2927 25.9219 26.0432 26.5414C25.6067 27.6244 24.6872 28.5054 23.5207 28.9584C22.9712 29.1719 22.3982 29.2784 21.8352 29.2784" fill="#684946"/>
<path fill-rule="evenodd" clip-rule="evenodd" d="M50.4946 24.4856C49.8551 24.4856 49.1736 24.3981 48.4536 24.2206C47.2596 23.9266 46.1861 23.1516 45.5811 22.1491C45.5426 22.0851 45.5066 22.0201 45.4716 21.9551C45.1621 22.1031 44.8286 22.2276 44.4716 22.3131C43.1771 22.6216 41.8546 22.2936 41.0166 21.4571C40.4601 20.9011 40.1026 20.1201 39.9841 19.1971C39.7001 16.9906 40.8781 14.7266 42.8486 13.6916C43.4411 13.3811 44.1721 13.6086 44.4826 14.2006C44.7931 14.7926 44.5656 15.5241 43.9736 15.8346C42.8981 16.3996 42.2296 17.6841 42.3846 18.8886C42.4331 19.2691 42.5546 19.5726 42.7261 19.7441C42.9671 19.9841 43.4406 20.0696 43.9091 19.9596C44.3976 19.8421 44.9101 19.5466 45.5721 19.0016C45.9741 18.6681 46.5446 18.6316 46.9876 18.9111C47.4291 19.1901 47.6421 19.7201 47.5156 20.2271C47.4641 20.4356 47.5101 20.6616 47.6541 20.8996C47.9216 21.3431 48.4757 21.7336 49.0326 21.8711C51.7657 22.5451 52.7041 21.3681 53.1751 20.4246C53.2306 20.2791 53.3136 19.7426 53.3011 19.5136C53.2791 19.4541 53.2551 19.3856 53.2291 19.3106C53.1911 19.2006 53.1166 18.9861 53.0506 18.8306C52.7411 18.6526 52.5137 18.3411 52.4562 17.9621C52.3562 17.3011 52.8106 16.6846 53.4711 16.5846C54.7671 16.3826 55.2771 17.8276 55.5161 18.5201C55.5426 18.5956 55.5646 18.6621 55.5841 18.7111C55.8956 19.4966 55.5987 20.9891 55.3397 21.5071C54.3607 23.4651 52.6761 24.4856 50.4946 24.4856" fill="#684946"/>
<path fill-rule="evenodd" clip-rule="evenodd" d="M68.0001 27.9128C67.5776 27.9128 67.1546 27.8628 66.7396 27.7583C65.6346 27.4803 64.6296 26.8478 63.8551 25.9823C61.5386 26.4438 59.4371 25.5153 58.3841 24.1013C57.6096 23.0618 57.2806 21.7273 57.4811 20.4413C57.6776 19.1828 58.3791 18.0668 59.4561 17.2973C59.9991 16.9098 60.7556 17.0348 61.1441 17.5788C61.5321 18.1223 61.4066 18.8783 60.8626 19.2668C60.1661 19.7638 59.9396 20.3828 59.8721 20.8148C59.7726 21.4533 59.9416 22.1413 60.3246 22.6553C60.7656 23.2478 61.5791 23.6653 62.5541 23.6853C62.4301 23.2723 62.3331 22.7278 62.4776 22.1413C62.7066 21.2143 63.5231 20.5473 64.5581 20.4413C65.5936 20.3358 66.5286 20.8228 66.9401 21.6838C67.4631 22.7773 67.1566 24.1463 66.2866 24.9248C66.6086 25.1518 66.9626 25.3193 67.3306 25.4118C68.3971 25.6813 69.6166 25.2803 70.2311 24.4628C70.7176 23.8163 70.8231 23.2053 70.0521 21.6628C69.7531 21.0653 69.9956 20.3383 70.5936 20.0393C71.1916 19.7418 71.9176 19.9838 72.2171 20.5808C72.9986 22.1458 73.6046 24.0033 72.1656 25.9168C71.2186 27.1758 69.6191 27.9128 68.0001 27.9128" fill="#684946"/>
<path fill-rule="evenodd" clip-rule="evenodd" d="M75.5333 30.0022C74.8013 30.0022 74.0688 29.8497 73.4443 29.6027C71.9548 29.0127 70.8663 27.5452 70.7353 25.9497C70.6808 25.2832 71.1768 24.6997 71.8428 24.6447C72.4958 24.5922 73.0933 25.0857 73.1478 25.7522C73.2038 26.4402 73.6918 27.0982 74.3348 27.3527C75.1548 27.6772 76.1318 27.6577 76.5153 27.3112C76.6483 27.1762 76.7013 26.6787 76.6083 26.4877C76.0508 26.1562 75.8533 25.4412 76.1643 24.8692C76.4788 24.2902 77.1998 24.0702 77.7838 24.3732C77.8118 24.3877 77.8393 24.4032 77.8668 24.4187C78.3428 24.6692 78.9768 24.6582 79.5738 24.3857C80.1878 24.1052 80.6173 23.6142 80.7243 23.0727C80.8308 22.5312 80.6188 21.9137 80.1568 21.4217C79.6953 20.9292 79.0928 20.6822 78.5443 20.7497C77.8788 20.8317 77.2738 20.3697 77.1878 19.7072C77.1008 19.0447 77.5673 18.4372 78.2303 18.3502C79.5518 18.1787 80.9288 18.7067 81.9218 19.7657C82.9153 20.8252 83.3553 22.2357 83.0983 23.5392C82.8418 24.8437 81.9003 25.9827 80.5803 26.5867C80.0898 26.8107 79.5783 26.9472 79.0688 26.9962C79.0213 27.8277 78.6843 28.6127 78.1393 29.1062C77.4328 29.7452 76.4838 30.0022 75.5333 30.0022" fill="#684946"/>
<path fill-rule="evenodd" clip-rule="evenodd" d="M58.4719 8.2555C57.9774 8.2555 57.5129 7.95 57.3344 7.4575C57.1424 6.9275 56.6009 6.4965 55.9214 6.333C55.2424 6.169 54.5629 6.3075 54.1514 6.6925C53.6619 7.1485 52.8969 7.1215 52.4409 6.6335C51.9849 6.1445 52.0119 5.379 52.5004 4.923C53.5154 3.9765 55.0059 3.623 56.4874 3.9805C57.9694 4.337 59.1364 5.3285 59.6094 6.6325C59.8369 7.261 59.5124 7.9545 58.8844 8.1825C58.7484 8.232 58.6089 8.2555 58.4719 8.2555" fill="#684946"/>
<path fill-rule="evenodd" clip-rule="evenodd" d="M13.0462 44.8926C10.0972 44.8931 7.41518 42.1486 6.89818 38.5596C6.80718 37.9301 6.79068 37.2986 6.84418 36.6826C5.84268 35.5146 5.19368 33.8946 5.12318 32.2271C5.02068 29.8226 6.09618 27.5471 7.92918 26.2881C9.48218 25.2206 11.1517 25.1061 12.2557 25.0296C14.0502 24.9216 15.5932 26.2571 15.7157 28.0446C15.8172 29.5226 14.9122 30.8376 13.5852 31.3186C14.0427 31.5611 14.4427 31.9136 14.7442 32.3551C15.2252 33.0606 15.4032 33.9166 15.2612 34.7376C15.2652 34.7376 15.2697 34.7371 15.2742 34.7371C17.0762 34.6681 18.5567 36.1021 18.6052 37.8936C18.7077 41.7056 16.3402 44.7781 13.2157 44.8896C13.1592 44.8916 13.1022 44.8926 13.0462 44.8926" fill="#563A36"/>
<path fill-rule="evenodd" clip-rule="evenodd" d="M83.3249 43.6471C83.2739 43.6471 83.2234 43.6461 83.1719 43.6446C80.3274 43.5436 78.1729 40.7466 78.2669 37.2771C78.3114 35.6476 79.6574 34.3621 81.2984 34.4056C81.3019 34.4056 81.3059 34.4056 81.3099 34.4061C81.1804 33.6581 81.3424 32.8791 81.7804 32.2376C82.0544 31.8361 82.4184 31.5151 82.8349 31.2941C81.6269 30.8566 80.8039 29.6601 80.8964 28.3156C81.0079 26.6891 82.4239 25.4556 84.0439 25.5721C85.0489 25.6406 86.5674 25.7451 87.9819 26.7166C89.6504 27.8631 90.6284 29.9341 90.5354 32.1221C90.4704 33.6391 89.8799 35.1131 88.9694 36.1761C89.0179 36.7361 89.0029 37.3106 88.9204 37.8841C88.4489 41.1496 86.0079 43.6471 83.3249 43.6471" fill="#563A36"/>
<path fill-rule="evenodd" clip-rule="evenodd" d="M59.5729 61.9326C50.5229 64.5781 42.7049 63.0486 39.2584 62.0781C38.3329 61.8176 37.4449 62.5421 37.6399 63.3951C38.3004 66.2906 40.6564 71.4596 49.0434 72.0086C57.8679 72.5866 60.8124 67.1336 61.2199 63.2351C61.3119 62.3596 60.5044 61.6606 59.5729 61.9326" fill="#C83831"/>
<path fill-rule="evenodd" clip-rule="evenodd" d="M43.6658 65.9375C48.7908 66.6305 51.7923 66.644 55.9213 65.759C55.9213 65.759 59.7433 65.0935 59.6628 61.918C59.6328 61.925 59.6038 61.9265 59.5728 61.933C52.5288 63.4605 45.4338 63.123 39.5478 62.1565C39.3973 62.7695 39.8383 65.4205 43.6658 65.9375" fill="white"/>
<path fill-rule="evenodd" clip-rule="evenodd" d="M14.7951 43.8344C14.5416 43.8344 14.3056 43.6744 14.2216 43.4209C14.1156 43.1039 14.2866 42.7614 14.6036 42.6559C16.2871 42.0944 17.9446 42.0879 18.0141 42.0879C18.3481 42.0879 18.6186 42.3584 18.6186 42.6924C18.6191 43.0264 18.3486 43.2974 18.0146 43.2979C17.9996 43.2979 16.4776 43.3059 14.9866 43.8034C14.9231 43.8244 14.8586 43.8344 14.7951 43.8344" fill="#684946"/>
<path fill-rule="evenodd" clip-rule="evenodd" d="M14.7942 47.3218C14.4937 47.3218 14.2332 47.0983 14.1952 46.7918C14.1537 46.4603 14.3882 46.1578 14.7202 46.1168C16.8787 45.8467 17.7117 45.8438 17.7457 45.8438C18.0797 45.8438 18.3507 46.1148 18.3507 46.4488C18.3507 46.7828 18.0802 47.0538 17.7462 47.0538C17.7172 47.0538 16.9062 47.0628 14.8702 47.3168C14.8447 47.3203 14.8197 47.3218 14.7942 47.3218" fill="#684946"/>
<path fill-rule="evenodd" clip-rule="evenodd" d="M81.7879 43.8344C81.7244 43.8344 81.6599 43.8244 81.5964 43.8034C80.0974 43.3034 78.5839 43.2979 78.5689 43.2979C78.2349 43.2979 77.9639 43.0269 77.9639 42.6929C77.9639 42.3589 78.2349 42.0879 78.5689 42.0879C78.6384 42.0879 80.2964 42.0944 81.9794 42.6559C82.2964 42.7614 82.4674 43.1039 82.3614 43.4209C82.2774 43.6744 82.0414 43.8344 81.7879 43.8344" fill="#684946"/>
<path fill-rule="evenodd" clip-rule="evenodd" d="M81.7889 47.3218C81.7634 47.3218 81.7384 47.3203 81.7129 47.3168C79.6499 47.0598 78.8439 47.0538 78.8364 47.0538C78.5024 47.0528 78.2324 46.7812 78.2329 46.4477C78.2334 46.1137 78.5039 45.8438 78.8374 45.8438C78.8714 45.8438 79.7044 45.8467 81.8629 46.1168C82.1949 46.1578 82.4294 46.4603 82.3879 46.7918C82.3499 47.0978 82.0894 47.3218 81.7889 47.3218" fill="#684946"/>
<path fill-rule="evenodd" clip-rule="evenodd" d="M35.544 98.3952L35.721 110.127C35.721 110.127 49.189 110.792 63.821 109.96L63.874 97.8222C63.9005 93.4787 63.446 88.9102 63.1615 87.1942C63.093 86.7772 62.7825 86.4462 62.3715 86.3442C58.984 85.5042 55.1505 84.9057 55.1505 84.9057C53.89 87.0817 51.629 88.5797 49.115 88.6277C46.6005 88.6757 44.085 86.8172 43.381 84.8047C43.381 84.8047 40.721 85.3937 37.1045 86.3912C37.1045 86.3912 35.691 86.8487 35.6655 88.0682C35.6345 89.5652 35.533 97.4712 35.544 98.3952" fill="#EE5D30"/>
<path fill-rule="evenodd" clip-rule="evenodd" d="M67.2277 90.1445C67.2277 90.1445 75.6392 98.2195 85.3972 92.5L88.3837 98.583C88.3837 98.583 74.2937 104.613 65.5457 97.547L67.2277 90.1445Z" fill="#BE8751"/>
<path fill-rule="evenodd" clip-rule="evenodd" d="M84.7379 93.7071C84.1054 91.6836 85.7899 88.7996 86.3394 86.7311C86.5719 85.8556 87.0734 84.7776 87.9764 84.8556C88.8319 84.9296 89.1839 86.0331 89.0414 86.8801C88.8994 87.7266 88.8999 88.3691 88.8874 89.3201C90.3639 88.4531 91.5084 87.4066 93.6679 86.3416C94.1084 86.1246 95.0839 85.8911 95.5359 86.2881C96.0979 86.7816 95.9004 87.4966 95.6769 87.9866C95.1494 89.1426 93.0804 89.9616 92.2124 91.1056C92.9564 90.8126 93.3039 90.6356 93.8359 90.2801C94.4884 89.8441 95.5719 89.2736 96.4054 88.9821C97.6599 88.5436 98.3954 89.0686 98.4199 89.9511C98.4349 90.4801 98.0794 91.0106 97.6634 91.3381C96.3334 92.3841 94.8464 93.1571 93.6079 93.9231C94.9229 93.2406 96.5874 92.3921 97.9734 92.2551C98.5754 92.1951 99.3504 92.3501 99.4149 93.3096C99.4399 93.6881 99.3279 94.0701 99.0329 94.3091C97.9299 95.2031 96.4809 95.8421 95.1489 96.3321C96.2344 96.0531 98.3514 95.7806 98.5984 96.8441C98.8329 97.6866 97.4759 98.3611 95.4124 98.8506C92.7509 99.4831 90.1619 99.9541 88.2694 99.1056C87.5204 99.0191 86.4249 99.1061 84.7379 93.7071" fill="#BE8751"/>
<path fill-rule="evenodd" clip-rule="evenodd" d="M62.5299 86.4042C64.6359 87.6232 68.0894 89.7022 70.4709 91.2002C70.4709 91.2002 67.0884 98.0137 66.5159 99.5072L63.6759 98.0812L58.8264 95.5812C58.8264 95.5812 56.0039 93.5422 58.1994 89.0627C58.1994 89.0627 59.6274 85.8117 62.5299 86.4042" fill="#EE5D30"/>
<path fill-rule="evenodd" clip-rule="evenodd" d="M71.7009 92.0155C71.7009 92.0155 70.0924 97.167 67.2579 100.064L65.6599 99.1305C65.6599 99.1305 68.8349 95.1885 70.0629 90.916L71.7009 92.0155Z" fill="white"/>
<path fill-rule="evenodd" clip-rule="evenodd" d="M32.1907 90.1445C32.1907 90.1445 23.7792 98.2195 14.0212 92.5L11.0347 98.583C11.0347 98.583 25.1247 104.613 33.8732 97.547L32.1907 90.1445Z" fill="#BE8751"/>
<path fill-rule="evenodd" clip-rule="evenodd" d="M14.6804 93.7071C15.3129 91.6836 13.6284 88.7996 13.0789 86.7311C12.8464 85.8556 12.3449 84.7776 11.4419 84.8556C10.5864 84.9296 10.2349 86.0331 10.3769 86.8801C10.5189 87.7266 10.5184 88.3691 10.5309 89.3201C9.05439 88.4531 7.90989 87.4066 5.75039 86.3416C5.30989 86.1246 4.33439 85.8911 3.88239 86.2881C3.32039 86.7816 3.51789 87.4966 3.74139 87.9866C4.26889 89.1426 6.33789 89.9616 7.20589 91.1056C6.46189 90.8126 6.11439 90.6356 5.58239 90.2801C4.92989 89.8441 3.84639 89.2736 3.01289 88.9821C1.75839 88.5436 1.02289 89.0686 0.998387 89.9511C0.983387 90.4801 1.33889 91.0106 1.75489 91.3381C3.08489 92.3841 4.57189 93.1571 5.81039 93.9231C4.49539 93.2406 2.83089 92.3921 1.44489 92.2551C0.842887 92.1951 0.0678874 92.3501 0.00338737 93.3096C-0.0216126 93.6881 0.0903874 94.0701 0.385387 94.3091C1.48839 95.2031 2.93739 95.8421 4.26989 96.3321C3.18389 96.0531 1.06689 95.7806 0.819887 96.8441C0.585387 97.6866 1.94239 98.3611 4.00589 98.8506C6.66739 99.4831 9.25639 99.9541 11.1489 99.1056C11.8979 99.0191 12.9934 99.1061 14.6804 93.7071" fill="#BE8751"/>
<path fill-rule="evenodd" clip-rule="evenodd" d="M36.8883 86.4042C34.7823 87.6232 31.3288 89.7022 28.9473 91.2002C28.9473 91.2002 32.3298 98.0137 32.9023 99.5072L35.7423 98.0812L40.5918 95.5812C40.5918 95.5812 43.4143 93.5422 41.2188 89.0627C41.2188 89.0627 39.7908 85.8117 36.8883 86.4042" fill="#EE5D30"/>
<path fill-rule="evenodd" clip-rule="evenodd" d="M27.7175 92.0155C27.7175 92.0155 29.326 97.167 32.1605 100.064L33.7585 99.1305C33.7585 99.1305 30.5835 95.1885 29.3555 90.916L27.7175 92.0155Z" fill="white"/>
<path fill-rule="evenodd" clip-rule="evenodd" d="M49.0061 100.5C48.6211 100.5 48.2421 100.479 47.8901 100.42C47.7046 100.388 47.3606 100.33 47.1506 100.059C46.9721 99.828 46.9681 99.5415 46.9656 99.3515L46.8456 90.8745C46.8411 90.58 46.8346 90.1775 47.0561 89.8425C47.1476 89.703 47.3346 89.6655 47.4751 89.757C47.6146 89.849 47.6526 90.0365 47.5606 90.1765C47.4516 90.3415 47.4461 90.586 47.4501 90.8655L47.5701 99.3435C47.5721 99.4595 47.5741 99.6175 47.6291 99.689C47.6866 99.763 47.8366 99.7975 47.9906 99.8235C48.7141 99.9465 49.6091 99.8865 50.3991 99.833C50.6226 99.8185 50.8411 99.8035 51.0496 99.793C51.2191 99.7955 51.3581 99.913 51.3671 100.08C51.3751 100.247 51.2466 100.389 51.0796 100.397C50.8741 100.407 50.6596 100.422 50.4391 100.436C49.9811 100.467 49.4896 100.5 49.0061 100.5" fill="#F6921E"/>
<path fill-rule="evenodd" clip-rule="evenodd" d="M48.5485 88.1236C48.6885 88.1596 48.816 88.2701 48.8615 88.4071C48.9075 88.5446 48.8815 88.7181 48.7815 88.8226C47.14 90.5376 46.7975 91.1706 45.6345 92.0746C43.72 90.8396 42.684 89.9256 41.3465 87.7916C41.1605 87.4941 40.9785 87.1656 41.0035 86.8161C41.0035 86.8161 41.5065 85.2061 43.5185 84.7031C43.5185 84.7031 44.537 87.0896 48.5485 88.1236" fill="white"/>
<path fill-rule="evenodd" clip-rule="evenodd" d="M49.6804 88.1236C49.5399 88.1596 49.4124 88.2701 49.3669 88.4071C49.3214 88.5446 49.3509 88.7146 49.4469 88.8226C50.7884 90.3396 51.6194 91.0046 52.5939 92.0746C54.5084 90.8396 55.5449 89.9256 56.8819 87.7916C57.0679 87.4941 57.2499 87.1656 57.2249 86.8161C57.2249 86.8161 56.7219 85.2061 54.7099 84.7031C54.7099 84.7031 53.6919 87.0896 49.6804 88.1236" fill="white"/>
<path fill-rule="evenodd" clip-rule="evenodd" d="M50.3591 93.156C50.3591 93.656 49.9536 94.0615 49.4536 94.0615C48.9536 94.0615 48.5486 93.656 48.5486 93.156C48.5486 92.656 48.9536 92.25 49.4536 92.25C49.9536 92.25 50.3591 92.656 50.3591 93.156" fill="#F6921E"/>
<path fill-rule="evenodd" clip-rule="evenodd" d="M50.3591 97.0774C50.3591 97.5774 49.9536 97.9829 49.4536 97.9829C48.9536 97.9829 48.5486 97.5774 48.5486 97.0774C48.5486 96.5774 48.9536 96.1719 49.4536 96.1719C49.9536 96.1719 50.3591 96.5774 50.3591 97.0774" fill="#F6921E"/>
</svg>
