<svg width="102" height="149" viewBox="0 0 102 149" fill="none" xmlns="http://www.w3.org/2000/svg">
<path fill-rule="evenodd" clip-rule="evenodd" d="M38.6375 117.543L38.6665 140.095H45.059L45.3955 117.735L38.6375 117.543Z" fill="#FCCAB8"/>
<path fill-rule="evenodd" clip-rule="evenodd" d="M41.6325 133.739L38.5955 133.576C38.5955 133.576 38.5545 133.583 38.498 134.592C38.4415 135.615 38.518 140.48 38.518 140.48L36.731 143.155L45.2115 143.358L45.1575 135.458C45.1575 135.458 45.362 133.703 45.109 133.703C45.109 133.703 42.704 133.731 41.6325 133.739" fill="white"/>
<path fill-rule="evenodd" clip-rule="evenodd" d="M60.9426 117.543L60.9136 140.095H54.5211L54.1846 117.735L60.9426 117.543Z" fill="#FCCAB8"/>
<path fill-rule="evenodd" clip-rule="evenodd" d="M57.9475 133.739L60.9845 133.576C60.9845 133.576 61.0255 133.583 61.082 134.592C61.1385 135.615 61.062 140.48 61.062 140.48L62.849 143.155L54.3685 143.358L54.4225 135.458C54.4225 135.458 54.218 133.703 54.471 133.703C54.471 133.703 56.876 133.731 57.9475 133.739" fill="white"/>
<path fill-rule="evenodd" clip-rule="evenodd" d="M62.044 139.13C62.044 139.13 62.6595 136.503 61.305 136.544C61.305 136.544 59.17 136.503 57.956 137.107C57.5735 137.297 57.404 137.758 57.4325 138.184C57.471 138.766 57.551 139.63 57.446 140.444C57.446 140.526 57.733 141.47 58.267 141.552C58.801 141.635 60.607 140.936 60.9765 140.649C61.346 140.362 62.2495 139.951 62.044 139.13" fill="#6ACD6A"/>
<path fill-rule="evenodd" clip-rule="evenodd" d="M61.9619 139.13C59.4164 139.007 58.1029 140.58 57.9384 140.608C57.7744 140.635 57.6099 140.361 57.6099 140.361C57.3199 139.452 57.6784 138.87 57.4049 137.939C57.3104 137.617 57.0669 137.357 56.7464 137.257C56.0764 137.047 54.7819 137.049 54.0594 137.112C53.6419 137.148 53.2999 137.459 53.2319 137.872C53.0014 139.275 53.0129 141.932 53.4634 143.563C56.2494 145.891 59.3714 148.197 63.3019 148.684C64.8154 148.872 66.3279 148.368 67.2869 147.093C67.7759 146.444 68.0029 145.636 67.8554 144.836C67.7014 143.998 67.2469 143.621 66.6694 142.948C65.6839 141.798 64.4884 140.702 62.7594 139.953C62.8924 138.976 63.0089 138.766 62.7829 137.488C62.7829 137.488 62.7829 136.666 62.0029 136.954C62.0029 136.954 62.2494 138.719 61.9619 139.13" fill="#43A746"/>
<path fill-rule="evenodd" clip-rule="evenodd" d="M62.3671 143.933C62.0116 143.996 61.6886 143.964 61.4561 143.756C61.2101 143.536 61.1866 143.097 61.4691 142.893C62.5856 142.087 64.0916 141.333 65.3321 141.248C65.7281 141.383 66.2431 141.786 66.0991 142.106C65.7886 142.797 64.9811 142.826 64.5376 143.013C64.0611 143.214 63.1381 143.796 62.3671 143.933" fill="white"/>
<path fill-rule="evenodd" clip-rule="evenodd" d="M60.9374 142.386C60.6249 142.516 60.2944 142.423 60.0334 142.271C59.7469 142.105 59.7039 141.633 60.2379 141.222C61.3294 140.382 62.3209 139.826 63.5629 139.826C64.0559 139.826 64.7534 140.483 63.9269 140.913C63.2334 141.273 61.9619 141.961 60.9374 142.386" fill="white"/>
<path fill-rule="evenodd" clip-rule="evenodd" d="M59.2262 140.717C58.9032 140.817 58.5827 140.695 58.3367 140.519C58.0667 140.328 58.0672 139.853 58.6367 139.494C59.8007 138.758 60.8392 138.295 62.0762 138.41C62.5667 138.455 63.2012 139.173 62.3382 139.525C61.6147 139.82 60.2857 140.388 59.2262 140.717" fill="white"/>
<path fill-rule="evenodd" clip-rule="evenodd" d="M66.9294 143.11C66.1904 142.536 64.7124 143.028 63.5634 143.85C62.7839 144.406 61.9619 145.738 62.0854 147.339C62.0854 147.339 64.1104 148.612 67.3129 146.97C67.3129 146.97 68.9964 144.718 66.9294 143.11" fill="#CBCBCB"/>
<path fill-rule="evenodd" clip-rule="evenodd" d="M54.423 140.643C54.2665 140.262 54.2135 139.784 54.3305 139.37C54.5955 138.432 55.6175 138.218 55.9765 139.181C56.3925 140.093 55.8145 141.385 55.139 141.33C54.8405 141.306 54.58 141.023 54.423 140.643" fill="#6ACD6A"/>
<path fill-rule="evenodd" clip-rule="evenodd" d="M67.463 146.684C67.481 146.604 64.466 148.819 59.663 146.479C55.6465 144.522 53.2585 142.496 53.2585 142.496C53.2585 142.496 53.012 143.892 54.1615 144.755C55.55 145.796 58.4725 147.751 62.0715 148.531C65.276 149.226 67.1895 147.916 67.463 146.684" fill="#B2B2B2"/>
<path fill-rule="evenodd" clip-rule="evenodd" d="M37.5359 139.13C37.5359 139.13 36.9199 136.503 38.2749 136.544C38.2749 136.544 40.4099 136.503 41.6234 137.107C42.0064 137.297 42.1759 137.758 42.1474 138.184C42.1084 138.766 42.0289 139.63 42.1339 140.444C42.1339 140.526 41.8464 141.47 41.3129 141.552C40.7789 141.635 38.9729 140.936 38.6034 140.649C38.2339 140.362 37.3304 139.951 37.5359 139.13" fill="#6ACD6A"/>
<path fill-rule="evenodd" clip-rule="evenodd" d="M37.618 139.13C40.1635 139.007 41.477 140.58 41.641 140.608C41.8055 140.635 41.97 140.361 41.97 140.361C42.26 139.452 41.9015 138.87 42.175 137.939C42.2695 137.617 42.513 137.357 42.8335 137.257C43.5035 137.047 44.798 137.049 45.5205 137.112C45.9375 137.148 46.28 137.459 46.348 137.872C46.5785 139.275 46.567 141.932 46.116 143.563C43.3305 145.891 40.2085 148.197 36.278 148.684C34.7645 148.872 33.252 148.368 32.293 147.093C31.8035 146.444 31.577 145.636 31.7245 144.836C31.8785 143.998 32.333 143.621 32.9105 142.948C33.896 141.798 35.091 140.702 36.8205 139.953C36.6875 138.976 36.571 138.766 36.797 137.488C36.797 137.488 36.797 136.666 37.577 136.954C37.577 136.954 37.3305 138.719 37.618 139.13" fill="#43A746"/>
<path fill-rule="evenodd" clip-rule="evenodd" d="M37.2126 143.933C37.5681 143.996 37.8916 143.964 38.1236 143.756C38.3696 143.536 38.3931 143.097 38.1111 142.893C36.9941 142.087 35.4881 141.333 34.2476 141.248C33.8521 141.383 33.3371 141.786 33.4806 142.106C33.7911 142.797 34.5986 142.826 35.0421 143.013C35.5186 143.214 36.4416 143.796 37.2126 143.933" fill="white"/>
<path fill-rule="evenodd" clip-rule="evenodd" d="M38.6425 142.386C38.955 142.516 39.2855 142.423 39.5465 142.271C39.8325 142.105 39.876 141.633 39.342 141.222C38.2505 140.382 37.259 139.826 36.017 139.826C35.524 139.826 34.8265 140.483 35.653 140.913C36.3465 141.273 37.618 141.961 38.6425 142.386" fill="white"/>
<path fill-rule="evenodd" clip-rule="evenodd" d="M40.354 140.717C40.677 140.817 40.9975 140.695 41.2435 140.519C41.5135 140.328 41.513 139.853 40.9435 139.494C39.7795 138.758 38.741 138.295 37.504 138.41C37.0135 138.455 36.379 139.173 37.2415 139.525C37.9655 139.82 39.2945 140.388 40.354 140.717" fill="white"/>
<path fill-rule="evenodd" clip-rule="evenodd" d="M32.6505 143.11C33.3895 142.536 34.8675 143.028 36.017 143.85C36.7965 144.406 37.618 145.738 37.495 147.339C37.495 147.339 35.4695 148.612 32.2675 146.97C32.2675 146.97 30.5835 144.718 32.6505 143.11" fill="#CBCBCB"/>
<path fill-rule="evenodd" clip-rule="evenodd" d="M45.1569 140.643C45.3139 140.262 45.3669 139.784 45.2499 139.37C44.9844 138.432 43.9629 138.218 43.6039 139.181C43.1874 140.093 43.7654 141.385 44.4409 141.33C44.7394 141.306 45.0004 141.023 45.1569 140.643" fill="#6ACD6A"/>
<path fill-rule="evenodd" clip-rule="evenodd" d="M32.1168 146.684C32.0988 146.604 35.1138 148.819 39.9173 146.479C43.9333 144.522 46.3213 142.496 46.3213 142.496C46.3213 142.496 46.5678 143.892 45.4183 144.755C44.0298 145.796 41.1073 147.751 37.5088 148.531C34.3038 149.226 32.3903 147.916 32.1168 146.684" fill="#B2B2B2"/>
<path fill-rule="evenodd" clip-rule="evenodd" d="M36.4513 110.742C36.4513 114.283 36.3668 120.856 36.6198 125.728C41.2208 125.781 42.3743 126.027 46.8858 125.767L47.4123 122.795L51.5363 122.721L52.1343 125.514C56.5243 125.963 58.8523 125.796 62.8428 125.796C63.0923 122.222 63.2583 115.737 63.2643 111.248" fill="#009145"/>
<path fill-rule="evenodd" clip-rule="evenodd" d="M47.7145 101.409C41.107 99.3242 36.344 91.6352 36.344 91.6352C37.356 89.2597 41.6665 89.1732 41.6665 89.1732L43.774 88.6677L43.765 84.0492L54.3055 83.9277L54.515 88.2447L57.2265 88.8412C57.2265 88.8412 60.233 89.6162 61.9155 91.6352L58.3765 96.5922L55.106 99.9892L47.7145 101.409" fill="#FDC0AF"/>
<path fill-rule="evenodd" clip-rule="evenodd" d="M35.5438 100.682L35.7208 112.413C35.7208 112.413 49.1893 113.078 63.8208 112.247L63.8738 100.109C63.9003 95.7658 63.4458 91.1973 63.1618 89.4813C63.0928 89.0638 62.7823 88.7333 62.3718 88.6308C58.9843 87.7913 55.1503 87.1928 55.1503 87.1928C53.8903 89.3688 51.6293 90.8663 49.1148 90.9148C46.6003 90.9628 44.0853 89.1038 43.3808 87.0918C43.3808 87.0918 40.7208 87.6808 37.1043 88.6783C37.1043 88.6783 35.6908 89.1353 35.6658 90.3548C35.6343 91.8523 35.5328 99.7583 35.5438 100.682" fill="white"/>
<path fill-rule="evenodd" clip-rule="evenodd" d="M67.2277 92.4316C67.2277 92.4316 75.6392 100.507 85.3967 94.7866L88.3837 100.87C88.3837 100.87 74.2932 106.9 65.5452 99.8341L67.2277 92.4316Z" fill="#FCCAB8"/>
<path fill-rule="evenodd" clip-rule="evenodd" d="M84.7379 95.9942C84.1054 93.9707 85.7899 91.0867 86.3394 89.0182C86.5719 88.1427 87.0734 87.0642 87.9764 87.1427C88.8319 87.2167 89.1834 88.3197 89.0414 89.1667C88.8994 90.0137 88.8999 90.6562 88.8874 91.6067C90.3639 90.7402 91.5084 89.6937 93.6679 88.6287C94.1084 88.4112 95.0839 88.1782 95.5359 88.5747C96.0979 89.0687 95.9004 89.7832 95.6764 90.2737C95.1494 91.4292 93.0799 92.2487 92.2124 93.3927C92.9564 93.0997 93.3039 92.9222 93.8359 92.5672C94.4879 92.1307 95.5714 91.5602 96.4054 91.2692C97.6599 90.8307 98.3959 91.3552 98.4204 92.2377C98.4349 92.7672 98.0794 93.2972 97.6634 93.6252C96.3334 94.6712 94.8464 95.4442 93.6079 96.2102C94.9229 95.5277 96.5874 94.6787 97.9734 94.5417C98.5754 94.4822 99.3504 94.6372 99.4149 95.5962C99.4399 95.9752 99.3274 96.3572 99.0324 96.5962C97.9299 97.4902 96.4814 98.1292 95.1489 98.6192C96.2344 98.3397 98.3514 98.0677 98.5979 99.1312C98.8329 99.9737 97.4759 100.648 95.4119 101.138C92.7509 101.77 90.1619 102.241 88.2694 101.392C87.5204 101.306 86.4254 101.393 84.7379 95.9942" fill="#FCCAB8"/>
<path fill-rule="evenodd" clip-rule="evenodd" d="M62.5295 88.6912C64.6355 89.9102 68.089 91.9897 70.4705 93.4872C70.4705 93.4872 67.0885 100.301 66.516 101.795L63.6755 100.369L58.826 97.8687C58.826 97.8687 56.004 95.8297 58.1995 91.3502C58.1995 91.3502 59.627 88.0992 62.5295 88.6912" fill="white"/>
<path fill-rule="evenodd" clip-rule="evenodd" d="M71.7004 94.3007C71.7004 94.3007 70.0924 99.4522 67.2579 102.349L65.6594 101.416C65.6594 101.416 68.8344 97.4732 70.0624 93.2012L71.7004 94.3007Z" fill="#1790CD"/>
<path fill-rule="evenodd" clip-rule="evenodd" d="M32.1904 92.4316C32.1904 92.4316 23.7784 100.507 14.0209 94.7866L11.0344 100.87C11.0344 100.87 25.1244 106.9 33.8729 99.8341L32.1904 92.4316Z" fill="#FCCAB8"/>
<path fill-rule="evenodd" clip-rule="evenodd" d="M14.68 95.9942C15.3125 93.9707 13.628 91.0867 13.0785 89.0182C12.846 88.1427 12.3445 87.0642 11.442 87.1427C10.5865 87.2167 10.2345 88.3197 10.3765 89.1667C10.5185 90.0137 10.518 90.6562 10.531 91.6067C9.0545 90.7402 7.9095 89.6937 5.75 88.6287C5.31 88.4112 4.334 88.1782 3.882 88.5747C3.32 89.0687 3.518 89.7832 3.7415 90.2737C4.269 91.4292 6.338 92.2487 7.2055 93.3927C6.4615 93.0997 6.1145 92.9222 5.582 92.5672C4.93 92.1307 3.8465 91.5602 3.013 91.2692C1.7585 90.8307 1.0225 91.3552 0.998 92.2377C0.983 92.7672 1.3385 93.2972 1.7545 93.6252C3.0845 94.6712 4.572 95.4442 5.81 96.2102C4.4955 95.5277 2.831 94.6787 1.445 94.5417C0.8425 94.4822 0.0674996 94.6372 0.00349963 95.5962C-0.0220004 95.9752 0.0904996 96.3572 0.3855 96.5962C1.488 97.4902 2.937 98.1292 4.2695 98.6192C3.1835 98.3397 1.0665 98.0677 0.82 99.1312C0.585 99.9737 1.9425 100.648 4.006 101.138C6.667 101.77 9.256 102.241 11.1485 101.392C11.8975 101.306 12.993 101.393 14.68 95.9942" fill="#FCCAB8"/>
<path fill-rule="evenodd" clip-rule="evenodd" d="M36.8885 88.6912C34.7825 89.9102 31.3285 91.9897 28.9475 93.4872C28.9475 93.4872 32.3295 100.301 32.902 101.795L35.7425 100.369L40.5915 97.8687C40.5915 97.8687 43.414 95.8297 41.2185 91.3502C41.2185 91.3502 39.791 88.0992 36.8885 88.6912" fill="white"/>
<path fill-rule="evenodd" clip-rule="evenodd" d="M27.7175 94.3007C27.7175 94.3007 29.3255 99.4522 32.16 102.349L33.7585 101.416C33.7585 101.416 30.5835 97.4732 29.3555 93.2012L27.7175 94.3007Z" fill="#1790CD"/>
<path fill-rule="evenodd" clip-rule="evenodd" d="M35.5608 101.895C45.4948 103.107 53.9368 102.632 63.8683 101.396L63.8823 104.076C53.9508 105.312 47.8138 105.762 35.6383 104.244L35.5608 101.895Z" fill="#5FCEEC"/>
<path fill-rule="evenodd" clip-rule="evenodd" d="M63.6608 95.7891C54.7483 96.7606 44.5653 96.7876 35.6438 96.0396L35.5608 98.6536C44.4828 99.4016 54.8313 99.4591 63.7438 98.4871L63.6608 95.7891Z" fill="#5FCEEC"/>
<path fill-rule="evenodd" clip-rule="evenodd" d="M41.8235 87.4713C41.8235 87.4713 43.0645 86.6953 43.4865 86.6953C43.4865 86.6953 44.9915 89.7278 49.361 89.3558C53.324 89.0188 54.671 86.8138 54.671 86.8138C54.671 86.8138 55.1805 86.7508 56.2335 87.3603C56.2335 87.3603 54.6915 91.2783 48.6 91.1983C43.3755 91.1293 41.8235 87.4713 41.8235 87.4713" fill="#1790CD"/>
<path fill-rule="evenodd" clip-rule="evenodd" d="M22.9712 62.9818C22.9842 69.5628 19.7207 69.9403 15.9577 70.0083C10.9492 70.0983 7.50019 66.2293 8.34119 61.6868C9.08419 57.6748 12.4512 55.9743 16.3322 55.9668C20.2137 55.9593 22.9597 57.0478 22.9712 62.9818" fill="#F6B6A8"/>
<path fill-rule="evenodd" clip-rule="evenodd" d="M72.2635 61.9126C72.2505 68.4936 75.0685 69.1996 78.832 69.2586C84.215 69.3426 86.3105 65.8136 86.318 61.9406C86.326 58.0676 83.186 54.9216 79.305 54.9141C75.4235 54.9061 72.275 55.9791 72.2635 61.9126" fill="#F6B6A8"/>
<path fill-rule="evenodd" clip-rule="evenodd" d="M18.2694 39.3066C18.2244 42.6081 16.9884 45.9226 16.5404 49.1936C15.1544 59.3046 15.5474 69.4731 21.9839 76.0791C28.6939 82.9656 38.4779 86.2266 51.9674 86.0561C60.1919 85.9521 76.8839 79.9626 79.8759 69.0081C80.4879 66.7696 80.4379 63.3551 79.1444 58.5526C78.0624 54.5381 78.1589 47.5626 78.8734 42.4641C78.8734 42.4641 80.5674 29.9036 71.6529 29.4151C64.4799 29.0221 51.8644 26.4766 51.8644 26.4766L39.6634 28.5351L31.6839 29.9516C31.6839 29.9516 18.3679 32.0671 18.2694 39.3066" fill="#FCCAB8"/>
<path d="M49.9318 60.7317C51.5358 60.6847 52.5773 60.0177 52.8758 58.6712C53.2103 57.1617 52.6463 55.6247 51.0988 55.0837C50.3458 54.8207 49.8928 54.4347 49.1338 54.6877L48.7268 52.1582" stroke="#F1927A" stroke-width="1.745" stroke-linecap="round" stroke-linejoin="round"/>
<path fill-rule="evenodd" clip-rule="evenodd" d="M59.0252 64.214C49.9752 66.859 42.1572 65.33 38.7112 64.3595C37.7852 64.099 36.8972 64.823 37.0917 65.6765C37.7527 68.5715 40.1087 73.741 48.4962 74.2895C57.3197 74.8675 60.2652 69.4145 60.6722 65.516C60.7637 64.641 59.9567 63.9415 59.0252 64.214" fill="#E64F3F"/>
<path fill-rule="evenodd" clip-rule="evenodd" d="M43.1178 68.2173C48.2428 68.9098 51.2443 68.9233 55.3734 68.0388C55.3734 68.0388 59.1954 67.3733 59.1154 64.1973C59.0854 64.2043 59.0564 64.2058 59.0254 64.2123C51.9814 65.7398 44.8858 65.4023 39.0004 64.4358C38.8494 65.0493 39.2903 67.6998 43.1178 68.2173" fill="white"/>
<path fill-rule="evenodd" clip-rule="evenodd" d="M34.1071 67.8616C34.1126 70.6141 31.1146 72.8511 27.4111 72.8586C23.7076 72.8661 20.7011 70.6411 20.6951 67.8881C20.6901 65.1356 23.6876 62.8981 27.3911 62.8906C31.0951 62.8831 34.1016 65.1086 34.1071 67.8616" fill="#FFB4AE"/>
<path fill-rule="evenodd" clip-rule="evenodd" d="M76.8966 67.9471C76.9021 70.7001 73.9041 72.9371 70.2006 72.9446C66.4971 72.9521 63.4906 70.7266 63.4851 67.9741C63.4796 65.2211 66.4776 62.9836 70.1806 62.9766C73.8846 62.9691 76.8911 65.1946 76.8966 67.9471" fill="#FFB4AE"/>
<path fill-rule="evenodd" clip-rule="evenodd" d="M60.3201 44.0677C60.3201 44.0677 62.0826 42.9032 67.4276 41.9997C67.4276 41.9997 63.4916 41.4267 60.3201 44.0677Z" stroke="#D2814A" stroke-width="2.0235" stroke-linecap="round" stroke-linejoin="round"/>
<path fill-rule="evenodd" clip-rule="evenodd" d="M8.88228 45.7798C9.82128 51.1443 13.1993 58.2418 16.1253 63.2158C15.3203 54.6318 16.9298 45.7798 19.0758 38.8053C19.7408 36.6443 13.2748 37.4023 12.6238 38.4143C11.4163 40.2923 8.53378 43.7868 8.88228 45.7798" fill="#F3A03D"/>
<path fill-rule="evenodd" clip-rule="evenodd" d="M27.0784 56.1149C27.2444 53.2159 28.7734 51.3824 30.5254 50.7004C32.1824 49.7074 33.8854 49.9904 33.8854 49.9904C39.0874 49.9424 40.7244 53.9204 40.4814 57.0284C40.2584 59.8789 37.8669 62.9469 34.0344 63.0339C34.0344 63.0339 26.9794 63.0339 27.0784 56.1149" fill="white"/>
<path fill-rule="evenodd" clip-rule="evenodd" d="M30.6689 56.3481C30.6339 53.2056 31.7939 51.0936 33.5569 49.9601C32.9834 49.9296 31.7434 49.9701 30.5254 50.7001C28.7734 51.3821 27.2444 53.2156 27.0784 56.1146C26.9799 63.0336 34.0344 63.0336 34.0344 63.0336C34.1374 63.0316 34.2379 63.0256 34.3384 63.0196C32.3524 62.0591 30.7084 59.9041 30.6689 56.3481" fill="white"/>
<path fill-rule="evenodd" clip-rule="evenodd" d="M40.4815 57.0275C40.7245 53.9195 39.0875 49.9415 33.8855 49.9895C33.8855 49.9895 33.763 49.97 33.5565 49.959C31.794 51.093 30.634 53.2045 30.669 56.3475C30.7085 59.9035 32.352 62.0585 34.338 63.0185C37.9925 62.781 40.2645 59.802 40.4815 57.0275" fill="#1790CD"/>
<path fill-rule="evenodd" clip-rule="evenodd" d="M70.8959 56.1149C70.7299 53.2159 69.2009 51.3824 67.4489 50.7004C65.7919 49.7074 64.0889 49.9904 64.0889 49.9904C58.8864 49.9424 57.2499 53.9204 57.4929 57.0284C57.7154 59.8789 60.1069 62.9469 63.9394 63.0339C63.9394 63.0339 70.9944 63.0339 70.8959 56.1149" fill="white"/>
<path fill-rule="evenodd" clip-rule="evenodd" d="M61.0816 57.0273C60.8661 54.2713 62.1311 50.8338 66.0471 50.1228C64.9526 49.8483 64.0886 49.9893 64.0886 49.9893C58.8866 49.9413 57.2496 53.9193 57.4926 57.0273C57.7156 59.8778 60.1071 62.9458 63.9396 63.0328C63.9396 63.0328 64.7356 63.0318 65.7881 62.7698C62.9806 61.9593 61.2686 59.4173 61.0816 57.0273" fill="white"/>
<path fill-rule="evenodd" clip-rule="evenodd" d="M70.8959 56.1135C70.7299 53.2145 69.2009 51.381 67.4484 50.699C66.9709 50.4125 66.4904 50.2345 66.0469 50.123C62.1314 50.8335 60.8664 54.271 61.0819 57.027C61.2689 59.417 62.9809 61.959 65.7884 62.77C67.8714 62.2515 70.9614 60.71 70.8959 56.1135" fill="#1790CD"/>
<path fill-rule="evenodd" clip-rule="evenodd" d="M58.3716 51.7414C58.3716 51.7414 64.7396 47.1754 70.5516 52.9804C70.5516 52.9804 65.1931 46.5324 58.3716 51.7414" fill="#8D592D"/>
<path fill-rule="evenodd" clip-rule="evenodd" d="M58.3716 51.7414C58.3716 51.7414 64.7396 47.1754 70.5516 52.9804C70.5516 52.9804 65.1931 46.5324 58.3716 51.7414Z" stroke="#B16632" stroke-width="1.5805" stroke-linecap="round" stroke-linejoin="round"/>
<path fill-rule="evenodd" clip-rule="evenodd" d="M39.4012 51.7414C39.4012 51.7414 33.0332 47.1754 27.2212 52.9804C27.2212 52.9804 32.5797 46.5324 39.4012 51.7414" fill="#8D592D"/>
<path fill-rule="evenodd" clip-rule="evenodd" d="M39.4012 51.7414C39.4012 51.7414 33.0332 47.1754 27.2212 52.9804C27.2212 52.9804 32.5797 46.5324 39.4012 51.7414Z" stroke="#B16632" stroke-width="1.5805" stroke-linecap="round" stroke-linejoin="round"/>
<path fill-rule="evenodd" clip-rule="evenodd" d="M17.6006 44.3044C17.6006 44.3044 35.1416 23.7864 41.0726 11.1754C33.5611 10.1029 27.1231 11.1754 21.4901 14.6629C16.3461 17.8474 10.7536 25.3894 9.09157 31.2064C7.48207 36.8394 7.67507 40.6834 8.74807 45.7799C8.74807 45.7799 13.4426 45.7799 17.6006 44.0364" fill="#F3A03D"/>
<path fill-rule="evenodd" clip-rule="evenodd" d="M38.5487 44.4675C38.5487 44.4675 36.6882 43.467 31.2837 43.0495C31.2837 43.0495 35.1517 42.1235 38.5487 44.4675Z" stroke="#D2814A" stroke-width="2.0235" stroke-linecap="round" stroke-linejoin="round"/>
<path fill-rule="evenodd" clip-rule="evenodd" d="M79.5726 59.83C82.1146 53.558 83.1266 49.7035 83.7241 43.6325C83.9226 41.6185 84.3956 36.6585 83.1876 34.78C82.5371 33.7685 76.6511 33.296 76.8746 35.5465L78.2236 51.398C78.0546 47.688 78.2236 55.108 79.5726 59.83" fill="#F3A03D"/>
<path fill-rule="evenodd" clip-rule="evenodd" d="M86.1384 29.4158C93.9174 27.2698 98.7459 22.4413 101.563 19.2223C89.8939 11.5773 85.0654 10.3698 74.3354 8.76031C77.2189 7.35231 80.0354 6.34631 82.6509 2.05431C71.3844 -1.16469 59.3134 -0.695189 48.0469 4.13331C43.4654 6.09681 37.0884 9.80731 34.0529 14.0443C33.4349 14.9068 34.1859 15.9133 33.6179 16.8023C32.9859 17.7918 31.4469 18.6248 30.5484 19.4073C28.1664 21.4828 25.9359 23.7343 23.8724 26.1263C20.0034 30.6123 16.7249 35.6098 14.1724 40.9568C12.7534 43.9293 15.6984 38.3568 18.2714 40.4138C19.7709 33.7678 20.1714 36.1238 26.5869 33.7078C33.0024 31.2918 40.9589 31.7208 47.7784 31.0253C55.9259 30.1943 67.3609 31.6288 75.9449 37.7988C76.9009 38.4858 76.5894 39.7653 77.8224 39.8778C80.7734 40.1458 83.8154 39.5308 84.7969 39.0728C84.7969 39.0728 90.5644 37.5973 94.3199 33.3053C94.3199 33.3053 92.0399 30.4888 86.1384 29.4158" fill="#F3A03D"/>
<path fill-rule="evenodd" clip-rule="evenodd" d="M37.3169 31.8303C37.5189 34.2543 37.0484 36.6588 36.0709 38.7073C47.5104 38.9393 57.9724 33.7083 61.4594 24.0508C58.0624 21.6068 51.9594 19.9478 47.7784 19.7588C40.8844 19.4478 41.2494 19.2238 34.8059 21.6948C27.6694 24.4303 22.1689 30.2423 17.5559 36.3368C16.5109 37.7173 13.6989 41.4728 14.6499 43.6333C15.4194 45.3823 21.3419 42.9703 22.8314 42.1578C25.7824 40.5488 33.0249 37.7323 37.3169 31.8303" fill="#F3A03D"/>
<path d="M30.8789 8.49141C33.9639 9.96641 35.9754 12.3809 35.9754 12.3809C35.9754 12.3809 36.7804 6.07691 38.3899 5.00391" stroke="#F3A03D" stroke-width="2.42" stroke-linecap="round"/>
<path fill-rule="evenodd" clip-rule="evenodd" d="M16.6617 27.5377C16.6617 27.5377 14.2472 31.8297 13.9792 35.0487C13.9792 35.0487 17.7347 37.1947 27.6602 30.7567C27.6602 30.7567 26.8552 34.7802 25.5142 35.8537C26.5872 35.3172 30.6107 31.5617 32.4882 25.6602C32.4882 25.6602 22.2952 32.6342 16.1252 32.9027C16.1252 32.9027 15.3202 30.2202 16.6617 27.5377" fill="#FFC478"/>
<path fill-rule="evenodd" clip-rule="evenodd" d="M58.2405 22.7105C58.2405 22.7105 72.1895 20.5645 81.578 23.2465C81.578 23.2465 77.5545 26.466 75.6765 26.734C75.6765 26.734 85.0655 25.929 89.089 20.028C89.089 20.028 71.921 17.882 58.2405 22.7105" fill="#FFC478"/>
<path fill-rule="evenodd" clip-rule="evenodd" d="M51.3335 15.5602C51.3335 15.5602 55.8465 8.98471 69.838 10.3142C69.838 10.3142 55.3305 13.1167 51.3335 15.5602" fill="#FFC478"/>
</svg>
