<svg width="73" height="80" viewBox="0 0 73 80" fill="none" xmlns="http://www.w3.org/2000/svg">
<path fill-rule="evenodd" clip-rule="evenodd" d="M40.9159 41.9914C40.9159 40.7379 41.4729 39.4154 43.1439 38.5799C44.2789 38.0124 46.6259 37.6744 48.2969 35.5854C49.2839 34.3514 50.6199 32.3824 51.1669 30.9794C51.4114 30.3519 51.5774 29.7094 51.7009 29.0439C53.0879 21.5879 54.7149 11.4729 48.6449 6.0624C44.9049 2.7279 39.9594 1.1184 35.3194 0.212899C31.2329 -0.204601 26.6069 0.212899 26.6069 0.212899C21.9669 1.1184 17.2099 2.2594 13.4694 5.5939C7.39994 11.0039 7.98294 21.5879 9.36894 29.0439C9.49244 29.7094 9.65894 30.3519 9.90344 30.9794C10.4499 32.3824 11.6759 33.2934 12.6459 34.5414C14.1084 36.4209 15.5244 36.6839 17.5199 37.3959C22.4864 39.1684 20.6559 41.4564 20.8624 42.2004" fill="white"/>
<mask id="mask0" mask-type="alpha" maskUnits="userSpaceOnUse" x="9" y="0" width="21" height="36">
<path fill-rule="evenodd" clip-rule="evenodd" d="M9.30884 0H29.4538V35.7251H9.30884V0Z" fill="white"/>
</mask>
<g mask="url(#mask0)">
<path fill-rule="evenodd" clip-rule="evenodd" d="M29.3226 0.00486551C29.3226 0.00486551 30.4696 9.86137 25.9801 12.7474C20.1311 16.5074 18.7761 18.8404 18.4596 23.2964C18.4596 23.2964 18.1871 32.2444 13.7601 35.7254C13.7601 35.7254 9.2691 31.9654 9.3091 24.2364C9.3451 17.2664 11.3686 7.48437 15.0136 4.39137C18.4596 1.46737 22.9511 -0.0991345 29.3226 0.00486551" fill="#D68950"/>
</g>
<mask id="mask1" mask-type="alpha" maskUnits="userSpaceOnUse" x="32" y="0" width="21" height="36">
<path fill-rule="evenodd" clip-rule="evenodd" d="M32.3979 0H52.543V35.8646H32.3979V0Z" fill="white"/>
</mask>
<g mask="url(#mask1)">
<path fill-rule="evenodd" clip-rule="evenodd" d="M32.5292 0.00486551C32.5292 0.00486551 31.3817 9.86137 35.8717 12.7474C41.7202 16.5074 43.0752 18.8404 43.3917 23.2964C43.3917 23.2964 43.7297 32.3834 48.1577 35.8649C48.1577 35.8649 52.5827 31.9654 52.5427 24.2364C52.5067 17.2664 50.4827 7.48437 46.8382 4.39137C43.3917 1.46737 38.9002 -0.0991345 32.5292 0.00486551" fill="#D68950"/>
</g>
<path fill-rule="evenodd" clip-rule="evenodd" d="M46.8695 74.6837C46.8695 74.6837 44.169 75.2052 43.697 76.7777C43.2575 78.2427 43.4905 79.7017 44.457 79.7402C46.423 79.8192 49.76 79.8267 52.99 79.7797C52.99 79.7797 56.844 80.0547 56.726 75.5722C56.6725 73.5452 56.4635 70.2507 56.4635 70.2507C56.4635 70.2507 55.5385 67.5817 54.3895 65.7017C52.852 63.1857 52.8225 59.0172 50.1075 58.3902C47.3915 57.7637 45.5115 57.7637 45.5115 57.7637C45.5115 57.7637 45.407 62.6727 45.825 64.5527C46.2425 66.4327 46.6605 70.9237 46.347 71.5502C46.0335 72.1772 46.8695 74.6837 46.8695 74.6837" fill="#E4E4E4"/>
<path fill-rule="evenodd" clip-rule="evenodd" d="M47.2869 73.0126C47.2869 73.0126 46.1914 71.8636 49.2199 72.0726C49.2199 72.0726 49.2199 66.6416 47.1309 66.3281C47.1309 66.3281 46.5559 72.2816 47.2869 73.0126" fill="#CDCDCD"/>
<path fill-rule="evenodd" clip-rule="evenodd" d="M43.2138 46.9004C43.2138 46.9004 57.2093 56.0914 56.5828 72.1764L55.4688 69.4954C55.4688 69.4954 54.2853 66.0139 51.2563 63.0894C48.9658 60.8779 47.3913 60.1649 47.3913 60.1649C47.3913 60.1649 43.0048 48.4669 43.2138 46.9004" fill="#A7602C"/>
<path fill-rule="evenodd" clip-rule="evenodd" d="M38.9701 79.7625C33.8211 79.6995 26.2221 79.902 22.3166 79.825C21.7361 79.814 21.2961 79.299 21.3736 78.7235L22.0111 73.9515L19.5046 69.878L19.7131 63.298L23.8916 60.2695L41.9601 60.5825L43.9446 64.969C43.9446 64.969 42.2736 71.236 41.7511 72.176C41.2296 73.116 38.9391 78.4675 38.9391 78.4675C38.9391 78.4675 40.1621 79.19 39.4586 79.637C39.3136 79.729 39.1416 79.765 38.9701 79.7625" fill="#E4E4E4"/>
<path fill-rule="evenodd" clip-rule="evenodd" d="M14.0471 70.3027C14.0471 70.3027 11.0586 72.1377 11.2681 75.9132C11.5216 80.4722 18.3466 79.7927 18.3466 79.7927C18.3466 79.7927 20.0266 79.6842 19.1211 77.0782C18.2161 74.4727 18.5036 70.3027 14.0471 70.3027" fill="#E4E4E4"/>
<mask id="mask2" mask-type="alpha" maskUnits="userSpaceOnUse" x="13" y="40" width="37" height="40">
<path fill-rule="evenodd" clip-rule="evenodd" d="M13.386 40.7988H49.1093V79.9225H13.386V40.7988Z" fill="white"/>
</mask>
<g mask="url(#mask2)">
<path fill-rule="evenodd" clip-rule="evenodd" d="M21.3875 41.9372C21.3875 41.9372 13.8355 55.0412 13.4185 62.9092C13.2215 66.6107 13.933 73.0047 15.186 76.5982C14.9545 78.2977 15.929 79.5762 17.6555 79.7392C18.766 79.8442 19.9455 80.0282 23.118 79.8442C24.48 79.7657 25.8025 79.8737 26.5165 78.7432C27.4605 77.2492 26.8705 75.0472 23.9605 73.9062C23.8815 73.6317 23.567 73.0807 23.567 73.0807C23.213 71.9012 22.1035 70.6122 21.94 66.6407C21.824 63.8007 22.149 63.2987 22.149 63.2987C22.149 63.2987 29.912 66.6237 39.8325 63.2987C39.8325 63.2987 40.1575 63.8007 40.0415 66.6407C39.878 70.6122 38.7685 71.9012 38.4145 73.0807C38.4145 73.0807 38.1 73.6317 38.0215 73.9062C35.111 75.0472 34.5215 77.2492 35.465 78.7432C36.179 79.8737 37.773 79.6607 39.1355 79.7392C42.3075 79.9232 42.779 79.8442 44.326 79.7392C46.0565 79.6222 47.027 78.2977 46.7955 76.5982C48.0485 73.0047 49.2855 66.5822 49.0885 62.8807C48.671 55.0122 40.877 41.7822 40.877 41.7822C40.877 41.7822 30.0065 39.4697 21.3875 41.9372" fill="white"/>
</g>
<path fill-rule="evenodd" clip-rule="evenodd" d="M54.9856 63.9449C56.9266 64.5419 58.7661 64.4074 58.7661 64.4074C62.0746 64.6354 68.5606 62.1718 67.5976 54.7598C67.2736 52.2683 65.4301 49.1693 65.4301 49.1693C64.5166 46.3173 66.4566 45.9754 66.4566 45.9754C68.6241 44.9484 71.2481 49.8538 71.2481 49.8538C73.6206 54.8988 73.2741 59.8023 71.0246 63.7393C67.4411 70.0103 58.9946 69.4273 58.9946 69.4273C58.9946 69.4273 57.5086 69.5063 56.1646 69.3568L54.9856 63.9449Z" fill="#A7602C"/>
<path fill-rule="evenodd" clip-rule="evenodd" d="M19.8788 8.0288C18.1198 8.1473 16.5898 7.5693 16.5378 6.8033C16.4738 5.8528 17.8398 5.3023 19.5988 5.1838C21.3583 5.0648 22.8948 5.3048 22.9708 6.4268C23.0513 7.6238 21.6383 7.9103 19.8788 8.0288" fill="white"/>
<path fill-rule="evenodd" clip-rule="evenodd" d="M41.6693 8.0288C43.4288 8.1473 44.9588 7.5693 45.0108 6.8033C45.0748 5.8528 43.7083 5.3023 41.9498 5.1838C40.1903 5.0648 38.6538 5.3048 38.5778 6.4268C38.4968 7.6238 39.9103 7.9103 41.6693 8.0288" fill="white"/>
<path fill-rule="evenodd" clip-rule="evenodd" d="M16.0287 13.0241C16.0942 15.1186 17.7967 16.9231 19.8772 16.9631C22.4577 17.0126 23.7282 15.3721 23.7682 13.2771C23.8092 11.1811 22.9157 9.36056 19.8692 9.30206C16.6177 9.24006 15.9792 11.4426 16.0287 13.0241" fill="white"/>
<path fill-rule="evenodd" clip-rule="evenodd" d="M17.7694 12.8259C17.6389 14.7164 19.1974 16.4879 20.6034 16.5199C22.3464 16.5589 23.2079 15.0729 23.2384 13.1779C23.2699 11.2829 22.6619 9.77338 20.6124 9.59238C19.0939 9.45838 17.9209 10.6309 17.7694 12.8259" fill="#562E12"/>
<path fill-rule="evenodd" clip-rule="evenodd" d="M45.2396 13.0241C45.1741 15.1186 43.4721 16.9231 41.3911 16.9631C38.8106 17.0126 37.5401 15.3721 37.5001 13.2771C37.4596 11.1811 38.3526 9.36056 41.3991 9.30206C44.6506 9.24006 45.2891 11.4426 45.2396 13.0241" fill="white"/>
<path fill-rule="evenodd" clip-rule="evenodd" d="M43.4989 12.8259C43.6294 14.7164 42.0709 16.4879 40.6654 16.5199C38.9224 16.5589 38.0609 15.0729 38.0299 13.1779C37.9989 11.2829 38.6064 9.77338 40.6564 9.59238C42.1749 9.45838 43.3474 10.6309 43.4989 12.8259" fill="#562E12"/>
<path fill-rule="evenodd" clip-rule="evenodd" d="M45.929 3.48556C45.929 3.48556 47.7395 2.51056 49.8285 4.04206C51.8935 5.55656 53.31 7.38456 55.6775 10.3091C58.0445 13.2336 59.577 13.2336 60.8305 15.3226C62.0835 17.4116 62.223 21.4501 59.577 32.0341C59.577 32.0341 57.488 40.5291 55.5385 41.7821C54.172 42.6606 52.748 41.4986 51.778 40.5291C51.3485 40.0991 50.477 38.8221 49.731 37.6836C48.9735 36.5256 48.779 35.0951 49.1765 33.7696C49.653 32.1826 50.2465 29.4366 50.5945 24.9666C51.221 16.9241 50.5945 12.8506 45.929 3.48556" fill="#A7602C"/>
<mask id="mask3" mask-type="alpha" maskUnits="userSpaceOnUse" x="0" y="3" width="17" height="40">
<path fill-rule="evenodd" clip-rule="evenodd" d="M0 3.20898H16.1625V42.0949H0V3.20898Z" fill="white"/>
</mask>
<g mask="url(#mask3)">
<path fill-rule="evenodd" clip-rule="evenodd" d="M16.1626 3.55662C16.1626 3.55662 13.9566 2.51212 11.8676 4.04412C9.80306 5.55812 8.38606 7.38612 6.01906 10.3111C3.65156 13.2351 2.11956 13.2351 0.866064 15.3241C-0.387436 17.4131 -0.526436 21.4516 2.11956 32.0356C2.11956 32.0356 4.20856 40.5306 6.15806 41.7836C7.52456 42.6621 8.94806 41.5006 9.91806 40.5306C10.2246 40.2241 10.7951 39.4586 11.3946 38.6121C12.5996 36.9106 12.9806 34.7501 12.3831 32.7521C11.9021 31.1391 11.3896 28.6636 11.1021 24.9681C10.4751 16.9256 11.4971 12.9216 16.1626 3.55662" fill="#A75D29"/>
</g>
<path fill-rule="evenodd" clip-rule="evenodd" d="M26.6243 27.3033C26.6243 27.3033 27.1223 30.7353 31.0483 30.5118C34.3603 30.3228 34.5488 27.4922 34.5488 27.4922C34.5488 27.4922 30.9538 24.5667 30.5853 23.9062C30.5853 23.9062 28.6978 26.7373 26.6243 27.3033" fill="#C03B0C"/>
<path fill-rule="evenodd" clip-rule="evenodd" d="M25.9027 27.9106C25.5602 27.9106 25.1962 27.8796 24.8062 27.8146C22.6232 27.4466 20.9147 25.8056 20.8432 25.7361C20.5622 25.4626 20.5562 25.0141 20.8292 24.7331C21.1022 24.4521 21.5512 24.4456 21.8312 24.7181C21.8597 24.7451 23.3112 26.1241 25.0412 26.4151C27.1142 26.7661 28.1432 25.8711 29.4842 24.4711C29.8112 24.0721 30.0142 21.5276 29.9137 19.0301C29.8982 18.6386 30.2032 18.3091 30.5947 18.2931C30.9792 18.2861 31.3157 18.5821 31.3317 18.9736C31.3967 20.5951 31.4472 24.4726 30.5087 25.4526C29.2237 26.7946 27.9642 27.9106 25.9027 27.9106" fill="#A2411F"/>
<path fill-rule="evenodd" clip-rule="evenodd" d="M20.3187 26.2652C20.0632 26.2652 19.8162 26.1267 19.6897 25.8847C19.5087 25.5387 19.6412 25.1122 19.9852 24.9292C20.0027 24.9197 20.4532 24.6672 20.7747 24.1787C20.9907 23.8507 21.4307 23.7612 21.7572 23.9767C22.0842 24.1922 22.1752 24.6317 21.9592 24.9592C21.4332 25.7577 20.7257 26.1432 20.6472 26.1842C20.5422 26.2392 20.4297 26.2652 20.3187 26.2652" fill="#A2411F"/>
<path fill-rule="evenodd" clip-rule="evenodd" d="M35.4364 27.911C33.3749 27.911 32.1154 26.795 30.8304 25.453C29.8919 24.473 29.9424 20.5955 30.0074 18.974C30.0229 18.592 30.3374 18.293 30.7159 18.293C30.7254 18.293 30.7349 18.2935 30.7444 18.2935C31.1359 18.3095 31.4409 18.639 31.4254 19.0305C31.3249 21.528 31.5279 24.0725 31.8584 24.475C33.1959 25.8715 34.2269 26.766 36.2979 26.4155C38.0359 26.123 39.4929 24.7325 39.5079 24.718C39.7894 24.446 40.2384 24.454 40.5104 24.7345C40.7824 25.016 40.7764 25.4635 40.4959 25.7365C40.4244 25.806 38.7159 27.447 36.5329 27.815C36.1429 27.88 35.7789 27.911 35.4364 27.911" fill="#A2411F"/>
<path fill-rule="evenodd" clip-rule="evenodd" d="M41.0205 26.2652C40.9095 26.2652 40.797 26.2392 40.692 26.1842C40.6135 26.1432 39.906 25.7577 39.38 24.9592C39.164 24.6317 39.255 24.1922 39.582 23.9767C39.908 23.7612 40.3485 23.8507 40.5645 24.1787C40.8895 24.6717 41.345 24.9247 41.35 24.9272C41.6975 25.1087 41.831 25.5377 41.6495 25.8847C41.523 26.1267 41.276 26.2652 41.0205 26.2652" fill="#A2411F"/>
<path fill-rule="evenodd" clip-rule="evenodd" d="M29.6868 14.0543C31.2613 13.9598 34.1553 14.0368 35.4113 15.2173C36.4053 16.1513 35.6018 17.8948 34.7238 18.6198C34.7238 18.6198 33.9203 19.2593 32.7913 20.1153C31.5863 21.0283 30.5088 20.9813 30.5088 20.9813" fill="#562E12"/>
<path fill-rule="evenodd" clip-rule="evenodd" d="M31.8558 14.0543C30.2818 13.9598 27.3878 14.0368 26.1318 15.2173C25.1378 16.1513 25.9413 17.8948 26.8193 18.6198C26.8193 18.6198 27.4448 19.3288 28.5068 20.1153C29.7213 21.0148 30.7888 20.9813 30.7888 20.9813" fill="#562E12"/>
<path fill-rule="evenodd" clip-rule="evenodd" d="M13.6541 61.0083C13.6541 61.0083 19.2986 58.1203 21.4891 52.6448C24.4136 45.3333 20.8621 39.9023 20.8621 39.9023C20.6531 40.5293 20.4281 42.2043 19.6086 44.4978C18.5641 47.4223 17.1021 49.5113 16.2666 51.3918C14.6126 55.1128 13.9961 58.1023 13.6541 61.0083" fill="#D68950"/>
<path fill-rule="evenodd" clip-rule="evenodd" d="M48.8088 60.9298C48.8088 60.9298 43.0153 58.1203 40.8248 52.6453C37.9008 45.3338 41.4513 39.9023 41.4513 39.9023C41.6603 40.5293 41.8853 42.2043 42.7048 44.4983C43.7493 47.4223 45.2118 49.5113 46.0473 51.3918C47.7013 55.1128 48.4668 58.0238 48.8088 60.9298" fill="#D68950"/>
<path fill-rule="evenodd" clip-rule="evenodd" d="M23.1086 75.3613C23.1086 75.3613 25.1976 76.9283 24.3621 78.9128C24.3621 78.9128 23.6311 76.8238 23.1086 75.3613" fill="#D68950"/>
<path fill-rule="evenodd" clip-rule="evenodd" d="M42.7728 75.8301C42.7728 75.8301 40.6838 77.3971 41.5193 79.3816C41.5193 79.3816 42.2503 77.2926 42.7728 75.8301" fill="#D68950"/>
<path fill-rule="evenodd" clip-rule="evenodd" d="M19.301 75.9863C19.301 75.9863 21.39 77.5533 20.5545 79.5378C20.5545 79.5378 19.8235 77.4488 19.301 75.9863" fill="#D68950"/>
<path fill-rule="evenodd" clip-rule="evenodd" d="M38.7508 75.5957C38.7508 75.5957 36.6618 77.1627 37.4973 79.1472C37.4973 79.1472 38.2288 77.0582 38.7508 75.5957" fill="#D68950"/>
<path fill-rule="evenodd" clip-rule="evenodd" d="M66.4569 45.9751C66.4569 45.9751 64.5984 46.2506 65.4299 49.1696C65.4299 49.1696 66.6789 51.4621 66.8184 52.0191C66.8184 52.0191 67.6804 54.2286 67.5974 54.7596C67.5974 54.7596 69.3949 53.4116 72.4584 53.3421C72.3194 53.0636 71.6159 49.0161 69.4139 46.8926C69.4139 46.8926 68.2534 45.3616 66.4569 45.9751" fill="white"/>
<path fill-rule="evenodd" clip-rule="evenodd" d="M50.6643 22.7738C50.5248 26.0463 49.4673 33.2878 49.0498 34.5413C48.6318 35.7948 49.6763 38.0923 51.7778 40.5298C53.7553 42.8233 55.5948 41.7828 55.5948 41.7828C51.7778 41.2258 50.8603 35.5158 50.9993 34.6803C51.1383 33.8453 51.2778 32.3128 52.1133 27.7178C52.9488 23.1218 52.1133 19.3618 52.1133 19.3618C52.1133 19.3618 50.7338 14.0698 50.1763 13.6523C50.1763 13.6523 50.8333 18.7928 50.6643 22.7738" fill="#985323"/>
<path fill-rule="evenodd" clip-rule="evenodd" d="M35.5247 43.8157C35.5247 43.8157 41.2242 43.3382 42.2952 42.5417C42.2952 42.5417 42.0372 39.4177 42.0922 39.4202C42.0922 39.4202 39.1952 40.2332 35.4712 40.5827C30.5997 41.2442 26.0762 40.5327 26.0762 40.5327C22.2747 39.9762 20.2982 39.3047 20.2982 39.3047C20.3522 39.3047 20.2197 42.4032 20.2197 42.4032C21.2562 43.2402 26.8557 43.8157 26.8557 43.8157C26.8557 43.8157 31.1052 44.4802 35.5247 43.8157" fill="#8B6239"/>
<path fill-rule="evenodd" clip-rule="evenodd" d="M34.4973 43.1609C34.4973 44.9624 33.0373 46.4219 31.2368 46.4219C29.4353 46.4219 27.9753 44.9624 27.9753 43.1609C27.9753 41.3599 29.4353 39.9004 31.2368 39.9004C33.0373 39.9004 34.4973 41.3599 34.4973 43.1609" fill="#B2B2B2"/>
</svg>
