<svg xmlns="http://www.w3.org/2000/svg" width="15" height="17" fill="none" viewBox="0 0 15 17">
    <path fill="#FFFCF7" fill-rule="evenodd" d="M4.06 5.1c0-1.864 1.543-3.38 3.44-3.38s3.44 1.516 3.44 3.38c0 1.863-1.543 3.38-3.44 3.38S4.06 6.963 4.06 5.1zm.834 4.41C3.35 8.626 2.308 6.98 2.308 5.1 2.308 2.288 4.637 0 7.5 0s5.192 2.288 5.192 5.1c0 1.88-1.04 3.526-2.587 4.41C12.96 10.52 15 13.134 15 16.194c0 .445-.38.806-.848.806-.469 0-.849-.361-.849-.806 0-3.04-2.603-5.515-5.803-5.515-3.2 0-5.803 2.474-5.803 5.515 0 .445-.38.806-.849.806C.38 17 0 16.639 0 16.194c0-3.06 2.04-5.675 4.894-6.684z" clip-rule="evenodd"/>
</svg>
