<svg width="30" height="30" viewBox="0 0 30 30" fill="none" xmlns="http://www.w3.org/2000/svg">
<path fill-rule="evenodd" clip-rule="evenodd" d="M24.6777 4.87868C25.8492 6.05025 25.8492 7.94975 24.6777 9.12132L19.0208 14.7768L24.6777 20.435C25.8492 21.6066 25.8492 23.5061 24.6777 24.6777C23.5061 25.8492 21.6066 25.8492 20.435 24.6777L14.7782 19.0194L9.12132 24.6777C7.94975 25.8492 6.05025 25.8492 4.87868 24.6777C3.70711 23.5061 3.70711 21.6066 4.87868 20.435L10.5355 14.7768L4.87868 9.12132C3.70711 7.94975 3.70711 6.05025 4.87868 4.87868C6.05025 3.70711 7.94975 3.70711 9.12132 4.87868L14.7782 10.5341L20.435 4.87868C21.6066 3.70711 23.5061 3.70711 24.6777 4.87868Z" fill="#999999"/>
</svg>
