<svg width="28" height="28" viewBox="0 0 28 28" fill="none" xmlns="http://www.w3.org/2000/svg">
<path fill-rule="evenodd" clip-rule="evenodd" d="M27.1792 14.1821C27.1792 13.1988 27.0909 12.2533 26.9271 11.3457H13.8672V16.7096H21.33C21.0085 18.4429 20.0316 19.9115 18.5629 20.8948V24.3741H23.0444C25.6665 21.96 27.1792 18.4051 27.1792 14.1821V14.1821Z" fill="#4285F4"/>
<path fill-rule="evenodd" clip-rule="evenodd" d="M13.8683 27.733C17.6123 27.733 20.7512 26.4913 23.0455 24.3735L18.5641 20.8942C17.3224 21.7262 15.734 22.2178 13.8683 22.2178C10.2567 22.2178 7.19971 19.7786 6.10929 16.501H1.47656V20.0937C3.75826 24.6256 8.44771 27.733 13.8683 27.733V27.733Z" fill="#34A853"/>
<path fill-rule="evenodd" clip-rule="evenodd" d="M6.10764 16.5017C5.8303 15.6697 5.67273 14.781 5.67273 13.867C5.67273 12.9531 5.8303 12.0644 6.10764 11.2324V7.63965H1.47491C0.535758 9.51165 0 11.6295 0 13.867C0 16.1046 0.535758 18.2224 1.47491 20.0944L6.10764 16.5017V16.5017Z" fill="#FBBC05"/>
<path fill-rule="evenodd" clip-rule="evenodd" d="M13.8683 5.51515C15.9042 5.51515 17.7321 6.21479 19.1692 7.58885L23.1464 3.61164C20.7449 1.37406 17.606 0 13.8683 0C8.44771 0 3.75826 3.10739 1.47656 7.63927L6.10929 11.232C7.19971 7.95442 10.2567 5.51515 13.8683 5.51515V5.51515Z" fill="#EA4335"/>
</svg>
