<svg width="28" height="14" viewBox="0 0 28 14" fill="none" xmlns="http://www.w3.org/2000/svg">
<path d="M0.5 -11.1429V11.1429C0.5 12.4447 1.55533 13.5 2.85714 13.5H25.1429C26.4447 13.5 27.5 12.4447 27.5 11.1429V-11.1429C27.5 -12.4447 26.4447 -13.5 25.1429 -13.5H2.85714C1.55533 -13.5 0.5 -12.4447 0.5 -11.1429Z" fill="white" stroke="#4285F4"/>
<path fill-rule="evenodd" clip-rule="evenodd" d="M20.6038 0.338236C20.6038 -0.135842 20.5613 -0.591686 20.4823 -1.0293H14.1855V1.55686H17.7837C17.6287 2.39257 17.1577 3.10065 16.4496 3.57473V5.25224H18.6103C19.8745 4.08831 20.6038 2.37434 20.6038 0.338236V0.338236Z" fill="#4285F4"/>
<path fill-rule="evenodd" clip-rule="evenodd" d="M14.1855 6.87051C15.9907 6.87051 17.5041 6.27183 18.6103 5.25074L16.4496 3.57323C15.8509 3.97438 15.0851 4.21142 14.1855 4.21142C12.4442 4.21142 10.9703 3.03534 10.4446 1.45508H8.21094V3.18729C9.31104 5.3723 11.572 6.87051 14.1855 6.87051V6.87051Z" fill="#34A853"/>
<path fill-rule="evenodd" clip-rule="evenodd" d="M10.4448 1.45637C10.311 1.05523 10.2351 0.626737 10.2351 0.186087C10.2351 -0.254562 10.311 -0.683056 10.4448 -1.0842V-2.81641H8.21112C7.75831 -1.91383 7.5 -0.892744 7.5 0.186087C7.5 1.26492 7.75831 2.28601 8.21112 3.18858L10.4448 1.45637V1.45637Z" fill="#FBBC05"/>
</svg>
