<svg width="22" height="22" viewBox="0 0 22 22" fill="none" xmlns="http://www.w3.org/2000/svg">
<path fill-rule="evenodd" clip-rule="evenodd" d="M11 0C4.92545 0 0 4.92545 0 11C0 17.0746 4.92545 22 11 22C17.0746 22 22 17.0746 22 11C22 4.92545 17.0746 0 11 0ZM11 9.8C11.6627 9.8 12.2 10.3373 12.2 11V15C12.2 15.6627 11.6627 16.2 11 16.2C10.3373 16.2 9.8 15.6627 9.8 15V11C9.8 10.3373 10.3373 9.8 11 9.8ZM11 5.8C10.3373 5.8 9.8 6.33726 9.8 7C9.8 7.66274 10.3373 8.2 11 8.2H11.01C11.6727 8.2 12.21 7.66274 12.21 7C12.21 6.33726 11.6727 5.8 11.01 5.8H11Z" fill="white"/>
</svg>
