<svg xmlns="http://www.w3.org/2000/svg" width="38" height="38" viewBox="0 0 38 38">
    <g fill="none" fill-rule="evenodd" stroke="#FF0">
        <circle cx="19" cy="19" r="17.5" stroke-width="3"/>
        <path fill="#FF0" stroke-width="1.807" d="M16.786 12.238c-.293-.205-.611-.311-.927-.331-.34-.021-.676.057-.97.212-.296.155-.55.388-.727.682-.165.273-.26.599-.258.959.004 3.204.04 7.296.071 10.502.004.359.101.682.268.953.178.29.434.52.73.673.294.152.629.228.967.204.315-.021.632-.13.924-.334l7.446-5.236c.526-.37.788-.946.786-1.522 0-.575-.264-1.15-.79-1.518l-7.52-5.244z"/>
    </g>
</svg>
