<svg height="60" viewBox="0 0 60 60" width="60" xmlns="http://www.w3.org/2000/svg" xmlns:xlink="http://www.w3.org/1999/xlink"><mask id="a" fill="#fff"><path d="m0 0h60v60h-60z" fill="#fff" fill-rule="evenodd"/></mask><g fill="none" fill-rule="evenodd"><path d="m60 30c0 18.82-12.426 30-30 30s-30-11.493-30-30 12.5-30 30-30 30 11.18 30 30" fill="#db4949" mask="url(#a)"/><path d="m33.667 10.56c-4.894-.535-11.134.223-16.01 5.483-1.569 1.399-2.99 4.165-3.95 4.769-1.472.925-1.989 1.418-2.63 1.899-.491.37-.574 1.083-.184 1.562.514.633 1.261 1.495 2.12 2.317.28.269.393.67.3 1.049-.109.441-.274 1.052-.483 1.626-.232.637.144 1.33.802 1.456 2.086.398 6.204 1.172 9.901 1.804.672.116 1.074.828.822 1.47-.622 1.584-2.192 3.057-6.667 6.476-.564.43-.831 1.13-.382 1.682 1.537 1.886 5.26 5.5 11.539 6.016.074.006.147.003.222.006.215.035.418.064.588.083 10.302 1.127 19.55-6.398 20.659-16.808 1.107-10.41-6.346-19.762-16.647-20.89m-26.831 25.67c-.795 0-1.454-.628-1.485-1.43-.032-.82.608-1.511 1.429-1.543l4.286-.164c.817-.037 1.511.608 1.543 1.429.032.82-.608 1.511-1.428 1.543l-4.287.164-.058.002m2.971 6.594c-.48 0-.952-.233-1.239-.662-.455-.684-.27-1.607.413-2.063l2.965-1.978c.684-.456 1.607-.27 2.063.412.456.684.271 1.607-.412 2.063l-2.966 1.978c-.254.169-.54.25-.824.25" fill="#f2d24c"/><path d="m23.17 21.67c1.357.148 2.338 1.38 2.192 2.752-.146 1.371-1.364 2.362-2.721 2.214-1.357-.15-2.339-1.381-2.193-2.752s1.365-2.362 2.722-2.214" fill="#db4949"/></g></svg>