<svg xmlns="http://www.w3.org/2000/svg" width="15" height="17" viewBox="0 0 15 17">
    <path fill="#342D51" fill-rule="evenodd" d="M7.5 0c2.863 0 5.192 2.288 5.192 5.1 0 1.88-1.041 3.526-2.587 4.41C12.96 10.519 15 13.135 15 16.195c0 .445-.38.806-.848.806-.469 0-.849-.361-.849-.806 0-3.04-2.603-5.515-5.803-5.515-3.2 0-5.803 2.474-5.803 5.515 0 .445-.38.806-.849.806C.38 17 0 16.639 0 16.194c0-3.06 2.04-5.676 4.895-6.684-1.546-.884-2.587-2.53-2.587-4.41C2.308 2.288 4.637 0 7.5 0zm0 1.72c-1.897 0-3.44 1.516-3.44 3.38 0 1.863 1.543 3.38 3.44 3.38s3.44-1.517 3.44-3.38c0-1.864-1.543-3.38-3.44-3.38z"/>
</svg>
