<svg width="28" height="28" viewBox="0 0 28 28" fill="none" xmlns="http://www.w3.org/2000/svg">
<path fill-rule="evenodd" clip-rule="evenodd" d="M2 0C0.895431 0 0 0.895431 0 2V26C0 27.1046 0.895431 28 2 28H26C27.1046 28 28 27.1046 28 26V2C28 0.895431 27.1046 0 26 0H2Z" fill="#FAE100"/>
<path fill-rule="evenodd" clip-rule="evenodd" d="M14 7C9.58173 7 6 9.8727 6 13.4157C6 15.6937 7.48088 17.6949 9.71303 18.833L8.95878 21.6922C8.9309 21.7771 8.95201 21.8692 9.01401 21.9318C9.05841 21.9772 9.11716 22 9.17618 22C9.22626 22 9.27635 21.9838 9.31831 21.95L12.5616 19.7278C13.0281 19.7954 13.5092 19.8314 14 19.8314C18.4183 19.8314 22 16.9592 22 13.4157C22 9.8727 18.4183 7 14 7" fill="#3C1E1E"/>
</svg>
