<svg width="22" height="22" viewBox="0 0 22 22" fill="none" xmlns="http://www.w3.org/2000/svg">
<path fill-rule="evenodd" clip-rule="evenodd" d="M0 11C0 4.92545 4.92545 0 11 0C17.0746 0 22 4.92545 22 11C22 17.0746 17.0746 22 11 22C4.92545 22 0 17.0746 0 11ZM14.8482 7.20198C15.3168 7.67061 15.3168 8.4304 14.8482 8.89903L12.6967 11.0505L14.8482 13.202C15.3168 13.6706 15.3168 14.4304 14.8482 14.899C14.3795 15.3677 13.6197 15.3677 13.1511 14.899L10.9996 12.7476L8.84816 14.899C8.37953 15.3677 7.61973 15.3677 7.15111 14.899C6.68248 14.4304 6.68248 13.6706 7.15111 13.202L9.30258 11.0505L7.15111 8.89903C6.68248 8.4304 6.68248 7.67061 7.15111 7.20198C7.61973 6.73335 8.37953 6.73335 8.84816 7.20198L10.9996 9.35345L13.1511 7.20198C13.6197 6.73335 14.3795 6.73335 14.8482 7.20198Z" fill="white"/>
</svg>
