<svg width="22" height="22" viewBox="0 0 22 22" fill="none" xmlns="http://www.w3.org/2000/svg">
<path fill-rule="evenodd" clip-rule="evenodd" d="M0 11C0 4.92545 4.92545 0 11 0C17.0746 0 22 4.92545 22 11C22 17.0746 17.0746 22 11 22C4.92545 22 0 17.0746 0 11ZM16.1817 8.86928C16.6503 8.40065 16.6503 7.64085 16.1817 7.17222C15.7131 6.70359 14.9533 6.70359 14.4846 7.17222L9.37484 12.282L7.51503 10.4222C7.0464 9.95359 6.2866 9.95359 5.81798 10.4222C5.34935 10.8909 5.34935 11.6507 5.81798 12.1193L8.52631 14.8276C8.75135 15.0527 9.05658 15.1791 9.37484 15.1791C9.6931 15.1791 9.99832 15.0527 10.2234 14.8276L16.1817 8.86928Z" fill="white"/>
</svg>
