<svg xmlns="http://www.w3.org/2000/svg" width="15" height="16" viewBox="0 0 15 16">
    <path fill="#342D51" fill-rule="evenodd" d="M8.999 2H3.191c-.587 0-1.064.448-1.064 1v10c0 .551.477 1 1.064 1h5.808v2H3.191C1.43 16 0 14.654 0 13V3c0-1.655 1.43-3 3.19-3H9v2zm5.793 6.604l-.082.093-3.509 3.51c-.387.387-1.015.387-1.402 0-.357-.358-.385-.92-.083-1.31l.083-.093 1.763-1.764H5V7.056h6.666L9.802 5.193c-.357-.358-.385-.92-.082-1.31l.082-.093c.358-.358.92-.385 1.31-.083l.093.083 3.505 3.504c.357.358.385.92.082 1.309z"/>
</svg>
