<svg height="60" viewBox="0 0 60 60" width="60" xmlns="http://www.w3.org/2000/svg" xmlns:xlink="http://www.w3.org/1999/xlink"><mask id="a" fill="#fff"><path d="m0 0h60v60h-60z" fill="#fff" fill-rule="evenodd"/></mask><g fill="none" fill-rule="evenodd"><path d="m60 30c0 18.82-12.426 30-30 30s-30-11.493-30-30 12.5-30 30-30 30 11.18 30 30" fill="#372c77" mask="url(#a)"/><path d="m46.204 43.296-32.278.239c-.168.001-.305-.135-.305-.304v-2.266c0-.167.136-.303.303-.303h32.278c.167 0 .303.136.303.303v2.028c0 .167-.135.302-.301.303" fill="#fff"/><path d="m18.583 38.928h-3.284c-.305 0-.556-.219-.568-.495l-.326-10.89c-.013-.294.246-.538.569-.538h4.18c.327 0 .588.251.568.548l-.571 10.89c-.018.273-.267.485-.568.485" fill="#1f96db"/><path d="m27.477 38.928h-4.165c-.328 0-.59-.245-.576-.538l.497-10.89c.012-.277.267-.495.576-.495h3.5c.32 0 .577.232.577.516l.167 10.89c0 .286-.257.517-.576.517" fill="#9857db"/><path d="m36.13 38.928h-3.452c-.308 0-.56-.225-.566-.506l-.245-10.89c-.006-.29.25-.527.567-.527h4.185c.322 0 .579.244.566.537l-.488 10.89c-.013.277-.263.496-.567.496" fill="#e6801b"/><path d="m45.289 38.928h-4.204c-.317 0-.57-.245-.557-.538l.48-10.89c.013-.277.258-.495.557-.495h3.244c.299 0 .544.218.556.495l.48 10.89c.014.293-.24.538-.556.538" fill="#d63679"/><g fill="#fff"><path d="m33.815 22.376c-.063 0-.126-.02-.175-.06-.018-.015-.037-.028-.056-.042l-2.826-2.072c-.196-.138-.444-.214-.686-.214-.241 0-.489.076-.688.214l-2.823 2.072c-.015.01-.03.02-.043.032-.051.04-.115.06-.18.06l-12.402-.078c-.162-.003-.295.427-.295.588v1.914c0 .16.13.29.29.29h13.226l-.002-.015c.276.023.551-.054.782-.215l1.842-1.383s.127-.108.293-.11c.166.002.294.11.294.11l1.842 1.383c.242.169.532.244.821.21l-.002.02h13.188c.16 0 .29-.13.29-.29v-1.825c0-.16-.13-.59-.29-.59h-12.4zm-4.021-9.919 4.712.036c.196.001.354.16.354.355v3.717c0 .2-.166.361-.367.355l-4.713-.181c-.192-.006-.344-.164-.344-.356v-3.57c0-.197.16-.357.358-.356"/><path d="m33.874 14.012-.07 3.308c-.005.271.265.461.519.364l5.036-1.853c.107-.04.136-.177.056-.258-.021-.021-.047-.036-.076-.042l-5.272-1.669c-.098-.023-.192.05-.193.15m-3.486-2.252c.173.035.268.12.268.269v9.923c0 .149-.12.269-.268.269h-.684c-.148 0-.268-.12-.268-.269v-9.922c0-.148.092-.234.268-.269 0 0 .347-.089.684 0"/></g></g></svg>