<svg height="60" viewBox="0 0 60 60" width="60" xmlns="http://www.w3.org/2000/svg" xmlns:xlink="http://www.w3.org/1999/xlink"><linearGradient id="a" x1="50%" x2="50%" y1="60.896%" y2="41.097%"><stop offset="0" stop-color="#ff0"/><stop offset="1" stop-color="#ff0" stop-opacity="0"/></linearGradient><mask id="b" fill="#fff"><path d="m30 0c-17.499 0-30 11.493-30 30s12.426 30 30 30 30-11.179 30-30c0-18.82-12.5-30-30-30z" fill="#fff" fill-rule="evenodd"/></mask><g fill="none" fill-rule="evenodd"><path d="m60 30c0 18.82-12.426 30-30 30s-30-11.493-30-30 12.5-30 30-30 30 11.18 30 30" fill="#fbb03b"/><path d="m23.284 36.465s-.977-1.658-.977-4.644h15.744s-.18 9.512-9.012 9.178c-2.932-.11-5.32-3.538-5.755-4.534" fill="#f15a24"/><path d="m25.083 20.954c0 3.86-2.876 6.99-6.423 6.99-3.548 0-6.424-3.13-6.424-6.99s2.876-6.99 6.424-6.99c3.547 0 6.423 3.13 6.423 6.99" fill="#fff"/><path d="m22.228 24.061c0 2.145-1.597 3.884-3.568 3.884-1.97 0-3.569-1.739-3.569-3.884s1.598-3.883 3.569-3.883c1.97 0 3.568 1.738 3.568 3.883" fill="#261b12"/><path d="m47.764 20.954c0 3.86-2.876 6.99-6.424 6.99-3.547 0-6.423-3.13-6.423-6.99s2.876-6.99 6.423-6.99c3.548 0 6.424 3.13 6.424 6.99" fill="#fff"/><path d="m44.909 24.061c0 2.145-1.598 3.884-3.569 3.884-1.97 0-3.568-1.739-3.568-3.884s1.598-3.883 3.568-3.883c1.971 0 3.569 1.738 3.569 3.883" fill="#261b12"/><path d="m22.258 11.717c-.02.003-.04.005-.061.006l-7.493.39c-.358.018-.687-.194-.818-.527-.132-.333-.036-.713.237-.943 4.823-4.064 8.584-.377 8.622-.34.231.234.304.581.186.888-.111.287-.37.488-.673.526m15.835 0c.02.003.041.005.062.006l7.493.39c.357.018.686-.194.818-.527.131-.333.035-.713-.238-.943-4.822-4.064-8.584-.377-8.622-.34-.23.234-.303.581-.185.888.11.287.37.488.672.526m-4.813 14.051c0 1.812-1.468 3.281-3.28 3.281s-3.281-1.469-3.281-3.28c0-1.812 1.469-3.281 3.281-3.281s3.28 1.469 3.28 3.28" fill="#db7b33"/><path d="m3.798 31.353 5.068 21.023c.319.297.645.586.979.866l40.309.108c.315-.262.624-.533.925-.81l4.847-21.187z" fill="url(#a)" mask="url(#b)"/><path d="m48.588 38.282h-37.045c-1.8 0-3.15 1.468-3 3.261l1.5 17.923c.15 1.794 1.746 3.26 3.546 3.26h32.954c1.8 0 3.395-1.466 3.545-3.26l1.5-17.923c.15-1.793-1.2-3.261-3-3.261" fill="#f2f0e9" mask="url(#b)"/><path d="m48.588 40.123h-37.045c-1.8 0-3.15 1.467-3 3.26l1.5 17.923c.15 1.794 1.746 3.261 3.546 3.261h32.954c1.8 0 3.395-1.467 3.545-3.26l1.5-17.923c.15-1.794-1.2-3.261-3-3.261" fill="#b8b7b1" mask="url(#b)"/><path d="m34.65 48.135h-3.583c-.018 0-.037-.006-.05-.019-.006-.005-.011-.01-.017-.013l-.814-.67c-.01-.008-.02-.014-.03-.02l.003-1.124.938.041-.005.144c-.003.091.076.156.152.123l1.518-.629c.032-.013.043-.06.02-.088-.006-.007-.014-.013-.022-.015l-1.33-.49.01-.445c.001-.069-.046-.125-.105-.125l-1.172-.01v-.155c0-.053-.028-.084-.081-.096-.103-.032-.209 0-.209 0-.054.012-.082.043-.082.096v.278l.005 1.239.003 1.265-.015.01-.814.67-.012.01c-.015.014-.033.02-.052.02l-3.586-.025c-.047 0-.075.137-.072.189l.046.603c.004.05.044.09.09.09h3.77v-.004c.078.007.156-.017.222-.067l.525-.435s.036-.035.084-.035c.047 0 .084.035.084.035l.526.435c.068.052.15.076.233.065v.006h3.76c.045 0 .085-.04.089-.09l.043-.576c.004-.05-.023-.188-.07-.188zm-.671 4.861c.083 0 .154-.065.156-.144l.087-3.091c.002-.083-.06-.149-.144-.149h-.9c-.084 0-.155.066-.162.149l-.28 3.091c-.007.079.056.144.14.144zm-3.31 0h.906c.08 0 .147-.058.152-.132l.228-3.091c.007-.087-.062-.16-.152-.16h-1.162c-.088 0-.16.07-.159.157l.04 3.09c0 .076.066.136.147.136zm-1.365 0c.083 0 .15-.062.15-.138l-.075-3.092c0-.084-.072-.154-.16-.154h-.973c-.086 0-.155.066-.156.149l-.035 3.091c0 .079.07.144.156.144zm-3.196 0h.862c.079 0 .142-.057.143-.13l.006-3.09c.001-.088-.075-.164-.166-.164h-1.16c-.09 0-.157.074-.147.161l.304 3.09c.008.075.078.133.158.133zm8.216.576-.04.537c-.004.044-.042.079-.085.08l-8.427.062c-.044 0-.083-.036-.086-.08l-.045-.599c-.004-.045.03-.08.074-.08h8.535c.044 0 .078.035.074.08z" fill="#d6d4ce" mask="url(#b)"/></g></svg>