<svg width="26" height="14" viewBox="0 0 26 14" fill="none" xmlns="http://www.w3.org/2000/svg">
<path d="M14 7C14 10.866 10.866 14 7 14C3.13401 14 0 10.866 0 7C0 3.13401 3.13401 0 7 0C10.866 0 14 3.13401 14 7ZM4.45263 7C4.45263 8.40688 5.59312 9.54737 7 9.54737C8.40688 9.54737 9.54737 8.40688 9.54737 7C9.54737 5.59312 8.40688 4.45263 7 4.45263C5.59312 4.45263 4.45263 5.59312 4.45263 7Z" fill="white"/>
<rect x="11" y="6" width="15" height="4" fill="white"/>
<rect x="19" y="10" width="8" height="4" transform="rotate(-90 19 10)" fill="white"/>
</svg>
