<svg height="60" viewBox="0 0 60 60" width="60" xmlns="http://www.w3.org/2000/svg"><g fill="none" fill-rule="evenodd"><path d="m60 30c0 18.82-12.426 30-30 30s-30-11.493-30-30 12.5-30 30-30 30 11.18 30 30" fill="#ef86b1"/><path d="m45.32 43.874h-30.77c-.94 0-1.704-.763-1.704-1.704v-18.296h34.179v18.296c0 .941-.763 1.704-1.704 1.704" fill="#4d4d8e"/><path d="m12.846 41.422h34.178v-15.068h-34.178z" fill="#f2d24c"/><path d="m28.906 29.522 3.96 2.833c.826.59.81 1.822-.029 2.392l-4 2.716c-.97.66-2.282-.038-2.278-1.211.007-1.698.02-3.866.04-5.563.015-1.178 1.349-1.852 2.307-1.167m17.819-11.182-33.892 4.418-.288-2.214c-.097-.74.426-1.42 1.166-1.517l31.209-4.067c.74-.097 1.42.425 1.516 1.166l.289 2.215z" fill="#4d4d8e"/><path d="m16.946 22.222-4.113.536-.299-2.293c-.09-.697.4-1.337 1.098-1.427l4.237-.552zm9.695-1.264-4.806.627.923-3.737 4.806-.626zm9.696-1.263-4.807.626.923-3.736 4.806-.627zm10.388-1.355-5.5.718.923-3.737 2.85-.371c.698-.092 1.337.4 1.428 1.097l.299 2.294z" fill="#f2d24c"/></g></svg>