<svg height="60" viewBox="0 0 60 60" width="60" xmlns="http://www.w3.org/2000/svg"><g fill="none" fill-rule="evenodd"><path d="m60 30c0 18.82-12.426 30-30 30s-30-11.493-30-30 12.5-30 30-30 30 11.18 30 30" fill="#5f519b"/><path d="m18.823 13.138c-.385.874-.777 1.766-1.175 2.677-.47 1.071-.924 2.089-1.363 3.053l-.749 1.625 4.116.761-.118-1.786c-.084-1.06-.152-2.184-.203-3.37-.043-1.002-.098-1.966-.162-2.893-.01-.1-.066-.144-.066-.144-.045-.034-.112-.06-.2-.022 0 0-.043.017-.08.1m.698 11.956-5.234-.968c-.213-.04-.425.071-.515.268l-1.714 3.747c-.09.196-.302.306-.515.267l-3.937-.728c-.313-.058-.48-.401-.332-.683l9.52-18.116c.096-.183.3-.282.503-.245l5.112.946c.203.037.358.203.382.407l2.415 20.323c.037.315-.241.576-.553.519l-4.101-.758c-.212-.04-.37-.218-.384-.434l-.262-4.112c-.014-.215-.173-.394-.385-.433" fill="#06a9e0"/><path d="m47.013 29.435c2.242-.82 3.063-2.049 2.464-3.687-.537-1.465-1.925-1.788-4.167-.968l-1.725.63c-.318.117-.482.47-.365.788l1.28 3.502c.118.319.47.482.787.366zm-3.34-7.927c1.897-.694 2.58-1.765 2.05-3.213-.472-1.293-1.657-1.593-3.553-.9l-1.338.49c-.318.117-.481.469-.365.787l1.083 2.96c.116.318.468.482.786.365l1.338-.489zm-9.122-4.66c-.116-.318.048-.67.365-.786l6.149-2.249c2-.732 3.813-1.024 5.44-.876 1.628.148 2.782 1.152 3.463 3.014.316.862.397 1.78.246 2.754-.152.975-.562 1.75-1.23 2.327l.037.103c1.077-.1 2.073.098 2.987.594.915.496 1.609 1.39 2.082 2.684.725 1.982.525 3.692-.6 5.13-1.127 1.439-2.741 2.542-4.844 3.312l-6.691 2.448c-.319.116-.67-.048-.787-.366z" fill="#ef802f"/><path d="m25.287 48.261c-1.891-1.762-2.836-4.387-2.836-7.875 0-3.433 1.145-6.226 3.091-8.09 1.946-1.863 4.06-2.65 6.684-2.65 1.34 0 2.538.266 3.594.799.882.445 1.638.953 2.27 1.527.207.186.23.502.054.716l-1.96 2.376c-.175.213-.49.24-.702.064-1.033-.854-2.13-1.175-3.21-1.175-1.323 0-2.866.687-3.742 1.682-1.104 1.256-1.67 2.72-1.657 4.72.025 4.143 2.486 6.403 5.38 6.31 1.292-.043 2.468-.496 3.527-1.486.215-.202.555-.185.744.042l1.938 2.309c.172.205.157.503-.027.697-1.695 1.785-3.82 2.678-6.374 2.678-2.625 0-4.883-.881-6.774-2.644" fill="#8ccf27"/><path d="m15.165 40.948.304-3.006c.018-.17-.044-.344-.175-.457-.307-.264-.672-.417-1.097-.46-.38-.039-.733.112-1.062.45-.329.34-.535.914-.616 1.723-.16 1.586.255 2.43 1.249 2.53.486.05.9-.101 1.243-.451.087-.089.141-.205.154-.329m-4.833 1.472c-.563-.874-.772-2.028-.628-3.46.146-1.444.634-2.532 1.463-3.265s1.699-1.054 2.61-.962c.491.05.885.172 1.18.368l.01.006c.357.238.835 0 .843-.43l.003-.119c0-.015.001-.03.003-.044l.238-2.356c.03-.298.296-.515.595-.485l1.668.169c.298.03.515.296.485.595l-1.132 11.187c-.03.299-.296.517-.594.486l-1.259-.127c-.25-.026-.45-.22-.484-.47l-.057-.438-.062-.006c-.777.634-1.576.91-2.395.828-1.095-.11-1.924-.603-2.487-1.477m37.226-.737c.473.18.981-.178.97-.684-.015-.651-.393-1.117-1.135-1.397-.663-.25-1.246-.195-1.75.167-.464.333-.37 1.051.164 1.253l1.75.661zm-6.138 3.474c-.637-1.3-.637-2.796.002-4.486.629-1.666 1.616-2.786 2.96-3.358 1.346-.573 2.637-.626 3.875-.159 1.475.557 2.394 1.438 2.755 2.642.36 1.204.276 2.508-.254 3.912-.106.28-.211.526-.314.736-.164.332-.551.488-.897.356l-4.419-1.668c-.548-.208-1.099.296-.944.86.21.763.792 1.326 1.75 1.687.525.199 1.103.28 1.732.243.372-.021.699.243.751.612l.138.956c.056.389-.213.75-.6.81-1.139.181-2.267.06-3.384-.361-1.464-.554-2.514-1.48-3.151-2.782z" fill="#2f3f6d"/></g></svg>