<svg height="180" viewBox="0 0 840 180" width="840" xmlns="http://www.w3.org/2000/svg" xmlns:xlink="http://www.w3.org/1999/xlink"><mask id="a" fill="#fff"><path d="m0 .233h7.131v22.151h-7.131z" fill="#fff" fill-rule="evenodd"/></mask><mask id="b" fill="#fff"><path d="m.317.004h3.166v4.892h-3.166z" fill="#fff" fill-rule="evenodd"/></mask><mask id="c" fill="#fff"><path d="m.276.307h14.148v6.193h-14.148z" fill="#fff" fill-rule="evenodd"/></mask><mask id="d" fill="#fff"><path d="m.484.307h14.148v6.193h-14.148z" fill="#fff" fill-rule="evenodd"/></mask><mask id="e" fill="#fff"><path d="m.309.077h20.145v35.725h-20.145z" fill="#fff" fill-rule="evenodd"/></mask><mask id="f" fill="#fff"><path d="m.398.077h20.145v35.865h-20.145z" fill="#fff" fill-rule="evenodd"/></mask><mask id="g" fill="#fff"><path d="m.386.376h35.723v39.124h-35.723z" fill="#fff" fill-rule="evenodd"/></mask><mask id="h" fill="#fff"><path d="m0 .285h16.162v38.886h-16.162z" fill="#fff" fill-rule="evenodd"/></mask><mask id="i" fill="#fff"><path d="m.369.063h82.267v35.23h-82.267z" fill="#fff" fill-rule="evenodd"/></mask><g fill="none" fill-rule="evenodd"><path d="m20.96 102.332c3.087-.408 4.91-2.16 6.6-4.65.593-.874-.823-1.693-1.411-.826-1.318 1.942-2.742 3.517-5.189 3.84-1.028.137-1.042 1.774 0 1.636m50.36-1.773c-2.532-.514-3.85-2.133-5.093-4.273-.528-.91-1.942-.088-1.412.825 1.445 2.489 3.135 4.429 6.071 5.024 1.028.208 1.467-1.367.435-1.576" fill="#db1606" transform="translate(738 40)"/><path d="m24.286 100.637c1.12-.712 3.76 2.191 5.066 2.513 1.334.33 2.717.03 3.956-.484 1.69-.702 3.036-1.958 4.682-2.725 2.39-1.114 3.947.123 6.04 1.079 3.116 1.422 5.04.335 7.9-1.02 2.357-1.118 3.67.534 5.785 1.31 1.424.522 2.593.449 3.956-.142 1.581-.687.215-3-1.355-2.319-1.748.758-3.68-1.419-5.319-1.871-1.302-.36-2.568-.13-3.784.4-1.87.812-3.339 2.207-5.51 1.456-1.672-.579-3.033-1.73-4.823-2.008-3.593-.558-5.684 2.318-8.775 3.417-2.616.93-3.558-1.223-5.627-2.14-1.229-.545-2.418-.502-3.547.215-1.455.924-.11 3.248 1.355 2.319m44.831-3.69c2.287-.341 4.908-.708 6.672-2.36 1.573-1.474 2.01-3.778 3.68-5.147l-2.245-1.306c-.691 2.543-2.918 5.158-5.421 6.123-1.28.493-1.269 2.849.357 2.638l1.982-.258c1.69-.22 1.712-2.909 0-2.686-.66.087-1.321.173-1.982.258l.357 2.638c3.395-1.309 6.343-4.489 7.297-8 .376-1.383-1.257-2.115-2.245-1.306-1.421 1.166-1.972 2.854-2.985 4.325-1.345 1.952-4.017 2.17-6.181 2.491-1.703.254-.98 2.842.714 2.59" fill="#db1606" transform="translate(738 40)"/><path d="m60.661 100.134c1.432.417 2.94.812 4.444.617 1.393-.18 2.56-.973 3.889-1.376 1.068-.324 2.044-1.003 3.068-1.176 1.085-.183 1.955-.073 3.003-.547 2.598-1.174 4.11-4.277 4.644-6.966.402-2.019-.127-4.395 1.023-6.186.831-1.296-1.041-2.695-2.109-1.627-2.934 2.935-4.103 7.502-7.552 9.923-1.403.986-.063 3.315 1.355 2.319 3.751-2.633 4.953-7.2 8.096-10.344l-2.109-1.627c-2.263 3.528-.051 8.377-3.616 11.458-1.402 1.211-3.417.771-5.042 1.561-1.017.494-2.063.659-3.099 1.102-1.005.428-1.46.904-2.648.854-.89-.039-1.786-.328-2.633-.575-1.663-.483-2.373 2.107-.714 2.59" fill="#db1606" transform="translate(738 40)"/><path d="m4.524.675c-5.364 6.241-6.904 16.195.655 21.469 1.42.99 2.763-1.336 1.355-2.32-6.055-4.223-4.269-12.413-.111-17.25 1.12-1.305-.77-3.212-1.9-1.9" fill="#db1606" mask="url(#a)" transform="translate(738 75.995)"/><path d="m80.207 80.154c5.102-3.718 6.758-10.598 4.433-16.394-.635-1.584-3.233-.892-2.59.714 1.838 4.58.975 10.32-3.199 13.361-1.383 1.008-.044 3.339 1.356 2.319m-6.71-43.898c.41 2.587.786 5.043.616 7.672-.11 1.725 2.575 1.718 2.686 0 .184-2.856-.267-5.577-.713-8.386-.27-1.702-2.858-.98-2.59.714" fill="#db1606" transform="translate(738 40)"/><path d="m88.235 49.972c.452-4.469-1.454-5.801-1.883-10.273-.245-2.547-.501-5.142-1.511-7.485-1.011-2.343-2.921-4.433-5.38-4.96 1.955-5.667-1.44-12.639-7.054-14.484-.45-.147-.919-.27-1.311-.538-.42-.287-.72-.715-1.01-1.134-2.572-3.706-7.162-7.904-11.618-7.831-12.69.21-9.11 3.139-14.583 2.334-1.73-.255-3.334-1.037-5-1.576-4.148-1.34-9.269-.875-12.04 2.544-1.038 1.282-1.694 2.905-2.97 3.942-1.546 1.258-3.66 1.396-5.598 1.808-1.938.411-4.061 1.42-4.543 3.374-.278 1.128-1.682 1.531-2.138 2.597-.397.925-.836 2.324-1.638 2.918-3.814 2.827-5.014 7.461-5.297 12.256-.11 1.852.088 3.74-.347 5.541-.378 1.569-1.213 2.978-1.765 4.492-1.21 3.316-1.125 8.617.475 11.756 2.008 3.938 5.57 5.508 5.345 9.94-.077 1.529.013 3.162-.476 4.609-1.278 3.786-1.707 8.011-.366 11.775s4.71 6.919 8.633 7.18c-1.551 2.499-1.134 6.08.949 8.14 2.082 2.058 5.61 2.377 8.016.725l1.46 3.384c.668-.287 1.187-.805 1.566-1.435.042.086.09.169.143.249-.268 1.081 1.222 2.23 2.289 1.27.098-.088.203-.188.311-.291.574-.08 1.108-.301 1.604-.608 1.456 1.177 3.593.355 4.995-.709 1.36-1.03.023-3.363-1.355-2.318-.31.25-.635.481-.973.692-.087.02-.162.033-.236.046.908-1.043 2.428-1.948 2.783-3.353.128-.506.07-.933-.11-1.287 2.881-2.204 8.574-.085 11.985.32.668.079 1.348.162 1.96.446 1.105.511 1.83 1.596 2.764 2.383 1.626 1.37 3.81 1.791 5.688 2.772 1.877.98 3.549-1.721 2.887.32.578-1.541 1.183-.189 1.773-.448.24.106.523.143.84.075 4.645-.99 9.85-7.498 9.381-12.748 3.314-.67 6.295-2.36 7.804-5.468 1.729-3.556 1.165-8.14 2.092-11.993.699-2.902-.471-6.369 0-10.096.335-2.645 3.145-5.747 3.46-8.853" fill="#db1606" transform="translate(738 40)"/><path d="m74.664 87.557c7.574-.602 12.063-7.719 9.588-14.871-.562-1.623-3.157-.926-2.59.714 1.856 5.361-1.058 11-6.998 11.472-1.711.135-1.726 2.822 0 2.685m10.432-46.558c1.733 3.111 1.72 6.703-.025 9.804-.849 1.508 1.47 2.863 2.319 1.355 2.217-3.94 2.224-8.566.025-12.514-.841-1.51-3.162-.158-2.319 1.355" fill="#db1606" transform="translate(738 40)"/><path d="m78.881 28.637c4.238 2.048 6.769 6.63 6.041 11.328-.262 1.69 2.325 2.419 2.59.714.904-5.841-1.869-11.748-7.276-14.361-1.549-.748-2.912 1.567-1.355 2.319" fill="#db1606" transform="translate(738 40)"/><path d="m81.163 27.908c1.498-.929 2.953-.282 4.124.854.705.684 1.786-.394 1.08-1.08-1.653-1.604-3.89-2.386-5.974-1.093-.834.517-.068 1.84.77 1.32" fill="#db1606" transform="translate(738 40)"/><path d="m82.248 26.76c-.562-4.032-1.848-8.314-4.281-11.642-2.237-3.06-5.63-3.592-9.208-3.624-1.729-.016-1.73 2.669 0 2.685 3.678.033 6.225.777 8.049 4.183 1.525 2.848 2.406 5.924 2.85 9.112.239 1.704 2.826.98 2.59-.714" fill="#db1606" transform="translate(738 40)"/><path d="m73.184 13.726c.323-2.438.785-4.512-.13-6.895-.349-.908-1.826-.513-1.472.406.856 2.23.377 4.208.074 6.49-.129.97 1.4.961 1.528 0" fill="#db1606" transform="translate(738 40)"/><path d="m46.335 7.438c3.587-3.51 10.334-3.372 14.84-2.017 2.3.691 4.487 1.772 6.045 3.653 1.42 1.714 2.275 3.857 3.295 5.813.8 1.533 3.118.177 2.319-1.355-1.243-2.383-2.308-4.92-4.191-6.891-2-2.093-4.78-3.318-7.544-4.03-5.32-1.371-12.532-1.113-16.663 2.928-1.237 1.21.662 3.109 1.9 1.899" fill="#db1606" transform="translate(738 40)"/><path d="m45.197 5.741c-2.5-1.593-5.513-1.997-8.343-1.107-1.643.517-.941 3.11.713 2.59 2.19-.69 4.337-.399 6.275.836 1.462.93 2.81-1.392 1.355-2.319" fill="#db1606" transform="translate(738 40)"/><path d="m45.55 4.42c-9.415-6.388-20.081-1.26-25.546 7.62-.908 1.475 1.414 2.825 2.32 1.354 4.73-7.689 13.688-12.208 21.872-6.656 1.433.972 2.779-1.353 1.355-2.319" fill="#db1606" transform="translate(738 40)"/><path d="m22.128 11.867c-2.223-2.568-7.456.183-9.152 2.122-2.944 3.365-3.401 7.612-3.316 11.908.035 1.726 2.72 1.731 2.686 0-.056-2.796-.015-5.66 1.31-8.2.665-1.276 1.633-2.555 2.927-3.232.543-.283 3.133-1.293 3.647-.7 1.133 1.309 3.025-.597 1.898-1.898" fill="#db1606" transform="translate(738 40)"/><path d="m13.948 19.957c-4.236.14-7.904 4.333-9.577 7.926-2.058 4.42-1.867 9.284.02 13.71.676 1.585 2.99.219 2.319-1.355-1.47-3.448-1.579-7.361-.088-10.822 1.163-2.702 4.053-6.666 7.326-6.774 1.724-.056 1.732-2.742 0-2.685m1.196 63.373c-.88 4.037-1.804 8.615.33 12.43 1.653 2.954 4.643 4.695 8.014 4.138 1.7-.281.98-2.87-.714-2.59-2.811.465-5.054-2.145-5.646-4.65-.676-2.855-.005-5.81.606-8.613.367-1.685-2.221-2.404-2.59-.714" fill="#db1606" transform="translate(738 40)"/><path d="m11.003 20.314c-2.4-.41-4.385.208-6.343 1.624-.789.57-.027 1.896.771 1.32 1.598-1.156 3.173-1.812 5.166-1.471.961.164 1.375-1.307.406-1.473" fill="#db1606" transform="translate(738 40)"/><path d="m3.466 4.164c.145-1.623-.658-3.167-2.023-4.036-.831-.53-1.598.791-.77 1.318.937.598 1.363 1.63 1.266 2.718-.087.979 1.44.973 1.527 0" fill="#db1606" mask="url(#b)" transform="translate(780.5 40.495)"/><path d="m38.144 94.025c-1.12.215-2.22.542-3.277.974-.732.3-1.46.661-2 1.237s-.867 1.405-.668 2.17c.265 1.014 1.367 1.614 2.412 1.685 1.046.071 2.07-.259 3.092-.491 4.641-1.056 9.47-.116 14.176.59 2.81.422 5.95.683 8.235-1.008.398-.294.78-.688.82-1.181.036-.426-.195-.829-.458-1.166-1.49-1.909-4.05-2.56-6.425-3.032-1.786-.355-3.595-.678-5.416-.628-1.281.036-2.55.255-3.827.375-3.202.3-6.494-.02-9.586.863" fill="#db1606" transform="translate(738 40)"/><path d="m49.455 9.876s4.1-6.356 12.302-1.537c0 0-7.586-2.973-12.302 1.537m31.18 25.941s4.813 4.91 2.406 12.899c0 0 5.584-9.048-2.406-12.899" fill="#ba0e00" transform="translate(738 40)"/><path d="m21.715 71.663s-3.781 6.382 3.151 10.4c0 0-4.175-3.624-3.151-10.4" fill="#ea2c22" transform="translate(738 40)"/><path d="m67.498 96.064c.52.025 8.552.755 8.392-6.302 0 0 1.955 8.526-7.871 6.327m-41.834 1.297c-.475-.068-6.424-.342-6.689-7.6 0 0-3.008 7.922 6.214 7.532" fill="#ba0e00" transform="translate(738 40)"/><path d="m40.162 91.117c-6.571-2.073-6.5-8.538-6.5-8.538 1.008-2.362 5.294-2.449 5.294-2.449l2.096-.502-.01-4.593 10.484-.12.208 4.292 2.696.593s3.261.673 4.934 2.68l-3.79 5.028-3.253 3.379-7.35 1.412m-24.113-37.289c.013 6.544-3.233 6.92-6.975 6.987-4.98.09-8.41-3.758-7.574-8.275.739-3.99 4.087-5.681 7.947-5.689s6.59 1.075 6.602 6.976m49.019-1.064c-.012 6.544 2.79 7.247 6.532 7.305 5.354.084 7.438-3.426 7.445-7.277.008-3.852-3.114-6.98-6.974-6.988s-6.991 1.059-7.003 6.96" fill="#e08957" transform="translate(738 40)"/><path d="m16.862 31.493c-.047 3.282-1.251 6.58-1.69 9.833-1.357 10.056-.984 20.167 5.27 26.731 6.517 6.842 16.028 10.077 29.143 9.895 7.997-.111 24.233-6.082 27.152-16.977.596-2.227.551-5.623-.703-10.397-1.048-3.992-.948-10.929-.249-15.999 0 0-1.517-10.047-8.113-12.388-6.595-2.34-18.133-3.487-18.133-3.487l-11.866 2.058-7.907 3.563s-12.802-.031-12.904 7.168" fill="#ea9a67" transform="translate(738 40)"/><path d="m56.58 43.313s.668-5.149 5.614-5.154c0 0 4.613-.54 5.469 5.463 0 0-5.264-3.871-11.084-.31m-19.521.001s-.94-5.421-5.615-5.154c0 0-4.633-.267-5.468 5.463 0 0 5.263-3.871 11.083-.31" fill="#ea80c9" transform="translate(738 40)"/><path d="m47.669 53.638c-.468 0-.853-.372-.867-.843-.014-.479.363-.878.842-.892 1.625-.047 1.98-.804 2.105-1.37.203-.915.01-2.135-1.205-2.56-.515-.18-1.354-.177-1.869.14-.267.165-.603.172-.877.019-.275-.153-.445-.442-.446-.756l-.005-2.399c-.001-.479.387-.869.866-.87h.002c.478 0 .866.388.867.866l.003 1.193c.732-.114 1.472-.027 2.032.17 1.825.637 2.782 2.518 2.327 4.573-.219.985-.996 2.648-3.75 2.728h-.025" fill="#c9804a" transform="translate(738 40)"/><path d="m55.3 56.234c-7.74 2.536-14.428 1.067-17.377.135-.792-.25-1.55.444-1.384 1.263.565 2.778 2.582 7.738 9.757 8.267 7.548.556 10.066-4.675 10.414-8.415.078-.84-.612-1.511-1.41-1.25" fill="#d34236" transform="translate(738 40)"/><path d="m41.694 60.073c4.384.666 6.952.679 10.483-.17 0 0 3.27-.637 3.2-3.683-.026.006-.05.008-.076.014-6.026 1.464-12.096 1.139-17.13.21-.13.589.248 3.132 3.523 3.629" fill="#fff" transform="translate(738 40)"/><path d="m31.932 59.861c.005 2.738-2.976 4.963-6.659 4.97-3.684.008-6.673-2.206-6.679-4.943-.006-2.738 2.976-4.963 6.66-4.97 3.682-.007 6.672 2.206 6.678 4.943m42.553.086c.006 2.737-2.976 4.962-6.659 4.97-3.683.007-6.673-2.206-6.679-4.944-.005-2.737 2.976-4.962 6.66-4.97 3.683-.007 6.672 2.206 6.678 4.944" fill="#ffa67b" transform="translate(738 40)"/><path d="m58.554 35.283c-.17 0-.337-.084-.437-.233-.143-.214-.11-.5.078-.676.029-.026 2.804-2.56 6.172-.14.218.158.282.454.15.687s-.418.33-.666.223c-.024-.011-2.544-1.068-5.078.091-.071.033-.146.048-.219.048m-23.519 0c-.072 0-.147-.015-.217-.048-2.55-1.166-5.054-.103-5.079-.091-.248.107-.534.01-.666-.223-.133-.233-.069-.529.15-.686 3.364-2.42 6.144.113 6.172.139.188.175.221.462.077.676-.1.15-.266.233-.437.233" fill="#723e1a" transform="translate(738 40)"/><path d="m80.422 86.169s2.048.002 3.576-.683c1.643-.737 4.455-2.165 4.486-5.27.037-3.62-5.066-5.121-5.066-5.121l.776-1.567c1.864-4.46.534-5.33.534-5.33-2.576-2.113-3.214 1.561-3.214 1.561-2.204 6.194-3.482 8.743-4.41 10.39-.352.625-.323 2.783-.323 2.783" fill="#ea9a67" transform="translate(738 40)"/><path d="m83.654 67.61s1.88 2.19-.959 7.695l-.452.846 1.156-.894s2.812-4.82 1.33-7.06c0 0-.547-.482-1.075-.588m2.95 14.773s.455-.488.832-1.13c.377-.643.718-1.262.952-1.915 0 0 .165 2.394-.982 3.738 0 0-1.868 2.415-4.487 2.572 0 0 3.808-1.574 3.685-3.265m-1.843-5.251c-3.359-1.815-6.117 1.495-6.117 1.495s-.904 1.227-1.518 2.374c-.078.12-.151.242-.214.365.176 3.353 4.291 2.63 5 3.494 1.065-.108 1.373-1.258.973-2.104-.276-.74-.805-1.317-.751-1.75.083-.664 1.576-.504 1.576-.504 1.49.23 2.004-.635 2.04-.785.018-.023.014-.054.014-.054.46-1.634-1.003-2.53-1.003-2.53" fill="#e08957" transform="translate(738 40)"/><path d="m76.704 81.344c.274-1.953 1.268-2.96 1.268-2.96s2.768-2.665 6.406-.852c0 0 1.057.51.857 1.746 0 0-.095 1.263-1.906.811 0 0-1.051-.216-1.735.78-.58.843 1.27 1.986 1.058 3.51 0 0-.232.42-.99.82-.71-.865-4.781-.502-4.958-3.855" fill="#ea9a67" transform="translate(738 40)"/><path d="m82.303 80.445s1.82 3.288 5.279 2.418c0 0 .209-.242.323-.72 0 0-3.89.41-4.755-1.855 0 0-.667-.105-.847.157m-.697-3.486s-.116-.937 1.59-1.767l.123.026s-.695.776-.936 1.354c-.078.186-.243.318-.442.344z" fill="#e08957" transform="translate(738 40)"/><path d="m58.19 89.524c11.153 5.282 23.516-3.71 23.516-3.71l-3.469-5.694c-8.391 8.146-19.963 1.522-19.963 1.522s-1.258-.922-1.677-.922.084.754.084.754l.084 4.36.335 1.594zm-21.432 26.931v12.38h7.217l.38-16.061zm21.968-.205.788 12.356-6.98.445-1.39-16.005zm-23.961-27.048c-10.178 4.633-22.25-4.671-22.25-4.671l4.386-5.117c7.977 7.93 17.979 1.808 17.979 1.808l2.263-.838.587 5.786-2.815 3.03" fill="#ea9a67" transform="translate(738 40)"/><path d="m16.711 80.093c1.112-1.792.206-4.988.19-7.116-.007-.9-.222-2.064-1.111-2.212-.842-.14-1.455.834-1.528 1.685-.074.85-.234 1.469-.457 2.387-1.208-1.2-2.05-2.492-3.865-4.054-.37-.319-1.252-.785-1.786-.515-.663.336-.65 1.073-.557 1.6.221 1.245 2.01 2.547 2.562 3.864-.644-.467-.934-.723-1.358-1.198-.52-.581-1.422-1.4-2.153-1.888-1.099-.733-1.938-.41-2.18.434-.146.505.065 1.105.384 1.523 1.02 1.337 2.262 2.451 3.264 3.496-1.097-.984-2.49-2.214-3.79-2.69-.565-.207-1.35-.25-1.65.658-.118.358-.104.754.12 1.057.84 1.135 2.076 2.11 3.238 2.912-.976-.538-2.947-1.326-3.449-.363-.435.753.705 1.74 2.57 2.723 2.406 1.27 4.782 2.366 6.816 2.019.742.103 1.775.458 4.74-4.322" fill="#ea9a67" transform="translate(738 40)"/><path d="m60.322 129.954s.584-2.613-.7-2.572c0 0-2.025-.041-3.176.56-.364.189-.524.647-.497 1.071.037.579.112 1.438.013 2.247 0 .082.272 1.02.778 1.102.507.082 2.22-.612 2.57-.898.35-.285 1.207-.693 1.012-1.51" fill="#bf7fd1" transform="translate(738 40)"/><path d="m60.203 129.961c-2.532-.122-3.588 1.436-3.751 1.463s-.326-.245-.326-.245c-.289-.904.067-1.483-.205-2.409-.094-.32-.336-.578-.654-.678-.667-.208-1.954-.207-2.673-.145-.415.036-.755.345-.822.756-.23 1.396-.219 4.039.23 5.66 2.77 2.315 5.875 4.609 9.784 5.093 1.505.186 3.01-.315 3.963-1.583.486-.646.712-1.45.565-2.244-.153-.833-.605-1.208-1.18-1.878-.98-1.143-2.168-2.234-3.888-2.978.133-.972.248-1.18.024-2.452 0 0-.25-.809-1.027-.523 0 0 .245 1.755-.04 2.163" fill="#9d4db2" transform="translate(738 40)"/><path d="m60.856 134.73c-.353.063-.675.032-.906-.175-.245-.22-.268-.655.013-.858 1.11-.802 2.608-1.551 3.841-1.636.395.135.907.535.764.853-.31.687-1.112.716-1.553.902-.474.2-1.392.78-2.159.915m-1.422-1.537c-.31.129-.639.036-.899-.115-.284-.165-.327-.634.203-1.042 1.086-.835 2.072-1.389 3.308-1.389.49 0 1.183.654.36 1.08-.689.359-1.953 1.043-2.972 1.466m-1.701-1.66c-.322.1-.64-.023-.885-.197-.269-.19-.268-.662.298-1.02 1.158-.731 2.19-1.191 3.42-1.078.489.045 1.12.76.261 1.11-.72.293-2.041.858-3.094 1.185" fill="#fff" transform="translate(738 40)"/><path d="m65.393 133.914c-.735-.572-2.204-.081-3.347.735-.775.553-1.593 1.878-1.47 3.47 0 0 2.014 1.266 5.198-.367 0 0 1.674-2.24-.38-3.838" fill="#c2c2c2" transform="translate(738 40)"/><path d="m52.956 131.459c-.156-.378-.209-.853-.092-1.266.264-.933 1.28-1.145 1.637-.187.414.906-.161 2.191-.833 2.136-.297-.024-.556-.305-.712-.683" fill="#bf7fd1" transform="translate(738 40)"/><path d="m14.424 4.47c.018-.079-2.98 2.124-7.757-.203-3.994-1.947-6.369-3.96-6.369-3.96s-.245 1.387.898 2.245c1.381 1.035 4.287 2.98 7.866 3.756 3.187.69 5.09-.612 5.362-1.837" fill="#a9a9a9" mask="url(#c)" transform="translate(789.5 172.995)"/><path d="m36.086 129.954s-.584-2.613.7-2.572c0 0 2.025-.041 3.177.56.363.189.523.647.496 1.071-.037.579-.112 1.438-.012 2.247 0 .082-.273 1.02-.78 1.102-.506.082-2.218-.612-2.569-.898-.35-.285-1.207-.693-1.012-1.51" fill="#bf7fd1" transform="translate(738 40)"/><path d="m36.205 129.961c2.531-.122 3.587 1.436 3.75 1.463.164.027.327-.245.327-.245.289-.904-.068-1.483.205-2.409.093-.32.335-.578.654-.678.667-.208 1.954-.207 2.672-.145.415.036.756.345.823.756.23 1.396.218 4.039-.23 5.66-2.77 2.315-5.876 4.609-9.784 5.093-1.505.186-3.01-.315-3.963-1.583-.486-.646-.712-1.45-.566-2.244.154-.833.606-1.208 1.18-1.878.98-1.143 2.169-2.234 3.888-2.978-.132-.972-.248-1.18-.023-2.452 0 0 .25-.809 1.026-.523 0 0-.245 1.755.041 2.163" fill="#9d4db2" transform="translate(738 40)"/><path d="m35.552 134.73c.353.063.675.032.906-.175.245-.22.268-.655-.013-.858-1.11-.802-2.608-1.551-3.841-1.636-.394.135-.907.535-.764.853.31.687 1.113.716 1.553.902.474.2 1.392.78 2.159.915m1.421-1.537c.31.129.64.036.9-.115.284-.165.327-.634-.204-1.042-1.085-.835-2.071-1.389-3.307-1.389-.49 0-1.184.654-.361 1.08.69.359 1.954 1.043 2.972 1.466m1.703-1.66c.32.1.64-.023.884-.197.269-.19.268-.662-.298-1.02-1.158-.731-2.19-1.191-3.42-1.078-.489.045-1.12.76-.261 1.11.72.293 2.041.858 3.095 1.185" fill="#fff" transform="translate(738 40)"/><path d="m31.015 133.914c.735-.572 2.204-.081 3.347.735.776.553 1.593 1.878 1.47 3.47 0 0-2.014 1.266-5.198-.367 0 0-1.675-2.24.38-3.838" fill="#c2c2c2" transform="translate(738 40)"/><path d="m43.452 131.459c.156-.378.209-.853.092-1.266-.263-.933-1.28-1.145-1.637-.187-.414.906.161 2.191.833 2.136.296-.024.556-.305.712-.683" fill="#bf7fd1" transform="translate(738 40)"/><path d="m.484 4.47c-.018-.079 2.98 2.124 7.757-.203 3.994-1.946 6.37-3.96 6.37-3.96s.244 1.387-.9 2.245c-1.38 1.035-4.286 2.98-7.865 3.756-3.187.69-5.09-.612-5.362-1.837" fill="#a9a9a9" mask="url(#d)" transform="translate(768 172.995)"/><g transform="translate(738 40)"><path d="m44.016 21.81c.33.735.7 1.448 1.11 2.141.753 1.272 2.741.117 1.985-1.16-.41-.693-.78-1.406-1.11-2.141-.254-.567-1.078-.702-1.572-.413-.583.341-.668 1.004-.413 1.573" fill="#db1606"/><path d="m42.78 24.703c.121.23.255.475.487.594.178.09.387.092.586.09l3.99-.014c.496-.002 1.019-.012 1.444-.267.38-.228.627-.622.85-1.007 1.29-2.228 2.28-4.63 2.932-7.121.214-.815-10.582-.026-11.41.167-2.201.511-3.28.557-1.935 2.63 1.057 1.629 2.142 3.208 3.055 4.928" fill="#db1606"/><path d="m47.318 24.903c.2-1.242.523-2.466 1.025-3.623.248-.573.164-1.226-.413-1.572-.483-.29-1.326-.156-1.572.412-.586 1.351-1.022 2.716-1.257 4.172-.233 1.447 1.98 2.07 2.217.611" fill="#db1606"/><path d="m48.29 25.977c1.707-2.973 3.654-7.332 7.829-6.572 4.384.8 5.187 4.694 6.443 8.24 1.24 3.5 5.537 10.087 10.045 7.546 1.29-.726.132-2.712-1.16-1.984-2.04 1.15-4.762-2.464-5.553-3.764-1.012-1.666-1.452-3.549-2.046-5.382-.852-2.63-2.293-4.606-4.742-5.967-2.327-1.293-4.963-1.523-7.33-.178-2.666 1.514-4.006 4.349-5.47 6.901-.738 1.285 1.247 2.444 1.984 1.16" fill="#db1606"/><path d="m15.562 46.196c6.22-2.65 10.87-7.74 12.406-14.375.97-4.195 1.424-8.339 5.692-10.509 4.342-2.207 8.824.707 10.724 4.704.676 1.423 2.789.181 2.115-1.237-3.523-7.414-13.003-8.986-18.052-2.177-2.717 3.664-2.229 8.64-4.226 12.64-2.06 4.125-5.713 7.056-9.896 8.84-1.446.615-.199 2.726 1.237 2.114" fill="#db1606"/><path d="m49.63 25.9c1.34-3.936 5.657-6.152 9.638-5.167 1.149.285 1.64-1.488.49-1.773-4.99-1.234-10.233 1.555-11.902 6.451-.382 1.123 1.393 1.605 1.774.49" fill="#ba0e00"/><path d="m50.594 26.242c1.404-3.177 4.53-5.033 7.992-4.721 1.179.106 1.171-1.733 0-1.838-4.036-.364-7.94 1.921-9.58 5.63-.474 1.073 1.11 2.01 1.588.929" fill="#ba0e00"/><path d="m51.647 26.576c1.688-1.957 3.674-3.867 6.38-4.088 1.17-.095 1.18-1.935 0-1.839-3.24.265-5.63 2.25-7.68 4.627-.77.892.525 2.198 1.3 1.3" fill="#ba0e00"/><path d="m52.707 26.576c1.797-2.034 4.216-3.156 6.877-3.544 1.167-.17.67-1.941-.489-1.773-2.946.429-5.704 1.771-7.688 4.017-.78.884.515 2.19 1.3 1.3" fill="#ba0e00"/><path d="m54.122 26.753c1.26-1.08 2.983-2.264 4.733-1.943 1.156.213 1.652-1.56.488-1.773-2.485-.456-4.694.85-6.522 2.415-.9.771.406 2.067 1.3 1.3m-7.621-.907c-2.303-5.809-9.02-9.844-14.277-4.813-.856.82.446 2.12 1.3 1.3 4.17-3.99 9.416-.508 11.205 4.002.43 1.087 2.21.613 1.773-.489" fill="#ba0e00"/><path d="m43.509 25.243c-2.035-1.625-3.847-3.916-6.53-4.45-2.293-.456-4.555.504-5.997 2.295-.735.914.558 2.223 1.3 1.3 3.404-4.229 7.028-.16 9.926 2.155.916.732 2.226-.561 1.3-1.3" fill="#ba0e00"/><path d="m42.13 24.111c-3.626-.87-9.257-3.304-11.824.724-.638 1.001.953 1.925 1.588.929 1.805-2.832 7.189-.495 9.747.12 1.15.277 1.641-1.496.489-1.773" fill="#ba0e00"/><path d="m38.995 25.574c-2.329-1.704-4.453-1.684-7.028-.53-1.078.482-.144 2.068.929 1.587 2.006-.898 3.392-.77 5.172.53.956.7 1.874-.894.927-1.587m9.031.296c.476-4.998 6.741-6.576 10.77-5.806 1.157.221 1.653-1.55.49-1.773-5.303-1.014-12.5 1.308-13.1 7.578-.111 1.178 1.728 1.17 1.84 0" fill="#ba0e00"/><path d="m62.263 18.732c-.605 4.136 2.32 10.732 3.779 13.314 1.559 2.761 1.549 4.113 4.46 5.236 3.305 1.275 6.066 2.78 8.659 2.205l-2.594-12.474-6.022-5.02z" fill="#db1606"/><path d="m31.627 24.576c.024-.079.182-.36.31-.552.177-.267.372-.52.577-.767.376-.452.772-.912 1.232-1.282.39-.313.32-.972 0-1.3-.378-.387-.915-.31-1.3 0-.54.433-.998.984-1.428 1.522-.457.574-.944 1.18-1.164 1.89-.352 1.133 1.423 1.618 1.773.489" fill="#ba0e00"/><path d="m58.994 18.283c-1.665 8.116 4.826 16.836 12.5 19.124 1.42.424 2.027-1.794.611-2.217-6.403-1.909-12.3-9.445-10.895-16.296.296-1.444-1.919-2.061-2.216-.611" fill="#db1606"/><path d="m40.93 25.628c-.966-1.281-2.133-2.338-3.544-3.114-1.037-.571-1.966 1.016-.928 1.587 1.12.617 2.112 1.431 2.885 2.455.301.4.79.597 1.257.33.393-.224.629-.862.33-1.258" fill="#ba0e00"/><path d="m42.513 25.636c-.852-1.41-1.984-2.577-3.354-3.489-.989-.657-1.91.935-.928 1.588 1.105.735 2.008 1.694 2.694 2.828.612 1.012 2.203.089 1.588-.927" fill="#ba0e00"/><path d="m44.588 25.7c-1.285-2.107-3.064-3.821-5.229-5.007-1.038-.568-1.967 1.018-.928 1.588 1.897 1.039 3.442 2.499 4.569 4.347.615 1.009 2.206.086 1.588-.928" fill="#ba0e00"/><path d="m44.71 24.016c-1.905-2.281-4.25-4.42-7.428-4.206-1.174.079-1.183 1.918 0 1.839 2.7-.182 4.534 1.758 6.127 3.667.76.91 2.054-.397 1.3-1.3" fill="#ba0e00"/><path d="m37.027 21.49c-.485-.054-.969-.186-1.431-.346-.47-.163-1.006.185-1.131.642-.14.506.171.967.642 1.13.626.218 1.262.339 1.92.413.494.055.92-.462.92-.92 0-.543-.425-.864-.92-.92" fill="#ba0e00"/><path d="m26.376 21.743s7.027 21.834-16.563 26.601l.753-16.814 10.54-10.289z" fill="#db1606"/><path d="m29.639 17.226s-5.354.976-7.279 11.795c0 0-3.512 12.548-11.041 14.053 0 0 7.477-5.705 9.787-15.81 2.007-8.783 8.532-10.038 8.532-10.038m-3.346-3.486s-8.365 3.458-9.369 14.054c0 0-1.338 4.908-4.126 7.139-.112-1.116 1.561.669 3.903-11.377 1.508-7.755 9.592-9.815 9.592-9.815m36.361 4.461s.558 13.161 15.95 17.065c0 0-10.819-3.792-15.95-17.065m.112-5.577s8.031-2.12 10.15 10.261c0 0-3.904-9.592-10.15-10.261" fill="#ea2c22"/><path d="m26.07 10.617s5.24-7.361 13.941-1.337c0 0-7.25-3.68-13.943 1.338m22.643-.558s4.462-6.916 13.385-1.674c0 0-8.254-3.234-13.385 1.674" fill="#ba0e00"/><path d="m42.8 14.521s-4.239-5.02-10.82-2.565c0 0 5.578-.335 10.82 2.565" fill="#ea2c22"/><path d="m32.672 17.468c-2.485 1.969-3.914 4.305-4.297 7.44-.498 4.096 1.089 9.172-1.855 12.537-1.034 1.182.692 2.922 1.732 1.733 2.665-3.047 2.44-6.34 2.384-10.14-.06-4.028.418-7.183 3.768-9.838 1.235-.979-.509-2.702-1.732-1.732" fill="#db1606"/><path d="m27.668 22.35c-1.16.435-2.104 1.344-2.735 2.41-.492.832-.81 1.859-.468 2.763s1.567 1.475 2.334.887c.258-.198.426-.487.589-.769l1.246-2.165c.18-.311.362-.634.4-.99.1-.933-.81-1.67-1.7-1.967" fill="#db1606"/><path d="m8.76 38.313s-7.427 2.22-4.789 11.983c0 0-.399-8.55 4.79-11.983" fill="#ba0e00"/><path d="m75.358 72.136s-3.346 3.124-3.458 8.144c0 0-1.896-5.912 3.458-8.143" fill="#ea2c22"/><path d="m36.577 97.218.024.156c.045.303-.045.617-.25.86-1.408 1.674-7.034 8.311-9.293 15.5-.136.432.009.888.368 1.153.915.673 2.836 2.398 6.191 3.197 1.984.472 6.011-.19 9.179.927 3.145 1.11 7.927-.113 11.002-2.153.044-.03.09-.055.138-.077 1.462-.68 1.752-1.013 5.913-.98.042 0-.029 1.029 2.121.488 2.198-.553 3.072-.493 4.86-2.19.356-.338.527-.813.352-1.25-.977-2.439-5.089-10.927-10.617-16.367-.228-.225-.352-.537-.313-.858l.002-.019c.084-.73-.604-1.293-1.343-1.113-3.155.77-12.054 1.472-17.179 1.437-.707-.005-1.262.615-1.155 1.289" fill="#8e37a5"/><path d="m60.852 116.818c-1.82.187-3.525.177-5.443 1.132-1.257.626-2.803.712-4.112 1.22-1.334.518-3.496.393-4.914.41-2.665.03-5.221-.843-7.873-1.018-1.18-.078-2.374-.017-3.552-.12-2.532-.22-5.714-1.405-7.235-2.756-.269-.239-.473-.504-.591-.88-.119-.377-.1-1.191-.032-1.386 1.441-4.218 3.184-7.291 5.71-10.312-.934 1.62-1.442 3.088-2.01 4.15-.826 1.542-.677 2.62-1.371 4.218-.527 1.214-.967 2.75-.067 3.68.402.414.99.601 1.557.767.795.233 1.595.452 2.4.66.257.065.536.13.79.033.433-.165.566-.688.647-1.13.74-4.054 2.4-7.982 4.826-11.42-2.054 3.537-3.224 7.53-3.375 11.526-.016.427-.012.886.243 1.225.556.74 1.75.403 2.71.29 2.736-.32 5.416 1.837 8.017.893.23-.084.458-.195.615-.38.208-.243.257-.571.298-.88.137-1.032.077-4.11.214-5.141.215 1.145.691 4.925.906 6.07.906-.225 1.743-.64 2.535-1.137.218-.137.439-.293.553-.518.127-.254.096-.548.061-.823-.4-3.16-.83-6.863-1.228-10.024 1.804 3.95 1.805 8.212 3.568 11.273 3.607-1.374 5.206-1.006 8.756-1.509 0 0 2.014-.307 2.191-1.389.412-2.51-2.97-8.384-4.485-11.435 0 0 4.926 7.082 6.021 10.742 0 0 .99 1.68-1.124 2.837 0 0-1.357.735-5.206 1.132" fill="#802c8f"/><path d="m36.389 84.074s-.265-2.822.081-3.81c0 0 .803-.865 2.245-.272 0 0-.063 2.405.374 3.65 0 0-1.977.765-2.7.432m20.292-.252s.355-2.697.024-3.695c0 0-.779-.665-2.25-.431 0 0-.01 2.524-.468 3.762 0 0 1.964.683 2.694.364" fill="#fff"/><path d="m58.71 85.632s-.61 7.348-.583 11.318c.005.767-.512 1.429-1.218 1.553-3.976.703-16.228 1.784-20.275-.083-.428-.198-.715-.633-.734-1.135-.096-2.514-.47-8.231-1.185-10.11 0 0 14.998-7.21 23.994-1.543" fill="#fff"/><path d="m34.519 86.151s-.605 1.442-.681 2.863c-.084 1.567.925 1.115 1.093 1.04.168-.076.886-1.019 2.017-.976 1.143.043 1.372.819 2.273.654 1.13-.207 1.442-.636 1.959-1.045.835-.661 2.019-.833 3.05-.148 1.03.685 1.771 1.023 2.56.86 1.576-.323 2.013-1.117 2.854-1.494.286-.128 1.067-.382 2.273.654 0 0 1.154 1.252 2.777.357 0 0 1.686-.54 2.776.358 0 0 1.381 1.317 2.382.438.82-.719-.472-4.114-.472-4.114s-.39-.775-1.266-1.178c-2.053-.944-7.826-1.368-11.27-1.14-2.546.17-7.387.535-9.54 1.07-.328.082-.594.167-.78.257-.806.388-1.511.75-2.005 1.544" fill="#c2c2c2"/><path d="m34.503 85.298s-.605 1.442-.681 2.863c-.084 1.566.925 1.114 1.093 1.04.168-.076.886-1.019 2.017-.976 1.143.043 1.372.819 2.273.654 1.13-.207 1.442-.636 1.959-1.045.835-.662 2.02-.834 3.05-.148 1.03.685 1.771 1.022 2.56.86 1.576-.324 2.013-1.117 2.854-1.494.286-.128 1.067-.383 2.273.654 0 0 1.154 1.252 2.777.357 0 0 1.686-.54 2.776.357 0 0 1.382 1.317 2.383.438.818-.718-.473-4.113-.473-4.113s-.39-.775-1.266-1.178c-2.053-.945-7.826-1.368-11.27-1.14-2.546.17-7.387.535-9.54 1.07-.328.082-.594.167-.779.257-.807.388-1.512.749-2.006 1.544" fill="#fff"/><path d="m19.436 19.208c-.99-2.762-1.895-5.469-.427-8.01.08-.14.174-.281.32-.348.328-.15.68.16.868.469 1.327 2.185.727 4.564.795 7.03" fill="#f1ed2b"/><path d="m20.486 18.919c-.352-.99-.711-1.984-.939-3.01-.074-.336-.56-3.258.046-3.397.45-.103.306 5.394.31 5.836.013 1.401 2.192 1.405 2.179 0-.018-1.915.29-3.893-.192-5.776-.303-1.184-1.133-3.157-2.706-2.79-1.437.333-1.892 2.513-2 3.745-.183 2.055.524 4.065 1.202 5.97.466 1.312 2.572.747 2.1-.578" fill="#f1ed2b"/><path d="m19.57 19.522c-.97-.995-2.41-1.51-3.791-1.356-1.381.155-2.74.37-3.465 1.554.311 1.142 3.527 1.764 6.37.478" fill="#f1ed2b"/><path d="m20.34 18.752c-1.394-1.3-3.082-1.847-4.974-1.626-1.382.162-3.347.6-3.992 2.045-.552 1.234.788 2.176 1.809 2.516 1.867.623 4.014.295 5.79-.44 1.278-.527.718-2.635-.579-2.1-.982.406-4.515 1.502-5.14.024v1.1c1.201-1.665 4.251-1.187 5.546.02 1.025.956 2.569-.581 1.54-1.54" fill="#f1ed2b"/><path d="m18.552 21.05c-1.466 1.678-2.296 3.546-1.879 5.857.027.147-.02.307.05.44.234.449.923.132 1.261-.245 1.633-1.817 2.579-4.237 2.613-6.68" fill="#f1ed2b"/><path d="m17.782 20.28c-1.098 1.306-1.981 2.738-2.222 4.454-.169 1.2-.344 3.501 1.206 3.866 1.562.367 2.718-1.5 3.366-2.613.992-1.702 1.481-3.604 1.554-5.564.052-1.402-2.126-1.4-2.178 0-.042 1.128-.243 2.235-.668 3.285-.248.61-1.184 2.828-1.929 2.733l.77.319c.238.23-.008-.501-.02-.755-.026-.542.031-1.06.176-1.583.272-.985.833-1.826 1.485-2.601.897-1.066-.636-2.614-1.54-1.54" fill="#f1ed2b"/><path d="m20.42 20.724c.984 1.989 3.061 3.391 5.273 3.56.192.015.398.017.559-.088.287-.19.284-.61.21-.946-.464-2.135-2.634-3.218-4.812-3.53" fill="#f1ed2b"/><path d="m19.479 21.274c.806 1.515 2.072 2.732 3.64 3.442 1.143.517 3.258 1.24 4.153-.04.837-1.2-.076-2.984-.936-3.913-1.133-1.224-2.788-1.833-4.397-2.093-1.371-.221-1.962 1.877-.579 2.1.922.15 1.853.373 2.65.883.389.249.748.548 1.008.936.213.318.25 1.05.535.778.32-.306-.667-.31-.94-.398-.468-.15-.91-.36-1.321-.627-.846-.549-1.462-1.284-1.932-2.168-.659-1.238-2.54-.139-1.881 1.1" fill="#f1ed2b"/><path d="m22.228 19.92c2.22-.504 4.2-1.985 5.309-3.973.132-.235.255-.499.21-.765-.065-.39-.484-.641-.879-.647s-.767.173-1.115.36c-1.52.82-2.913 1.876-4.115 3.118" fill="#f1ed2b"/><path d="m22.517 20.97c1.587-.398 3.042-1.168 4.24-2.285.961-.895 2.432-2.505 1.986-3.925-.506-1.612-2.344-1.419-3.54-.805-1.61.827-3.067 2.007-4.335 3.288-.987.997.552 2.538 1.54 1.54.685-.691 1.405-1.337 2.2-1.9.432-.304.927-.538 1.346-.854.403-.302.898-.987.362-.171-1.018 1.55-2.596 2.564-4.377 3.012-1.36.341-.784 2.443.578 2.1" fill="#f1ed2b"/><path d="m18.163 17.492c-.732 1.056-.934 2.677.385 3.394 1.232.67 2.783-.397 3.25-1.547.465-1.141-.04-2.552-1.215-3.019-1.263-.5-2.903.537-2.723 1.972.073.583.448 1.089 1.089 1.089.532 0 1.162-.502 1.09-1.09-.029-.222-.05-.04-.147.063.006-.006-.189-.034-.163-.059.048-.045.074.196.038.27-.038.079-.094.139-.159.196-.199.174-.463.083-.094.254.348.16.31-.106.53-.423.336-.484.09-1.21-.39-1.49-.542-.317-1.154-.094-1.49.39" fill="#efb92d"/><path d="m25.023 48.179c.164-2.883 1.685-4.706 3.427-5.385 1.648-.987 3.342-.706 3.342-.706 5.173-.047 6.801 3.909 6.56 6.999-.222 2.835-2.6 5.886-6.412 5.973 0 0-7.016 0-6.917-6.881" fill="#fff"/><path d="m34.803 48.411c.035-3.125-1.119-5.226-2.872-6.353.57-.03 1.803.01 3.015.736 1.742.679 3.263 2.502 3.428 5.385.098 6.881-6.918 6.881-6.918 6.881-.102-.003-.202-.008-.302-.015 1.975-.955 3.61-3.098 3.649-6.634" fill="#fff"/><path d="m25.045 49.087c-.242-3.09 1.385-7.046 6.56-6.999 0 0 .12-.02.326-.03 1.753 1.127 2.907 3.228 2.872 6.353-.04 3.537-1.674 5.68-3.65 6.634-3.634-.236-5.893-3.198-6.108-5.958" fill="#94215a"/><path d="m68.597 48.179c-.164-2.883-1.685-4.706-3.427-5.385-1.648-.987-3.342-.706-3.342-.706-5.173-.047-6.801 3.909-6.559 6.999.221 2.835 2.6 5.886 6.411 5.973 0 0 7.016 0 6.917-6.881" fill="#fff"/><path d="m65.007 49.087c.214-2.74-1.044-6.159-4.938-6.865 1.088-.274 1.947-.134 1.947-.134 5.173-.047 6.801 3.908 6.56 7-.222 2.834-2.6 5.885-6.412 5.972 0 0-.792-.002-1.838-.262 2.792-.805 4.495-3.334 4.68-5.71" fill="#fff"/><path d="m55.247 48.179c.164-2.883 1.685-4.706 3.427-5.385.476-.285.954-.461 1.395-.572 3.894.706 5.151 4.125 4.938 6.865-.187 2.377-1.89 4.906-4.681 5.711-2.071-.515-5.145-2.048-5.08-6.619" fill="#94215a"/><path d="m56.143 43.83s6.333-4.541 12.113 1.231c0 0-5.33-6.411-12.113-1.232" fill="#84592d"/><path d="m68.256 45.847c-.201 0-.403-.077-.555-.23-5.226-5.217-10.864-1.317-11.101-1.147-.35.248-.835.171-1.09-.174-.253-.345-.184-.83.156-1.09 7.298-5.573 13.136 1.284 13.194 1.354.268.323.236.8-.074 1.083-.15.137-.34.205-.53.205" fill="#723e1a"/><path d="m67.51 43.57s.869.013 2.008-.572c.547-.28.583.225.536.526-.123.794-.695 1.753-1.451 2.18z" fill="#723e1a"/><path d="m37.277 43.83s-6.333-4.541-12.113 1.231c0 0 5.33-6.411 12.113-1.232" fill="#84592d"/><path d="m25.164 45.847c-.19 0-.38-.068-.53-.205-.31-.284-.342-.76-.074-1.083.058-.07 5.895-6.927 13.194-1.354.34.26.41.747.155 1.092s-.739.422-1.089.172c-.237-.169-5.876-4.069-11.1 1.148-.153.154-.355.23-.556.23" fill="#723e1a"/><path d="m25.91 43.57s-.869.013-2.008-.572c-.547-.28-.583.225-.537.526.124.794.696 1.753 1.452 2.18l1.093-2.135z" fill="#723e1a"/></g><path d="m40.916 42.492c0-1.254.557-2.576 2.228-3.412 1.135-.567 3.482-.905 5.153-2.994.987-1.234 2.323-3.203 2.87-4.606.244-.628.41-1.27.534-1.936 1.387-7.456 3.014-17.57-3.056-22.981-3.74-3.335-8.686-4.944-13.326-5.85-4.086-.417-8.712 0-8.712 0-4.64.906-9.397 2.047-13.138 5.381-6.07 5.41-5.486 15.994-4.1 23.45.123.666.29 1.308.534 1.936.547 1.403 1.773 2.314 2.743 3.562 1.462 1.88 2.878 2.142 4.874 2.854 4.966 1.773 3.136 4.06 3.342 4.805" fill="#fff" transform="translate(641 98)"/><path d="m20.323.082s1.147 9.856-3.343 12.742c-5.849 3.76-7.204 6.093-7.52 10.55 0 0-.273 8.947-4.7 12.428 0 0-4.49-3.76-4.45-11.489.035-6.97 2.059-16.752 5.704-19.845 3.446-2.924 7.936-4.49 14.309-4.386" fill="#d68950" mask="url(#e)" transform="translate(650 98.423)"/><path d="m.53.082s-1.149 9.856 3.341 12.742c5.848 3.76 7.203 6.093 7.52 10.55 0 0 .338 9.086 4.766 12.568 0 0 4.425-3.9 4.385-11.629-.036-6.97-2.06-16.752-5.705-19.845-3.445-2.924-7.937-4.49-14.307-4.386" fill="#d68950" mask="url(#f)" transform="translate(673 98.423)"/><path d="m46.87 75.183s-2.701.522-3.173 2.094c-.44 1.465-.207 2.924.76 2.963 1.966.079 5.303.086 8.533.04 0 0 3.854.274 3.736-4.208-.054-2.027-.263-5.322-.263-5.322s-.925-2.669-2.074-4.549c-1.537-2.516-1.567-6.684-4.282-7.311-2.716-.627-4.596-.627-4.596-.627s-.104 4.91.314 6.79c.417 1.88.835 6.37.522 6.997-.314.627.522 3.133.522 3.133" fill="#e4e4e4" transform="translate(641 98)"/><path d="m47.287 73.512s-1.096-1.149 1.933-.94c0 0 0-5.43-2.09-5.744 0 0-.574 5.953.157 6.684" fill="#cdcdcd" transform="translate(641 98)"/><path d="m43.214 47.401s13.995 9.191 13.369 25.276l-1.114-2.681s-1.184-3.481-4.213-6.406c-2.29-2.211-3.865-2.924-3.865-2.924s-4.386-11.698-4.177-13.266" fill="#a7602c" transform="translate(641 98)"/><path d="m38.97 80.263c-5.149-.063-12.748.14-16.653.063-.581-.011-1.02-.526-.943-1.102l.637-4.772-2.506-4.073.208-6.58 4.179-3.029 18.068.313 1.985 4.387s-1.671 6.267-2.194 7.207c-.521.94-2.812 6.291-2.812 6.291s1.223.723.52 1.17c-.145.092-.317.128-.489.125m-24.923-9.461s-2.988 1.835-2.779 5.61c.254 4.56 7.079 3.88 7.079 3.88s1.68-.108.774-2.714c-.905-2.606-.617-6.776-5.074-6.776" fill="#e4e4e4" transform="translate(641 98)"/><path d="m8.388 1.515s-7.552 13.104-7.97 20.972c-.196 3.701.515 10.095 1.768 13.689-.231 1.7.743 2.978 2.47 3.14 1.11.106 2.29.29 5.462.106 1.362-.079 2.685.03 3.399-1.101.944-1.494.354-3.696-2.556-4.837-.08-.275-.394-.826-.394-.826-.354-1.18-1.463-2.468-1.627-6.44-.116-2.84.21-3.342.21-3.342s7.762 3.325 17.683 0c0 0 .325.502.209 3.342-.164 3.972-1.273 5.26-1.627 6.44 0 0-.315.551-.393.826-2.91 1.14-3.5 3.343-2.557 4.837.714 1.13 2.308.917 3.67.996 3.173.184 3.644.105 5.191 0 1.73-.117 2.701-1.442 2.47-3.141 1.253-3.594 2.49-10.016 2.293-13.718-.419-7.868-8.212-21.098-8.212-21.098s-10.87-2.313-19.49.155" fill="#fff" mask="url(#g)" transform="translate(654 138.923)"/><path d="m54.986 64.445c1.94.597 3.78.462 3.78.462 3.309.228 9.795-2.235 8.832-9.647-.324-2.492-2.168-5.591-2.168-5.591-.913-2.852 1.027-3.194 1.027-3.194 2.167-1.027 4.791 3.878 4.791 3.878 2.373 5.045 2.026 9.949-.223 13.886-3.584 6.271-12.03 5.688-12.03 5.688s-1.486.079-2.83-.07l-1.18-5.412z" fill="#a7602c" transform="translate(641 98)"/><path d="m19.879 8.529c-1.76.119-3.29-.46-3.341-1.226-.064-.95 1.302-1.5 3.06-1.619 1.76-.119 3.297.121 3.373 1.243.08 1.197-1.333 1.484-3.092 1.602m21.791 0c1.759.119 3.289-.46 3.34-1.226.065-.95-1.302-1.5-3.06-1.619-1.76-.119-3.296.121-3.372 1.243-.081 1.197 1.332 1.484 3.091 1.602m-25.64 4.995c.065 2.094 1.768 3.899 3.848 3.939 2.58.05 3.851-1.591 3.891-3.686.041-2.096-.852-3.917-3.899-3.975-3.251-.062-3.89 2.14-3.84 3.722" fill="#fff" transform="translate(641 98)"/><path d="m17.77 13.325c-.131 1.89 1.427 3.662 2.833 3.694 1.743.04 2.605-1.447 2.635-3.342.032-1.895-.576-3.404-2.626-3.585-1.518-.134-2.691 1.038-2.843 3.233" fill="#562e12" transform="translate(641 98)"/><path d="m45.24 13.524c-.066 2.094-1.768 3.899-3.849 3.939-2.58.05-3.85-1.591-3.89-3.686-.041-2.096.852-3.917 3.898-3.975 3.252-.062 3.89 2.14 3.84 3.722" fill="#fff" transform="translate(641 98)"/><path d="m43.499 13.325c.13 1.89-1.428 3.662-2.834 3.694-1.743.04-2.604-1.447-2.635-3.342s.576-3.404 2.626-3.585c1.519-.134 2.691 1.038 2.843 3.233" fill="#562e12" transform="translate(641 98)"/><path d="m45.929 3.986s1.81-.975 3.9.557c2.065 1.514 3.481 3.343 5.849 6.267 2.367 2.925 3.9 2.925 5.153 5.013 1.253 2.09 1.392 6.128-1.254 16.712 0 0-2.089 8.495-4.038 9.748-1.367.878-2.791-.284-3.761-1.253-.43-.43-1.301-1.707-2.047-2.846-.757-1.157-.952-2.588-.554-3.913.476-1.587 1.07-4.334 1.418-8.803.626-8.043 0-12.117-4.666-21.482" fill="#a7602c" transform="translate(641 98)"/><path d="m16.162.633s-2.206-1.045-4.295.487c-2.064 1.514-3.481 3.342-5.847 6.267-2.368 2.924-3.9 2.924-5.153 5.013-1.254 2.09-1.393 6.128 1.253 16.712 0 0 2.09 8.495 4.039 9.748 1.366.878 2.79-.283 3.76-1.253.306-.307.877-1.072 1.476-1.919 1.205-1.701 1.586-3.862.989-5.86-.481-1.613-.994-4.088-1.281-7.784-.627-8.042.395-12.046 5.06-21.411" fill="#a75d29" mask="url(#h)" transform="translate(641 101.423)"/><path d="m26.624 27.804s.498 3.432 4.424 3.208c3.312-.189 3.5-3.02 3.5-3.02s-3.594-2.925-3.963-3.585c0 0-1.887 2.83-3.96 3.397" fill="#c03b0c" transform="translate(641 98)"/><path d="m25.903 28.411c-.343 0-.707-.03-1.097-.096-2.183-.368-3.891-2.009-3.963-2.078-.28-.274-.287-.722-.014-1.003s.722-.288 1.002-.015c.029.027 1.48 1.406 3.21 1.697 2.073.35 3.102-.544 4.443-1.944.327-.4.53-2.944.43-5.441-.016-.392.29-.721.68-.737.385-.007.722.289.738.68.065 1.622.115 5.5-.823 6.48-1.285 1.341-2.545 2.457-4.606 2.457" fill="#a2411f" transform="translate(641 98)"/><path d="m20.319 26.766c-.256 0-.503-.139-.63-.38-.18-.347-.048-.773.296-.956.018-.01.468-.262.79-.75.216-.329.656-.418.982-.203.327.216.418.655.202.983-.526.798-1.233 1.184-1.312 1.225-.105.055-.217.08-.328.08m15.117 1.646c-2.061 0-3.32-1.116-4.606-2.458-.938-.98-.888-4.857-.823-6.479.016-.382.33-.68.709-.68h.028c.392.016.697.345.681.737-.1 2.497.103 5.042.433 5.444 1.338 1.397 2.369 2.291 4.44 1.94 1.738-.292 3.195-1.682 3.21-1.697.281-.272.73-.264 1.002.017s.266.729-.014 1.002c-.072.07-1.78 1.71-3.963 2.078-.39.065-.754.096-1.097.096" fill="#a2411f" transform="translate(641 98)"/><path d="m41.02 26.766c-.11 0-.223-.026-.328-.081-.079-.041-.786-.427-1.312-1.225-.216-.328-.125-.767.202-.983.326-.215.766-.126.982.202.325.493.78.746.786.749.347.181.48.61.3.957-.127.242-.374.38-.63.38" fill="#a2411f" transform="translate(641 98)"/><path d="m29.687 14.555c1.574-.095 4.468-.018 5.724 1.163.994.934.19 2.677-.687 3.402 0 0-.804.64-1.933 1.496-1.205.913-2.282.866-2.282.866" fill="#562e12" transform="translate(641 98)"/><path d="m31.856 14.555c-1.574-.095-4.468-.018-5.724 1.163-.994.934-.19 2.677.687 3.402 0 0 .626.71 1.688 1.496 1.214.9 2.282.866 2.282.866" fill="#562e12" transform="translate(641 98)"/><path d="m13.654 61.509s5.645-2.888 7.835-8.364c2.925-7.311-.627-12.742-.627-12.742-.209.627-.434 2.302-1.253 4.596-1.045 2.924-2.507 5.013-3.342 6.893-1.654 3.721-2.27 6.711-2.613 9.617m35.155-.079s-5.794-2.81-7.984-8.284c-2.924-7.312.626-12.743.626-12.743.21.627.434 2.302 1.254 4.596 1.044 2.924 2.507 5.013 3.342 6.893 1.654 3.721 2.42 6.632 2.762 9.538m-25.7 14.43s2.089 1.568 1.253 3.552c0 0-.73-2.089-1.253-3.551m19.664.469s-2.09 1.567-1.254 3.551c0 0 .731-2.089 1.254-3.551m-23.472.157s2.09 1.567 1.254 3.552c0 0-.731-2.09-1.254-3.552m19.449-.391s-2.088 1.567-1.253 3.552c0 0 .732-2.09 1.254-3.552" fill="#d68950" transform="translate(641 98)"/><path d="m66.457 46.475s-1.859.275-1.027 3.194c0 0 1.249 2.293 1.388 2.85 0 0 .862 2.21.78 2.74 0 0 1.797-1.348 4.86-1.417-.139-.279-.842-4.326-3.044-6.45 0 0-1.16-1.53-2.957-.917" fill="#fff" transform="translate(641 98)"/><path d="m50.664 23.274c-.14 3.273-1.197 10.514-1.614 11.768-.418 1.253.626 3.55 2.728 5.988 1.977 2.294 3.817 1.253 3.817 1.253-3.817-.557-4.735-6.267-4.596-7.102.14-.835.279-2.368 1.114-6.963.836-4.596 0-8.356 0-8.356s-1.38-5.292-1.937-5.71c0 0 .657 5.141.488 9.122" fill="#985323" transform="translate(641 98)"/><path d="m35.525 44.315s5.7-.477 6.77-1.274c0 0-.258-3.124-.203-3.121 0 0-2.897.813-6.62 1.162-4.872.662-9.396-.05-9.396-.05-3.801-.556-5.778-1.228-5.778-1.228.054 0-.078 3.099-.078 3.099 1.036.837 6.636 1.412 6.636 1.412s4.25.665 8.669 0" fill="#8b6239" transform="translate(641 98)"/><path d="m34.497 43.662c0 1.801-1.46 3.26-3.26 3.26-1.802 0-3.262-1.459-3.262-3.26s1.46-3.26 3.262-3.26c1.8 0 3.26 1.459 3.26 3.26" fill="#b2b2b2" transform="translate(641 98)"/><path d="m38.638 118.043.029 22.552h6.392l.337-22.36z" fill="#fccab8" transform="translate(140 30)"/><path d="m41.632 134.238-3.037-.162s-.04.006-.097 1.016c-.057 1.022.02 5.888.02 5.888l-1.787 2.674 8.48.203-.054-7.9s.205-1.755-.048-1.755c0 0-2.405.028-3.477.036" fill="#fff" transform="translate(140 30)"/><path d="m60.942 118.043-.029 22.552h-6.392l-.337-22.36z" fill="#fccab8" transform="translate(140 30)"/><path d="m57.948 134.238 3.037-.162s.04.006.097 1.016c.057 1.022-.02 5.888-.02 5.888l1.787 2.674-8.48.203.054-7.9s-.205-1.755.048-1.755c0 0 2.405.028 3.477.036" fill="#fff" transform="translate(140 30)"/><path d="m62.044 139.63s.616-2.628-.739-2.587c0 0-2.135-.041-3.349.563-.383.19-.552.65-.524 1.077.039.582.119 1.446.014 2.26 0 .082.287 1.026.821 1.108.534.083 2.34-.616 2.71-.903.369-.287 1.273-.698 1.067-1.519" fill="#6acd6a" transform="translate(140 30)"/><path d="m61.962 139.63c-2.546-.124-3.859 1.45-4.024 1.477-.163.028-.328-.246-.328-.246-.29-.91.069-1.492-.205-2.422-.095-.322-.338-.582-.659-.682-.67-.21-1.964-.209-2.687-.146-.417.036-.759.347-.827.76-.23 1.404-.219 4.06.232 5.692 2.785 2.327 5.907 4.634 9.838 5.12 1.514.188 3.026-.316 3.985-1.59.489-.65.716-1.458.569-2.258-.154-.837-.609-1.214-1.186-1.888-.986-1.15-2.181-2.246-3.91-2.995.133-.977.249-1.186.023-2.465 0 0 0-.821-.78-.534 0 0 .246 1.766-.041 2.176" fill="#43a746" transform="translate(140 30)"/><path d="m62.367 144.432c-.355.063-.678.031-.911-.177-.246-.22-.27-.659.013-.862 1.117-.806 2.622-1.56 3.863-1.645.396.135.911.538.767.858-.31.69-1.118.72-1.562.906-.476.202-1.399.784-2.17.92m-1.43-1.545c-.312.13-.643.036-.904-.115-.286-.166-.33-.638.205-1.049 1.091-.84 2.083-1.396 3.325-1.396.493 0 1.19.656.364 1.087-.694.36-1.965 1.048-2.99 1.473m-1.711-1.669c-.323.1-.643-.023-.89-.198-.27-.192-.269-.666.3-1.026 1.165-.735 2.203-1.198 3.44-1.084.49.046 1.125.764.262 1.116-.723.295-2.052.863-3.112 1.192" fill="#fff" transform="translate(140 30)"/><path d="m66.93 143.611c-.74-.574-2.218-.082-3.367.74-.78.556-1.601 1.888-1.478 3.489 0 0 2.025 1.273 5.228-.37 0 0 1.683-2.25-.384-3.859" fill="#cbcbcb" transform="translate(140 30)"/><path d="m54.423 141.142c-.157-.38-.21-.858-.093-1.273.265-.938 1.287-1.151 1.646-.188.416.911-.162 2.203-.837 2.148-.299-.024-.56-.306-.716-.687" fill="#6acd6a" transform="translate(140 30)"/><path d="m67.463 147.183c.018-.08-2.997 2.135-7.8-.205-4.017-1.957-6.405-3.983-6.405-3.983s-.246 1.396.903 2.259c1.389 1.04 4.311 2.996 7.91 3.776 3.205.695 5.118-.615 5.392-1.847" fill="#b2b2b2" transform="translate(140 30)"/><path d="m37.536 139.63s-.616-2.628.739-2.587c0 0 2.135-.041 3.348.563.383.19.553.65.524 1.077-.039.582-.118 1.446-.013 2.26 0 .082-.288 1.026-.821 1.108-.534.083-2.34-.616-2.71-.903s-1.273-.698-1.067-1.519" fill="#6acd6a" transform="translate(140 30)"/><path d="m37.618 139.63c2.545-.124 3.859 1.45 4.023 1.477.165.028.329-.246.329-.246.29-.91-.069-1.492.205-2.422.095-.322.338-.582.659-.682.67-.21 1.964-.209 2.686-.146.417.036.76.347.828.76.23 1.404.219 4.06-.232 5.692-2.785 2.327-5.907 4.634-9.838 5.12-1.514.188-3.026-.316-3.985-1.59-.49-.65-.716-1.458-.569-2.258.154-.837.609-1.214 1.186-1.888.986-1.15 2.181-2.246 3.91-2.995-.133-.977-.249-1.186-.023-2.465 0 0 0-.821.78-.534 0 0-.246 1.766.041 2.176" fill="#43a746" transform="translate(140 30)"/><path d="m37.213 144.432c.355.063.679.031.91-.177.247-.22.27-.659-.012-.862-1.117-.806-2.623-1.56-3.863-1.645-.396.135-.91.538-.767.858.31.69 1.118.72 1.561.906.477.202 1.4.784 2.17.92m1.431-1.545c.312.13.643.036.904-.115.286-.166.33-.638-.205-1.049-1.091-.84-2.083-1.396-3.325-1.396-.493 0-1.19.656-.364 1.087.694.36 1.965 1.048 2.99 1.473m1.711-1.669c.323.1.643-.023.89-.198.27-.192.269-.666-.3-1.026-1.165-.735-2.203-1.198-3.44-1.084-.49.046-1.125.764-.263 1.116.724.295 2.053.863 3.113 1.192" fill="#fff" transform="translate(140 30)"/><path d="m32.65 143.611c.74-.574 2.217-.082 3.367.74.78.556 1.6 1.888 1.478 3.489 0 0-2.026 1.273-5.228-.37 0 0-1.684-2.25.383-3.859" fill="#cbcbcb" transform="translate(140 30)"/><path d="m45.157 141.142c.157-.38.21-.858.093-1.273-.266-.938-1.287-1.151-1.646-.188-.417.911.161 2.203.837 2.148.298-.024.56-.306.716-.687" fill="#6acd6a" transform="translate(140 30)"/><path d="m32.117 147.183c-.018-.08 2.997 2.135 7.8-.205 4.016-1.957 6.404-3.983 6.404-3.983s.247 1.396-.903 2.259c-1.388 1.04-4.31 2.996-7.91 3.776-3.204.695-5.118-.615-5.391-1.847" fill="#b2b2b2" transform="translate(140 30)"/><path d="m36.451 111.243c0 3.541-.084 10.113.169 14.985 4.6.054 5.754.3 10.266.04l.526-2.973 4.124-.074.598 2.794c4.39.448 6.718.282 10.709.282.25-3.575.415-10.059.421-14.548" fill="#009145" transform="translate(140 30)"/><path d="m47.714 101.91c-6.607-2.085-11.37-9.774-11.37-9.774 1.012-2.376 5.322-2.462 5.322-2.462l2.108-.506-.01-4.618 10.541-.122.21 4.317 2.711.597s3.007.775 4.69 2.794l-3.54 4.957-3.27 3.397z" fill="#fdc0af" transform="translate(140 30)"/><path d="m35.544 101.181.177 11.731s13.468.665 28.1-.166l.053-12.138c.026-4.343-.428-8.912-.712-10.628-.07-.417-.38-.748-.79-.85-3.388-.84-7.222-1.438-7.222-1.438-1.26 2.176-3.52 3.673-6.035 3.722-2.515.048-5.03-1.811-5.734-3.823 0 0-2.66.589-6.277 1.586 0 0-1.413.457-1.438 1.677-.032 1.497-.133 9.403-.122 10.327" fill="#fff" transform="translate(140 30)"/><path d="m67.228 92.932s8.411 8.075 18.169 2.355l2.987 6.083s-14.09 6.03-22.839-1.036z" fill="#fccab8" transform="translate(140 30)"/><path d="m84.738 96.494c-.633-2.024 1.052-4.908 1.601-6.976.233-.876.734-1.954 1.637-1.876.856.074 1.207 1.177 1.065 2.024s-.141 1.49-.154 2.44c1.477-.866 2.621-1.913 4.78-2.978.441-.217 1.417-.45 1.869-.054.562.494.364 1.209.14 1.7-.527 1.155-2.596 1.974-3.464 3.118.744-.293 1.092-.47 1.624-.825.652-.437 1.735-1.007 2.57-1.298 1.254-.439 1.99.086 2.014.968.015.53-.34 1.06-.757 1.388-1.33 1.046-2.817 1.819-4.055 2.585 1.315-.683 2.98-1.532 4.365-1.669.602-.059 1.377.096 1.442 1.055.025.379-.088.76-.383 1-1.102.894-2.55 1.533-3.883 2.023 1.085-.28 3.202-.552 3.449.512.235.842-1.122 1.516-3.186 2.006-2.661.632-5.25 1.104-7.143.255-.749-.086-1.844.001-3.531-5.398" fill="#fccab8" transform="translate(140 30)"/><path d="m62.53 89.191c2.106 1.22 5.56 3.299 7.94 4.796 0 0-3.381 6.814-3.954 8.308l-2.84-1.426-4.85-2.5s-2.822-2.04-.626-6.519c0 0 1.427-3.25 4.33-2.659" fill="#fff" transform="translate(140 30)"/><path d="m71.7 94.802s-1.608 5.151-4.442 8.048l-1.599-.933s3.175-3.943 4.403-8.215l1.639 1.1z" fill="#1790cd" transform="translate(140 30)"/><path d="m32.19 92.932s-8.411 8.075-18.169 2.355l-2.987 6.083s14.09 6.03 22.839-1.036l-1.682-7.402z" fill="#fccab8" transform="translate(140 30)"/><path d="m14.68 96.494c.633-2.024-1.052-4.908-1.601-6.976-.233-.876-.735-1.954-1.637-1.876-.856.074-1.207 1.177-1.066 2.024.143.847.142 1.49.155 2.44-1.476-.866-2.622-1.913-4.781-2.978-.44-.217-1.416-.45-1.868-.054-.562.494-.364 1.209-.14 1.7.527 1.155 2.596 1.974 3.463 3.118-.744-.293-1.09-.47-1.623-.825-.652-.437-1.736-1.007-2.569-1.298-1.254-.439-1.99.086-2.015.968-.015.53.34 1.06.756 1.388 1.33 1.046 2.818 1.819 4.056 2.585-1.314-.683-2.979-1.532-4.365-1.669-.603-.059-1.378.096-1.442 1.055-.025.379.087.76.383 1 1.102.894 2.551 1.533 3.883 2.023-1.086-.28-3.203-.552-3.449.512-.235.842 1.123 1.516 3.186 2.006 2.661.632 5.25 1.104 7.143.255.749-.086 1.844.001 3.531-5.398" fill="#fccab8" transform="translate(140 30)"/><path d="m36.889 89.191c-2.107 1.22-5.56 3.299-7.942 4.796 0 0 3.383 6.814 3.955 8.308l2.84-1.426 4.85-2.5s2.822-2.04.627-6.519c0 0-1.428-3.25-4.33-2.659" fill="#fff" transform="translate(140 30)"/><path d="m27.718 94.802s1.608 5.151 4.442 8.048l1.599-.933s-3.175-3.943-4.403-8.215z" fill="#1790cd" transform="translate(140 30)"/><path d="m35.56 102.396c9.935 1.212 18.377.737 28.308-.499l.014 2.68c-9.931 1.236-16.068 1.686-28.244.168l-.077-2.35zm28.1-6.106c-8.912.97-19.095.998-28.016.25l-.083 2.614c8.922.748 19.27.805 28.183-.167l-.083-2.698z" fill="#5fceec" transform="translate(140 30)"/><path d="m41.824 87.972s1.24-.776 1.663-.776c0 0 1.505 3.032 5.874 2.66 3.963-.337 5.31-2.542 5.31-2.542s.51-.063 1.563.547c0 0-1.542 3.918-7.634 3.838-5.224-.07-6.776-3.727-6.776-3.727" fill="#1790cd" transform="translate(140 30)"/><path d="m22.971 63.482c.013 6.581-3.25 6.959-7.013 7.027-5.009.09-8.458-3.78-7.617-8.322.743-4.012 4.11-5.712 7.991-5.72 3.882-.007 6.628 1.081 6.64 7.015m49.291-1.07c-.013 6.58 2.805 7.287 6.569 7.346 5.383.084 7.479-3.445 7.486-7.318.008-3.873-3.132-7.02-7.013-7.027-3.882-.008-7.03 1.065-7.042 6.999" fill="#f6b6a8" transform="translate(140 30)"/><path d="m18.27 39.807c-.046 3.302-1.282 6.616-1.73 9.887-1.386 10.111-.993 20.28 5.444 26.886 6.71 6.886 16.494 10.147 29.983 9.977 8.225-.104 24.917-6.094 27.909-17.048.612-2.239.562-5.653-.732-10.456-1.082-4.014-.985-10.99-.27-16.088 0 0 1.693-12.56-7.221-13.05-7.173-.392-19.789-2.938-19.789-2.938l-12.2 2.059-7.98 1.416s-13.316 2.116-13.415 9.355" fill="#fccab8" transform="translate(140 30)"/><path d="m49.932 61.23c1.604-.046 2.645-.713 2.944-2.06.334-1.51-.23-3.046-1.777-3.587-.753-.263-1.206-.65-1.965-.396l-.407-2.53" stroke="#f1927a" stroke-linecap="round" stroke-linejoin="round" stroke-width="1.745" transform="translate(140 30)"/><path d="m59.025 64.713c-9.05 2.645-16.868 1.116-20.314.146-.926-.26-1.814.463-1.62 1.317.662 2.895 3.018 8.064 11.405 8.613 8.824.578 11.77-4.875 12.176-8.774.092-.875-.715-1.574-1.647-1.302" fill="#e64f3f" transform="translate(140 30)"/><path d="m43.118 68.718c5.125.693 8.126.706 12.255-.178 0 0 3.822-.666 3.742-3.842-.03.007-.059.009-.09.015-7.044 1.528-14.14 1.19-20.025.224-.15.613.29 3.264 4.118 3.781" fill="#fff" transform="translate(140 30)"/><path d="m34.107 68.362c.005 2.752-2.992 4.99-6.696 4.997s-6.71-2.218-6.716-4.97c-.005-2.753 2.992-4.99 6.696-4.998s6.71 2.218 6.716 4.97m42.79.086c.005 2.753-2.993 4.99-6.696 4.998-3.704.007-6.71-2.218-6.716-4.97-.005-2.754 2.993-4.991 6.696-4.998 3.704-.008 6.71 2.218 6.716 4.97" fill="#ffb4ae" transform="translate(140 30)"/><path d="m60.32 44.568s1.763-1.165 7.108-2.068c0 0-3.936-.573-7.108 2.068z" stroke="#d2814a" stroke-linecap="round" stroke-linejoin="round" stroke-width="2.023" transform="translate(140 30)"/><path d="m8.882 46.28c.94 5.364 4.317 12.461 7.243 17.435-.805-8.584.805-17.436 2.95-24.41.666-2.161-5.8-1.403-6.451-.391-1.208 1.878-4.09 5.372-3.742 7.365" fill="#f3a03d" transform="translate(140 30)"/><path d="m27.078 56.614c.166-2.899 1.695-4.732 3.447-5.414 1.657-.993 3.36-.71 3.36-.71 5.202-.048 6.84 3.93 6.596 7.038-.223 2.85-2.614 5.918-6.447 6.005 0 0-7.055 0-6.956-6.919" fill="#fff" transform="translate(140 30)"/><path d="m30.669 56.847c-.035-3.142 1.125-5.254 2.888-6.388-.574-.03-1.814.01-3.032.74-1.752.682-3.28 2.516-3.447 5.415-.098 6.919 6.956 6.919 6.956 6.919.103-.002.204-.008.304-.014-1.986-.96-3.63-3.116-3.67-6.672" fill="#fff" transform="translate(140 30)"/><path d="m40.481 57.528c.243-3.108-1.394-7.086-6.596-7.038 0 0-.122-.02-.328-.03-1.763 1.133-2.923 3.245-2.888 6.388.04 3.556 1.683 5.71 3.669 6.67 3.654-.237 5.926-3.216 6.143-5.99" fill="#1790cd" transform="translate(140 30)"/><path d="m70.896 56.614c-.166-2.899-1.695-4.732-3.447-5.414-1.657-.993-3.36-.71-3.36-.71-5.203-.048-6.84 3.93-6.596 7.038.222 2.85 2.614 5.918 6.446 6.005 0 0 7.055 0 6.957-6.919" fill="#fff" transform="translate(140 30)"/><path d="m61.082 57.528c-.216-2.756 1.05-6.194 4.965-6.905-1.094-.274-1.958-.133-1.958-.133-5.202-.048-6.84 3.93-6.596 7.038.223 2.85 2.614 5.918 6.447 6.005 0 0 .796 0 1.848-.263-2.807-.81-4.52-3.352-4.706-5.742" fill="#fff" transform="translate(140 30)"/><path d="m70.896 56.614c-.166-2.899-1.695-4.732-3.448-5.414-.477-.287-.958-.465-1.401-.576-3.916.71-5.18 4.148-4.965 6.904.187 2.39 1.899 4.932 4.706 5.743 2.083-.519 5.173-2.06 5.108-6.657" fill="#1790cd" transform="translate(140 30)"/><path d="m58.372 52.24s6.368-4.566 12.18 1.24c0 0-5.359-6.448-12.18-1.24" fill="#8d592d" transform="translate(140 30)"/><path d="m58.372 52.24s6.368-4.566 12.18 1.24c0 0-5.359-6.448-12.18-1.24z" stroke="#b16632" stroke-linecap="round" stroke-linejoin="round" stroke-width="1.581" transform="translate(140 30)"/><path d="m39.401 52.24s-6.368-4.566-12.18 1.24c0 0 5.359-6.448 12.18-1.24" fill="#8d592d" transform="translate(140 30)"/><path d="m39.401 52.24s-6.368-4.566-12.18 1.24c0 0 5.359-6.448 12.18-1.24z" stroke="#b16632" stroke-linecap="round" stroke-linejoin="round" stroke-width="1.581" transform="translate(140 30)"/><path d="m17.6 44.803s17.542-20.517 23.473-33.128c-7.512-1.073-13.95 0-19.583 3.487-5.144 3.184-10.736 10.726-12.398 16.544-1.61 5.633-1.417 9.476-.344 14.573 0 0 4.695 0 8.853-1.744" fill="#f3a03d" transform="translate(140 30)"/><path d="m38.549 44.967s-1.86-1-7.265-1.418c0 0 3.868-.926 7.265 1.418z" stroke="#d2814a" stroke-linecap="round" stroke-linejoin="round" stroke-width="2.023" transform="translate(140 30)"/><path d="m79.573 60.33c2.542-6.272 3.554-10.126 4.151-16.197.199-2.014.672-6.974-.536-8.853-.65-1.011-6.537-1.484-6.313.767l1.349 15.851c-.17-3.71 0 3.71 1.349 8.432" fill="#f3a03d" transform="translate(140 30)"/><path d="m86.138 29.916c7.78-2.146 12.608-6.975 15.425-10.194-11.669-7.645-16.498-8.852-27.228-10.462 2.884-1.408 5.7-2.414 8.316-6.706-11.266-3.219-23.337-2.75-34.604 2.08-4.581 1.963-10.958 5.673-13.994 9.91-.618.863.133 1.87-.435 2.758-.632.99-2.171 1.823-3.07 2.605-2.381 2.076-4.612 4.327-6.675 6.72-3.87 4.485-7.148 9.483-9.7 14.83-1.42 2.972 1.525-2.6 4.098-.543 1.5-6.646 1.9-4.29 8.316-6.706 6.415-2.416 14.372-1.987 21.192-2.683 8.147-.83 19.582.604 28.166 6.774.956.687.645 1.966 1.878 2.079 2.95.268 5.993-.347 6.974-.805 0 0 5.767-1.476 9.523-5.768 0 0-2.28-2.816-8.181-3.89" fill="#f3a03d" transform="translate(140 30)"/><path d="m37.317 32.33c.202 2.424-.269 4.828-1.246 6.877 11.44.232 21.901-5 25.388-14.657-3.397-2.444-9.5-4.103-13.68-4.292-6.895-.31-6.53-.535-12.973 1.936-7.137 2.736-12.637 8.548-17.25 14.642-1.045 1.38-3.857 5.136-2.906 7.297.77 1.749 6.692-.663 8.181-1.476 2.951-1.609 10.194-4.425 14.486-10.327" fill="#f3a03d" transform="translate(140 30)"/><path d="m30.879 8.992c3.085 1.475 5.096 3.89 5.096 3.89s.806-6.304 2.415-7.377" stroke="#f3a03d" stroke-linecap="round" stroke-width="2.42" transform="translate(140 30)"/><path d="m16.662 28.038s-2.415 4.292-2.683 7.51c0 0 3.756 2.147 13.681-4.291 0 0-.805 4.023-2.146 5.097 1.073-.537 5.097-4.292 6.974-10.194 0 0-10.193 6.974-16.363 7.243 0 0-.805-2.683.537-5.365m41.578-4.828s13.95-2.146 23.338.536c0 0-4.023 3.22-5.901 3.487 0 0 9.389-.805 13.412-6.706 0 0-17.168-2.146-30.848 2.683m-6.907-7.151s4.513-6.576 18.504-5.246c0 0-14.507 2.802-18.504 5.246" fill="#ffc478" transform="translate(140 30)"/><path d="m38.638 115.756.028 22.552h6.393l.337-22.36z" fill="#be8751" transform="translate(11 32)"/><path d="m41.632 131.951-3.037-.162s-.04.007-.097 1.016c-.057 1.022.02 5.888.02 5.888l-1.788 2.674 8.481.203-.054-7.899s.205-1.755-.048-1.755c0 0-2.405.027-3.477.035" fill="#fff" transform="translate(11 32)"/><path d="m60.942 115.756-.029 22.552h-6.393l-.336-22.36z" fill="#be8751" transform="translate(11 32)"/><path d="m57.947 131.951 3.037-.162s.042.007.098 1.016c.057 1.022-.02 5.888-.02 5.888l1.787 2.674-8.48.203.053-7.899s-.204-1.755.05-1.755c0 0 2.404.027 3.475.035" fill="#fff" transform="translate(11 32)"/><path d="m62.044 137.343s.615-2.628-.739-2.587c0 0-2.135-.041-3.349.563-.383.191-.552.651-.524 1.078.039.582.119 1.446.014 2.26 0 .081.287 1.026.821 1.108s2.34-.616 2.71-.903c.369-.287 1.272-.698 1.067-1.52" fill="#ffc139" transform="translate(11 32)"/><path d="m61.962 137.343c-2.546-.123-3.86 1.45-4.024 1.478-.164.027-.328-.246-.328-.246-.29-.91.069-1.492-.205-2.423-.095-.322-.338-.582-.659-.682-.67-.21-1.964-.208-2.687-.145-.417.036-.759.347-.827.76-.23 1.403-.22 4.06.232 5.691 2.785 2.328 5.907 4.634 9.838 5.121 1.513.188 3.026-.316 3.985-1.591.49-.65.716-1.458.568-2.258-.154-.837-.609-1.214-1.186-1.887-.985-1.15-2.18-2.246-3.91-2.995.133-.977.25-1.186.024-2.465 0 0 0-.822-.78-.534 0 0 .246 1.765-.041 2.175" fill="#f6921e" transform="translate(11 32)"/><path d="m62.367 142.146c-.355.063-.678.03-.91-.177-.247-.22-.27-.66.012-.863 1.117-.805 2.623-1.56 3.863-1.645.396.135.911.538.767.858-.31.691-1.118.72-1.561.907-.477.201-1.4.784-2.17.92m-1.43-1.546c-.313.13-.644.037-.905-.115-.286-.166-.329-.638.205-1.049 1.091-.84 2.083-1.395 3.325-1.395.492 0 1.19.656.364 1.086-.694.36-1.965 1.048-2.99 1.473m-1.711-1.67c-.323.1-.643-.022-.89-.197-.269-.192-.268-.666.3-1.025 1.164-.736 2.203-1.199 3.44-1.084.491.045 1.125.763.263 1.115-.724.295-2.054.863-3.113 1.192" fill="#fff" transform="translate(11 32)"/><path d="m66.93 141.325c-.74-.575-2.218-.082-3.367.739-.78.556-1.601 1.888-1.478 3.49 0 0 2.025 1.272 5.228-.37 0 0 1.683-2.252-.384-3.86" fill="#cbcbcb" transform="translate(11 32)"/><path d="m54.423 138.856c-.157-.38-.21-.858-.093-1.273.266-.938 1.287-1.152 1.646-.189.416.912-.162 2.204-.837 2.15-.298-.025-.56-.308-.716-.688" fill="#ffc139" transform="translate(11 32)"/><path d="m67.463 144.897c.018-.08-2.997 2.135-7.8-.206-4.017-1.956-6.405-3.982-6.405-3.982s-.246 1.396.903 2.258c1.39 1.041 4.311 2.997 7.91 3.777 3.205.695 5.118-.616 5.392-1.847" fill="#b2b2b2" transform="translate(11 32)"/><path d="m37.536 137.343s-.616-2.628.74-2.587c0 0 2.134-.041 3.348.563.383.191.552.651.524 1.078-.04.582-.12 1.446-.014 2.26 0 .081-.287 1.026-.82 1.108-.535.082-2.341-.616-2.71-.903-.37-.287-1.273-.698-1.068-1.52" fill="#ffc139" transform="translate(11 32)"/><path d="m37.618 137.343c2.546-.123 3.86 1.45 4.023 1.478.165.027.329-.246.329-.246.29-.91-.069-1.492.205-2.423.095-.322.338-.582.659-.682.67-.21 1.964-.208 2.687-.145.417.036.76.347.827.76.23 1.403.22 4.06-.232 5.691-2.785 2.328-5.907 4.634-9.838 5.121-1.513.188-3.026-.316-3.985-1.591-.49-.65-.716-1.458-.568-2.258.153-.837.608-1.214 1.186-1.887.985-1.15 2.18-2.246 3.91-2.995-.133-.977-.25-1.186-.024-2.465 0 0 0-.822.78-.534 0 0-.246 1.765.041 2.175" fill="#f6921e" transform="translate(11 32)"/><path d="m37.213 142.146c.355.063.678.03.91-.177.247-.22.27-.66-.012-.863-1.117-.805-2.623-1.56-3.863-1.645-.396.135-.911.538-.767.858.31.691 1.117.72 1.56.907.478.201 1.4.784 2.172.92m1.43-1.546c.312.13.642.037.904-.115.286-.166.33-.638-.205-1.049-1.09-.84-2.083-1.395-3.325-1.395-.492 0-1.19.656-.364 1.086.694.36 1.965 1.048 2.99 1.473m1.711-1.67c.323.1.643-.022.89-.197.269-.192.269-.666-.3-1.025-1.165-.736-2.204-1.199-3.44-1.084-.491.045-1.125.763-.262 1.115.724.295 2.053.863 3.112 1.192" fill="#fff" transform="translate(11 32)"/><path d="m32.65 141.325c.74-.575 2.217-.082 3.367.739.779.556 1.601 1.888 1.477 3.49 0 0-2.024 1.272-5.227-.37 0 0-1.684-2.252.383-3.86" fill="#cbcbcb" transform="translate(11 32)"/><path d="m45.157 138.856c.157-.38.21-.858.093-1.273-.266-.938-1.287-1.152-1.646-.189-.416.912.162 2.204.837 2.15.298-.025.56-.308.716-.688" fill="#ffc139" transform="translate(11 32)"/><path d="m32.117 144.897c-.018-.08 2.997 2.135 7.8-.206 4.016-1.956 6.404-3.982 6.404-3.982s.247 1.396-.902 2.258c-1.39 1.041-4.312 2.997-7.91 3.777-3.205.695-5.118-.616-5.392-1.847" fill="#b2b2b2" transform="translate(11 32)"/><path d="m36.451 108.956c0 3.542-.084 10.114.169 14.986 4.6.053 5.755.299 10.265.04l.528-2.973 4.123-.074.598 2.793c4.39.449 6.718.283 10.709.283.249-3.575.415-10.06.421-14.549" fill="#63524b" transform="translate(11 32)"/><path d="m47.714 99.623c-6.607-2.084-11.37-9.774-11.37-9.774 1.012-2.375 5.322-2.462 5.322-2.462l2.108-.505-.01-4.619 10.542-.12.21 4.316 2.71.596s3.007.775 4.69 2.794l-3.54 4.958-3.27 3.396zm-24.653-38.486c.013 6.581-3.25 6.958-7.013 7.026-5.01.091-8.458-3.779-7.617-8.321.743-4.012 4.11-5.712 7.991-5.72s6.628 1.081 6.64 7.015m49.291-1.07c-.013 6.58 2.805 7.287 6.569 7.346 5.383.084 7.478-3.445 7.486-7.318s-3.132-7.019-7.014-7.027c-3.88-.008-7.03 1.065-7.041 6.999" fill="#b17a47" transform="translate(11 32)"/><path d="m18.359 37.463c-.045 3.301-1.281 6.616-1.73 9.886-1.385 10.111-.992 20.28 5.444 26.886 6.71 6.886 16.494 10.148 29.984 9.977 8.224-.104 24.916-6.093 27.909-17.048.611-2.238.562-5.653-.732-10.455-1.082-4.015-.986-10.99-.271-16.09 0 0-1.57-10.104-8.356-12.464-6.785-2.36-18.653-3.522-18.653-3.522l-12.383.454-8.048 2.012s-13.066 3.124-13.163 10.364" fill="#be8751" transform="translate(11 32)"/><path d="m82.288 50.479c-.57 2.297-1.164 5.055-2.868 6.539-.643.56-1.649.073-1.61-.801l.002-.018c.48-8.623 1.292-15.017-1.826-20.952-.244-.464-.826-1.25-.526-1.673.503-.706-9.901-18.313-9.108-18.088 13.038 3.701 17.156 17.32 17.156 20.608 0 5.634-.353 10.887-1.22 14.385" fill="#563a36" transform="translate(11 32)"/><path d="m80.41 37.637c-2.47-29.133-32.928-25.883-32.928-25.883-33.171-.144-34.184 25.151-34.184 25.151s6.17 1.962 6.758.521c3.89-9.523 10.32-8.517 15.692-10.126 1.871-.56 6.706-1.867 14.687-2.012 5.533-.1 9.657-.1 15.29 1.81 7.213 2.447 10.382 8.196 10.864 8.953" fill="#563a36" transform="translate(11 32)"/><path d="m13.551 51.324c.57 2.297 1.697 4.21 3.4 5.694.643.56 1.65.072 1.61-.802l-.115-1.957c-.48-8.624.134-11.602 2.012-17.772.152-.5 1.775-6.419 1.476-6.84-.503-.707 5.774-12.712 4.983-12.479-11.428 3.365-14.763 13.491-14.763 16.78 0 6.975.53 13.878 1.397 17.376" fill="#563a36" transform="translate(11 32)"/><path d="m34.196 66.016c.006 2.753-2.992 4.99-6.696 4.998-3.703.007-6.71-2.218-6.715-4.97-.006-2.754 2.992-4.991 6.696-4.998 3.703-.008 6.71 2.218 6.715 4.97m42.79.086c.006 2.753-2.992 4.99-6.696 4.998-3.704.007-6.71-2.218-6.716-4.971-.005-2.753 2.993-4.99 6.696-4.997 3.704-.008 6.71 2.217 6.716 4.97" fill="#c89261" transform="translate(11 32)"/><path d="m27.217 54.269c.166-2.9 1.695-4.732 3.448-5.415 1.656-.993 3.36-.71 3.36-.71 5.202-.048 6.839 3.93 6.596 7.038-.224 2.85-2.615 5.919-6.447 6.006 0 0-7.055 0-6.957-6.92" fill="#fff" transform="translate(11 32)"/><path d="m30.808 54.503c-.035-3.143 1.125-5.255 2.888-6.389-.573-.03-1.814.01-3.031.74-1.753.683-3.282 2.516-3.448 5.415-.098 6.92 6.957 6.92 6.957 6.92.102-.003.203-.009.304-.015-1.987-.96-3.63-3.116-3.67-6.671" fill="#fff" transform="translate(11 32)"/><path d="m40.62 55.182c.243-3.108-1.393-7.086-6.595-7.038 0 0-.123-.02-.33-.03-1.762 1.134-2.922 3.245-2.887 6.389.04 3.555 1.683 5.71 3.67 6.67 3.654-.237 5.926-3.216 6.143-5.99" fill="#542e29" transform="translate(11 32)"/><path d="m71.035 54.269c-.166-2.9-1.695-4.732-3.447-5.415-1.657-.993-3.36-.71-3.36-.71-5.202-.048-6.84 3.93-6.596 7.038.223 2.85 2.614 5.919 6.447 6.006 0 0 7.055 0 6.956-6.92" fill="#fff" transform="translate(11 32)"/><path d="m61.22 55.182c-.215-2.756 1.05-6.193 4.966-6.904-1.095-.275-1.958-.134-1.958-.134-5.202-.048-6.84 3.93-6.596 7.038.223 2.85 2.614 5.919 6.447 6.006 0 0 .796-.001 1.848-.263-2.807-.81-4.52-3.353-4.706-5.743" fill="#fff" transform="translate(11 32)"/><path d="m71.035 54.269c-.166-2.9-1.695-4.732-3.447-5.415-.478-.286-.959-.464-1.402-.575-3.916.71-5.18 4.147-4.965 6.903.187 2.39 1.9 4.933 4.706 5.743 2.083-.518 5.174-2.06 5.108-6.656" fill="#542e29" transform="translate(11 32)"/><path d="m58.51 49.895s6.369-4.565 12.18 1.24c0 0-5.358-6.448-12.18-1.24" fill="#8d592d" transform="translate(11 32)"/><path d="m70.691 51.924c-.202 0-.405-.077-.559-.23-5.253-5.246-10.924-1.324-11.162-1.155-.352.25-.839.172-1.095-.176-.256-.346-.187-.834.156-1.095 7.338-5.604 13.208 1.29 13.268 1.361.27.325.236.804-.076 1.089-.15.138-.342.206-.532.206" fill="#562920" transform="translate(11 32)"/><path d="m39.54 49.895s-6.368-4.565-12.18 1.24c0 0 5.359-6.448 12.18-1.24" fill="#8d592d" transform="translate(11 32)"/><path d="m27.36 51.924c-.19 0-.381-.068-.532-.206-.312-.284-.345-.764-.076-1.089.06-.07 5.928-6.966 13.267-1.361.344.261.413.75.156 1.098-.256.346-.743.423-1.095.173-.247-.176-5.912-4.089-11.161 1.154-.154.154-.357.231-.559.231" fill="#562920" transform="translate(11 32)"/><path d="m49.871 58.615c-.47 0-.858-.374-.871-.847-.014-.481.364-.883.846-.897 1.635-.048 1.992-.809 2.117-1.377.205-.922.01-2.148-1.212-2.576-.207-.072-.394-.152-.57-.228-.474-.204-.6-.241-.832-.164-.242.082-.51.052-.728-.081-.219-.133-.368-.355-.409-.608l-.407-2.529c-.076-.476.247-.924.723-1 .477-.08.924.247 1 .723l.278 1.727c.412.047.761.198 1.067.33.14.06.289.125.453.183 1.837.642 2.8 2.534 2.34 4.6-.218.99-1 2.663-3.769 2.744z" fill="#9a6745" transform="translate(11 32)"/><path d="m60.696 43.298c-.314 0-.622-.145-.82-.415-.313-.431-.242-1.03.167-1.37 3.479-2.897 7.722-2.317 7.901-2.292.493.071.86.491.866.99.006.497-.352.926-.843 1.009-4.974.84-6.71 1.91-6.727 1.92-.168.106-.357.158-.544.158m-21.778.402c-.159 0-.32-.037-.47-.115-.054-.027-1.893-.92-6.872-1.306-.497-.038-.891-.432-.93-.929-.04-.496.288-.948.773-1.063.175-.043 4.349-1.002 8.075 1.57.442.304.569.902.289 1.36-.19.31-.523.484-.865.484" fill="#562920" transform="translate(11 32)"/><path d="m17.642 29.915c-1.424 1.592-4.63.602-6.036-1.006-1.409-1.609-1.716-4.754-.402-6.438 1.235-1.583 3.093-2.859 5.08-2.568 1.987.29 3.74 2.102 3.65 4.108-.05 1.124-.943 2.35-2.052 2.162-.533-.09-.962-.482-1.315-.892-2.04-2.369-3.863-8.33-2.056-11.17 1.68-2.638 4.905-3.532 8.016-3.219 1.338.135 3.503 2.083 4.307 3.162 1.398 1.876.22 5.036-2.063 5.54-2.46.543-3.39-2.314-3.536-4.83-.145-2.514 1.246-4.393 2.71-6.443.646-.903 2.416-2.96 5.902-3.219 3.357-.248 5.338 1.793 6.432 4.12s.176 5.535-2.18 6.567c-.912-2.831-.168-6.104 1.784-8.35 1.952-2.244 5.018-3.431 7.985-3.217 1.855.134 3.722.823 4.997 2.176 1.276 1.352 1.853 3.423 1.172 5.153-.468 1.187-1.829 2.191-2.985 1.652-.864-.403-1.203-1.476-1.179-2.43.07-2.691 2.278-4.928 4.758-5.977 2.208-.935 4.797-1.132 6.993-.17 2.195.963 3.877 3.202 3.83 5.599-.046 2.396-2.072 4.694-4.469 4.721-.353.004-.733-.05-.988-.293-.313-.298-.34-.783-.307-1.213.297-3.884 4.297-6.805 8.136-7.462 4.518-.775 7.081.92 8.39 2.323 1.809 1.937 2.414 5.276 1.16 8.87-.316.905-1.117 2-1.974 1.572-.377-.187-.565-.622-.632-1.038-.32-2.002 1.542-3.76 3.486-4.339 3.298-.982 7.345.703 8.472 3.954 1.126 3.252-1.552 7.372-4.989 7.193.686-.982 1.406-1.995 2.45-2.583 1.042-.588 1.947.212 2.754 1.097.56.615 2.7 2.688 2.7 5.026 0 1.936-.45 2.386-1.291 3.227-.775.775-2.03 1.093-3.744.904-.953-.106-3.14-1.204-3.335-2.143" fill="#563a36" transform="translate(11 32)"/><path d="m46.974 7.138c.109.365.192.736.25 1.109.25-.408.529-.807.837-1.196-.354-.004-.718.023-1.087.087m-26.073 2.092c1.056.887 1.868 1.806 2.234 2.298.229.307.428.63.597.969.044-1.456.346-2.912.888-4.278-.406-.115-.764-.09-1.015-.07-1.252.092-2.118.56-2.704 1.081m-10.116 6.867c.224.049.444.107.66.175-.068-.395-.118-.782-.153-1.153-.12.13-.233.272-.333.43-.084.13-.141.318-.174.548m63.806 12.186c.507.048.783.008.896-.018l.142-.144c.01-.102.02-.264.02-.506 0-.17-.074-.488-.425-1.028-.578.316-1.185.56-1.81.727.16.185.302.388.422.606.224.14.553.3.755.363m.423 7.01c-.406 0-.835-.024-1.29-.075-1.404-.155-5.698-1.664-6.371-4.903-.304-1.46.35-2.896 1.535-3.655-.32-.292-.59-.647-.787-1.05-.558-1.14-.453-2.494.274-3.535.776-1.113 1.84-2.636 3.597-3.627.267-.15.588-.301.955-.42v-.003c-.299-.86-1.226-1.521-2.279-1.774-.126.544-.283 1.089-.473 1.633-.29.832-1.186 2.854-3.227 3.684-1.185.48-2.465.433-3.606-.136-1.341-.668-2.262-1.985-2.522-3.614-.437-2.737.924-5.108 2.898-6.656-.148-.374-.338-.682-.555-.914-1.072-1.149-2.67-1.598-4.75-1.339.03.313.04.629.034.945-.084 4.37-3.712 8.1-7.923 8.147-1.75.014-2.83-.675-3.441-1.26-.536-.51-1.131-1.34-1.329-2.597-.681.828-1.557 1.486-2.527 1.873-1.38.55-2.854.52-4.153-.086-2.035-.95-3.259-3.129-3.193-5.685.026-1.024.24-2.031.621-2.99-1.128.034-2.255.378-3.196.958.613 1.856.57 3.931-.143 5.828-.777 2.072-2.255 3.673-4.16 4.509-.905.397-1.936.392-2.837-.014-.835-.375-1.486-1.062-1.818-1.91-.078.5-.207 1-.39 1.493-.854 2.292-2.698 3.954-4.934 4.448-.727.16-1.448.189-2.138.092.041.352.055.71.039 1.068-.075 1.704-.893 3.346-2.188 4.391-.095.077-.192.15-.291.22.397 1.158.174 2.49-.7 3.467-1.138 1.273-2.787 1.972-4.646 1.972h-.04c-2.413-.013-4.997-1.193-6.583-3.006-2.586-2.955-2.828-7.94-.528-10.888.578-.74 1.215-1.387 1.893-1.93-.188-2.24.129-4.44 1.222-6.157 1.832-2.879 5.01-4.608 8.773-4.865.22-.317.442-.627.66-.931l.105-.149c1.14-1.595 3.757-4.322 8.487-4.672 2.216-.165 4.247.353 5.964 1.473 2.458-1.697 5.532-2.567 8.567-2.353 1.601.116 3.104.517 4.43 1.171.234-.116.475-.227.72-.33 3.266-1.383 6.822-1.438 9.757-.151.895.392 1.715.907 2.44 1.514.566-.165 1.155-.302 1.769-.407 6.282-1.078 9.924 1.657 11.534 3.383.975 1.044 1.7 2.302 2.16 3.694 4.04.267 7.794 2.803 9.098 6.564.565 1.633.587 3.445.112 5.164 1.13 1.265 2.995 3.68 2.995 6.713 0 3.13-1.048 4.432-2.315 5.698-.94.94-2.593 1.979-5.307 1.98" fill="#563a36" mask="url(#i)" transform="translate(17.5 32.437)"/><path d="m21.834 21.579c-2.521 2.203-1.125 6.847 1.925 8.232 3.049 1.385 6.718.238 9.417-1.745 2.65-1.948 4.793-4.914 4.812-8.203.006-1.043-.392-2.296-1.411-2.517-.395-.086-.807.01-1.183.157-2.367.928-3.482 4.006-2.555 6.373s3.532 3.848 6.074 3.797c2.542-.05 4.938-1.46 6.549-3.427.782-.956 1.426-2.142 1.287-3.37s-1.352-2.37-2.544-2.042c-.777.214-1.298.945-1.623 1.683-1.82 4.124-.093 7.46 4.203 8.827 2.84.903 6.283 1.4 10.155-1.44 1.776-1.302 6.214-3.489 6.349-5.686.136-2.197-1.174-4.57-3.309-5.11-2.705-.684-5.481 2.141-5.164 4.914.316 2.773 1.571 4.748 4.362 4.74s6.93-1.67 8.46-4.004c.335-.512.638-1.096.576-1.705-.063-.61-.644-1.194-1.237-1.043-.829 2.56-.31 5.607 1.601 7.504 1.911 1.896 5.225 2.328 7.371.703 1.004-.758 1.69-1.866 2.192-3.02.763-1.754 1.141-3.75.632-5.593-.51-1.845-2.047-3.473-3.947-3.702-1.899-.228-3.946 1.279-3.957 3.192" fill="#563a36" transform="translate(11 32)"/><path d="m59.124 20.495c-.038.007-.284.103-.523.385-.242.285-.333.587-.314.746.053.468.136.816.219 1.065.529-.374 1.01-.75 1.281-1.049-.084-.604-.445-1.091-.663-1.147zm11.524 4.043c.114.184.245.35.391.496.727.72 2.114.918 2.802.397.264-.2.669-.644 1.096-1.627.54-1.244.707-2.405.468-3.27-.184-.669-.704-1.128-.995-1.163-.012.008-.11.06-.144.1.03-.037.095-.171.096-.356l-3.138-.019c.248.501.408 1.044.465 1.6.185 1.797-.652 3.235-1.041 3.842zm-43.944 9.382c-1.534 0-3.02-.306-4.39-.928-2.698-1.225-4.733-4.005-5.185-7.083-.402-2.736.475-5.274 2.407-6.961l4.597 5.262c-.116.102-.128.425-.09.684.108.738.607 1.485 1.16 1.736 1.437.653 3.272.15 4.757-.654-.139-.268-.264-.543-.375-.825-1.65-4.214.469-9.308 4.533-10.901 1.104-.433 2.18-.54 3.202-.318 1.592.346 2.848 1.437 3.548 2.96.69-.69 1.507-1.178 2.408-1.426 1.46-.401 3.046-.125 4.352.758 1.432.97 2.401 2.562 2.593 4.26.15 1.334-.055 3.386-1.833 5.694 1.43.403 2.728.541 4.082.146-.537-1.018-.942-2.298-1.126-3.905-.288-2.523.792-5.191 2.818-6.963 1.93-1.688 4.361-2.321 6.675-1.735 1.797.454 3.33 1.6 4.39 3.13l.886-.226c.595-.153 1.213-.172 1.812-.064.39-.875.978-1.678 1.732-2.344 1.534-1.353 3.622-2.02 5.586-1.783 3.2.384 5.973 2.892 6.898 6.24.672 2.435.397 5.172-.796 7.916-.84 1.932-1.915 3.376-3.288 4.414-3.474 2.63-8.72 2.186-11.94-1.01-.347-.344-.665-.713-.955-1.102-1.812.794-3.747 1.263-5.442 1.35-.284.182-.534.347-.714.479-5.265 3.86-10.101 2.963-13.28 1.953-1.486-.474-2.776-1.137-3.845-1.969-.952.284-1.927.442-2.898.461-1.177.028-2.334-.162-3.42-.524l-.318.24c-2.725 2.002-5.714 3.038-8.54 3.038z" fill="#563a36" transform="translate(11 32)"/><path d="m12.867 23.58c-.494 1.05-.873 2.221-.648 3.36.225 1.138 1.232 2.187 2.39 2.104 1.06-.076 1.839-1 2.445-1.875.978-1.411 1.858-2.891 2.629-4.426.212-.422.33-1.081-.115-1.238-.93.378-.708 1.92.17 2.406s1.968.237 2.92-.076c3.362-1.103 6.644-2.995 8.447-6.04.265-.447.496-1.013.244-1.468-.406-.733-1.53-.431-2.217.05-1.913 1.338-3.332 3.367-3.93 5.624-.18.68-.284 1.42-.018 2.07.205.5.614.896 1.075 1.178 1.225.746 2.888.698 4.068-.116 1.18-.815 1.814-2.353 1.55-3.763-.424 1.39.58 2.908 1.905 3.506 1.324.598 2.855.482 4.285.225 4.048-.73 7.899-2.521 11.063-5.147.784-.65 1.582-1.47 1.594-2.488-.991.844-1.89 1.843-2.38 3.048-.49 1.206-.523 2.647.144 3.765 1.239 2.078 4.297 2.237 6.51 1.26 2.034-.898 3.822-2.74 3.937-4.961.022-.425-.027-.88-.286-1.217-.393-.513-1.131-.6-1.774-.536-2.257.223-4.31 1.87-5.017 4.025-.355 1.084.309 1.605.79 2.639.917 1.97 6.685 3.374 8.853 3.22 3.755-.269 5.44-2.556 7.644-6.794-1.146 1.28-2.035 3.363-.831 4.588.46.468 1.126.671 1.775.769 2.61.392 5.393-.749 6.976-2.86-1.119.193-1.62 1.705-1.095 2.711.526 1.007 1.72 1.501 2.853 1.571.264.017.544.01.774-.12.319-.183.465-.557.588-.903.229-.643.46-1.31.413-1.99-.047-.682-.45-1.387-1.108-1.568-.659-.18-1.467.414-1.32 1.08-.156-2.415-1.098-4.914-3.071-6.314-1.974-1.402-5.084-1.282-6.514.67 1.991-.865-2.072-1.586-2.927-3.583-.855-1.996 1.902-5.291-.169-5.945-.703-.222-1.443-.385-2.174-.295-2.334.286-3.604 2.89-4.017 5.205-.075.423-.062.983.342 1.129.391.14.756-.252.977-.603 1.144-1.822 1.972-3.84 2.435-5.94l-6.65.142c-2.474.054-5.016.12-7.297 1.08-1.995.839-3.698 2.356-4.762 4.24 1.065-.268 1.592-1.513 1.576-2.612-.035-2.392-2.126-4.573-4.515-4.71-2.388-.135-4.713 1.796-5.018 4.169-.1.777.019 1.632.55 2.207.893.964 2.673.635 3.385-.47.712-1.103.453-2.644-.365-3.671-.82-1.027-2.086-1.607-3.366-1.904-4.358-1.014-9.262 1.182-11.408 5.108-.219.4-.346 1.017.067 1.208 1.1-.692 1.852-1.912 1.975-3.207.032-.337.017-.7-.18-.976-.383-.54-1.202-.459-1.83-.254-3.903 1.267-6.72 5.305-6.562 9.405.81-.74.143-2.29-.938-2.474-1.08-.185-2.127.68-2.496 1.712" fill="#563a36" transform="translate(11 32)"/><path d="m30.546 12.396c.354.002.702.04 1.036.117.476.11.92.292 1.318.538-.058-.534-.053-1.088.018-1.65-.834.184-1.642.517-2.367.973zm20.178 1.576c.503 0 1.008.108 1.481.33.766.359 1.359.973 1.697 1.713.598-.25 1.224-.438 1.867-.558-.01-.359.018-.738.09-1.138.07-.397.156-.784.254-1.159-2.009.046-4.053.126-5.654.8l-.066.028c.11-.01.22-.016.33-.016zm-28.314 5.392.004.005c.298-.713.657-1.398 1.07-2.046-.32-.182-.607-.403-.859-.658-.093.217-.174.439-.242.664.153.688.159 1.38.027 2.035zm-6.884-.744c.011.118.034.234.067.347.12.409.37.71.666.919.19-.28.41-.539.657-.769zm19.9 3.141c.416.1 1.097.067 2.023-.099 2.9-.522 5.662-1.672 8.075-3.35l.024-.047c-.115.038-.232.073-.35.102-1.345.34-2.762-.148-3.612-1.24-.808.528-1.754.86-2.748.947-1.441.124-2.823-.283-3.89-1.133-.023.605-.17 1.29-.521 2.04.444.473.76 1.074.885 1.748.064.343.101.688.114 1.032zm37.189-.25c.079.673-.037 1.375-.37 2.016l-.1.19c.317-.087.624-.21.911-.367.201-.337.435-.645.696-.92-.2-.288-.428-.526-.676-.702-.141-.1-.3-.171-.461-.217zm-11.79 3.71c.16.01.305.011.426.002 1.243-.088 2.056-.38 3.342-2.364.199-.603.48-1.206.842-1.796-.098-.204-.175-.415-.231-.63-.795-.536-1.666-1.245-2.304-2.238-.22.235-.45.435-.686.604.176.6.246 1.254.21 1.96-.083 1.598-.648 3.129-1.6 4.462zm-46.332 7.321c-2.679 0-5.141-2.095-5.702-4.923-.336-1.7-.036-3.507.915-5.527l4.976 2.344c.286-.437.562-.882.827-1.332-.035-.294-.044-.592-.027-.89.023-.384.09-.754.197-1.106-.31-.503-.495-1.087-.518-1.701-.012-.307-.013-.613-.001-.917l-3.232-1.155c.745-2.083 2.523-3.574 4.508-3.957 1.521-3.166 4.283-5.725 7.698-6.834 1.02-.332 2.018-.403 2.917-.238 3.047-1.845 6.777-2.548 10.33-1.72.24.054.474.116.703.184 1.096-.45 2.295-.67 3.518-.6 2.478.14 4.704 1.445 6.14 3.352l.009-.004c2.925-1.23 5.927-1.295 8.576-1.352l6.65-.143c.428-.008.849.06 1.243.2.923.06 1.729.28 2.32.466 1.952.616 3.19 2.278 3.231 4.335.022 1.04-.256 1.995-.5 2.838-.064.22-.146.502-.206.745.12.083.255.17.385.25 2.461-.808 5.367-.463 7.671 1.173 1.62 1.15 2.869 2.823 3.648 4.827 1.855.672 3.169 2.468 3.315 4.584.098 1.418-.327 2.612-.608 3.402-.187.525-.685 1.927-2.143 2.762-1.178.674-2.344.602-2.73.576-1.74-.107-3.292-.743-4.433-1.773-1.48.43-3.051.552-4.6.319-.79-.12-1.504-.33-2.137-.633-1.48 1.155-3.302 1.93-5.684 2.1-1.456.109-6.552-.442-9.833-2.595-2.446-.083-4.842-1.076-6.284-3.297-2.199 1.047-4.536 1.803-6.946 2.237-1.621.292-4.043.56-6.343-.48l-.064-.028c-2.307 1.572-5.45 1.655-7.837.202-.442-.27-.84-.578-1.19-.922-.583.172-1.412.367-2.349.368-.316.501-.642.996-.978 1.48-.6.865-2.192 3.164-5.067 3.37-.122.009-.244.013-.365.013z" fill="#563a36" transform="translate(11 32)"/><path d="m71.119 18.97c-.27-.203-.686-.056-.876.222-.19.279-.206.638-.188.975.053 1.033.427 2.127 1.288 2.702.767.512 1.851.495 2.602-.04.75-.537 1.12-1.557.884-2.449" fill="#563a36" transform="translate(11 32)"/><path d="m73.597 20.288c-.01-.02-.031-.058-.071-.107.019-.126.018-.204.017-.212.01.186.042.292.054.32m-.984 6.453c-1.12 0-2.243-.322-3.21-.967-1.682-1.123-2.716-3.101-2.838-5.427-.023-.45-.095-1.822.79-3.121.644-.949 1.665-1.601 2.798-1.79 1.097-.18 2.187.08 3.065.74l-4.199 5.585c.655.493 1.485.7 2.279.568.754-.125 1.406-.542 1.835-1.174.09-.133.162-.263.216-.385l4.858-1.282c.609 2.31-.287 4.794-2.23 6.182-.999.713-2.181 1.07-3.364 1.07" fill="#563a36" transform="translate(11 32)"/><path d="m22.04 19.196c-1.096 0-2.09-.487-2.858-1.431-1.526-1.878-1.406-4.829.268-6.577.951-.993 2.307-1.488 3.667-1.491-.03-.29-.033-.586-.011-.887.106-1.433.792-2.687 1.882-3.44 1.09-.751 2.505-.95 3.883-.543s2.458 1.343 2.964 2.568c.255.618-.04 1.325-.658 1.58-.618.254-1.325-.04-1.58-.657-.221-.537-.749-.974-1.412-1.17s-1.344-.116-1.822.214c-.477.33-.793.938-.844 1.628-.051.689.171 1.338.595 1.734.468.439.513 1.167.102 1.66-.413.49-1.137.576-1.651.195-.964-.716-2.537-.584-3.367.283-.831.867-.895 2.445-.138 3.377.467.574.99.68 1.752.355.613-.263 1.325.02 1.589.635.263.615-.022 1.326-.636 1.59-.59.252-1.171.377-1.726.377m49.748-1.802c-1.107 0-2.007-.57-2.514-1.64-.287-.603-.03-1.325.574-1.611.603-.287 1.325-.03 1.612.574.1.21.204.426.956.11.294-.138.493-.38.568-.722.119-.548-.105-1.254-.57-1.8-.336-.396-.916-.615-1.54-.577-.405.022-.776.144-1.068.343-.19.27-.426.507-.704.704-.476.338-1.128.285-1.546-.125-.417-.41-.482-1.06-.153-1.544.15-.219.321-.42.513-.605.07-.221.032-.472.003-.6-.133-.594-.58-1.105-1.041-1.186-1.224-.217-2.434.994-2.757 2.218-.17.647-.834 1.034-1.478.862-.647-.17-1.032-.832-.862-1.478.6-2.282 2.883-4.452 5.52-3.985 1.428.253 2.623 1.47 2.977 3.028.153-.023.309-.04.466-.048 1.37-.079 2.69.458 3.513 1.424.965 1.134 1.374 2.585 1.091 3.883-.235 1.082-.928 1.941-1.95 2.42-.568.239-1.11.355-1.61.355m-35.254-2.184c-1.122 0-2.374-.856-3.006-2.75-.367-1.103.047-2.81.985-4.06 1.317-1.756 3.185-1.87 4.687-1.963 1.161-.075 2.285.282 3.16.917.12-.178.25-.35.395-.513.828-.94 1.972-1.505 3.14-1.547 1.176-.046 2.352.435 3.246 1.312s1.395 2.05 1.375 3.22c-.012.668-.566 1.21-1.23 1.188-.669-.011-1.2-.562-1.19-1.23.01-.508-.228-1.037-.65-1.45-.422-.414-.968-.637-1.462-.622-.507.019-1.022.284-1.413.727-.39.444-.588.988-.542 1.494.058.637-.39 1.21-1.023 1.306-.627.092-1.23-.317-1.365-.943-.2-.936-1.328-1.492-2.293-1.444-1.532.095-2.317.224-2.899 1-.584.78-.68 1.627-.623 1.849.252.753.587 1.02.71 1.078.607-.148 1.234.191 1.434.793.212.634-.131 1.32-.765 1.53-.214.072-.44.108-.671.108m-8.942 14.134c-2.078 0-3.613-1.178-3.903-3.068-.101-.66.352-1.278 1.013-1.379.66-.104 1.277.352 1.38 1.012.15.978 1.11 1.078 1.888.993.96-.107 2.128-.622 2.694-1.714-.294-.804-.356-1.661-.16-2.464.083-.337.306-.622.613-.784.486-.255 1.054-.251 1.56.01.55.284.941.836 1.022 1.441.08.613-.17 1.077-.321 1.354-.025.047-.055.094-.074.144l-.02.102c.028.038.057.075.089.112.465.551 1.102.859 1.69.813.595-.042 1.177-.433 1.56-1.045.382-.612.478-1.307.256-1.859-.25-.62.051-1.325.671-1.574.623-.249 1.325.052 1.574.672.51 1.267.342 2.779-.45 4.044-.79 1.265-2.076 2.078-3.438 2.176-1.09.071-2.195-.306-3.085-1.044-1.024 1.193-2.523 1.867-3.913 2.021-.22.025-.436.037-.646.037" fill="#684946" transform="translate(11 32)"/><path d="m21.835 29.778c-.632 0-1.25-.134-1.806-.4-1.053-.505-1.874-1.478-2.252-2.671-.052-.163-.094-.327-.128-.492-.636.18-1.302.214-1.944.083-1.869-.382-3.196-2.157-2.96-3.958.294-2.242 1.903-3.43 4.409-3.271.667.043 1.172.619 1.129 1.285-.043.667-.62 1.172-1.286 1.13-1.55-.104-1.764.496-1.853 1.171-.07.53.438 1.148 1.045 1.272.668.133 1.491-.215 1.994-.856.391-.496 1.097-.61 1.623-.26.526.352.693 1.047.385 1.599-.245.437-.284 1.008-.107 1.566s.538 1.002.99 1.219c.453.218 1.025.22 1.57.008.546-.212.967-.601 1.154-1.066.25-.62.953-.92 1.574-.67.62.25.92.955.671 1.574-.437 1.083-1.356 1.964-2.523 2.417-.55.214-1.122.32-1.685.32m28.66-4.793c-.64 0-1.321-.087-2.041-.265-1.194-.294-2.268-1.069-2.873-2.071-.038-.064-.074-.13-.11-.194-.309.148-.642.272-1 .358-1.294.308-2.616-.02-3.454-.856-.557-.556-.914-1.337-1.033-2.26-.284-2.207.894-4.47 2.865-5.506.592-.31 1.323-.083 1.634.51.31.591.083 1.323-.51 1.633-1.075.565-1.743 1.85-1.588 3.054.048.38.17.684.341.856.241.24.715.325 1.183.215.489-.117 1.001-.413 1.663-.958.402-.333.973-.37 1.416-.09.441.279.654.809.528 1.316-.052.208-.006.434.138.672.268.444.822.834 1.379.972 2.733.674 3.671-.503 4.142-1.447.056-.145.139-.682.126-.91l-.072-.204c-.038-.11-.112-.324-.178-.48-.31-.178-.537-.49-.595-.868-.1-.661.355-1.278 1.015-1.378 1.296-.202 1.806 1.243 2.045 1.936.027.075.049.142.068.19.312.786.015 2.279-.244 2.797-.98 1.958-2.664 2.978-4.845 2.978m17.505 3.429c-.422 0-.846-.05-1.26-.155-1.105-.278-2.11-.91-2.885-1.776-2.316.462-4.418-.467-5.471-1.88-.775-1.04-1.103-2.375-.903-3.66.197-1.26.898-2.375 1.975-3.145.543-.387 1.3-.262 1.688.282.388.543.263 1.3-.282 1.688-.696.497-.922 1.116-.99 1.548-.1.638.07 1.326.453 1.84.44.593 1.254 1.01 2.229 1.03-.124-.413-.221-.957-.077-1.544.23-.927 1.046-1.594 2.081-1.7 1.035-.105 1.97.382 2.382 1.243.523 1.093.216 2.462-.653 3.24.322.228.675.395 1.043.488 1.067.27 2.287-.132 2.901-.95.487-.646.592-1.257-.179-2.8-.299-.597-.056-1.324.541-1.623.599-.297 1.325-.055 1.624.542.782 1.565 1.388 3.422-.052 5.336-.947 1.259-2.546 1.996-4.165 1.996" fill="#684946" transform="translate(11 32)"/><path d="m75.533 30.502c-.732 0-1.464-.153-2.089-.4-1.49-.59-2.578-2.057-2.709-3.653-.054-.666.442-1.25 1.108-1.305.653-.052 1.25.441 1.305 1.108.056.688.544 1.346 1.187 1.6.82.325 1.797.305 2.18-.041.133-.135.186-.633.093-.824-.557-.331-.755-1.046-.444-1.618.315-.58 1.036-.8 1.62-.496.028.014.055.03.083.045.476.25 1.11.24 1.707-.033.614-.28 1.043-.771 1.15-1.313.107-.541-.105-1.159-.567-1.65-.462-.493-1.064-.74-1.613-.673-.665.082-1.27-.38-1.356-1.042-.087-.663.38-1.27 1.042-1.357 1.322-.172 2.699.356 3.692 1.415.993 1.06 1.433 2.47 1.176 3.774-.256 1.304-1.198 2.443-2.518 3.047-.49.224-1.002.36-1.511.41-.048.831-.385 1.616-.93 2.11-.706.639-1.655.896-2.606.896m-17.061-21.747c-.495 0-.96-.305-1.138-.798-.192-.53-.733-.96-1.413-1.124-.679-.164-1.358-.026-1.77.36-.49.455-1.254.428-1.71-.06-.456-.489-.43-1.254.06-1.71 1.014-.947 2.505-1.3 3.986-.943 1.482.357 2.65 1.348 3.122 2.652.228.629-.097 1.322-.725 1.55-.136.05-.275.073-.412.073" fill="#684946" transform="translate(11 32)"/><path d="m13.046 45.392c-2.95 0-5.631-2.744-6.148-6.333-.091-.63-.108-1.261-.054-1.877-1.002-1.168-1.65-2.788-1.721-4.456-.103-2.404.973-4.68 2.806-5.939 1.553-1.067 3.222-1.182 4.326-1.258 1.795-.108 3.338 1.227 3.46 3.015.102 1.478-.803 2.793-2.13 3.274.457.242.857.595 1.159 1.036.48.706.659 1.562.517 2.383h.013c1.802-.07 3.282 1.364 3.33 3.156.103 3.812-2.264 6.884-5.389 6.996-.056.002-.113.003-.17.003m70.28-1.245c-.051 0-.102 0-.153-.002-2.845-.101-5-2.898-4.905-6.368.044-1.63 1.39-2.915 3.031-2.871h.012c-.13-.748.032-1.527.47-2.168.274-.402.638-.723 1.055-.944-1.208-.437-2.031-1.634-1.939-2.978.112-1.627 1.528-2.86 3.148-2.744 1.005.069 2.523.173 3.938 1.145 1.668 1.146 2.646 3.217 2.553 5.405-.065 1.517-.655 2.991-1.566 4.054.049.56.034 1.135-.049 1.708-.471 3.266-2.912 5.763-5.595 5.763" fill="#563a36" transform="translate(11 32)"/><path d="m59.573 62.432c-9.05 2.646-16.868 1.116-20.315.146-.925-.26-1.813.464-1.618 1.317.66 2.895 3.016 8.064 11.403 8.613 8.825.578 11.77-4.875 12.177-8.773.092-.876-.716-1.575-1.647-1.303" fill="#c83831" transform="translate(11 32)"/><path d="m43.666 66.437c5.125.693 8.126.707 12.255-.178 0 0 3.822-.666 3.742-3.841-.03.007-.06.008-.09.015-7.044 1.527-14.14 1.19-20.025.223-.151.613.29 3.264 4.118 3.781" fill="#fff" transform="translate(11 32)"/><path d="m14.795 44.335c-.254 0-.49-.16-.574-.413-.106-.317.065-.66.382-.765 1.684-.562 3.341-.568 3.411-.568.334 0 .604.27.604.604.001.334-.27.605-.604.606-.015 0-1.537.008-3.028.505-.063.021-.128.031-.191.031m-.001 3.487c-.3 0-.561-.223-.6-.53-.04-.331.194-.634.526-.675 2.158-.27 2.991-.273 3.025-.273.334 0 .605.271.605.605s-.27.605-.604.605c-.029 0-.84.01-2.876.264-.026.003-.05.005-.076.005m66.994-3.488c-.064 0-.128-.01-.192-.03-1.499-.5-3.012-.506-3.027-.506-.334 0-.605-.271-.605-.605s.27-.605.605-.605c.07 0 1.727.006 3.41.568.317.105.488.448.382.765-.084.253-.32.413-.573.413m.001 3.487c-.026 0-.05-.001-.076-.005-2.063-.257-2.87-.263-2.877-.263-.334 0-.604-.272-.603-.605 0-.334.27-.605.604-.605.034 0 .867.003 3.026.273.332.041.566.344.525.675-.038.306-.299.53-.6.53" fill="#684946" transform="translate(11 32)"/><path d="m35.544 98.895.177 11.731s13.468.665 28.1-.166l.053-12.138c.026-4.344-.428-8.912-.713-10.628-.068-.417-.379-.748-.79-.85-3.387-.84-7.22-1.439-7.22-1.439-1.261 2.176-3.522 3.674-6.036 3.722-2.515.048-5.03-1.81-5.734-3.823 0 0-2.66.59-6.277 1.587 0 0-1.413.457-1.439 1.677-.03 1.497-.132 9.403-.121 10.327" fill="#ee5d30" transform="translate(11 32)"/><path d="m67.228 90.645s8.411 8.075 18.169 2.356l2.987 6.083s-14.09 6.03-22.838-1.036z" fill="#be8751" transform="translate(11 32)"/><path d="m84.738 94.207c-.633-2.023 1.052-4.907 1.601-6.976.233-.875.734-1.953 1.637-1.875.856.074 1.208 1.177 1.065 2.024-.142.847-.141 1.49-.154 2.44 1.477-.867 2.621-1.913 4.78-2.978.441-.217 1.417-.45 1.869-.054.562.494.364 1.209.14 1.699-.527 1.156-2.596 1.975-3.464 3.119.744-.293 1.092-.47 1.624-.826.652-.436 1.736-1.006 2.57-1.298 1.254-.438 1.99.087 2.014.97.015.528-.34 1.059-.757 1.386-1.33 1.046-2.817 1.82-4.055 2.585 1.315-.682 2.98-1.53 4.365-1.668.602-.06 1.377.095 1.442 1.055.025.378-.087.76-.382 1-1.103.893-2.552 1.532-3.884 2.022 1.085-.279 3.202-.551 3.45.512.234.843-1.123 1.517-3.187 2.007-2.661.632-5.25 1.103-7.143.255-.749-.087-1.844 0-3.531-5.399" fill="#be8751" transform="translate(11 32)"/><path d="m62.53 86.905c2.106 1.219 5.56 3.298 7.94 4.796 0 0-3.382 6.814-3.954 8.307l-2.84-1.426-4.85-2.5s-2.822-2.039-.627-6.518c0 0 1.428-3.251 4.33-2.659" fill="#ee5d30" transform="translate(11 32)"/><path d="m71.7 92.515s-1.608 5.151-4.442 8.048l-1.598-.933s3.175-3.942 4.403-8.215l1.638 1.1z" fill="#fff" transform="translate(11 32)"/><path d="m32.19 90.645s-8.411 8.075-18.169 2.356l-2.987 6.083s14.09 6.03 22.839-1.036z" fill="#be8751" transform="translate(11 32)"/><path d="m14.68 94.207c.633-2.023-1.052-4.907-1.601-6.976-.233-.875-.734-1.953-1.637-1.875-.856.074-1.207 1.177-1.065 2.024s.141 1.49.154 2.44c-1.477-.867-2.621-1.913-4.78-2.978-.441-.217-1.417-.45-1.869-.054-.562.494-.364 1.209-.14 1.699.527 1.156 2.596 1.975 3.464 3.119-.744-.293-1.092-.47-1.624-.826-.652-.436-1.736-1.006-2.57-1.298-1.254-.438-1.99.087-2.014.97-.015.528.34 1.059.757 1.386 1.33 1.046 2.817 1.82 4.055 2.585-1.315-.682-2.98-1.53-4.365-1.668-.602-.06-1.377.095-1.442 1.055-.025.378.087.76.382 1 1.103.893 2.552 1.532 3.885 2.022-1.086-.279-3.203-.551-3.45.512-.235.843 1.122 1.517 3.186 2.007 2.661.632 5.25 1.103 7.143.255.749-.087 1.844 0 3.531-5.399" fill="#be8751" transform="translate(11 32)"/><path d="m36.888 86.905c-2.106 1.219-5.56 3.298-7.94 4.796 0 0 3.382 6.814 3.954 8.307l2.84-1.426 4.85-2.5s2.822-2.039.627-6.518c0 0-1.428-3.251-4.33-2.659" fill="#ee5d30" transform="translate(11 32)"/><path d="m27.717 92.515s1.609 5.151 4.443 8.048l1.598-.933s-3.175-3.942-4.403-8.215z" fill="#fff" transform="translate(11 32)"/><path d="m49.006 101c-.385 0-.764-.02-1.116-.08-.186-.032-.53-.09-.74-.361-.178-.231-.182-.518-.185-.708l-.12-8.477c-.004-.294-.01-.697.21-1.032.092-.14.28-.177.42-.085s.177.28.085.42c-.109.164-.114.409-.11.688l.12 8.478c.002.116.004.274.059.346.057.074.207.108.361.134.724.123 1.619.063 2.409.01.223-.015.442-.03.65-.04.17.002.309.12.318.287.008.167-.12.309-.288.317-.205.01-.42.025-.64.04-.458.03-.95.063-1.433.063" fill="#f6921e" transform="translate(11 32)"/><path d="m48.548 88.624c.14.036.268.147.313.284.046.137.02.31-.08.415-1.641 1.715-1.984 2.348-3.147 3.252-1.914-1.235-2.95-2.149-4.288-4.283-.186-.297-.368-.626-.343-.975 0 0 .503-1.61 2.515-2.113 0 0 1.019 2.386 5.03 3.42m1.132 0c-.14.036-.268.147-.313.284-.046.137-.016.307.08.415 1.341 1.517 2.172 2.182 3.147 3.252 1.914-1.235 2.95-2.149 4.288-4.283.186-.297.368-.626.343-.975 0 0-.503-1.61-2.515-2.113 0 0-1.018 2.386-5.03 3.42" fill="#fff" transform="translate(11 32)"/><path d="m50.359 93.656c0 .5-.406.905-.906.905s-.905-.406-.905-.906.405-.906.905-.906.906.407.906.907m0 3.922c0 .5-.406.906-.906.906s-.905-.406-.905-.906.405-.905.905-.905.906.405.906.905" fill="#f6921e" transform="translate(11 32)"/></g></svg>