<svg height="309" viewBox="0 0 464 309" width="464" xmlns="http://www.w3.org/2000/svg" xmlns:xlink="http://www.w3.org/1999/xlink"><filter id="a" height="120.3%" width="113.3%" x="-6.6%" y="-10.2%"><feOffset dy="5" in="SourceAlpha" result="shadowOffsetOuter1"/><feGaussianBlur in="shadowOffsetOuter1" result="shadowBlurOuter1" stdDeviation="5"/><feColorMatrix in="shadowBlurOuter1" result="shadowMatrixOuter1" values="0 0 0 0 0 0 0 0 0 0 0 0 0 0 0 0 0 0 0.2 0"/><feMerge><feMergeNode in="shadowMatrixOuter1"/><feMergeNode in="SourceGraphic"/></feMerge></filter><mask id="b" fill="#fff"><path d="m186.673.038c32.208.062 59.309 15.51 67.472 36.497l23.745-.03 12.733 12.923 51.793-.195 30.223 32.639.195 113.038-29.897 32.286-3.538.012c-107.067.367-202.089.428-309.173-.012l-29.899-32.286.196-113.038 30.224-32.639 51.96.236 12.486-12.736 23.709-.029c8.038-21.175 35.344-36.728 67.77-36.666z" fill="#fff" fill-rule="evenodd"/></mask><g fill="none" fill-rule="evenodd" filter="url(#a)" transform="translate(10 5)"><g fill="#c39253"><path d="m341.97 212.153c-.074 38.612-63.371 69.804-135.482 69.67-72.112-.137-135.291-31.548-135.219-70.16.073-38.612 63.371-59.804 135.482-59.67 72.112.137 135.29 21.547 135.218 60.16" transform="translate(15.462)"/><path d="m413.238 230.76-.239-139.861-36.851-39.113-187.637.724-151.421-.724-36.851 39.113-.239 139.861 36.455 38.691 146.057.698v.05l5.959-.022 4.84.022v-.04l183.473-.708z" transform="translate(15.462)"/><path d="m300.335 70.09c-.073 38.612-42.09 69.835-93.847 69.738-51.758-.098-93.657-31.478-93.585-70.09.073-38.612 42.09-69.835 93.847-69.738 51.759.098 93.658 31.477 93.585 70.09" transform="translate(15.462)"/><path d="m84.1 59.324v31.95c0 10.314 8.361 18.675 18.675 18.675h207.688c10.314 0 18.675-8.361 18.675-18.675v-31.95l-18.675-18.674h-207.688z" transform="translate(15.462)"/></g><path d="m396.209 219.625-.199-117.538-30.751-32.638-173.751.603-143.528-.603-30.752 32.638-.199 117.538 30.42 32.287 139.053.582v.042l4.973-.019 4.039.019v-.034l170.275-.59z" fill="#976a42" transform="translate(15.462)"/><path d="m95.946 74.683.037 30.303c.012 9.783 7.952 17.703 17.734 17.69l185.884-.227c9.783-.012 17.703-7.952 17.69-17.734l-.036-30.303-17.734-17.69-185.884.227-17.69 17.734z" fill="#976a42" transform="translate(15.462)"/><path d="m277.924 70.048c-.051 27.427-32.017 49.6-71.398 49.526s-71.264-22.368-71.213-49.794c.052-27.427 32.019-49.6 71.4-49.526 39.38.074 71.263 22.367 71.211 49.794" fill="#976a42" transform="translate(15.462)"/><path d="m392.677 106.587-30.224-32.637-51.792.195-12.733-12.922-23.745.029c-8.163-20.987-35.264-36.436-67.472-36.497-32.427-.062-59.733 15.491-67.771 36.666l-23.709.03-12.486 12.734-51.96-.235-30.224 32.638-.196 113.038 29.899 32.287c107.084.44 202.106.379 309.173.012l3.538-.012 29.898-32.287-.196-113.038z" fill="#56403b" transform="translate(15.462)"/><g transform="translate(35.5 24.716)"><path d="m-30.346 68.204h408.074v-43.765h-408.074zm0 83.377h408.074v-41.52h-408.074zm0 89.435h408.074v-46.486h-408.074zm391.294-77.541c0 1.316-1.042 2.382-2.327 2.382-1.286 0-2.328-1.066-2.328-2.382 0-1.315 1.042-2.381 2.328-2.381 1.285 0 2.327 1.066 2.327 2.381m0 18.713c0 1.315-1.042 2.381-2.327 2.381-1.286 0-2.328-1.066-2.328-2.381 0-1.316 1.042-2.382 2.328-2.382 1.285 0 2.327 1.066 2.327 2.382m-344.631-18.713c0 1.316-1.042 2.382-2.328 2.382s-2.328-1.066-2.328-2.382c0-1.315 1.042-2.381 2.328-2.381s2.328 1.066 2.328 2.381m0 18.713c0 1.315-1.042 2.381-2.328 2.381s-2.328-1.066-2.328-2.381c0-1.316 1.042-2.382 2.328-2.382s2.328 1.066 2.328 2.382m344.631-102.758c0 1.315-1.042 2.381-2.327 2.381-1.286 0-2.328-1.066-2.328-2.381 0-1.316 1.042-2.382 2.328-2.382 1.285 0 2.327 1.067 2.327 2.382m0 18.712c0 1.315-1.042 2.382-2.327 2.382-1.286 0-2.328-1.067-2.328-2.382 0-1.316 1.042-2.382 2.328-2.382 1.285 0 2.327 1.066 2.327 2.382m-344.631-18.712c0 1.315-1.042 2.381-2.328 2.381s-2.328-1.066-2.328-2.381c0-1.316 1.042-2.382 2.328-2.382s2.328 1.067 2.328 2.382m0 18.712c0 1.315-1.042 2.382-2.328 2.382s-2.328-1.067-2.328-2.382c0-1.316 1.042-2.382 2.328-2.382s2.328 1.066 2.328 2.382" fill="#42342a" mask="url(#b)"/><path d="m72.765 228.262c0 1.316-1.042 2.382-2.328 2.382-1.285 0-2.328-1.066-2.328-2.382 0-1.315 1.043-2.381 2.328-2.381 1.286 0 2.328 1.066 2.328 2.381m223.8 0c0 1.316-1.042 2.382-2.327 2.382-1.286 0-2.329-1.066-2.329-2.382 0-1.315 1.043-2.381 2.329-2.381 1.285 0 2.327 1.066 2.327 2.381" fill="#3f3127" mask="url(#b)"/></g><path d="m3.119 27.824h27.445v-10.448h-27.445zm0 13.411h27.445v-10.448h-27.445z" fill="#ab7d4b" transform="translate(0 28.763)"/><path d="m0 34.062h33.683v-10.448h-33.683zm21.724-32.607c-3.522-1.94-6.078-1.94-9.609 0l-12.037 7.188h-.078v10.448h33.683v-10.448h.078z" fill="#c39253" transform="translate(0 28.763)"/><path d="m3.197 248.504h27.445v-10.448h-27.445zm0-13.41h27.445v-10.448h-27.445z" fill="#ab7d4b" transform="translate(0 28.763)"/><path d="m.078 242.267h33.683v-10.448h-33.683zm0 4.522v10.448h-.078l11.812 2.577c3.408.852 5.964.852 9.371 0l12.5-2.577h.078v-10.448z" fill="#c39253" transform="translate(0 28.763)"/><path d="m29.704 33.169h1.704v-8.094h-1.704zm-3.408 0h1.704v-8.094h-1.704zm-3.408 0h1.704v-8.094h-1.704zm-3.408 0h1.704v-8.094h-1.704zm-3.408 0h1.704v-8.094h-1.704zm-3.408 0h1.704v-8.094h-1.704zm-3.408 0h1.704v-8.094h-1.704zm-3.408 0h1.704v-8.094h-1.704zm-3.408 0h1.704v-8.094h-1.704zm27.264 208.327h1.704v-8.094h-1.704zm-3.408 0h1.704v-8.094h-1.704zm-3.408 0h1.704v-8.094h-1.704zm-3.408 0h1.704v-8.094h-1.704zm-3.408 0h1.704v-8.094h-1.704zm-3.408 0h1.704v-8.094h-1.704zm-3.408 0h1.704v-8.094h-1.704zm-3.408 0h1.704v-8.094h-1.704zm-3.408 0h1.704v-8.094h-1.704zm31.322-14.2h-29.897v-107.746h-.078v-80.966h29.896l-.089 4.764 3.876-4.356v49.483h.077l-.185 136.862-3.601-3.541" fill="#ab7d4b" transform="translate(0 28.763)"/><path d="m33.761 227.296h-33.683v-107.746h-.078v-80.966h33.683v49.891z" fill="#c39253" transform="translate(0 28.763)"/><path d="m413.401 27.824h27.446v-10.448h-27.446zm0 13.411h27.446v-10.448h-27.446z" fill="#ab7d4b" transform="translate(0 28.763)"/><path d="m410.283 34.062h33.682v-10.448h-33.682zm11.959-32.607c3.522-1.94 6.078-1.94 9.609 0l12.036 7.188h.078v10.448h-33.682v-10.448h-.078z" fill="#c39253" transform="translate(0 28.763)"/><path d="m413.323 248.504h27.446v-10.448h-27.446zm0-13.41h27.446v-10.448h-27.446z" fill="#ab7d4b" transform="translate(0 28.763)"/><path d="m410.205 242.267h33.682v-10.448h-33.682zm33.682 4.522v10.448h.078l-11.811 2.577c-3.408.852-5.964.852-9.372 0l-12.5-2.577h-.077v-10.448z" fill="#c39253" transform="translate(0 28.763)"/><path d="m412.558 33.169h1.704v-8.094h-1.704zm3.408 0h1.704v-8.094h-1.704zm3.408 0h1.704v-8.094h-1.704zm3.408 0h1.704v-8.094h-1.704zm3.408 0h1.704v-8.094h-1.704zm3.408 0h1.704v-8.094h-1.704zm3.408 0h1.704v-8.094h-1.704zm3.408 0h1.704v-8.094h-1.704zm3.408 0h1.704v-8.094h-1.704zm-27.264 208.327h1.704v-8.094h-1.704zm3.408 0h1.704v-8.094h-1.704zm3.408 0h1.704v-8.094h-1.704zm3.408 0h1.704v-8.094h-1.704zm3.408 0h1.704v-8.094h-1.704zm3.408 0h1.704v-8.094h-1.704zm3.408 0h1.704v-8.094h-1.704zm3.408 0h1.704v-8.094h-1.704zm3.408 0h1.704v-8.094h-1.704zm-29.618-14.2h29.897v-107.746h.077v-80.966h-29.895l.089 4.445-3.876-4.186v49.632l.049.228.059 136.634 3.6-3.541" fill="#ab7d4b" transform="translate(0 28.763)"/><path d="m410.204 227.296h33.683v-107.746h.078v-80.966h-33.683v49.891z" fill="#c39253" transform="translate(0 28.763)"/><path d="m27.885 2.517h-.003c.143 0 .255.094.255.094l1.342.945c.229.159.506.223.777.174.272-.049.508-.2.667-.427.16-.229.222-.503.174-.776-.047-.272-.2-.51-.426-.669l-2.193-1.54c-.171-.121-.386-.187-.595-.187s-.423.066-.596.186l-2.192 1.541c-.225.158-.377.397-.424.67-.049.272.011.546.171.775.16.228.398.378.67.427.27.049.548-.015.775-.174l1.342-.945s.11-.094.256-.094h-.003zm3.043 2.094c-.89 0-1.61.722-1.61 1.612v.892h-.001v3.544c-.031.365-.185.675-.46.92-.273.241-.597.364-.983.364-.365 0-.69-.123-.962-.364-.274-.245-.43-.555-.458-.924l-.001-3.213v-1.22c0-.889-.721-1.61-1.61-1.61-.89 0-1.613.721-1.613 1.61v4.343c0 1.477.412 2.628 1.22 3.422.393.386.874.684 1.431.885l.027.01c.546.19 1.185.294 1.894.302h.163c.714-.008 1.351-.111 1.896-.301l.026-.011c.557-.201 1.038-.499 1.433-.885.808-.794 1.218-1.945 1.218-3.422v-4.342c0-.89-.721-1.612-1.61-1.612" fill="#ba7836" transform="translate(192 222.716)"/><path d="m30.928 4.611c-.89 0-1.61.722-1.61 1.612v.892h-.001v3.544c-.031.365-.185.675-.46.92-.273.241-.597.364-.983.364-.365 0-.69-.123-.962-.364-.274-.245-.43-.555-.458-.924l-.001-3.213v-1.22c0-.889-.721-1.61-1.61-1.61-.89 0-1.613.721-1.613 1.61v4.343c0 1.477.412 2.628 1.22 3.422.393.386.874.684 1.431.885l.027.01c.546.19 1.185.294 1.894.302h.163c.714-.008 1.351-.111 1.896-.301l.026-.011c.557-.201 1.038-.499 1.433-.885.808-.794 1.218-1.945 1.218-3.422v-4.342c0-.89-.721-1.612-1.61-1.612z" stroke="#473a30" stroke-linecap="round" stroke-linejoin="round" stroke-width=".5" transform="translate(192 222.716)"/><path d="m19.131 4.926-.028-.012c-.545-.192-1.182-.295-1.894-.303h-.161c-.714.008-1.352.111-1.896.303l-.026.01c-.557.2-1.038.498-1.434.884-.807.795-1.218 1.947-1.218 3.423v4.343c0 .888.722 1.61 1.612 1.61.889 0 1.609-.722 1.609-1.61v-4.434c.03-.369.186-.68.46-.923.273-.242.597-.364.962-.364.387 0 .711.122.984.364.274.244.43.554.46.92v4.437c0 .888.72 1.61 1.611 1.61.888 0 1.608-.722 1.608-1.61v-4.343c0-1.476-.408-2.628-1.217-3.423-.394-.386-.876-.684-1.432-.882" fill="#ba7836" transform="translate(192 222.716)"/><path d="m19.131 4.926-.028-.012c-.545-.192-1.182-.295-1.894-.303h-.161c-.714.008-1.352.111-1.896.303l-.026.01c-.557.2-1.038.498-1.434.884-.807.795-1.218 1.947-1.218 3.423v4.343c0 .888.722 1.61 1.612 1.61.889 0 1.609-.722 1.609-1.61v-4.434c.03-.369.186-.68.46-.923.273-.242.597-.364.962-.364.387 0 .711.122.984.364.274.244.43.554.46.92v4.437c0 .888.72 1.61 1.611 1.61.888 0 1.608-.722 1.608-1.61v-4.343c0-1.476-.408-2.628-1.217-3.423-.394-.386-.876-.684-1.432-.882z" stroke="#473a30" stroke-linecap="round" stroke-linejoin="round" stroke-width=".5" transform="translate(192 222.716)"/><path d="m11.006 7.257c-.084-.193-.18-.385-.286-.573-.106-.186-.223-.368-.348-.54-.082-.116-.17-.229-.26-.338-.126-.152-.232-.27-.336-.373-.52-.517-1.127-.934-1.81-1.233-.721-.3-1.473-.452-2.232-.457-.764.005-1.514.155-2.231.454-.687.302-1.296.72-1.813 1.236-.52.517-.934 1.13-1.235 1.823-.303.691-.455 1.44-.455 2.22s.15 1.495.455 2.194c.302.694.716 1.306 1.233 1.824.516.516 1.126.931 1.814 1.236.504.221 1.042.363 1.594.422.26.027.646.031.79.031h.474v.001h2.25c.89 0 1.61-.722 1.61-1.61 0-.89-.72-1.612-1.61-1.612h-2.92c-.711-.003-1.284-.229-1.75-.694-.487-.486-.722-1.072-.722-1.793 0-.725.242-1.335.721-1.817.48-.479 1.079-.721 1.78-.721.252-.002.502.025.746.093.338.096.653.267.918.499.16.136.313.304.462.51.033.046.067.091.1.139.004.011.066.112.03.178-.02.034-.056.05-.108.05h-2.13c-.584 0-1.057.475-1.057 1.058 0 .585.48 1.057 1.07 1.057l4.003.003c.413 0 .928-.216 1.224-.512.338-.339.496-.88.412-1.418-.073-.472-.2-.921-.383-1.337" fill="#ba7836" transform="translate(192 222.716)"/><path d="m11.006 7.257c-.084-.193-.18-.385-.286-.573-.106-.186-.223-.368-.348-.54-.082-.116-.17-.229-.26-.338-.126-.152-.232-.27-.336-.373-.52-.517-1.127-.934-1.81-1.233-.721-.3-1.473-.452-2.232-.457-.764.005-1.514.155-2.231.454-.687.302-1.296.72-1.813 1.236-.52.517-.934 1.13-1.235 1.823-.303.691-.455 1.44-.455 2.22s.15 1.495.455 2.194c.302.694.716 1.306 1.233 1.824.516.516 1.126.931 1.814 1.236.504.221 1.042.363 1.594.422.26.027.646.031.79.031h.474v.001h2.25c.89 0 1.61-.722 1.61-1.61 0-.89-.72-1.612-1.61-1.612h-2.92c-.711-.003-1.284-.229-1.75-.694-.487-.486-.722-1.072-.722-1.793 0-.725.242-1.335.721-1.817.48-.479 1.079-.721 1.78-.721.252-.002.502.025.746.093.338.096.653.267.918.499.16.136.313.304.462.51.033.046.067.091.1.139.004.011.066.112.03.178-.02.034-.056.05-.108.05h-2.13c-.584 0-1.057.475-1.057 1.058 0 .585.48 1.057 1.07 1.057l4.003.003c.413 0 .928-.216 1.224-.512.338-.339.496-.88.412-1.418-.073-.472-.2-.921-.383-1.337z" stroke="#473a30" stroke-linecap="round" stroke-linejoin="round" stroke-width=".5" transform="translate(192 222.716)"/><path d="m56.12 11.368c-.402.409-.92.615-1.542.615-.59 0-1.099-.206-1.507-.615-.415-.411-.612-.912-.612-1.527 0-.621.207-1.142.612-1.548.408-.41.917-.616 1.507-.616.621 0 1.139.207 1.541.616.399.407.603.928.603 1.548 0 .615-.2 1.116-.603 1.527m2.234-6.753c-.419 0-.802.162-1.09.427l-.001-.002c-.027.027-.06.056-.087.087l-.028.037c-.02.023-.042.048-.06.073l-.02-.009c-.124-.064-.248-.13-.374-.185-.681-.284-1.394-.428-2.115-.428-.73 0-1.427.143-2.067.427-.641.28-1.208.67-1.696 1.155-.482.482-.87 1.057-1.154 1.705-.28.648-.423 1.292-.423 2.022 0 .727.136 1.316.423 1.974.284.646.673 1.221 1.154 1.706.487.483 1.055.87 1.696 1.154.642.282 1.34.427 2.067.427.435 0 .876-.048 1.302-.136.421-.09.813-.233 1.171-.428l.058-.028c.293.359.743.591 1.244.591.89 0 1.611-.722 1.611-1.61v-7.347c0-.891-.72-1.612-1.611-1.612" fill="#ba7836" transform="translate(192 222.716)"/><path d="m56.12 11.368c-.402.409-.92.615-1.542.615-.59 0-1.099-.206-1.507-.615-.415-.411-.612-.912-.612-1.527 0-.621.207-1.142.612-1.548.408-.41.917-.616 1.507-.616.621 0 1.139.207 1.541.616.399.407.603.928.603 1.548 0 .615-.2 1.116-.603 1.527zm2.233-6.753c-.419 0-.802.162-1.09.427l-.001-.002c-.027.027-.06.056-.087.087l-.028.037c-.02.023-.042.048-.06.073l-.02-.009c-.124-.064-.248-.13-.374-.185-.681-.284-1.394-.428-2.115-.428-.73 0-1.427.143-2.067.427-.641.28-1.208.67-1.696 1.155-.482.482-.87 1.057-1.154 1.705-.28.648-.423 1.292-.423 2.022 0 .727.136 1.316.423 1.974.284.646.673 1.221 1.154 1.706.487.483 1.055.87 1.696 1.154.642.282 1.34.427 2.067.427.435 0 .876-.048 1.302-.136.421-.09.813-.233 1.171-.428l.058-.028c.293.359.743.591 1.244.591.89 0 1.611-.722 1.611-1.61v-7.347c0-.891-.72-1.612-1.611-1.612z" stroke="#473a30" stroke-linecap="round" stroke-linejoin="round" stroke-width=".5" transform="translate(192 222.716)"/><path d="m46.932 5.809c-.393-.387-.874-.684-1.43-.884l-.026-.012c-.548-.191-1.187-.294-1.896-.302h-.162c-.71.008-1.349.11-1.896.302l-.025.01c-.152.056-.287.137-.43.206-.14-.069-.273-.149-.425-.204l-.03-.012c-.544-.191-1.181-.294-1.893-.302h-.162c-.714.008-1.35.11-1.896.302l-.026.012c-.556.2-1.039.497-1.434.884-.808.794-1.217 1.946-1.217 3.422v4.343c0 .888.72 1.61 1.608 1.61.892 0 1.612-.722 1.612-1.61v-4.708.001c.027-.287.149-.532.365-.727.217-.192.472-.288.778-.288.289 0 .545.096.76.288.22.195.34.44.365.731h-.016v4.704c0 .888.721 1.61 1.611 1.61s1.61-.722 1.61-1.61v-4.708h-.01c.023-.287.146-.532.36-.727.218-.192.474-.288.78-.288.289 0 .544.096.76.288.217.195.339.44.362.731v-.005l.001 3.816v.892c0 .888.722 1.61 1.612 1.61.889 0 1.609-.722 1.609-1.61v-4.344c0-1.476-.41-2.628-1.219-3.422" fill="#ba7836" transform="translate(192 222.716)"/><path d="m46.932 5.809c-.393-.387-.874-.684-1.43-.884l-.026-.012c-.548-.191-1.187-.294-1.896-.302h-.162c-.71.008-1.349.11-1.896.302l-.025.01c-.152.056-.287.137-.43.206-.14-.069-.273-.149-.425-.204l-.03-.012c-.544-.191-1.181-.294-1.893-.302h-.162c-.714.008-1.35.11-1.896.302l-.026.012c-.556.2-1.039.497-1.434.884-.808.794-1.217 1.946-1.217 3.422v4.343c0 .888.72 1.61 1.608 1.61.892 0 1.612-.722 1.612-1.61v-4.708.001c.027-.287.149-.532.365-.727.217-.192.472-.288.778-.288.289 0 .545.096.76.288.22.195.34.44.365.731h-.016v4.704c0 .888.721 1.61 1.611 1.61s1.61-.722 1.61-1.61v-4.708h-.01c.023-.287.146-.532.36-.727.218-.192.474-.288.78-.288.289 0 .544.096.76.288.217.195.339.44.362.731v-.005l.001 3.816v.892c0 .888.722 1.61 1.612 1.61.889 0 1.609-.722 1.609-1.61v-4.344c0-1.476-.41-2.628-1.219-3.422z" stroke="#473a30" stroke-linecap="round" stroke-linejoin="round" stroke-width=".5" transform="translate(192 222.716)"/><path d="m248.962 89.145h-53.959c-.348 0-.631.284-.631.632v3.789c0 .17.066.329.186.448s.277.183.445.183h.005l53.959-.398c.345-.003.627-.286.627-.632v-3.39c0-.348-.284-.632-.632-.632" fill="#b5bec2"/><path d="m204.568 65.904c-.206-.22-.506-.347-.823-.347h-6.987c-.312 0-.609.124-.815.339-.184.192-.279.44-.267.694l.544 18.208c.024.534.5.952 1.082.952h5.49c.57 0 1.045-.409 1.08-.934l.954-18.204c.018-.26-.074-.51-.258-.708" fill="#1b80b5"/><path d="m218.608 66.547c0-.617-.55-1.123-1.228-1.123h-5.852c-.66 0-1.2.474-1.228 1.08l-.83 18.205c-.014.291.094.572.303.79.233.245.57.385.924.385h6.963c.677 0 1.228-.506 1.228-1.127z" fill="#794cba"/><path d="m233.751 65.895c-.204-.215-.5-.337-.81-.337h-6.995c-.305 0-.597.119-.802.328-.184.188-.282.432-.276.686l.408 18.206c.012.536.496.973 1.078.973h5.772c.58 0 1.053-.419 1.077-.953l.816-18.206c.012-.257-.083-.504-.268-.697" fill="#cc6c18"/><path d="m247.694 66.51c-.024-.533-.49-.951-1.06-.951h-5.423c-.571 0-1.037.418-1.06.951l-.803 18.206c-.011.26.084.51.269.702.201.21.49.331.791.331h7.028c.302 0 .59-.12.791-.33.185-.194.281-.443.269-.703z" fill="#ab2b6f"/><path d="m226.797 61.844h22.187c.336 0 .61-.274.61-.61v-3.052c0-.276-.217-1.11-.61-1.11h-20.729c-.081 0-.157-.025-.215-.072-.032-.026-.066-.051-.098-.074l-4.724-3.464c-.346-.242-.79-.381-1.22-.381-.434 0-.868.135-1.225.383l-4.716 3.46c-.027.02-.053.038-.078.058-.061.048-.141.073-.223.073l-20.73-.13c-.087.002-.17.036-.248.112-.231.228-.373.775-.373.998v3.199c0 .336.273.61.61.61h22.11s1.127.02 1.625-.295l2.845-2.181c.002-.002.184-.152.41-.153.225 0 .41.152.416.157l2.832 2.177s.577.42 1.544.295" fill="#b5bec2"/><path d="m237.872 45.41c.004.261.054.316-.063.682-.027.13-.117.235-.24.282l-8.423 3.099c-.087.033-.18.05-.27.05-.155 0-.31-.048-.44-.14-.208-.146-.329-.385-.324-.64l.013-.59-4.9-.188v8.525c0 .386-.314.7-.7.7h-1.142c-.385 0-.699-.314-.699-.7v-16.59c0-.21.084-.581.65-.693.013-.004.632-.16 1.249.001.558.116.642.484.642.693v.604l6.186.046c.394.003.715.325.715.72v2.023l7.521 1.773s.235.152.225.344" fill="#b5bec2"/><path d="m248.962 88.493h-53.959c-.348 0-.631.283-.631.632v3.788c0 .17.066.329.186.448s.277.184.445.184h.005l53.959-.399c.345-.002.627-.286.627-.632v-3.39c0-.348-.284-.631-.632-.631" fill="#fff"/><path d="m204.568 65.251c-.206-.22-.506-.346-.823-.346h-6.987c-.312 0-.609.123-.815.338-.184.193-.279.44-.267.695l.544 18.207c.024.535.5.953 1.082.953h5.49c.57 0 1.045-.41 1.08-.934l.954-18.204c.018-.26-.074-.511-.258-.709" fill="#1d8bcf"/><path d="m218.198 84.82c.257-.156.425-.418.425-.716 0 .298-.168.56-.425.715zm.41-18.926c0-.617-.551-1.123-1.228-1.123h-5.853c-.66 0-1.199.475-1.227 1.08l-.83 18.206c-.014.291.093.571.302.79.233.244.57.384.925.384h6.963c.677 0 1.228-.505 1.228-1.127z" fill="#8c5bce"/><path d="m233.751 65.242c-.204-.214-.5-.337-.81-.337h-6.995c-.305 0-.597.12-.802.328-.184.189-.282.432-.276.686l.408 18.206c.012.536.496.973 1.078.973h5.772c.58 0 1.053-.419 1.077-.952l.816-18.206c.012-.257-.083-.505-.268-.698" fill="#e5801b"/><path d="m247.694 65.857c-.024-.533-.49-.95-1.06-.95h-5.423c-.571 0-1.037.417-1.06.95l-.803 18.206c-.011.26.084.51.269.703.201.21.49.331.791.331h7.028c.302 0 .59-.121.791-.331.185-.193.281-.443.269-.703z" fill="#ca3577"/><path d="m226.8 61.169 22.184.022c.336 0 .61-.274.61-.61v-3.051c0-.276-.217-1.11-.61-1.11l-20.729.001c-.08 0-.157-.026-.215-.072-.032-.026-.066-.052-.098-.074l-4.724-3.464c-.346-.243-.79-.382-1.22-.382-.434 0-.868.135-1.225.383l-4.716 3.46-.078.058c-.061.049-.141.073-.223.073l-20.73-.129c-.087.002-.17.035-.248.112-.231.227-.373.774-.373.997v3.2c0 .335.273.609.61.609h22.11s.66.028 1.378-.409l3.085-2.317c.002-.002.184-.152.41-.153.225.001.409.152.416.157l2.892 2.191s.708.524 1.493.509" fill="#fff"/><path d="m237.704 45.084c-.051-.052-.115-.087-.177-.101l-7.4-2.342v-2.023c0-.395-.321-.717-.715-.72l-6.187-.046v-.604c0-.209-.084-.576-.642-.692-.617-.162-1.236-.006-1.248-.002-.566.112-.65.483-.65.694v16.59c0 .384.313.698.698.698h1.143c.385 0 .699-.314.699-.699v-8.525l4.9.189-.012.59c-.006.253.115.493.323.64.131.092.285.139.44.139.091 0 .183-.017.27-.05l8.422-3.099c.124-.047.214-.152.241-.281.028-.13-.011-.262-.105-.356" fill="#fff"/><path d="m92.383 132.773c.233-1.304.74-2.271 1.692-3.002.938-.72 2.285-1.151 3.509-1.307.476-.061.956-.085 1.436-.055.118.008.236.022.354.031.075.006-.25-.046.043.008.264.048.525.101.784.171.256.07.506.155.756.247.254.093-.122-.065.127.053.158.075.316.153.47.238.239.131.47.277.693.433.002.002.187.138.08.056-.122-.092.109.092.132.112.13.111.257.225.378.345.99.975 1.575 2.355 1.92 3.832.18.772.282 1.547.294 2.34.012.786-.042 1.406-.187 2.077-.282 1.301-.651 2.16-1.435 3.273-.034.049-.234.317-.153.214.072-.093-.147.176-.2.237-.166.192-.34.378-.52.556-.17.166-.345.321-.525.475-.12.101-.224.165-.027.025-.104.073-.205.15-.311.22-.156.103-.317.2-.482.287-.1.054-.203.104-.306.153-.059.028-.436.191-.268.123-.625.254-1.276.446-1.936.581-1.012.208-2.613.246-3.626.078-2.973-.495-5.5-2.026-7.498-4.332-1.283-1.48-2.383-3.087-3.778-4.476-1.2-1.195-2.551-2.314-4.061-3.095-2.828-1.464-5.96-1.52-8.782-.006-1.485.797-2.879 1.945-3.594 3.504-.73 1.59-.848 3.282-.54 4.992.28 1.56.916 3.095 2.107 4.178 1.322 1.2 3.029 1.868 4.808 1.952.945.045 1.914-.112 2.813-.397 1.76-.556 1.008-3.335-.765-2.774-1.53.484-3.072.369-4.39-.486-.496-.321-.9-.744-1.178-1.243-.173-.312-.197-.412-.32-.794-.126-.393-.228-.794-.301-1.2-.22-1.222-.038-2.591.758-3.655.786-1.05 2.257-1.823 3.447-2.151.709-.196 1.01-.236 1.792-.204.431.019.344.007.736.085.353.071.7.167 1.04.285.558.192 1.195.523 1.805.91.662.421 1.27.904 1.852 1.43 1.463 1.327 2.68 2.856 3.889 4.41 1.083 1.391 2.36 2.599 3.82 3.589 4.494 3.043 11.493 3.644 15.693-.275 2.04-1.902 3.189-4.563 3.452-7.311.316-3.296-.65-7.215-3.114-9.544-1.72-1.624-4.186-2.578-6.561-2.438-3.049.18-6.32 1.406-7.826 4.246-.371.7-.631 1.455-.77 2.234-.138.764.207 1.55 1.004 1.77.696.192 1.632-.236 1.77-1.005" fill="#b5bec2"/><path d="m58.814 154.347h47.748" stroke="#b5bec2" stroke-linecap="round" stroke-width="2.852"/><path d="m92.383 131.749c.233-1.304.74-2.271 1.692-3.002.938-.72 2.285-1.151 3.509-1.307.476-.061.956-.086 1.436-.055.118.007.236.021.354.031.075.006-.25-.046.043.008.264.048.525.1.784.17.256.07.506.156.756.248.254.093-.122-.065.127.053.158.076.316.153.47.238.239.131.47.277.693.434.002.001.187.137.08.055-.122-.093.109.092.132.112.13.111.257.225.378.345.99.975 1.575 2.354 1.92 3.831.18.773.282 1.548.294 2.342.012.785-.042 1.406-.187 2.076-.282 1.3-.651 2.16-1.435 3.274-.034.048-.234.317-.153.213.072-.093-.147.176-.2.237-.166.193-.34.378-.52.556-.17.166-.345.321-.525.474-.12.102-.224.166-.027.026-.104.073-.205.15-.311.22-.156.103-.317.2-.482.288-.1.054-.203.103-.306.152-.059.028-.436.191-.268.123-.625.254-1.276.445-1.936.58-1.012.209-2.613.247-3.626.079-2.973-.495-5.5-2.026-7.498-4.331-1.283-1.481-2.383-3.088-3.778-4.478-1.2-1.194-2.551-2.313-4.061-3.094-2.828-1.464-5.96-1.52-8.782-.006-1.485.797-2.879 1.944-3.594 3.504-.73 1.59-.848 3.282-.54 4.993.28 1.559.916 3.095 2.107 4.176 1.322 1.2 3.029 1.869 4.808 1.953.945.045 1.914-.112 2.813-.396 1.76-.557 1.008-3.336-.765-2.775-1.53.484-3.072.369-4.39-.485-.496-.323-.9-.745-1.178-1.244-.173-.312-.197-.412-.32-.794-.126-.393-.228-.794-.301-1.2-.22-1.223-.038-2.59.758-3.655.786-1.05 2.257-1.823 3.447-2.151.709-.196 1.01-.235 1.792-.203.431.018.344.006.736.084.353.071.7.167 1.04.285.558.193 1.195.523 1.805.91.662.421 1.27.904 1.852 1.43 1.463 1.328 2.68 2.857 3.889 4.41 1.083 1.391 2.36 2.6 3.82 3.589 4.494 3.043 11.493 3.644 15.693-.274 2.04-1.903 3.189-4.563 3.452-7.313.316-3.294-.65-7.214-3.114-9.543-1.72-1.624-4.186-2.578-6.561-2.438-3.049.18-6.32 1.407-7.826 4.246-.371.7-.631 1.455-.77 2.234-.138.764.207 1.55 1.004 1.77.696.191 1.632-.236 1.77-1.005" fill="#fff"/><path d="m58.814 153.323h47.748" stroke="#fff" stroke-linecap="round" stroke-width="2.852"/><path d="m56.577 157.795-3.271-3.27c-.49-.49-.49-1.285 0-1.775l3.27-3.27c.49-.49 1.285-.49 1.775 0l3.271 3.27c.49.49.49 1.285 0 1.774l-3.27 3.271c-.49.49-1.285.49-1.775 0" fill="#fff"/><path d="m354.357 132.008c-1.055-5.893-8.646-8.01-13.456-5.303-3.076 1.73-4.427 5.08-4.794 8.445-.317 2.907.43 5.95 2.21 8.287 1.515 1.989 3.516 3.233 5.961 3.786 3.015.682 6.118.274 8.921-.99 1.508-.681 2.89-1.654 4.096-2.782 1.409-1.32 2.454-2.95 3.725-4.392 1.117-1.267 2.34-2.483 3.771-3.392.608-.385 1.25-.718 1.805-.91.316-.11.64-.2.966-.27.418-.088.373-.081.81-.1 1.309-.053 2.449.302 3.641 1.023 1.307.79 2.126 1.754 2.38 3.212.079.45.053 1.367-.04 1.86-.13.686-.326 1.408-.605 1.909-.28.503-.683.92-1.178 1.243-.608.396-1.239.644-1.963.75-.812.118-1.64-.015-2.427-.264-1.77-.56-2.527 2.217-.765 2.774 3.24 1.026 7.474-.08 8.983-3.379 1.401-3.063 1.314-6.975-1.292-9.382-2.327-2.149-5.671-3.155-8.755-2.312-3.351.915-6.043 3.545-8.178 6.162-1.156 1.418-2.185 2.87-3.608 4.044-1.075.887-2.392 1.611-3.636 2.035-1.4.477-2.482.653-3.923.621-.333-.007-.665-.03-.997-.063-.252-.025.026.011-.222-.029-.175-.028-.35-.06-.522-.095-.66-.136-1.312-.327-1.937-.581.175.07-.153-.069-.2-.091-.114-.053-.227-.107-.338-.165-.178-.094-.35-.197-.518-.308-.092-.06-.18-.128-.272-.19-.059-.04.19.163-.026-.022-.192-.165-.383-.33-.564-.507-.167-.164-.327-.334-.48-.51-.095-.108-.187-.218-.275-.33.163.206-.07-.098-.119-.167-.354-.503-.66-1.04-.915-1.6-.046-.102-.134-.327-.232-.62-.115-.345-.21-.697-.288-1.053-.147-.676-.199-1.287-.187-2.077.024-1.579.362-3.293 1.11-4.679.351-.65.615-1.012 1.104-1.493.469-.462.697-.63 1.343-.978.115-.063.233-.12.352-.178.058-.028.117-.055.176-.08-.02.008-.203.08-.05.022.268-.103.54-.195.815-.27.241-.065.485-.117.73-.163.157-.029.3-.035.045-.01.136-.013.27-.029.407-.037 1.203-.077 2.303.145 3.458.555 1.045.372 2.039 1.12 2.588 2.063.319.55.46 1.02.59 1.746.138.765 1.07 1.197 1.77 1.005.807-.222 1.142-1.003 1.005-1.77" fill="#b5bec2"/><path d="m385.152 154.347h-47.749" stroke="#b5bec2" stroke-linecap="round" stroke-width="2.852"/><path d="m354.357 130.984c-1.055-5.894-8.646-8.01-13.456-5.303-3.076 1.73-4.427 5.079-4.794 8.444-.317 2.908.43 5.951 2.21 8.288 1.515 1.989 3.516 3.232 5.961 3.786 3.015.682 6.118.274 8.921-.99 1.508-.681 2.89-1.654 4.096-2.783 1.409-1.319 2.454-2.949 3.725-4.39 1.117-1.268 2.34-2.484 3.771-3.393.608-.386 1.25-.719 1.805-.91.316-.11.64-.2.966-.27.418-.088.373-.081.81-.1 1.309-.054 2.449.302 3.641 1.023 1.307.79 2.126 1.754 2.38 3.212.079.45.053 1.366-.04 1.86-.13.686-.326 1.408-.605 1.909-.28.502-.683.92-1.178 1.243-.608.395-1.239.644-1.963.75-.812.118-1.64-.015-2.427-.264-1.77-.56-2.527 2.217-.765 2.774 3.24 1.026 7.474-.08 8.983-3.379 1.401-3.063 1.314-6.975-1.292-9.382-2.327-2.149-5.671-3.155-8.755-2.313-3.351.916-6.043 3.546-8.178 6.163-1.156 1.418-2.185 2.87-3.608 4.044-1.075.887-2.392 1.611-3.636 2.034-1.4.478-2.482.654-3.923.622-.333-.007-.665-.03-.997-.063-.252-.026.026.01-.222-.03-.175-.027-.35-.059-.522-.094-.66-.136-1.312-.327-1.937-.582.175.071-.153-.068-.2-.09-.114-.054-.227-.107-.338-.165-.178-.094-.35-.197-.518-.308-.092-.061-.18-.128-.272-.19-.059-.04.19.163-.026-.022-.192-.165-.383-.33-.564-.507-.167-.164-.327-.334-.48-.51-.095-.108-.187-.218-.275-.33.163.205-.07-.098-.119-.167-.354-.503-.66-1.04-.915-1.601-.046-.102-.134-.326-.232-.62-.115-.345-.21-.697-.288-1.052-.147-.676-.199-1.287-.187-2.077.024-1.579.362-3.293 1.11-4.68.351-.65.615-1.01 1.104-1.492.469-.462.697-.63 1.343-.978.115-.063.233-.12.352-.178.058-.029.117-.055.176-.081-.02.009-.203.081-.05.023.268-.103.54-.195.815-.27.241-.066.485-.117.73-.163.157-.029.3-.035.045-.01.136-.013.27-.03.407-.037 1.203-.077 2.303.144 3.458.555 1.045.372 2.039 1.12 2.588 2.063.319.549.46 1.02.59 1.745.138.766 1.07 1.198 1.77 1.005.807-.22 1.142-1.002 1.005-1.77" fill="#fff"/><path d="m385.152 153.323h-47.749" stroke="#fff" stroke-linecap="round" stroke-width="2.852"/><path d="m387.388 157.795 3.271-3.27c.49-.49.49-1.285 0-1.775l-3.27-3.27c-.49-.49-1.285-.49-1.775 0l-3.271 3.27c-.49.49-.49 1.285 0 1.774l3.27 3.271c.49.49 1.285.49 1.775 0" fill="#fff"/><path d="m120.817 117.803 15.423.182-1.45 36.55.028 2.14 16.028.208.038-2.159-.974-36.61 16.046.181.189-2.159.114-9.441-45.433-.525-.161 9.474zm70.627 30.414c-7.67 0-12.436-5.635-12.436-14.707 0-9 4.847-14.816 12.347-14.816 7.33 0 12.256 5.903 12.256 14.688 0 9.151-4.662 14.835-12.167 14.835m.165-40.691c-14.88 0-25.013 9.215-25.271 24.654-.142 8.483 2.237 15.03 6.299 19.613 4.403 4.968 10.673 7.593 18.13 7.593 7.682 0 14.127-2.478 18.638-7.166 4.499-4.675 6.876-11.91 6.876-19.838 0-6.91-2.203-12.64-6.203-17.177-4.429-5.024-10.816-7.68-18.47-7.68m106.432 40.692c-7.67 0-12.436-5.635-12.436-14.707 0-9 4.847-14.816 12.347-14.816 7.33 0 12.256 5.903 12.256 14.688 0 9.151-4.662 14.835-12.166 14.835m19.055-33.012c-4.428-5.024-10.815-7.68-18.469-7.68-14.88 0-25.27 9.618-25.27 25.059 0 8.18 2.236 14.625 6.298 19.209 4.404 4.968 10.673 7.593 18.131 7.593 7.682 0 14.126-2.478 18.638-7.166 4.498-4.675 6.876-11.255 6.876-19.838 0-6.91-2.203-12.64-6.204-17.177m-66.1 26.488c-2.372 2.343-5.869 3.551-10.103 3.499-3.571 0-4.848-.06-5.297-.109v-27.192c.976-.14 4.659-.274 6.458-.274 8.099 0 12.744 4.763 12.744 13.068 0 4.813-1.28 8.517-3.802 11.008m8.027-30.246c-5.014-3.4-11.081-4.851-20.29-4.851l-15.794.223.048 49.496 13.22.059c10.157 0 17.94-2.021 23.135-6.008 3.945-3.038 8.648-8.996 8.648-20.13 0-8.408-3.017-14.73-8.967-18.789" fill="#b5bec2"/><path d="m120.688 115.617 15.552.197-1.423 38.689 16.022.194-.93-38.754 16.212.2.138-11.619-45.434-.525zm70.756 30.429c-7.67 0-12.436-5.635-12.436-14.707 0-9 4.847-14.817 12.347-14.817 7.33 0 12.256 5.903 12.256 14.69 0 9.15-4.662 14.834-12.167 14.834m.165-40.691c-14.88 0-25.271 10.784-25.271 26.225 0 7.051 2.237 13.458 6.299 18.041 4.403 4.968 10.673 7.594 18.13 7.594 7.682 0 14.127-2.478 18.638-7.166 4.499-4.675 6.876-11.336 6.876-19.263 0-6.911-2.203-13.215-6.203-17.752-4.429-5.024-10.816-7.68-18.47-7.68m106.432 40.692c-7.67 0-12.436-5.635-12.436-14.707 0-9 4.847-14.817 12.347-14.817 7.33 0 12.256 5.903 12.256 14.69 0 9.15-4.662 14.834-12.166 14.834m19.055-33.012c-4.428-5.024-10.815-7.68-18.469-7.68-14.88 0-25.27 10.785-25.27 26.226 0 7.051 2.236 13.458 6.298 18.041 4.404 4.968 10.673 7.594 18.131 7.594 7.682 0 14.126-2.478 18.638-7.166 4.498-4.675 6.876-11.336 6.876-19.263 0-6.911-2.203-13.215-6.204-17.752m-66.1 26.489c-2.372 2.341-5.869 3.55-10.103 3.498-3.571 0-4.848-.06-5.297-.109v-27.193c.976-.14 4.659-.272 6.458-.272 8.099 0 12.744 4.762 12.744 13.066 0 4.814-1.28 8.518-3.802 11.01m8.027-30.246c-5.014-3.401-11.081-4.853-20.29-4.853l-15.794.224.048 49.496 13.22.059c10.157 0 17.94-2.022 23.135-6.008 3.945-3.037 8.648-8.996 8.648-20.13 0-8.409-3.017-14.73-8.967-18.788" fill="#fff"/><path d="m112.383 200.723.122-7.301h17.313l-.16-8.33-17.275-.319.091-6.733h16.892l.032-8.158-26.869-.153-1.366 38.036.007 2.085h30.105l.031-2.135-.177-6.869zm51.355-29.934-.361 23.608-12.227-23.608h-11.947l-1.181 38.137.057 2.07h11.066l.035-2.019-1.262-24.739c2.243 5.5 5.057 10.996 6.564 13.833l6.614 12.875 12.064.05-.102-40.207zm36.304 16.281v8.7h6.273v6.48c-.654.163-2.618.284-4.06.284-6.067 0-12.208-3.953-12.208-11.506 0-8.35 6.939-11.314 12.88-11.314 4.418 0 6.932.87 9.594 1.793l.379.154.152-2.12-.01-7.365-.135-.052c-2.7-1.04-6.13-1.598-9.919-1.613h-.127c-11.728 0-23.548 6.5-23.611 21.063-.03 5.852 2.031 11.007 5.802 14.513 3.858 3.653 9.446 5.429 17.083 5.429 4.919 0 10.562-1.14 13.973-2.27l.152-.05.023-2.138-1.072-19.988zm34.391 14.988-.278-30.857h-10.086l-.844 40.207h26.723l.006-2.159-.366-7.213zm22.793-31.186-.796 37.335.038 2.121 11.152-.038.057-2.14-1.109-37.307zm35.4 15.968c-5.035-1.72-7.248-2.67-7.31-4.542-.024-.69.182-1.265.612-1.712.768-.798 2.243-1.209 4.386-1.22 3.025-.012 5.632.619 8.483 1.389l.605.194 2.3-8.452-.38-2.31c-3.087-.879-6.678.28-11.177.388-5.656.138-10.283 1.849-13.03 4.818-1.976 2.137-2.934 4.857-2.772 7.868.243 4.504 4.172 8.089 12.367 11.28 4.267 1.663 5.795 2.91 5.842 4.765.023.933-.481 1.808-1.42 2.464-1.034.721-2.485 1.125-4.2 1.166-3.928.096-6.972-.592-10.329-1.655l-.217-.069-2.025 6.578.007 2.107.153.074c2.223 1.066 6.634 2.16 11.288 2.16.236 0 .473-.003.71-.01 5.538-.134 10.042-1.568 13.024-4.146 2.722-2.354 4.113-5.537 4.022-9.204-.142-5.692-3.619-9.484-10.94-11.932m48.681-16.523-.008-.204h-9.733v14.712h-12.23l.278-14.656-10.054-.076-1.937 38.126-.014 2.082 10.655.038.114-2.158.492-13.708 12.842.07.45 13.676.151 2.12 10.485-.019.005-2.139z" fill="#b5bec2"/><path d="m112.383 198.552v-6.914h17.313l-.038-8.717-17.275-.319v-6h16.892l.123-8.891-26.869-.153-1.359 40.121h30.105l-.146-9.004zm51.355-29.934-.361 23.608-12.227-23.608h-11.947l-1.124 40.206h11.066l-1.156-27.17c2.243 5.501 5.057 10.995 6.564 13.833l6.885 13.337h11.722l-.102-40.206zm36.304 16.28v8.7h6.273v6.48c-.654.164-2.618.285-4.06.285-6.067 0-12.208-3.953-12.208-11.506 0-8.351 6.939-11.314 12.88-11.314 4.418 0 6.932.87 9.594 1.793l.521.18v-9.51l-.135-.053c-2.7-1.04-6.13-1.598-9.919-1.613h-.127c-11.728 0-23.548 6.5-23.611 21.063-.03 5.852 2.031 11.006 5.802 14.512 3.858 3.653 9.446 5.43 17.083 5.43 4.919 0 10.562-1.14 13.973-2.27l.152-.05-1.049-22.127zm34.391 14.988-.278-30.856h-10.086l-.844 40.206h26.723l-.36-9.372zm22.793-31.185-.788 39.436h11.216l-1.086-39.466zm35.4 15.967c-5.035-1.719-7.248-2.668-7.31-4.54-.024-.69.182-1.266.612-1.713.768-.798 2.243-1.208 4.386-1.22 3.025-.011 5.632.619 8.483 1.389l.204.054 2.3-8.451-.903-.256c-3.088-.877-5.754-1.635-10.253-1.527-5.656.138-10.283 1.849-13.03 4.817-1.976 2.138-2.934 4.858-2.772 7.869.243 4.505 4.172 8.089 12.367 11.28 4.267 1.663 5.795 2.91 5.842 4.765.023.933-.481 1.808-1.42 2.464-1.034.722-2.485 1.125-4.2 1.167-3.928.095-6.972-.593-10.329-1.655l-.217-.07-2.018 8.685.153.073c2.223 1.067 6.634 2.16 11.288 2.16.236 0 .473-.002.71-.008 5.538-.135 10.042-1.569 13.024-4.147 2.722-2.354 4.113-5.537 4.022-9.204-.142-5.692-3.619-9.483-10.94-11.931m48.667-16.535-.007-.203h-9.733v14.711h-12.23l.277-14.656-10.15-.056-1.827 40.207h10.714l.572-15.835 12.789.058.486 15.777h10.601z" fill="#fff"/></g></svg>