<svg xmlns="http://www.w3.org/2000/svg" xmlns:xlink="http://www.w3.org/1999/xlink" width="720" height="198" viewBox="0 0 720 198">
    <defs>
        <path id="prefix__a" d="M0 0.256L7.844 0.256 7.844 24.623 0 24.623z"/>
        <path id="prefix__c" d="M0.348 0.005L3.831 0.005 3.831 5.386 0.348 5.386z"/>
        <path id="prefix__e" d="M0.304 0.337L15.867 0.337 15.867 7.15 0.304 7.15z"/>
        <path id="prefix__g" d="M0.532 0.337L16.095 0.337 16.095 7.15 0.532 7.15z"/>
        <path id="prefix__i" d="M0.34 0.085L22.499 0.085 22.499 39.382 0.34 39.382z"/>
        <path id="prefix__k" d="M0.438 0.085L22.597 0.085 22.597 39.536 0.438 39.536z"/>
        <path id="prefix__m" d="M0.425 0.414L39.72 0.414 39.72 43.45 0.425 43.45z"/>
        <path id="prefix__o" d="M0 0.314L17.779 0.314 17.779 43.088 0 43.088z"/>
        <path id="prefix__q" d="M0.406 0.069L90.9 0.069 90.9 38.823 0.406 38.823z"/>
    </defs>
    <g fill="none" fill-rule="evenodd">
        <g>
            <path fill="#DB1606" d="M23.056 112.566c3.396-.45 5.4-2.376 7.26-5.117.653-.96-.905-1.86-1.552-.907-1.45 2.136-3.017 3.869-5.708 4.225-1.131.15-1.146 1.95 0 1.799M78.453 110.615c-2.787-.566-4.237-2.346-5.604-4.7-.58-1-2.135-.097-1.553.907 1.59 2.738 3.449 4.872 6.679 5.527 1.13.229 1.613-1.504.478-1.734" transform="translate(538.4 42)"/>
            <path fill="#DB1606" d="M26.715 110.7c1.232-.783 4.136 2.41 5.573 2.765 1.467.363 2.988.033 4.35-.532 1.86-.773 3.34-2.155 5.15-2.998 2.63-1.225 4.343.135 6.646 1.187 3.427 1.564 5.542.369 8.689-1.122 2.593-1.23 4.037.587 6.363 1.44 1.567.575 2.853.495 4.353-.156 1.738-.755.236-3.3-1.491-2.55-1.923.834-4.047-1.56-5.85-2.059-1.433-.395-2.826-.142-4.164.44-2.056.894-3.672 2.428-6.06 1.602-1.84-.636-3.337-1.902-5.306-2.208-3.952-.615-6.252 2.549-9.652 3.758-2.878 1.023-3.914-1.345-6.19-2.354-1.352-.6-2.66-.552-3.902.236-1.6 1.017-.12 3.574 1.49 2.551M76.028 106.641c2.516-.375 5.4-.778 7.34-2.596 1.73-1.62 2.21-4.155 4.047-5.66l-2.469-1.438c-.76 2.797-3.21 5.674-5.963 6.736-1.408.542-1.396 3.133.393 2.901l2.18-.284c1.859-.242 1.883-3.199 0-2.954l-2.18.284.393 2.901c3.734-1.439 6.977-4.937 8.026-8.799.414-1.522-1.382-2.327-2.469-1.437-1.563 1.283-2.17 3.14-3.284 4.757-1.48 2.147-4.419 2.387-6.8 2.74-1.872.28-1.076 3.127.786 2.85" transform="translate(538.4 42)"/>
            <path fill="#DB1606" d="M66.727 110.147c1.576.459 3.233.893 4.888.679 1.533-.198 2.817-1.07 4.278-1.514 1.176-.356 2.25-1.103 3.376-1.293 1.193-.201 2.15-.08 3.302-.602 2.859-1.292 4.52-4.705 5.11-7.662.441-2.221-.14-4.835 1.124-6.805.915-1.426-1.145-2.964-2.32-1.79-3.227 3.228-4.513 8.252-8.307 10.916-1.543 1.084-.07 3.646 1.491 2.55 4.126-2.896 5.448-7.92 8.905-11.378l-2.32-1.79c-2.489 3.88-.056 9.215-3.977 12.604-1.542 1.332-3.76.848-5.547 1.717-1.118.544-2.268.725-3.408 1.212-1.105.47-1.606.995-2.913.94-.98-.043-1.965-.361-2.897-.632-1.828-.532-2.61 2.317-.785 2.848" transform="translate(538.4 42)"/>
            <g transform="translate(538.4 42) translate(0 39.595)">
                <mask id="prefix__b" fill="#fff">
                    <use xlink:href="#prefix__a"/>
                </mask>
                <path fill="#DB1606" d="M4.976.742c-5.9 6.866-7.593 17.816.72 23.616 1.562 1.09 3.04-1.47 1.491-2.55C.527 17.16 2.492 8.151 7.065 2.83 8.298 1.396 6.217-.702 4.976.742" mask="url(#prefix__b)"/>
            </g>
            <path fill="#DB1606" d="M88.228 88.169c5.612-4.09 7.433-11.657 4.876-18.033-.698-1.742-3.556-.982-2.848.786 2.02 5.038 1.072 11.352-3.52 14.697-1.52 1.108-.048 3.672 1.492 2.55M80.847 39.881c.451 2.847.865 5.548.678 8.44-.122 1.898 2.832 1.89 2.954 0 .203-3.142-.294-6.135-.785-9.225-.297-1.872-3.143-1.078-2.847.785" transform="translate(538.4 42)"/>
            <path fill="#DB1606" d="M97.059 54.97c.497-4.917-1.6-6.382-2.072-11.301-.27-2.802-.551-5.657-1.662-8.234-1.112-2.577-3.213-4.876-5.918-5.456 2.15-6.233-1.585-13.902-7.76-15.931-.495-.163-1.01-.298-1.442-.593-.46-.315-.79-.786-1.11-1.247-2.83-4.076-7.879-8.695-12.78-8.615-13.96.231-10.022 3.454-16.041 2.568-1.903-.28-3.668-1.14-5.5-1.733-4.564-1.475-10.196-.963-13.244 2.798-1.143 1.41-1.864 3.195-3.267 4.337-1.7 1.383-4.027 1.535-6.159 1.987-2.13.454-4.467 1.562-4.997 3.713-.306 1.24-1.85 1.684-2.352 2.856-.436 1.018-.919 2.556-1.801 3.21-4.195 3.11-5.515 8.207-5.827 13.48-.12 2.038.097 4.115-.381 6.097-.416 1.725-1.335 3.275-1.942 4.94-1.33 3.649-1.238 9.479.523 12.932 2.208 4.333 6.127 6.06 5.88 10.934-.086 1.682.013 3.478-.524 5.07-1.406 4.165-1.879 8.813-.403 12.953 1.475 4.14 5.18 7.61 9.496 7.898-1.706 2.749-1.247 6.688 1.044 8.953 2.29 2.265 6.17 2.616 8.818.798l1.605 3.723c.735-.316 1.306-.886 1.723-1.579.047.095.1.186.157.274-.294 1.19 1.345 2.453 2.518 1.396.108-.096.224-.205.343-.32.631-.087 1.218-.33 1.763-.667 1.602 1.294 3.953.389 5.496-.78 1.494-1.134.025-3.7-1.492-2.55-.34.275-.697.528-1.07.76-.095.023-.178.037-.26.051 1-1.147 2.672-2.143 3.062-3.689.14-.555.077-1.025-.122-1.415 3.17-2.425 9.433-.093 13.184.352.735.087 1.484.178 2.157.49 1.215.563 2.012 1.756 3.04 2.622 1.788 1.507 4.192 1.97 6.257 3.05 2.065 1.078 3.903-1.894 3.176.35.635-1.694 1.301-.207 1.95-.492.263.118.575.158.925.084 5.108-1.09 10.834-8.25 10.318-14.024 3.646-.737 6.924-2.595 8.585-6.015 1.901-3.912 1.281-8.953 2.3-13.192.77-3.192-.518-7.005 0-11.106.37-2.908 3.46-6.32 3.806-9.737" transform="translate(538.4 42)"/>
            <path fill="#DB1606" d="M82.13 96.313c8.332-.663 13.27-8.491 10.548-16.358-.619-1.786-3.473-1.018-2.849.785 2.041 5.898-1.165 12.1-7.699 12.62-1.882.148-1.898 3.103 0 2.953M93.606 45.099c1.906 3.422 1.892 7.373-.028 10.784-.933 1.659 1.617 3.15 2.55 1.491 2.44-4.333 2.447-9.422.028-13.766-.925-1.66-3.477-.173-2.55 1.49" transform="translate(538.4 42)"/>
            <path fill="#DB1606" d="M86.77 31.5c4.661 2.253 7.445 7.293 6.644 12.461-.288 1.86 2.557 2.66 2.848.785.995-6.425-2.054-12.922-8.002-15.796-1.704-.823-3.203 1.723-1.49 2.55" transform="translate(538.4 42)"/>
            <path fill="#DB1606" d="M89.28 30.699c1.647-1.022 3.247-.31 4.536.939.776.753 1.965-.434 1.188-1.188-1.818-1.764-4.278-2.625-6.572-1.202-.917.569-.075 2.023.848 1.45" transform="translate(538.4 42)"/>
            <path fill="#DB1606" d="M90.473 29.436c-.619-4.435-2.033-9.146-4.71-12.807-2.46-3.366-6.192-3.95-10.128-3.986-1.902-.018-1.903 2.936 0 2.953 4.046.037 6.848.855 8.854 4.602 1.678 3.133 2.647 6.517 3.136 10.024.262 1.874 3.108 1.076 2.848-.786" transform="translate(538.4 42)"/>
            <path fill="#DB1606" d="M80.502 15.099c.356-2.682.864-4.964-.143-7.584-.383-1-2.008-.565-1.619.446.942 2.453.415 4.629.082 7.138-.142 1.068 1.54 1.058 1.68 0" transform="translate(538.4 42)"/>
            <path fill="#DB1606" d="M50.969 8.182c3.945-3.86 11.367-3.709 16.324-2.22 2.53.762 4.935 1.95 6.65 4.02 1.56 1.885 2.501 4.242 3.623 6.394.88 1.686 3.43.195 2.551-1.491-1.367-2.621-2.539-5.41-4.61-7.58-2.2-2.302-5.257-3.65-8.298-4.433-5.853-1.508-13.785-1.224-18.33 3.22-1.36 1.332.73 3.42 2.09 2.09" transform="translate(538.4 42)"/>
            <path fill="#DB1606" d="M49.717 6.315c-2.75-1.753-6.065-2.197-9.178-1.218-1.807.569-1.035 3.421.785 2.849 2.41-.758 4.77-.438 6.902.92 1.608 1.024 3.091-1.531 1.49-2.55" transform="translate(538.4 42)"/>
            <path fill="#DB1606" d="M50.106 4.861c-10.358-7.026-22.09-1.385-28.101 8.382-1 1.623 1.554 3.109 2.55 1.49 5.205-8.457 15.058-13.428 24.06-7.321 1.577 1.07 3.057-1.488 1.49-2.55" transform="translate(538.4 42)"/>
            <path fill="#DB1606" d="M24.341 13.053c-2.445-2.824-8.202.202-10.068 2.334-3.238 3.702-3.74 8.374-3.647 13.1.039 1.898 2.993 1.904 2.955 0-.062-3.076-.017-6.227 1.44-9.02.732-1.404 1.797-2.811 3.22-3.555.597-.312 3.446-1.423 4.012-.77 1.247 1.439 3.328-.657 2.088-2.089" transform="translate(538.4 42)"/>
            <path fill="#DB1606" d="M15.343 21.953c-4.66.153-8.695 4.766-10.535 8.719-2.264 4.86-2.054 10.212.023 15.08.743 1.744 3.288.241 2.55-1.49-1.617-3.793-1.737-8.097-.097-11.905 1.279-2.972 4.458-7.332 8.059-7.45 1.896-.063 1.905-3.017 0-2.954M16.659 91.664c-.968 4.44-1.985 9.476.363 13.672 1.818 3.25 5.107 5.164 8.815 4.552 1.87-.31 1.077-3.156-.785-2.848-3.093.51-5.56-2.36-6.211-5.116-.743-3.14-.006-6.39.666-9.475.404-1.853-2.443-2.644-2.848-.785" transform="translate(538.4 42)"/>
            <path fill="#DB1606" d="M12.104 22.346c-2.642-.452-4.824.229-6.978 1.786-.868.628-.03 2.086.848 1.451 1.758-1.271 3.49-1.993 5.683-1.618 1.057.181 1.512-1.437.447-1.62" transform="translate(538.4 42)"/>
            <g transform="translate(538.4 42) translate(46.75 .545)">
                <mask id="prefix__d" fill="#fff">
                    <use xlink:href="#prefix__c"/>
                </mask>
                <path fill="#DB1606" d="M3.813 4.58c.16-1.785-.725-3.483-2.226-4.44-.914-.583-1.758.87-.848 1.45 1.032.658 1.5 1.794 1.394 2.99-.096 1.077 1.584 1.07 1.68 0" mask="url(#prefix__d)"/>
            </g>
            <path fill="#DB1606" d="M41.959 103.427c-1.233.237-2.443.596-3.605 1.072-.805.33-1.605.727-2.2 1.36-.595.634-.954 1.546-.735 2.387.292 1.116 1.503 1.776 2.653 1.854 1.15.078 2.277-.285 3.402-.54 5.105-1.161 10.416-.127 15.593.65 3.092.463 6.546.75 9.059-1.11.438-.323.858-.757.902-1.3.039-.468-.215-.91-.505-1.282-1.639-2.1-4.455-2.815-7.067-3.334-1.965-.39-3.954-.746-5.957-.691-1.41.039-2.806.28-4.21.412-3.522.33-7.144-.022-10.545.95" transform="translate(538.4 42)"/>
            <path fill="#BA0E00" d="M54.4 10.864s4.51-6.992 13.533-1.691c0 0-8.345-3.27-13.533 1.69M88.699 39.399s5.294 5.4 2.646 14.188c0 0 6.142-9.952-2.646-14.188" transform="translate(538.4 42)"/>
            <path fill="#EA2C22" d="M23.886 78.83s-4.159 7.02 3.467 11.44c0 0-4.593-3.987-3.467-11.44" transform="translate(538.4 42)"/>
            <path fill="#BA0E00" d="M74.248 105.67c.573.028 9.407.831 9.231-6.931 0 0 2.15 9.378-8.658 6.959M28.804 107.124c-.523-.075-7.066-.375-7.358-8.36 0 0-3.31 8.714 6.835 8.285" transform="translate(538.4 42)"/>
            <path fill="#E08957" d="M44.178 100.229c-7.228-2.28-7.149-9.393-7.149-9.393 1.108-2.598 5.823-2.693 5.823-2.693l2.305-.553-.01-5.052 11.532-.133.228 4.722 2.966.653s3.588.74 5.427 2.949l-4.169 5.53-3.577 3.716-8.086 1.553M22.944 60.51c.014 7.199-3.556 7.612-7.672 7.686-5.48.1-9.253-4.133-8.332-9.102.813-4.39 4.495-6.25 8.741-6.258 4.246-.008 7.25 1.183 7.263 7.674M76.865 59.34c-.014 7.198 3.069 7.97 7.185 8.035 5.889.092 8.181-3.768 8.19-8.005.008-4.237-3.426-7.678-7.672-7.687-4.246-.009-7.69 1.165-7.703 7.656" transform="translate(538.4 42)"/>
            <path fill="#EA9A67" d="M18.548 34.642c-.051 3.61-1.376 7.238-1.86 10.817-1.491 11.06-1.081 22.183 5.797 29.404 7.17 7.526 17.632 11.084 32.059 10.884 8.796-.122 26.655-6.69 29.866-18.675.656-2.45.607-6.185-.772-11.437-1.153-4.39-1.043-12.021-.274-17.598 0 0-1.67-11.052-8.925-13.627-7.254-2.575-19.946-3.836-19.946-3.836L41.44 22.838l-8.698 3.92s-14.082-.035-14.194 7.884" transform="translate(538.4 42)"/>
            <path fill="#EA80C9" d="M62.237 47.644s.736-5.663 6.176-5.67c0 0 5.075-.593 6.016 6.01 0 0-5.79-4.258-12.192-.34M40.764 47.644s-1.035-5.963-6.176-5.67c0 0-5.097-.293-6.016 6.01 0 0 5.79-4.258 12.192-.34" transform="translate(538.4 42)"/>
            <path fill="#C9804A" d="M52.436 59.001c-.515 0-.939-.409-.953-.926-.016-.527.398-.967.925-.982 1.788-.052 2.179-.885 2.316-1.507.224-1.007.01-2.349-1.326-2.816-.566-.198-1.49-.194-2.055.154-.294.181-.664.189-.965.02-.302-.167-.49-.485-.49-.83l-.007-2.64c0-.526.426-.955.953-.956h.002c.527 0 .953.426.955.952l.002 1.312c.805-.125 1.62-.029 2.235.187 2.009.7 3.061 2.77 2.56 5.031-.24 1.083-1.095 2.913-4.124 3l-.028.001" transform="translate(538.4 42)"/>
            <path fill="#D34236" d="M60.83 61.857c-8.514 2.79-15.871 1.174-19.115.15-.87-.276-1.706.488-1.523 1.388.623 3.056 2.841 8.512 10.733 9.094 8.304.611 11.073-5.143 11.456-9.257.086-.924-.674-1.662-1.55-1.375" transform="translate(538.4 42)"/>
            <path fill="#FFF" d="M45.863 66.08c4.823.732 7.647.747 11.532-.186 0 0 3.596-.701 3.52-4.052-.029.007-.055.008-.084.015-6.629 1.61-13.305 1.253-18.843.231-.142.648.273 3.445 3.875 3.992" transform="translate(538.4 42)"/>
            <path fill="#FFA67B" d="M35.125 65.847c.006 3.012-3.273 5.46-7.325 5.467-4.052.009-7.34-2.426-7.346-5.437-.007-3.012 3.273-5.46 7.325-5.467 4.051-.008 7.34 2.426 7.346 5.437M81.934 65.941c.006 3.012-3.274 5.46-7.325 5.467-4.052.008-7.341-2.426-7.347-5.438-.006-3.01 3.274-5.458 7.325-5.467 4.052-.007 7.34 2.427 7.347 5.438" transform="translate(538.4 42)"/>
            <path fill="#723E1A" d="M64.41 38.81c-.188 0-.37-.091-.48-.255-.159-.236-.122-.551.084-.744.032-.029 3.085-2.816 6.79-.153.24.173.31.499.165.755s-.46.363-.733.245c-.026-.012-2.798-1.175-5.586.1-.078.036-.16.053-.24.053M38.54 38.81c-.081 0-.163-.016-.24-.051-2.806-1.283-5.56-.114-5.587-.101-.273.118-.587.01-.733-.245-.145-.256-.075-.582.165-.755 3.701-2.66 6.759.124 6.79.153.206.193.243.508.085.744-.11.164-.293.256-.481.256" transform="translate(538.4 42)"/>
            <path fill="#EA9A67" d="M88.464 94.786s2.253.002 3.933-.752c1.808-.81 4.902-2.381 4.936-5.796.04-3.982-5.574-5.634-5.574-5.634l.855-1.723c2.05-4.906.587-5.864.587-5.864-2.834-2.324-3.536 1.718-3.536 1.718-2.424 6.813-3.83 9.617-4.851 11.43-.387.686-.355 3.06-.355 3.06" transform="translate(538.4 42)"/>
            <path fill="#E08957" d="M92.02 74.37s2.068 2.41-1.055 8.466l-.498.93 1.272-.983s3.093-5.303 1.462-7.766c0 0-.6-.53-1.181-.647M95.265 90.62s.5-.536.914-1.242c.416-.708.79-1.39 1.048-2.108 0 0 .181 2.634-1.08 4.112 0 0-2.055 2.657-4.936 2.83 0 0 4.189-1.731 4.054-3.592M93.237 84.844c-3.695-1.996-6.729 1.645-6.729 1.645s-.994 1.349-1.67 2.611c-.086.133-.166.266-.235.401.193 3.689 4.72 2.893 5.5 3.844 1.171-.119 1.51-1.384 1.07-2.315-.303-.813-.885-1.448-.826-1.924.092-.731 1.734-.555 1.734-.555 1.64.253 2.204-.699 2.243-.863.02-.026.016-.06.016-.06.505-1.797-1.103-2.784-1.103-2.784" transform="translate(538.4 42)"/>
            <path fill="#EA9A67" d="M84.375 89.478c.301-2.148 1.394-3.255 1.394-3.255s3.045-2.933 7.047-.938c0 0 1.163.561.943 1.92 0 0-.105 1.39-2.097.893 0 0-1.156-.238-1.909.857-.637.928 1.398 2.185 1.165 3.863 0 0-.256.46-1.09.9-.781-.951-5.259-.551-5.453-4.24" transform="translate(538.4 42)"/>
            <path fill="#E08957" d="M90.533 88.49s2.003 3.616 5.807 2.659c0 0 .23-.266.355-.792 0 0-4.279.45-5.23-2.04 0 0-.734-.116-.932.172M89.767 84.655s-.128-1.03 1.75-1.944l.134.029s-.765.854-1.03 1.49c-.085.204-.267.35-.486.377l-.368.048z" transform="translate(538.4 42)"/>
            <path fill="#EA9A67" d="M64.01 98.476c12.267 5.81 25.866-4.081 25.866-4.081l-3.815-6.263c-9.23 8.96-21.96 1.674-21.96 1.674s-1.383-1.014-1.845-1.014c-.46 0 .093.83.093.83l.092 4.796.37 1.753 1.198 2.305M40.434 128.1L40.434 141.719 48.373 141.719 48.79 124.052zM64.598 127.875L65.466 141.466 57.788 141.956 56.259 124.351zM38.242 98.122c-11.196 5.097-24.476-5.138-24.476-5.138l4.825-5.628c8.775 8.723 19.777 1.989 19.777 1.989l2.49-.923.645 6.365-3.096 3.333" transform="translate(538.4 42)"/>
            <path fill="#EA9A67" d="M18.382 88.102c1.223-1.971.226-5.486.209-7.827-.008-.991-.244-2.27-1.222-2.434-.926-.154-1.6.918-1.681 1.854-.08.935-.257 1.615-.503 2.626-1.328-1.32-2.254-2.742-4.251-4.46-.407-.35-1.377-.864-1.964-.567-.73.37-.716 1.18-.614 1.761.244 1.369 2.213 2.802 2.82 4.25-.71-.513-1.029-.796-1.495-1.317-.572-.64-1.564-1.541-2.368-2.077-1.209-.807-2.132-.452-2.398.477-.16.556.072 1.215.422 1.675 1.123 1.471 2.488 2.697 3.59 3.845-1.206-1.081-2.738-2.435-4.168-2.959-.622-.227-1.485-.275-1.815.724-.13.395-.115.83.132 1.164.924 1.247 2.283 2.32 3.562 3.203-1.074-.592-3.243-1.459-3.794-.4-.479.829.775 1.914 2.827 2.996 2.646 1.396 5.26 2.602 7.497 2.22.817.113 1.953.504 5.214-4.754" transform="translate(538.4 42)"/>
            <path fill="#BF7FD1" d="M66.354 142.95s.642-2.875-.77-2.83c0 0-2.228-.045-3.494.616-.4.208-.576.712-.547 1.179.041.636.124 1.582.015 2.471 0 .09.3 1.123.856 1.213.557.09 2.441-.674 2.827-.988.385-.314 1.327-.763 1.113-1.662" transform="translate(538.4 42)"/>
            <path fill="#9D4DB2" d="M66.223 142.957c-2.784-.134-3.946 1.58-4.126 1.61-.18.029-.358-.27-.358-.27-.318-.995.074-1.631-.225-2.65-.104-.352-.37-.636-.72-.745-.734-.23-2.15-.229-2.94-.16-.457.04-.831.38-.905.832-.252 1.535-.24 4.442.254 6.226 3.047 2.546 6.462 5.069 10.762 5.601 1.655.206 3.31-.346 4.36-1.74.534-.711.782-1.595.62-2.47-.168-.916-.665-1.328-1.297-2.065-1.078-1.257-2.385-2.457-4.277-3.276.146-1.069.273-1.297.026-2.697 0 0-.276-.89-1.13-.575 0 0 .27 1.93-.044 2.38" transform="translate(538.4 42)"/>
            <path fill="#FFF" d="M66.942 148.204c-.389.069-.743.034-.997-.194-.27-.24-.294-.72.014-.943 1.222-.882 2.87-1.707 4.226-1.8.434.148.997.588.84.939-.34.755-1.224.787-1.709.992-.521.22-1.53.857-2.374 1.006M65.378 146.513c-.342.142-.703.04-.99-.126-.312-.182-.36-.698.224-1.147 1.194-.918 2.279-1.527 3.638-1.527.539 0 1.302.719.398 1.189-.759.393-2.15 1.146-3.27 1.611M63.506 144.687c-.354.11-.704-.025-.973-.217-.296-.21-.295-.728.328-1.121 1.274-.805 2.41-1.31 3.762-1.186.537.05 1.231.835.287 1.22-.791.323-2.246.945-3.404 1.304" transform="translate(538.4 42)"/>
            <path fill="#C2C2C2" d="M71.933 147.306c-.809-.63-2.425-.09-3.683.808-.852.609-1.751 2.066-1.617 3.817 0 0 2.216 1.392 5.719-.404 0 0 1.841-2.463-.42-4.221" transform="translate(538.4 42)"/>
            <path fill="#BF7FD1" d="M58.251 144.605c-.171-.416-.229-.939-.1-1.392.29-1.027 1.407-1.26 1.8-.207.455.997-.177 2.411-.916 2.35-.326-.026-.612-.335-.784-.751" transform="translate(538.4 42)"/>
            <g transform="translate(538.4 42) translate(56.65 146.295)">
                <mask id="prefix__f" fill="#fff">
                    <use xlink:href="#prefix__e"/>
                </mask>
                <path fill="#A9A9A9" d="M15.867 4.918c.019-.088-3.279 2.335-8.534-.225C2.94 2.553.328.337.328.337s-.27 1.527.988 2.47C2.835 3.946 6.03 6.085 9.968 6.939c3.506.76 5.599-.674 5.899-2.021" mask="url(#prefix__f)"/>
            </g>
            <path fill="#BF7FD1" d="M39.695 142.95s-.643-2.875.77-2.83c0 0 2.227-.045 3.494.616.4.208.576.712.546 1.179-.04.636-.124 1.582-.014 2.471 0 .09-.3 1.123-.856 1.213-.558.09-2.441-.674-2.827-.988-.385-.314-1.328-.763-1.113-1.662" transform="translate(538.4 42)"/>
            <path fill="#9D4DB2" d="M39.826 142.957c2.784-.134 3.946 1.58 4.125 1.61.18.029.36-.27.36-.27.317-.995-.075-1.631.225-2.65.102-.352.369-.636.719-.745.734-.23 2.15-.229 2.94-.16.456.04.83.38.905.832.252 1.535.24 4.442-.254 6.226-3.047 2.546-6.463 5.069-10.761 5.601-1.656.206-3.311-.346-4.36-1.74-.535-.711-.783-1.595-.622-2.47.169-.916.666-1.328 1.298-2.065 1.078-1.257 2.385-2.457 4.277-3.276-.146-1.069-.273-1.297-.026-2.697 0 0 .275-.89 1.129-.575 0 0-.27 1.93.045 2.38" transform="translate(538.4 42)"/>
            <path fill="#FFF" d="M39.107 148.204c.389.069.743.034.996-.194.27-.24.296-.72-.013-.943-1.222-.882-2.87-1.707-4.226-1.8-.433.148-.997.588-.84.939.34.755 1.224.787 1.708.992.522.22 1.532.857 2.375 1.006M40.67 146.513c.342.142.704.04.99-.126.313-.182.36-.698-.224-1.147-1.194-.918-2.278-1.527-3.637-1.527-.54 0-1.303.719-.398 1.189.759.393 2.15 1.146 3.27 1.611M42.543 144.687c.353.11.704-.025.973-.217.295-.21.295-.728-.328-1.121-1.273-.805-2.41-1.31-3.763-1.186-.537.05-1.23.835-.286 1.22.791.323 2.245.945 3.404 1.304" transform="translate(538.4 42)"/>
            <path fill="#C2C2C2" d="M34.116 147.306c.808-.63 2.425-.09 3.683.808.852.609 1.752 2.066 1.617 3.817 0 0-2.216 1.392-5.72-.404 0 0-1.84-2.463.42-4.221" transform="translate(538.4 42)"/>
            <path fill="#BF7FD1" d="M47.797 144.605c.172-.416.23-.939.101-1.392-.29-1.027-1.407-1.26-1.8-.207-.456.997.177 2.411.916 2.35.326-.026.612-.335.783-.751" transform="translate(538.4 42)"/>
            <g transform="translate(538.4 42) translate(33 146.295)">
                <mask id="prefix__h" fill="#fff">
                    <use xlink:href="#prefix__g"/>
                </mask>
                <path fill="#A9A9A9" d="M.532 4.918c-.02-.088 3.279 2.335 8.533-.225C13.46 2.553 16.071.337 16.071.337s.27 1.527-.988 2.47c-1.52 1.139-4.715 3.278-8.652 4.132-3.506.76-5.6-.674-5.899-2.021" mask="url(#prefix__h)"/>
            </g>
            <path fill="#DB1606" d="M48.418 23.99c.363.81.77 1.594 1.221 2.357.828 1.399 3.015.128 2.183-1.276-.452-.763-.858-1.548-1.22-2.356-.28-.623-1.186-.772-1.73-.454-.641.375-.734 1.105-.454 1.73" transform="translate(538.4 42)"/>
            <path fill="#DB1606" d="M47.057 27.174c.134.253.282.522.537.653.196.1.425.1.644.1 1.464-.006 2.926-.01 4.389-.017.546-.002 1.12-.012 1.589-.293.418-.251.689-.685.934-1.108 1.42-2.45 2.508-5.094 3.226-7.833.235-.897-11.64-.029-12.552.183-2.42.563-3.606.614-2.128 2.893 1.163 1.792 2.357 3.53 3.361 5.422" transform="translate(538.4 42)"/>
            <path fill="#DB1606" d="M52.05 27.394c.22-1.367.575-2.714 1.127-3.986.273-.63.18-1.349-.454-1.73-.531-.318-1.458-.171-1.73.454-.644 1.486-1.123 2.988-1.382 4.59-.257 1.591 2.179 2.276 2.438.672" transform="translate(538.4 42)"/>
            <path fill="#DB1606" d="M53.119 28.575c1.878-3.27 4.02-8.066 8.612-7.23 4.822.88 5.705 5.164 7.088 9.065 1.364 3.85 6.09 11.095 11.05 8.3 1.417-.798.144-2.983-1.277-2.182-2.245 1.264-5.238-2.71-6.108-4.14-1.114-1.833-1.598-3.904-2.251-5.921-.937-2.892-2.523-5.066-5.216-6.563-2.56-1.422-5.46-1.675-8.064-.197-2.932 1.666-4.406 4.784-6.017 7.592-.811 1.414 1.372 2.689 2.183 1.276" transform="translate(538.4 42)"/>
            <path fill="#DB1606" d="M17.118 50.816c6.842-2.916 11.958-8.514 13.647-15.813 1.067-4.615 1.566-9.173 6.261-11.56 4.777-2.428 9.707.778 11.796 5.174.744 1.566 3.068.2 2.327-1.36-3.875-8.155-14.303-9.885-19.857-2.395-2.989 4.03-2.452 9.505-4.65 13.905-2.265 4.536-6.283 7.761-10.884 9.722-1.59.678-.219 3 1.36 2.327" transform="translate(538.4 42)"/>
            <path fill="#BA0E00" d="M54.593 28.49c1.475-4.33 6.223-6.767 10.602-5.683 1.263.313 1.803-1.638.538-1.95-5.487-1.359-11.256 1.71-13.091 7.095-.42 1.236 1.532 1.765 1.95.538" transform="translate(538.4 42)"/>
            <path fill="#BA0E00" d="M55.653 28.866c1.545-3.494 4.983-5.536 8.792-5.193 1.296.117 1.288-1.906 0-2.022-4.44-.4-8.735 2.113-10.539 6.194-.521 1.18 1.221 2.21 1.747 1.02" transform="translate(538.4 42)"/>
            <path fill="#BA0E00" d="M56.811 29.234c1.858-2.153 4.042-4.254 7.018-4.497 1.289-.105 1.3-2.129 0-2.023-3.563.29-6.191 2.475-8.448 5.09-.847.98.578 2.417 1.43 1.43" transform="translate(538.4 42)"/>
            <path fill="#BA0E00" d="M57.978 29.234c1.977-2.238 4.638-3.472 7.565-3.899 1.283-.186.737-2.135-.538-1.95-3.241.471-6.275 1.948-8.457 4.418-.859.973.567 2.409 1.43 1.43" transform="translate(538.4 42)"/>
            <path fill="#BA0E00" d="M59.534 29.428c1.387-1.188 3.281-2.49 5.206-2.137 1.273.234 1.818-1.715.538-1.95-2.734-.502-5.164.934-7.174 2.657-.99.848.446 2.273 1.43 1.43M51.15 28.43c-2.534-6.39-9.921-10.83-15.704-5.295-.943.903.49 2.331 1.43 1.43 4.587-4.39 10.357-.56 12.325 4.402.474 1.196 2.43.675 1.95-.537" transform="translate(538.4 42)"/>
            <path fill="#BA0E00" d="M47.86 27.767c-2.238-1.787-4.232-4.307-7.183-4.894-2.522-.502-5.011.554-6.597 2.524-.808 1.005.614 2.445 1.43 1.43 3.745-4.652 7.731-.176 10.919 2.37 1.007.805 2.448-.617 1.43-1.43" transform="translate(538.4 42)"/>
            <path fill="#BA0E00" d="M46.343 26.522c-3.989-.958-10.182-3.635-13.006.797-.702 1.1 1.048 2.117 1.746 1.021 1.986-3.115 7.908-.544 10.722.133 1.265.304 1.805-1.646.538-1.95" transform="translate(538.4 42)"/>
            <path fill="#BA0E00" d="M42.895 28.132c-2.562-1.875-4.898-1.853-7.73-.585-1.187.532-.16 2.276 1.02 1.747 2.207-.988 3.732-.848 5.69.584 1.051.77 2.062-.985 1.02-1.746M52.828 28.456c.524-5.496 7.416-7.232 11.848-6.385 1.272.242 1.818-1.706.538-1.95-5.832-1.116-13.75 1.437-14.409 8.335-.123 1.296 1.9 1.287 2.023 0" transform="translate(538.4 42)"/>
            <path fill="#DB1606" d="M68.49 20.605c-.667 4.55 2.551 11.806 4.156 14.646 1.715 3.037 1.704 4.524 4.906 5.76 3.636 1.402 6.672 3.058 9.525 2.425l-2.853-13.721-6.625-5.522-9.11-3.588z" transform="translate(538.4 42)"/>
            <path fill="#BA0E00" d="M34.79 27.034c.026-.087.2-.396.34-.608.196-.293.41-.572.635-.843.414-.498.85-1.003 1.356-1.41.43-.345.352-1.07 0-1.431-.416-.425-1.007-.34-1.43 0-.594.477-1.098 1.082-1.571 1.675-.503.63-1.038 1.297-1.28 2.078-.387 1.247 1.564 1.78 1.95.539" transform="translate(538.4 42)"/>
            <path fill="#DB1606" d="M64.893 20.11c-1.83 8.928 5.31 18.52 13.75 21.038 1.563.466 2.23-1.974.672-2.439-7.042-2.1-13.529-10.39-11.984-17.926.326-1.588-2.11-2.267-2.438-.672" transform="translate(538.4 42)"/>
            <path fill="#BA0E00" d="M45.024 28.191c-1.064-1.41-2.348-2.572-3.9-3.426-1.14-.628-2.162 1.118-1.02 1.746 1.232.679 2.323 1.574 3.173 2.7.331.44.87.657 1.384.364.432-.247.69-.948.363-1.384" transform="translate(538.4 42)"/>
            <path fill="#BA0E00" d="M46.764 28.2c-.936-1.551-2.182-2.836-3.69-3.838-1.086-.723-2.1 1.028-1.02 1.747 1.216.808 2.21 1.862 2.964 3.11.673 1.114 2.422.098 1.746-1.02" transform="translate(538.4 42)"/>
            <path fill="#BA0E00" d="M49.046 28.27c-1.412-2.318-3.37-4.203-5.75-5.508-1.143-.625-2.165 1.12-1.022 1.747 2.086 1.143 3.786 2.749 5.026 4.781.677 1.11 2.426.095 1.746-1.02" transform="translate(538.4 42)"/>
            <path fill="#BA0E00" d="M49.18 26.418c-2.095-2.51-4.674-4.862-8.17-4.627-1.291.087-1.301 2.11 0 2.023 2.97-.2 4.988 1.934 6.74 4.034.835 1 2.26-.437 1.43-1.43" transform="translate(538.4 42)"/>
            <path fill="#BA0E00" d="M40.73 23.639c-.534-.06-1.066-.205-1.575-.381-.516-.18-1.106.204-1.244.706-.153.557.189 1.064.706 1.244.69.239 1.389.372 2.112.453.544.062 1.012-.508 1.012-1.011 0-.597-.467-.95-1.012-1.011" transform="translate(538.4 42)"/>
            <path fill="#DB1606" d="M29.014 23.917s7.73 24.017-18.22 29.262l.828-18.495 11.594-11.319 5.798.552z" transform="translate(538.4 42)"/>
            <path fill="#EA2C22" d="M32.602 18.949s-5.888 1.073-8.005 12.974c0 0-3.865 13.803-12.147 15.459 0 0 8.226-6.276 10.767-17.392 2.208-9.661 9.385-11.041 9.385-11.041M28.922 15.115s-9.202 3.803-10.306 15.459c0 0-1.473 5.398-4.54 7.852-.123-1.227 1.718.736 4.294-12.515 1.66-8.53 10.552-10.796 10.552-10.796M68.918 20.022s.614 14.477 17.545 18.772c0 0-11.9-4.171-17.545-18.772M69.041 13.887s8.835-2.33 11.165 11.288c0 0-4.294-10.551-11.165-11.288" transform="translate(538.4 42)"/>
            <path fill="#BA0E00" d="M28.676 11.68s5.766-8.098 15.337-1.473c0 0-7.975-4.049-15.337 1.472M53.582 11.066s4.908-7.607 14.723-1.841c0 0-9.079-3.557-14.723 1.84" transform="translate(538.4 42)"/>
            <path fill="#EA2C22" d="M47.08 15.973s-4.663-5.521-11.901-2.822c0 0 6.134-.368 11.9 2.822" transform="translate(538.4 42)"/>
            <path fill="#DB1606" d="M35.939 19.214c-2.734 2.166-4.306 4.736-4.726 8.186-.549 4.505 1.197 10.088-2.041 13.79-1.138 1.3.76 3.214 1.905 1.905 2.932-3.351 2.684-6.974 2.622-11.154-.066-4.43.46-7.9 4.146-10.82 1.358-1.078-.56-2.973-1.906-1.907" transform="translate(538.4 42)"/>
            <path fill="#DB1606" d="M30.435 24.585c-1.275.478-2.314 1.478-3.008 2.651-.542.915-.892 2.045-.516 3.04.376.994 1.724 1.622 2.568.975.283-.217.469-.536.648-.846l1.37-2.381c.198-.343.398-.697.44-1.09.11-1.026-.891-1.835-1.87-2.163" transform="translate(538.4 42)"/>
            <path fill="#BA0E00" d="M9.637 42.144s-8.17 2.443-5.269 13.181c0 0-.439-9.405 5.269-13.18" transform="translate(538.4 42)"/>
            <path fill="#EA2C22" d="M82.894 79.35s-3.681 3.435-3.804 8.956c0 0-2.086-6.502 3.804-8.956" transform="translate(538.4 42)"/>
            <path fill="#8E37A5" d="M40.235 106.94l.027.171c.049.334-.05.679-.276.946-1.549 1.842-7.737 9.143-10.222 17.051-.15.474.01.976.405 1.267 1.007.74 3.12 2.639 6.81 3.517 2.182.52 6.612-.208 10.097 1.02 3.459 1.22 8.72-.124 12.102-2.369.049-.032.098-.06.152-.084 1.608-.748 1.927-1.115 6.504-1.078.047 0-.032 1.132 2.333.537 2.418-.608 3.38-.542 5.346-2.41.392-.371.58-.894.388-1.373-1.075-2.684-5.598-12.02-11.679-18.005-.251-.248-.388-.59-.345-.943l.003-.021c.092-.804-.665-1.423-1.478-1.225-3.47.847-13.259 1.62-18.896 1.581-.778-.005-1.39.677-1.27 1.417" transform="translate(538.4 42)"/>
            <path fill="#802C8F" d="M66.937 128.5c-2.002.206-3.877.195-5.987 1.245-1.383.688-3.083.783-4.523 1.342-1.467.57-3.845.433-5.405.45-2.932.035-5.744-.926-8.66-1.12-1.3-.085-2.613-.017-3.908-.13-2.785-.243-6.285-1.546-7.959-3.033-.295-.262-.52-.554-.65-.968-.13-.414-.109-1.31-.035-1.524 1.586-4.64 3.503-8.02 6.282-11.343-1.028 1.781-1.587 3.397-2.212 4.566-.909 1.695-.745 2.882-1.508 4.639-.58 1.335-1.063 3.025-.073 4.047.441.456 1.09.662 1.712.844.875.256 1.755.498 2.64.725.282.073.59.143.869.037.476-.181.622-.756.711-1.242.816-4.46 2.641-8.78 5.31-12.563-2.26 3.891-3.547 8.284-3.713 12.679-.018.47-.013.975.267 1.347.612.816 1.925.444 2.981.32 3.01-.351 5.958 2.02 8.82.982.251-.092.502-.215.675-.417.229-.268.283-.63.328-.97.15-1.134.085-4.52.235-5.654.237 1.26.76 5.417.997 6.677.996-.247 1.918-.705 2.789-1.25.24-.151.482-.323.608-.57.14-.28.105-.603.067-.906-.44-3.476-.913-7.549-1.351-11.026 1.984 4.344 1.985 9.033 3.925 12.4 3.968-1.512 5.726-1.106 9.631-1.66 0 0 2.216-.337 2.411-1.528.453-2.76-3.266-9.222-4.933-12.579 0 0 5.418 7.791 6.623 11.817 0 0 1.089 1.848-1.237 3.12 0 0-1.492.809-5.727 1.246" transform="translate(538.4 42)"/>
            <path fill="#FFF" d="M40.028 92.481s-.292-3.104.089-4.191c0 0 .883-.952 2.469-.3 0 0-.069 2.646.412 4.016 0 0-2.175.842-2.97.475M62.35 92.204s.39-2.966.025-4.065c0 0-.856-.731-2.475-.474 0 0-.01 2.777-.515 4.138 0 0 2.161.752 2.964.401" transform="translate(538.4 42)"/>
            <path fill="#FFF" d="M64.58 94.195s-.67 8.083-.64 12.45c.005.843-.563 1.572-1.34 1.709-4.373.773-17.85 1.962-22.302-.092-.472-.218-.787-.697-.808-1.249-.106-2.765-.518-9.054-1.303-11.12 0 0 16.497-7.93 26.393-1.698" transform="translate(538.4 42)"/>
            <path fill="#C2C2C2" d="M37.97 94.766s-.665 1.587-.748 3.15c-.092 1.723 1.017 1.226 1.203 1.143.184-.084.974-1.12 2.218-1.073 1.257.047 1.51.9 2.5.72 1.244-.228 1.587-.7 2.155-1.15.919-.728 2.22-.917 3.355-.163 1.133.754 1.949 1.125 2.815.947 1.734-.357 2.216-1.23 3.14-1.644.315-.142 1.174-.421 2.501.72 0 0 1.27 1.376 3.054.392 0 0 1.855-.594 3.054.393 0 0 1.52 1.449 2.62.482.902-.79-.52-4.526-.52-4.526s-.428-.851-1.392-1.295c-2.257-1.039-8.608-1.505-12.397-1.253-2.8.186-8.125.588-10.493 1.176-.361.09-.654.184-.858.282-.887.428-1.663.825-2.206 1.7" transform="translate(538.4 42)"/>
            <path fill="#FFF" d="M37.953 93.827s-.665 1.587-.75 3.15c-.09 1.723 1.019 1.226 1.204 1.143.185-.083.974-1.12 2.218-1.073 1.257.047 1.51.901 2.5.72 1.244-.228 1.587-.7 2.155-1.15.92-.728 2.222-.917 3.355-.163s1.949 1.125 2.816.947c1.734-.357 2.215-1.23 3.14-1.644.315-.14 1.174-.42 2.5.72 0 0 1.27 1.376 3.055.393 0 0 1.854-.595 3.054.392 0 0 1.52 1.449 2.62.482.9-.79-.52-4.525-.52-4.525s-.428-.852-1.392-1.296c-2.258-1.039-8.61-1.504-12.397-1.253-2.8.186-8.126.588-10.493 1.176-.362.09-.654.184-.858.283-.888.427-1.664.824-2.207 1.698" transform="translate(538.4 42)"/>
            <path fill="#F1ED2B" d="M21.38 21.13c-1.09-3.04-2.085-6.017-.47-8.813.088-.152.192-.308.352-.382.36-.164.749.176.955.516 1.46 2.403.8 5.02.875 7.732" transform="translate(538.4 42)"/>
            <path fill="#F1ED2B" d="M22.535 20.81c-.387-1.088-.783-2.181-1.033-3.31-.082-.37-.616-3.584.05-3.736.495-.114.337 5.932.342 6.42.014 1.54 2.41 1.545 2.396 0-.02-2.108.32-4.284-.21-6.355-.335-1.302-1.247-3.472-2.977-3.07-1.582.367-2.082 2.765-2.201 4.12-.2 2.261.576 4.473 1.323 6.569.512 1.442 2.828.82 2.31-.637" transform="translate(538.4 42)"/>
            <path fill="#F1ED2B" d="M21.528 21.474c-1.067-1.094-2.652-1.662-4.171-1.491-1.52.17-3.013.406-3.811 1.71.342 1.255 3.879 1.94 7.007.525" transform="translate(538.4 42)"/>
            <path fill="#F1ED2B" d="M22.375 20.627c-1.535-1.43-3.392-2.032-5.472-1.788-1.52.178-3.682.66-4.392 2.249-.607 1.358.867 2.393 1.99 2.768 2.054.685 4.416.324 6.37-.483 1.405-.58.789-2.9-.637-2.311-1.08.447-4.967 1.652-5.654.026v1.21c1.32-1.832 4.676-1.305 6.1.023 1.128 1.05 2.826-.64 1.695-1.694" transform="translate(538.4 42)"/>
            <path fill="#F1ED2B" d="M20.407 23.156c-1.613 1.845-2.526 3.9-2.067 6.441.03.163-.022.339.054.484.259.494 1.016.146 1.389-.269 1.795-1.999 2.836-4.66 2.874-7.347" transform="translate(538.4 42)"/>
            <path fill="#F1ED2B" d="M19.56 22.309c-1.208 1.435-2.179 3.01-2.444 4.899-.186 1.32-.378 3.85 1.327 4.252 1.717.403 2.989-1.65 3.702-2.875 1.09-1.872 1.63-3.964 1.71-6.12.057-1.542-2.339-1.54-2.397 0-.046 1.24-.266 2.458-.734 3.613-.273.671-1.303 3.112-2.122 3.007l.847.35c.261.255-.01-.55-.022-.83-.029-.596.034-1.165.193-1.74.3-1.084.917-2.01 1.634-2.862.987-1.173-.7-2.876-1.694-1.694" transform="translate(538.4 42)"/>
            <path fill="#F1ED2B" d="M22.461 22.796c1.083 2.188 3.368 3.73 5.802 3.916.21.016.437.019.614-.097.316-.208.312-.67.232-1.04-.511-2.348-2.898-3.54-5.294-3.882" transform="translate(538.4 42)"/>
            <path fill="#F1ED2B" d="M21.427 23.401c.886 1.667 2.28 3.006 4.003 3.786 1.259.57 3.585 1.365 4.569-.044.921-1.32-.084-3.281-1.03-4.303-1.245-1.347-3.066-2.017-4.836-2.303-1.508-.243-2.158 2.065-.637 2.31 1.014.165 2.038.41 2.914.971.429.274.824.603 1.11 1.03.234.35.275 1.155.588.856.352-.337-.733-.342-1.034-.438-.515-.164-1-.396-1.453-.69-.93-.603-1.608-1.412-2.125-2.384-.725-1.362-2.793-.153-2.07 1.21" transform="translate(538.4 42)"/>
            <path fill="#F1ED2B" d="M24.45 21.912c2.443-.554 4.62-2.184 5.84-4.37.146-.26.282-.549.232-.842-.071-.43-.532-.705-.967-.712-.434-.006-.844.19-1.226.397-1.673.902-3.205 2.063-4.527 3.429" transform="translate(538.4 42)"/>
            <path fill="#F1ED2B" d="M24.77 23.068c1.744-.44 3.345-1.286 4.664-2.514 1.056-.985 2.674-2.756 2.183-4.318-.556-1.774-2.578-1.56-3.893-.885-1.77.91-3.374 2.207-4.77 3.616-1.085 1.097.608 2.792 1.695 1.694.753-.76 1.546-1.47 2.42-2.09.475-.334 1.02-.591 1.48-.939.444-.333.988-1.086.399-.189-1.12 1.706-2.856 2.821-4.815 3.314-1.495.375-.862 2.687.636 2.31" transform="translate(538.4 42)"/>
            <path fill="#EFB92D" d="M19.98 19.241c-.805 1.161-1.028 2.944.423 3.733 1.355.738 3.062-.436 3.576-1.701.51-1.256-.044-2.807-1.337-3.32-1.39-.552-3.194.59-2.996 2.168.08.642.493 1.198 1.198 1.198.586 0 1.279-.552 1.198-1.198-.03-.245-.055-.045-.16.068.006-.006-.208-.037-.18-.064.053-.05.082.215.042.297-.042.086-.103.152-.175.215-.219.191-.51.09-.103.279.383.177.34-.117.583-.465.37-.532.098-1.33-.43-1.64-.596-.348-1.27-.103-1.64.43" transform="translate(538.4 42)"/>
            <path fill="#FFF" d="M27.525 52.997c.181-3.172 1.854-5.177 3.77-5.924 1.813-1.086 3.676-.776 3.676-.776 5.69-.052 7.482 4.3 7.215 7.699-.243 3.118-2.86 6.474-7.052 6.57 0 0-7.717 0-7.609-7.569" transform="translate(538.4 42)"/>
            <path fill="#FFF" d="M38.283 53.252c.038-3.437-1.23-5.748-3.159-6.988.627-.033 1.983.01 3.316.81 1.917.746 3.59 2.752 3.77 5.923.11 7.569-7.608 7.569-7.608 7.569-.113-.003-.223-.009-.333-.016 2.172-1.051 3.97-3.408 4.014-7.298" transform="translate(538.4 42)"/>
            <path fill="#94215A" d="M27.55 53.996c-.266-3.4 1.523-7.751 7.215-7.699 0 0 .133-.021.359-.033 1.928 1.24 3.198 3.55 3.16 6.988-.044 3.89-1.842 6.247-4.015 7.298-3.998-.26-6.483-3.519-6.72-6.554" transform="translate(538.4 42)"/>
            <path fill="#FFF" d="M75.457 52.997c-.18-3.172-1.854-5.177-3.77-5.924-1.813-1.086-3.676-.776-3.676-.776-5.69-.052-7.481 4.3-7.215 7.699.243 3.118 2.86 6.474 7.052 6.57 0 0 7.718 0 7.61-7.569" transform="translate(538.4 42)"/>
            <path fill="#FFF" d="M71.507 53.996c.236-3.015-1.148-6.775-5.431-7.552 1.197-.301 2.142-.147 2.142-.147 5.69-.052 7.48 4.299 7.215 7.699-.244 3.118-2.86 6.474-7.052 6.57 0 0-.872-.002-2.022-.288 3.071-.886 4.944-3.667 5.148-6.282" transform="translate(538.4 42)"/>
            <path fill="#94215A" d="M60.772 52.997c.18-3.172 1.853-5.177 3.77-5.924.523-.313 1.049-.507 1.534-.63 4.283.778 5.666 4.538 5.432 7.553-.206 2.614-2.078 5.396-5.15 6.282-2.278-.567-5.658-2.253-5.586-7.281" transform="translate(538.4 42)"/>
            <path fill="#84592D" d="M61.757 48.212s6.966-4.994 13.324 1.356c0 0-5.862-7.053-13.324-1.356" transform="translate(538.4 42)"/>
            <path fill="#723E1A" d="M75.081 50.432c-.22 0-.442-.084-.61-.253-5.748-5.74-11.95-1.449-12.211-1.263-.386.273-.918.188-1.198-.191-.28-.38-.204-.913.17-1.2 8.029-6.13 14.45 1.413 14.514 1.49.295.355.26.88-.082 1.191-.165.15-.374.226-.583.226" transform="translate(538.4 42)"/>
            <path fill="#723E1A" d="M74.26 47.926s.956.015 2.21-.628c.601-.31.641.248.59.578-.136.874-.765 1.929-1.597 2.4l-1.202-2.35z" transform="translate(538.4 42)"/>
            <path fill="#84592D" d="M41.005 48.212s-6.966-4.994-13.324 1.356c0 0 5.862-7.053 13.324-1.356" transform="translate(538.4 42)"/>
            <path fill="#723E1A" d="M27.68 50.432c-.208 0-.417-.075-.582-.226-.341-.312-.377-.836-.082-1.191.064-.077 6.485-7.62 14.514-1.49.374.287.45.822.17 1.201-.28.38-.813.464-1.198.19-.26-.186-6.463-4.476-12.21 1.263-.168.169-.39.253-.611.253" transform="translate(538.4 42)"/>
            <path fill="#723E1A" d="M28.502 47.926s-.956.015-2.21-.628c-.601-.31-.641.248-.59.578.136.874.765 1.929 1.597 2.4l1.203-2.35z" transform="translate(538.4 42)"/>
        </g>
        <g>
            <path fill="#FFF" d="M45.007 46.741c0-1.379.613-2.834 2.451-3.753 1.249-.624 3.83-.996 5.669-3.294 1.085-1.357 2.555-3.523 3.157-5.066.268-.69.451-1.397.587-2.13 1.526-8.2 3.315-19.327-3.362-25.279-4.114-3.668-9.554-5.438-14.658-6.434-4.495-.46-9.583 0-9.583 0-5.104.996-10.337 2.25-14.452 5.919-6.676 5.95-6.035 17.593-4.51 25.795.136.732.319 1.439.588 2.129.6 1.543 1.95 2.545 3.016 3.918 1.61 2.068 3.167 2.357 5.362 3.14 5.463 1.95 3.45 4.467 3.677 5.285" transform="translate(431.7 105.8)"/>
            <g transform="translate(431.7 105.8) translate(9.9 .465)">
                <mask id="prefix__j" fill="#fff">
                    <use xlink:href="#prefix__i"/>
                </mask>
                <path fill="#D68950" d="M22.355.09s1.262 10.842-3.677 14.017c-6.434 4.136-7.924 6.702-8.272 11.603 0 0-.3 9.843-5.17 13.672 0 0-4.94-4.136-4.896-12.638.04-7.667 2.265-18.427 6.275-21.83C10.405 1.7 15.346-.024 22.355.09" mask="url(#prefix__j)"/>
            </g>
            <g transform="translate(431.7 105.8) translate(35.2 .465)">
                <mask id="prefix__l" fill="#fff">
                    <use xlink:href="#prefix__k"/>
                </mask>
                <path fill="#D68950" d="M.582.09S-.68 10.932 4.26 14.107c6.433 4.136 7.924 6.702 8.272 11.603 0 0 .372 9.996 5.242 13.826 0 0 4.868-4.29 4.824-12.792-.04-7.667-2.266-18.427-6.275-21.83C12.531 1.7 7.59-.024.582.09" mask="url(#prefix__l)"/>
            </g>
            <path fill="#E4E4E4" d="M51.556 82.702s-2.97.573-3.49 2.303c-.483 1.612-.227 3.216.837 3.259 2.162.087 5.833.095 9.386.043 0 0 4.24.303 4.11-4.628-.06-2.23-.29-5.854-.29-5.854s-1.017-2.936-2.28-5.004c-1.692-2.767-1.724-7.353-4.71-8.042-2.988-.69-5.056-.69-5.056-.69s-.115 5.4.344 7.469c.46 2.068.92 7.008.575 7.697-.345.69.574 3.447.574 3.447" transform="translate(431.7 105.8)"/>
            <path fill="#CDCDCD" d="M52.016 80.864S50.81 79.6 54.142 79.83c0 0 0-5.974-2.298-6.32 0 0-.632 6.55.172 7.354" transform="translate(431.7 105.8)"/>
            <path fill="#A7602C" d="M47.535 52.141s15.395 10.11 14.706 27.804l-1.225-2.95s-1.302-3.829-4.634-7.046c-2.52-2.433-4.252-3.217-4.252-3.217s-4.825-12.868-4.595-14.59" transform="translate(431.7 105.8)"/>
            <path fill="#E4E4E4" d="M42.867 88.29c-5.664-.07-14.023.153-18.319.068-.638-.012-1.122-.578-1.037-1.211l.701-5.25-2.757-4.48.23-7.238 4.596-3.332 19.875.345 2.183 4.825s-1.838 6.894-2.413 7.928c-.573 1.034-3.093 6.92-3.093 6.92s1.345.795.571 1.287c-.16.1-.348.14-.537.138M15.452 77.883s-3.287 2.018-3.057 6.171c.279 5.015 7.786 4.268 7.786 4.268s1.848-.12.852-2.986c-.995-2.866-.679-7.453-5.581-7.453" transform="translate(431.7 105.8)"/>
            <g transform="translate(431.7 105.8) translate(14.3 45.015)">
                <mask id="prefix__n" fill="#fff">
                    <use xlink:href="#prefix__m"/>
                </mask>
                <path fill="#FFF" d="M9.226 1.666S.92 16.081.46 24.736c-.216 4.071.566 11.104 1.945 15.057-.255 1.87.817 3.276 2.716 3.455 1.222.116 2.52.318 6.009.116 1.498-.086 2.953.032 3.738-1.211 1.039-1.644.39-4.066-2.811-5.32-.087-.303-.433-.909-.433-.909-.39-1.297-1.61-2.715-1.79-7.084-.128-3.124.23-3.676.23-3.676s8.54 3.657 19.452 0c0 0 .357.552.23 3.676-.18 4.369-1.4 5.787-1.79 7.084 0 0-.346.606-.432.908-3.202 1.255-3.85 3.677-2.812 5.32.785 1.244 2.538 1.01 4.037 1.096 3.49.203 4.008.116 5.71 0 1.903-.128 2.97-1.585 2.716-3.455 1.378-3.953 2.74-11.017 2.522-15.089-.459-8.655-9.032-23.208-9.032-23.208s-11.958-2.544-21.439.17" mask="url(#prefix__n)"/>
            </g>
            <path fill="#A7602C" d="M60.484 70.889c2.135.657 4.159.509 4.159.509 3.64.25 10.774-2.46 9.714-10.613-.356-2.74-2.384-6.15-2.384-6.15-1.005-3.136 1.13-3.512 1.13-3.512 2.384-1.13 5.27 4.266 5.27 4.266 2.61 5.55 2.229 10.943-.246 15.274-3.942 6.898-13.233 6.257-13.233 6.257s-1.634.087-3.113-.078l-1.297-5.953z" transform="translate(431.7 105.8)"/>
            <path fill="#FFF" d="M21.867 9.382c-1.935.13-3.618-.506-3.675-1.348-.07-1.046 1.432-1.651 3.367-1.782 1.935-.13 3.625.134 3.709 1.368.088 1.316-1.466 1.632-3.401 1.762M45.836 9.382c1.936.13 3.619-.506 3.676-1.348.07-1.046-1.433-1.651-3.367-1.782-1.936-.13-3.626.134-3.71 1.368-.089 1.316 1.466 1.632 3.401 1.762M17.632 14.876c.072 2.304 1.944 4.289 4.233 4.333 2.838.054 4.236-1.75 4.28-4.055.045-2.305-.938-4.308-4.289-4.372-3.577-.068-4.279 2.354-4.224 4.094" transform="translate(431.7 105.8)"/>
            <path fill="#562E12" d="M19.546 14.658c-.143 2.08 1.571 4.028 3.118 4.063 1.917.043 2.865-1.591 2.898-3.676.035-2.084-.634-3.745-2.888-3.944-1.67-.147-2.961 1.142-3.128 3.557" transform="translate(431.7 105.8)"/>
            <path fill="#FFF" d="M49.764 14.876c-.072 2.304-1.945 4.289-4.234 4.333-2.838.054-4.236-1.75-4.28-4.055-.044-2.305.938-4.308 4.289-4.372 3.577-.068 4.279 2.354 4.225 4.094" transform="translate(431.7 105.8)"/>
            <path fill="#562E12" d="M47.849 14.658c.143 2.08-1.571 4.028-3.117 4.063-1.917.043-2.865-1.591-2.9-3.676-.033-2.084.635-3.745 2.89-3.944 1.67-.147 2.96 1.142 3.127 3.557" transform="translate(431.7 105.8)"/>
            <path fill="#A7602C" d="M50.522 4.385s1.992-1.072 4.29.612c2.27 1.666 3.83 3.677 6.433 6.894 2.604 3.217 4.29 3.217 5.669 5.515 1.378 2.298 1.531 6.74-1.38 18.383 0 0-2.297 9.344-4.442 10.722-1.503.967-3.07-.312-4.136-1.378-.473-.473-1.431-1.878-2.252-3.13-.833-1.274-1.047-2.847-.61-4.305.524-1.746 1.177-4.767 1.56-9.684.69-8.846 0-13.327-5.132-23.629" transform="translate(431.7 105.8)"/>
            <g transform="translate(431.7 105.8) translate(0 3.765)">
                <mask id="prefix__p" fill="#fff">
                    <use xlink:href="#prefix__o"/>
                </mask>
                <path fill="#A75D29" d="M17.779.696s-2.427-1.149-4.725.536c-2.27 1.666-3.83 3.677-6.433 6.894-2.604 3.216-4.29 3.216-5.668 5.514-1.38 2.298-1.532 6.74 1.378 18.383 0 0 2.298 9.345 4.443 10.723 1.503.966 3.069-.311 4.136-1.378.337-.338.964-1.18 1.624-2.11 1.325-1.872 1.744-4.249 1.087-6.447-.529-1.774-1.093-4.497-1.409-8.562-.69-8.847.435-13.251 5.567-23.553" mask="url(#prefix__p)"/>
            </g>
            <path fill="#C03B0C" d="M29.287 30.584s.548 3.775 4.866 3.53c3.643-.208 3.85-3.322 3.85-3.322s-3.954-3.218-4.36-3.944c0 0-2.075 3.114-4.356 3.736" transform="translate(431.7 105.8)"/>
            <path fill="#A2411F" d="M28.493 31.252c-.377 0-.777-.034-1.206-.105-2.402-.405-4.28-2.21-4.36-2.287-.309-.3-.315-.794-.015-1.103.3-.309.794-.316 1.102-.016.032.03 1.628 1.546 3.531 1.866 2.28.386 3.412-.598 4.888-2.138.36-.439.583-3.238.472-5.985-.017-.43.318-.793.75-.81.422-.009.792.317.81.748.071 1.783.127 6.049-.905 7.127-1.414 1.476-2.8 2.703-5.067 2.703" transform="translate(431.7 105.8)"/>
            <path fill="#A2411F" d="M22.35 29.442c-.28 0-.552-.152-.691-.418-.2-.38-.054-.85.325-1.051.019-.01.515-.288.868-.826.238-.36.722-.459 1.08-.222.36.237.46.72.223 1.08-.578.88-1.357 1.303-1.443 1.348-.116.06-.24.09-.361.09M38.98 31.252c-2.268 0-3.653-1.227-5.067-2.703-1.032-1.078-.976-5.344-.905-7.127.017-.42.363-.75.78-.75l.03.001c.431.018.767.38.75.81-.11 2.748.113 5.547.476 5.99 1.471 1.536 2.606 2.52 4.884 2.134 1.911-.321 3.514-1.85 3.53-1.867.31-.3.804-.29 1.103.018.3.31.293.802-.016 1.102-.078.077-1.958 1.882-4.359 2.287-.429.071-.83.105-1.206.105" transform="translate(431.7 105.8)"/>
            <path fill="#A2411F" d="M45.122 29.442c-.122 0-.245-.028-.361-.089-.086-.045-.865-.469-1.443-1.347-.238-.36-.138-.844.222-1.081.359-.237.843-.139 1.08.222.358.543.86.82.865.824.382.2.529.671.33 1.053-.14.266-.412.418-.693.418" transform="translate(431.7 105.8)"/>
            <path fill="#562E12" d="M32.656 16.01c1.731-.104 4.915-.019 6.296 1.28 1.094 1.027.21 2.945-.756 3.742 0 0-.884.704-2.126 1.645-1.325 1.005-2.51.953-2.51.953" transform="translate(431.7 105.8)"/>
            <path fill="#562E12" d="M35.041 16.01c-1.731-.104-4.914-.019-6.296 1.28-1.093 1.027-.21 2.945.756 3.742 0 0 .688.78 1.856 1.645 1.336.99 2.51.953 2.51.953" transform="translate(431.7 105.8)"/>
            <path fill="#D68950" d="M15.02 67.66s6.209-3.177 8.618-9.2c3.217-8.043-.69-14.017-.69-14.017-.23.69-.477 2.532-1.378 5.055-1.15 3.217-2.758 5.515-3.677 7.584-1.82 4.093-2.497 7.381-2.873 10.578M53.69 67.573s-6.373-3.09-8.783-9.113c-3.216-8.042.69-14.017.69-14.017.23.69.477 2.532 1.378 5.056 1.15 3.216 2.758 5.514 3.677 7.583 1.82 4.093 2.662 7.295 3.038 10.491M25.42 83.447s2.298 1.723 1.378 3.906c0 0-.804-2.298-1.378-3.906M47.05 83.963s-2.298 1.723-1.379 3.906c0 0 .804-2.297 1.38-3.906M21.231 84.136s2.298 1.723 1.38 3.906c0 0-.805-2.298-1.38-3.906M42.626 83.706s-2.298 1.724-1.379 3.907c0 0 .805-2.298 1.379-3.907" transform="translate(431.7 105.8)"/>
            <path fill="#FFF" d="M73.103 51.122s-2.045.303-1.13 3.514c0 0 1.374 2.522 1.527 3.135 0 0 .948 2.43.857 3.014 0 0 1.977-1.483 5.347-1.559-.153-.306-.927-4.759-3.349-7.094 0 0-1.276-1.685-3.252-1.01" transform="translate(431.7 105.8)"/>
            <path fill="#985323" d="M55.73 25.602c-.153 3.6-1.316 11.565-1.775 12.944-.46 1.379.689 3.906 3 6.587 2.176 2.523 4.2 1.378 4.2 1.378-4.2-.612-5.209-6.893-5.056-7.812.153-.919.307-2.605 1.226-7.66s0-9.19 0-9.19-1.518-5.822-2.131-6.281c0 0 .723 5.654.537 10.034" transform="translate(431.7 105.8)"/>
            <path fill="#8B6239" d="M39.077 48.747s6.27-.526 7.448-1.402c0 0-.284-3.436-.224-3.433 0 0-3.186.894-7.283 1.278-5.358.728-10.334-.055-10.334-.055-4.182-.612-6.356-1.35-6.356-1.35.06 0-.086 3.408-.086 3.408 1.14.92 7.3 1.554 7.3 1.554s4.674.73 9.535 0" transform="translate(431.7 105.8)"/>
            <path fill="#B2B2B2" d="M37.947 48.028c0 1.982-1.606 3.587-3.586 3.587-1.982 0-3.588-1.605-3.588-3.587 0-1.981 1.606-3.587 3.588-3.587 1.98 0 3.586 1.606 3.586 3.587" transform="translate(431.7 105.8)"/>
        </g>
        <g>
            <path fill="#FCCAB8" d="M42.501 129.847L42.533 154.654 49.565 154.654 49.935 130.058z" transform="translate(207.2 31)"/>
            <path fill="#FFF" d="M45.796 147.662l-3.341-.179s-.045.007-.107 1.118c-.062 1.124.022 6.477.022 6.477l-1.966 2.941 9.329.224-.06-8.69s.225-1.93-.053-1.93c0 0-2.646.03-3.824.039" transform="translate(207.2 31)"/>
            <path fill="#FCCAB8" d="M67.037 129.847L67.005 154.654 59.973 154.654 59.603 130.058z" transform="translate(207.2 31)"/>
            <path fill="#FFF" d="M63.742 147.662l3.341-.179s.045.007.107 1.118c.062 1.124-.022 6.477-.022 6.477l1.966 2.941-9.329.224.06-8.69s-.225-1.93.053-1.93c0 0 2.646.03 3.824.039" transform="translate(207.2 31)"/>
            <path fill="#6ACD6A" d="M68.248 153.592s.677-2.89-.813-2.845c0 0-2.348-.045-3.683.62-.421.209-.608.715-.576 1.185.042.64.13 1.59.015 2.485 0 .09.315 1.13.903 1.22.587.09 2.574-.678 2.98-.994.407-.316 1.4-.768 1.174-1.67" transform="translate(207.2 31)"/>
            <path fill="#43A746" d="M68.158 153.592c-2.8-.135-4.245 1.596-4.426 1.626-.18.03-.361-.271-.361-.271-.319-1 .075-1.64-.226-2.664-.103-.355-.371-.64-.724-.75-.737-.232-2.16-.23-2.956-.16-.459.039-.835.381-.91.835-.253 1.544-.24 4.467.255 6.261 3.064 2.56 6.499 5.097 10.822 5.633 1.665.206 3.329-.348 4.384-1.75.538-.714.787-1.603.625-2.483-.17-.922-.67-1.336-1.305-2.077-1.084-1.265-2.399-2.47-4.3-3.295.146-1.074.274-1.305.025-2.711 0 0 0-.904-.858-.587 0 0 .271 1.942-.045 2.393" transform="translate(207.2 31)"/>
            <path fill="#FFF" d="M68.604 158.876c-.391.069-.747.034-1.002-.195-.271-.242-.297-.725.014-.949 1.228-.886 2.885-1.716 4.25-1.81.435.15 1.001.592.843.944-.342.76-1.23.792-1.718.998-.524.221-1.54.861-2.387 1.012M67.031 157.176c-.344.142-.707.04-.994-.127-.315-.183-.363-.702.225-1.154 1.2-.924 2.29-1.535 3.657-1.535.542 0 1.31.722.4 1.195-.762.396-2.161 1.153-3.288 1.62M65.149 155.34c-.356.11-.708-.025-.979-.218-.297-.211-.296-.733.33-1.129 1.28-.809 2.423-1.318 3.784-1.192.54.05 1.237.84.288 1.227-.796.325-2.258.95-3.423 1.311" transform="translate(207.2 31)"/>
            <path fill="#CBCBCB" d="M73.622 157.972c-.813-.632-2.438-.09-3.702.814-.858.612-1.762 2.076-1.626 3.838 0 0 2.227 1.4 5.75-.406 0 0 1.852-2.477-.422-4.246" transform="translate(207.2 31)"/>
            <path fill="#6ACD6A" d="M59.865 155.257c-.172-.419-.23-.945-.102-1.4.292-1.033 1.416-1.267 1.811-.208.458 1.003-.178 2.424-.921 2.363-.329-.026-.615-.337-.788-.755" transform="translate(207.2 31)"/>
            <path fill="#B2B2B2" d="M74.21 161.901c.019-.088-3.297 2.349-8.58-.225-4.419-2.152-7.046-4.381-7.046-4.381s-.27 1.536.994 2.484c1.527 1.145 4.742 3.296 8.7 4.154 3.526.764 5.63-.677 5.931-2.032" transform="translate(207.2 31)"/>
            <path fill="#6ACD6A" d="M41.29 153.592s-.678-2.89.812-2.845c0 0 2.349-.045 3.684.62.421.209.608.715.576 1.185-.043.64-.13 1.59-.015 2.485 0 .09-.316 1.13-.903 1.22-.587.09-2.574-.678-2.98-.994-.407-.316-1.4-.768-1.174-1.67" transform="translate(207.2 31)"/>
            <path fill="#43A746" d="M41.38 153.592c2.8-.135 4.245 1.596 4.425 1.626.181.03.362-.271.362-.271.319-1-.075-1.64.225-2.664.104-.355.372-.64.725-.75.737-.232 2.16-.23 2.956-.16.458.039.835.381.91.835.253 1.544.24 4.467-.255 6.261-3.064 2.56-6.499 5.097-10.822 5.633-1.665.206-3.329-.348-4.384-1.75-.538-.714-.787-1.603-.625-2.483.17-.922.67-1.336 1.305-2.077 1.084-1.265 2.398-2.47 4.3-3.295-.146-1.074-.274-1.305-.025-2.711 0 0 0-.904.858-.587 0 0-.271 1.942.045 2.393" transform="translate(207.2 31)"/>
            <path fill="#FFF" d="M40.934 158.876c.391.069.747.034 1.002-.195.27-.242.297-.725-.014-.949-1.228-.886-2.885-1.716-4.25-1.81-.435.15-1.001.592-.843.944.341.76 1.23.792 1.717.998.525.221 1.54.861 2.388 1.012M42.507 157.176c.344.142.707.04.994-.127.315-.183.363-.702-.225-1.154-1.2-.924-2.29-1.535-3.657-1.535-.542 0-1.31.722-.4 1.195.762.396 2.161 1.153 3.288 1.62M44.39 155.34c.355.11.707-.025.978-.218.297-.211.296-.733-.33-1.129-1.28-.809-2.423-1.318-3.784-1.192-.54.05-1.237.84-.289 1.227.797.325 2.259.95 3.424 1.311" transform="translate(207.2 31)"/>
            <path fill="#CBCBCB" d="M35.915 157.972c.813-.632 2.44-.09 3.704.814.857.612 1.76 2.076 1.625 3.838 0 0-2.228 1.4-5.75-.406 0 0-1.852-2.477.421-4.246" transform="translate(207.2 31)"/>
            <path fill="#6ACD6A" d="M49.672 155.257c.173-.419.231-.945.103-1.4-.292-1.033-1.416-1.267-1.81-.208-.459 1.003.177 2.424.92 2.363.328-.026.615-.337.787-.755" transform="translate(207.2 31)"/>
            <path fill="#B2B2B2" d="M35.328 161.901c-.02-.088 3.297 2.349 8.581-.225 4.418-2.152 7.044-4.381 7.044-4.381s.272 1.536-.993 2.484c-1.527 1.145-4.742 3.296-8.7 4.154-3.526.764-5.63-.677-5.932-2.032" transform="translate(207.2 31)"/>
            <path fill="#009145" d="M40.096 122.367c0 3.895-.093 11.125.186 16.484 5.06.06 6.33.33 11.292.044l.58-3.27 4.536-.081.658 3.072c4.829.494 7.39.31 11.779.31.274-3.931.457-11.064.464-16.002" transform="translate(207.2 31)"/>
            <path fill="#FDC0AF" d="M52.486 112.1c-7.268-2.293-12.508-10.75-12.508-10.75 1.114-2.614 5.855-2.709 5.855-2.709l2.318-.556-.01-5.08 11.595-.134.23 4.749 2.983.656s3.307.853 5.158 3.074l-3.893 5.452-3.597 3.737-8.131 1.562" transform="translate(207.2 31)"/>
            <path fill="#FFF" d="M39.098 111.3l.195 12.904s14.815.731 30.91-.183l.058-13.352c.03-4.778-.47-9.803-.783-11.69-.076-.46-.417-.823-.869-.936-3.726-.924-7.944-1.582-7.944-1.582-1.386 2.394-3.873 4.041-6.639 4.094-2.766.053-5.532-1.992-6.307-4.205 0 0-2.926.648-6.904 1.745 0 0-1.555.503-1.583 1.844-.034 1.648-.146 10.344-.134 11.36" transform="translate(207.2 31)"/>
            <path fill="#FCCAB8" d="M73.95 102.225s9.253 8.883 19.986 2.59l3.286 6.692s-15.5 6.633-25.122-1.14l1.85-8.142z" transform="translate(207.2 31)"/>
            <path fill="#FCCAB8" d="M93.212 106.143c-.696-2.226 1.157-5.398 1.761-7.673.256-.963.808-2.15 1.801-2.063.941.081 1.328 1.294 1.171 2.226-.156.932-.155 1.639-.169 2.684 1.624-.953 2.883-2.104 5.259-3.276.484-.239 1.557-.495 2.054-.06.619.544.401 1.33.155 1.87-.58 1.27-2.856 2.172-3.81 3.43.818-.322 1.2-.517 1.785-.907.718-.48 1.91-1.108 2.827-1.428 1.38-.483 2.19.094 2.216 1.065.016.583-.375 1.166-.832 1.526-1.463 1.151-3.099 2.001-4.461 2.844 1.446-.75 3.277-1.685 4.802-1.835.662-.066 1.514.105 1.585 1.16.028.416-.096.837-.42 1.1-1.213.983-2.807 1.686-4.272 2.225 1.194-.308 3.522-.607 3.794.563.258.927-1.235 1.668-3.505 2.207-2.927.695-5.775 1.214-7.857.28-.824-.094-2.028.001-3.884-5.938" transform="translate(207.2 31)"/>
            <path fill="#FFF" d="M68.783 98.11c2.316 1.341 6.115 3.629 8.735 5.276 0 0-3.72 7.495-4.35 9.138l-3.125-1.568-5.334-2.75s-3.104-2.243-.69-7.17c0 0 1.57-3.577 4.764-2.926" transform="translate(207.2 31)"/>
            <path fill="#1790CD" d="M78.87 104.282s-1.768 5.666-4.886 8.853l-1.759-1.027s3.493-4.337 4.844-9.036l1.802 1.21z" transform="translate(207.2 31)"/>
            <path fill="#FCCAB8" d="M35.41 102.225s-9.254 8.883-19.987 2.59l-3.285 6.692s15.499 6.633 25.122-1.14l-1.85-8.142z" transform="translate(207.2 31)"/>
            <path fill="#FCCAB8" d="M16.148 106.143c.696-2.226-1.157-5.398-1.762-7.673-.255-.963-.807-2.15-1.8-2.063-.94.081-1.328 1.294-1.172 2.226.156.932.156 1.639.17 2.684-1.624-.953-2.884-2.104-5.259-3.276-.484-.239-1.558-.495-2.055-.06-.618.544-.4 1.33-.154 1.87.58 1.27 2.856 2.172 3.81 3.43-.818-.322-1.2-.517-1.786-.907-.717-.48-1.909-1.108-2.826-1.428-1.38-.483-2.19.094-2.216 1.065-.017.583.374 1.166.832 1.526 1.463 1.151 3.1 2.001 4.461 2.844-1.446-.75-3.277-1.685-4.801-1.835-.663-.066-1.516.105-1.586 1.16-.028.416.096.837.42 1.1 1.213.983 2.807 1.686 4.272 2.225-1.194-.308-3.523-.607-3.794.563-.259.927 1.235 1.668 3.505 2.207 2.927.695 5.775 1.214 7.856.28.824-.094 2.03.001 3.885-5.938" transform="translate(207.2 31)"/>
            <path fill="#FFF" d="M40.577 98.11c-2.316 1.341-6.116 3.629-8.735 5.276 0 0 3.72 7.495 4.35 9.138l3.125-1.568 5.334-2.75s3.104-2.243.69-7.17c0 0-1.57-3.577-4.764-2.926" transform="translate(207.2 31)"/>
            <path fill="#1790CD" d="M30.49 104.282s1.768 5.666 4.886 8.853l1.758-1.027s-3.492-4.337-4.843-9.036l-1.802 1.21z" transform="translate(207.2 31)"/>
            <path fill="#5FCEEC" d="M39.117 112.635c10.927 1.334 20.214.812 31.138-.548l.016 2.947c-10.925 1.36-17.676 1.856-31.069.186l-.085-2.585zM70.027 105.918c-9.804 1.069-21.005 1.099-30.819.276l-.091 2.875c9.814.823 21.197.886 31.001-.183l-.091-2.968z" transform="translate(207.2 31)"/>
            <path fill="#1790CD" d="M46.006 96.77s1.365-.854 1.83-.854c0 0 1.655 3.335 6.461 2.926 4.36-.37 5.841-2.796 5.841-2.796s.56-.07 1.719.601c0 0-1.696 4.31-8.397 4.222-5.747-.076-7.454-4.1-7.454-4.1" transform="translate(207.2 31)"/>
            <path fill="#F6B6A8" d="M25.268 69.83c.015 7.24-3.575 7.655-7.714 7.73-5.51.099-9.304-4.157-8.379-9.154.818-4.413 4.521-6.284 8.79-6.292 4.27-.008 7.29 1.189 7.303 7.716M79.49 68.653c-.014 7.24 3.085 8.016 7.225 8.08 5.921.093 8.227-3.789 8.235-8.05.009-4.26-3.445-7.72-7.715-7.728-4.27-.01-7.733 1.171-7.745 7.698" transform="translate(207.2 31)"/>
            <path fill="#FCCAB8" d="M20.096 43.788c-.05 3.632-1.409 7.278-1.902 10.876-1.524 11.122-1.092 22.307 5.988 29.574 7.381 7.575 18.144 11.162 32.982 10.975 9.047-.115 27.408-6.703 30.7-18.753.673-2.463.618-6.219-.805-11.501-1.19-4.416-1.084-12.09-.298-17.698 0 0 1.863-13.816-7.943-14.354-7.89-.432-21.767-3.232-21.767-3.232L43.63 31.94l-8.778 1.559s-14.647 2.327-14.756 10.29" transform="translate(207.2 31)"/>
            <path stroke="#F1927A" stroke-linecap="round" stroke-linejoin="round" stroke-width="1.919" d="M54.925 67.354c1.764-.052 2.91-.786 3.238-2.267.368-1.66-.252-3.35-1.954-3.946-.829-.29-1.327-.714-2.162-.436l-.448-2.782" transform="translate(207.2 31)"/>
            <path fill="#E64F3F" d="M64.928 71.184c-9.955 2.91-18.555 1.228-22.346.16-1.018-.286-1.995.51-1.781 1.45.727 3.184 3.319 8.87 12.545 9.474 9.706.635 12.946-5.363 13.393-9.651.101-.963-.787-1.732-1.811-1.433" transform="translate(207.2 31)"/>
            <path fill="#FFF" d="M47.43 75.59c5.637.762 8.939.776 13.48-.196 0 0 4.205-.733 4.117-4.226-.033.008-.065.01-.1.016-7.748 1.68-15.553 1.31-22.027.246-.166.675.32 3.59 4.53 4.16" transform="translate(207.2 31)"/>
            <path fill="#FFB4AE" d="M37.518 75.198c.006 3.028-3.292 5.488-7.366 5.496-4.074.009-7.38-2.439-7.388-5.467-.005-3.028 3.292-5.49 7.366-5.497 4.075-.009 7.382 2.44 7.388 5.468M84.586 75.292c.006 3.028-3.292 5.489-7.365 5.497-4.074.008-7.381-2.44-7.387-5.468-.006-3.028 3.291-5.49 7.365-5.497 4.074-.008 7.381 2.44 7.387 5.468" transform="translate(207.2 31)"/>
            <path stroke="#D2814A" stroke-linecap="round" stroke-linejoin="round" stroke-width="2.226" d="M66.352 49.024s1.939-1.28 7.818-2.274c0 0-4.33-.63-7.818 2.274z" transform="translate(207.2 31)"/>
            <path fill="#F3A03D" d="M9.77 50.907c1.034 5.901 4.75 13.708 7.968 19.18-.886-9.443.885-19.18 3.245-26.852.732-2.377-6.38-1.543-7.097-.43-1.328 2.066-4.499 5.91-4.115 8.102" transform="translate(207.2 31)"/>
            <path fill="#FFF" d="M29.786 62.275c.183-3.188 1.865-5.205 3.792-5.955 1.823-1.093 3.696-.781 3.696-.781 5.722-.053 7.523 4.323 7.256 7.741-.246 3.136-2.876 6.51-7.092 6.606 0 0-7.76 0-7.652-7.61" transform="translate(207.2 31)"/>
            <path fill="#FFF" d="M33.736 62.532c-.039-3.457 1.237-5.78 3.176-7.027-.63-.033-1.994.011-3.334.814-1.927.75-3.61 2.767-3.792 5.956-.108 7.611 7.652 7.611 7.652 7.611.113-.002.224-.009.334-.015-2.184-1.057-3.993-3.427-4.036-7.339" transform="translate(207.2 31)"/>
            <path fill="#1790CD" d="M44.53 63.28c.267-3.418-1.534-7.794-7.256-7.741 0 0-.135-.022-.362-.034-1.939 1.247-3.215 3.57-3.176 7.027.043 3.912 1.851 6.282 4.036 7.338 4.02-.26 6.519-3.538 6.758-6.59" transform="translate(207.2 31)"/>
            <path fill="#FFF" d="M77.985 62.275c-.182-3.188-1.864-5.205-3.791-5.955-1.823-1.093-3.696-.781-3.696-.781-5.723-.053-7.523 4.323-7.256 7.741.245 3.136 2.876 6.51 7.091 6.606 0 0 7.76 0 7.652-7.61" transform="translate(207.2 31)"/>
            <path fill="#FFF" d="M67.19 63.28c-.237-3.031 1.154-6.812 5.462-7.595-1.204-.302-2.155-.146-2.155-.146-5.722-.053-7.522 4.323-7.255 7.741.245 3.136 2.876 6.51 7.092 6.606 0 0 .875 0 2.033-.289-3.088-.891-4.972-3.688-5.177-6.317" transform="translate(207.2 31)"/>
            <path fill="#1790CD" d="M77.985 62.275c-.182-3.188-1.864-5.205-3.792-5.955-.525-.316-1.054-.511-1.541-.634-4.308.781-5.699 4.563-5.462 7.594.206 2.63 2.089 5.426 5.177 6.318 2.291-.57 5.69-2.266 5.618-7.323" transform="translate(207.2 31)"/>
            <path fill="#8D592D" d="M64.209 57.465s7.005-5.023 13.398 1.362c0 0-5.895-7.092-13.398-1.362" transform="translate(207.2 31)"/>
            <path stroke="#B16632" stroke-linecap="round" stroke-linejoin="round" stroke-width="1.739" d="M64.209 57.465s7.005-5.023 13.398 1.362c0 0-5.895-7.092-13.398-1.362z" transform="translate(207.2 31)"/>
            <path fill="#8D592D" d="M43.341 57.465s-7.004-5.023-13.398 1.362c0 0 5.895-7.092 13.398-1.362" transform="translate(207.2 31)"/>
            <path stroke="#B16632" stroke-linecap="round" stroke-linejoin="round" stroke-width="1.739" d="M43.341 57.465s-7.004-5.023-13.398 1.362c0 0 5.895-7.092 13.398-1.362z" transform="translate(207.2 31)"/>
            <path fill="#F3A03D" d="M19.36 49.284s19.296-22.57 25.82-36.442c-8.263-1.18-15.345 0-21.54 3.836-5.66 3.503-11.811 11.8-13.64 18.198-1.77 6.196-1.557 10.425-.377 16.03 0 0 5.164 0 9.738-1.917" transform="translate(207.2 31)"/>
            <path stroke="#D2814A" stroke-linecap="round" stroke-linejoin="round" stroke-width="2.226" d="M42.404 49.463s-2.047-1.1-7.992-1.56c0 0 4.255-1.018 7.992 1.56z" transform="translate(207.2 31)"/>
            <path fill="#F3A03D" d="M87.53 66.363c2.796-6.899 3.91-11.139 4.567-17.817.218-2.215.738-7.671-.59-9.738-.716-1.112-7.19-1.632-6.945.844l1.484 17.436c-.186-4.08 0 4.081 1.484 9.275" transform="translate(207.2 31)"/>
            <path fill="#F3A03D" d="M94.752 32.907c8.557-2.36 13.869-7.672 16.967-11.212-12.836-8.41-18.147-9.738-29.95-11.509 3.172-1.548 6.27-2.655 9.147-7.376C78.523-.731 65.245-.215 52.852 5.097c-5.04 2.16-12.055 6.241-15.394 10.902-.68.948.147 2.056-.478 3.034-.695 1.088-2.388 2.004-3.377 2.865-2.62 2.283-5.073 4.76-7.343 7.39-4.256 4.936-7.863 10.433-10.67 16.314-1.561 3.27 1.678-2.86 4.509-.597 1.65-7.31 2.09-4.719 9.147-7.376 7.057-2.658 15.809-2.186 23.31-2.951 8.963-.914 21.541.664 30.984 7.45 1.051.756.708 2.164 2.065 2.288 3.246.294 6.592-.382 7.672-.886 0 0 6.344-1.623 10.475-6.344 0 0-2.508-3.098-9-4.279" transform="translate(207.2 31)"/>
            <path fill="#F3A03D" d="M41.049 35.563c.222 2.666-.296 5.311-1.371 7.565 12.583.255 24.092-5.5 27.927-16.123-3.736-2.688-10.45-4.513-15.049-4.72-7.583-.343-7.182-.59-14.27 2.129-7.85 3.009-13.9 9.402-18.974 16.106-1.15 1.519-4.243 5.65-3.197 8.026.846 1.924 7.361-.73 9-1.623 3.246-1.77 11.212-4.868 15.934-11.36" transform="translate(207.2 31)"/>
            <path stroke="#F3A03D" stroke-linecap="round" stroke-width="2.662" d="M33.967 9.892c3.393 1.622 5.606 4.278 5.606 4.278s.886-6.934 2.656-8.115" transform="translate(207.2 31)"/>
            <path fill="#FFC478" d="M18.328 30.842s-2.656 4.72-2.95 8.262c0 0 4.13 2.36 15.048-4.721 0 0-.885 4.425-2.36 5.606 1.18-.59 5.606-4.72 7.671-11.213 0 0-11.212 7.672-18 7.967 0 0-.885-2.95.59-5.901M64.065 25.53s15.344-2.36 25.67.59c0 0-4.425 3.542-6.49 3.837 0 0 10.327-.886 14.753-7.377 0 0-18.885-2.36-33.933 2.95M56.467 17.665s4.964-7.233 20.355-5.77c0 0-15.958 3.082-20.355 5.77" transform="translate(207.2 31)"/>
        </g>
        <g>
            <path fill="#BE8751" d="M42.501 127.332L42.533 152.139 49.565 152.139 49.935 127.543z" transform="translate(83.3 33.2)"/>
            <path fill="#FFF" d="M45.796 145.147l-3.341-.179s-.045.007-.107 1.118c-.063 1.124.022 6.476.022 6.476l-1.967 2.942 9.33.223-.06-8.688s.225-1.932-.053-1.932c0 0-2.646.03-3.824.04" transform="translate(83.3 33.2)"/>
            <path fill="#BE8751" d="M67.037 127.332L67.005 152.139 59.972 152.139 59.602 127.543z" transform="translate(83.3 33.2)"/>
            <path fill="#FFF" d="M63.742 145.147l3.34-.179s.046.007.109 1.118c.062 1.124-.023 6.476-.023 6.476l1.966 2.942-9.328.223.059-8.688s-.225-1.932.053-1.932c0 0 2.645.03 3.824.04" transform="translate(83.3 33.2)"/>
            <path fill="#FFC139" d="M68.248 151.077s.677-2.89-.813-2.845c0 0-2.348-.046-3.683.619-.421.21-.608.716-.576 1.185.042.64.13 1.59.015 2.486 0 .09.316 1.13.903 1.22.587.09 2.574-.678 2.98-.994.407-.316 1.4-.768 1.174-1.671" transform="translate(83.3 33.2)"/>
            <path fill="#F6921E" d="M68.158 151.077c-2.8-.136-4.245 1.595-4.426 1.626-.18.03-.36-.271-.36-.271-.32-1 .075-1.64-.227-2.665-.104-.354-.371-.64-.724-.75-.737-.23-2.16-.229-2.956-.16-.459.04-.835.382-.91.836-.253 1.544-.24 4.467.255 6.261 3.064 2.56 6.499 5.097 10.822 5.633 1.665.207 3.329-.348 4.384-1.75.538-.715.787-1.604.625-2.484-.17-.92-.67-1.336-1.305-2.076-1.084-1.265-2.398-2.471-4.3-3.295.146-1.075.274-1.305.025-2.711 0 0 0-.904-.858-.588 0 0 .27 1.942-.045 2.394" transform="translate(83.3 33.2)"/>
            <path fill="#FFF" d="M68.604 156.36c-.391.07-.746.034-1.002-.194-.27-.242-.297-.725.014-.95 1.228-.885 2.885-1.715 4.25-1.809.435.149 1.002.592.843.944-.341.76-1.23.792-1.718.997-.524.222-1.539.863-2.387 1.012M67.031 154.66c-.344.143-.707.04-.995-.126-.314-.183-.362-.703.226-1.154 1.2-.924 2.29-1.535 3.657-1.535.542 0 1.31.722.4 1.195-.763.396-2.16 1.153-3.288 1.62M65.149 152.824c-.356.11-.708-.025-.979-.218-.296-.21-.296-.732.33-1.127 1.28-.81 2.423-1.319 3.784-1.193.54.05 1.237.84.288 1.227-.796.324-2.258.95-3.423 1.311" transform="translate(83.3 33.2)"/>
            <path fill="#CBCBCB" d="M73.622 155.457c-.813-.632-2.439-.09-3.702.813-.858.612-1.762 2.078-1.626 3.839 0 0 2.227 1.4 5.75-.407 0 0 1.852-2.476-.422-4.245" transform="translate(83.3 33.2)"/>
            <path fill="#FFC139" d="M59.865 152.741c-.172-.418-.23-.944-.102-1.4.292-1.032 1.416-1.267 1.811-.207.458 1.002-.178 2.424-.92 2.364-.33-.027-.617-.338-.789-.757" transform="translate(83.3 33.2)"/>
            <path fill="#B2B2B2" d="M74.21 159.386c.019-.088-3.297 2.349-8.58-.226-4.419-2.152-7.046-4.38-7.046-4.38s-.27 1.535.994 2.484c1.527 1.145 4.742 3.297 8.7 4.154 3.526.765 5.63-.677 5.931-2.032" transform="translate(83.3 33.2)"/>
            <path fill="#FFC139" d="M41.29 151.077s-.678-2.89.813-2.845c0 0 2.348-.046 3.683.619.421.21.607.716.576 1.185-.042.64-.13 1.59-.015 2.486 0 .09-.316 1.13-.903 1.22-.587.09-2.574-.678-2.98-.994-.406-.316-1.4-.768-1.174-1.671" transform="translate(83.3 33.2)"/>
            <path fill="#F6921E" d="M41.38 151.077c2.8-.136 4.245 1.595 4.425 1.626.181.03.362-.271.362-.271.319-1-.076-1.64.225-2.665.105-.354.373-.64.725-.75.737-.23 2.16-.229 2.956-.16.458.04.835.382.91.836.254 1.544.24 4.467-.255 6.261-3.064 2.56-6.498 5.097-10.823 5.633-1.664.207-3.328-.348-4.383-1.75-.538-.715-.787-1.604-.625-2.484.169-.92.67-1.336 1.305-2.076 1.084-1.265 2.398-2.471 4.3-3.295-.146-1.075-.274-1.305-.026-2.711 0 0 0-.904.859-.588 0 0-.271 1.942.045 2.394" transform="translate(83.3 33.2)"/>
            <path fill="#FFF" d="M40.934 156.36c.391.07.747.034 1.002-.194.27-.242.297-.725-.013-.95-1.23-.885-2.886-1.715-4.25-1.809-.436.149-1.002.592-.844.944.342.76 1.23.792 1.717.997.525.222 1.54.863 2.388 1.012M42.507 154.66c.344.143.707.04.995-.126.314-.183.362-.703-.226-1.154-1.2-.924-2.291-1.535-3.657-1.535-.542 0-1.31.722-.4 1.195.762.396 2.16 1.153 3.288 1.62M44.39 152.824c.355.11.707-.025.978-.218.296-.21.296-.732-.33-1.127-1.28-.81-2.423-1.319-3.784-1.193-.54.05-1.237.84-.288 1.227.796.324 2.258.95 3.423 1.311" transform="translate(83.3 33.2)"/>
            <path fill="#CBCBCB" d="M35.915 155.457c.814-.632 2.44-.09 3.704.813.856.612 1.761 2.078 1.625 3.839 0 0-2.227 1.4-5.75-.407 0 0-1.852-2.476.421-4.245" transform="translate(83.3 33.2)"/>
            <path fill="#FFC139" d="M49.672 152.741c.173-.418.231-.944.103-1.4-.292-1.032-1.416-1.267-1.81-.207-.458 1.002.177 2.424.92 2.364.328-.027.615-.338.787-.757" transform="translate(83.3 33.2)"/>
            <path fill="#B2B2B2" d="M35.328 159.386c-.019-.088 3.297 2.349 8.58-.226 4.419-2.152 7.045-4.38 7.045-4.38s.271 1.535-.992 2.484c-1.528 1.145-4.743 3.297-8.702 4.154-3.525.765-5.63-.677-5.93-2.032" transform="translate(83.3 33.2)"/>
            <path fill="#63524B" d="M40.096 119.852c0 3.896-.093 11.125.186 16.484 5.06.059 6.33.329 11.292.043l.58-3.27 4.536-.08.658 3.072c4.829.493 7.39.31 11.779.31.274-3.931.457-11.065.464-16.003" transform="translate(83.3 33.2)"/>
            <path fill="#B17A47" d="M52.486 109.586c-7.268-2.293-12.508-10.752-12.508-10.752 1.113-2.612 5.855-2.708 5.855-2.708l2.318-.556-.01-5.08 11.595-.134.23 4.749 2.983.656s3.307.852 5.158 3.073l-3.893 5.453-3.598 3.737-8.13 1.562M25.367 67.25c.014 7.24-3.575 7.655-7.715 7.73-5.51.1-9.303-4.157-8.378-9.154.817-4.413 4.521-6.283 8.79-6.291 4.27-.01 7.29 1.189 7.303 7.716M79.588 66.073c-.014 7.24 3.086 8.017 7.226 8.08 5.921.093 8.226-3.789 8.234-8.049.01-4.26-3.445-7.72-7.715-7.73-4.269-.008-7.732 1.172-7.745 7.7" transform="translate(83.3 33.2)"/>
            <path fill="#BE8751" d="M20.195 41.209c-.05 3.632-1.41 7.277-1.902 10.875-1.525 11.122-1.092 22.307 5.988 29.575 7.38 7.574 18.143 11.162 32.982 10.974 9.047-.115 27.408-6.703 30.7-18.752.672-2.463.618-6.219-.806-11.502-1.19-4.416-1.084-12.09-.298-17.697 0 0-1.727-11.116-9.19-13.711-7.464-2.596-20.52-3.875-20.52-3.875l-13.621.5-8.852 2.212s-14.373 3.437-14.481 11.4" transform="translate(83.3 33.2)"/>
            <path fill="#563A36" d="M90.516 55.527c-.627 2.527-1.28 5.56-3.154 7.193-.707.616-1.814.08-1.77-.882v-.019c.53-9.485 1.423-16.52-2.008-23.048-.268-.51-.908-1.375-.578-1.84.553-.776-10.892-20.144-10.019-19.896 14.342 4.071 18.871 19.05 18.871 22.669 0 6.197-.388 11.975-1.342 15.823" transform="translate(83.3 33.2)"/>
            <path fill="#563A36" d="M88.45 41.4C85.736 9.355 52.23 12.93 52.23 12.93c-36.488-.16-37.602 27.666-37.602 27.666s6.786 2.158 7.433.573C26.34 30.694 33.413 31.8 39.323 30.03c2.058-.616 7.377-2.052 16.156-2.212 6.085-.11 10.622-.11 16.819 1.992 7.933 2.691 11.42 9.015 11.95 9.848" transform="translate(83.3 33.2)"/>
            <path fill="#563A36" d="M14.906 56.456c.627 2.527 1.867 4.631 3.741 6.264.707.616 1.813.08 1.77-.882l-.126-2.153c-.53-9.486.147-12.762 2.213-19.549.167-.55 1.952-7.06 1.623-7.524-.553-.778 6.352-13.983 5.481-13.727-12.57 3.701-16.239 14.84-16.239 18.458 0 7.672.584 15.266 1.537 19.113" transform="translate(83.3 33.2)"/>
            <path fill="#C89261" d="M37.616 72.618c.007 3.028-3.291 5.489-7.366 5.497-4.074.008-7.381-2.44-7.387-5.467-.006-3.029 3.292-5.49 7.366-5.498 4.074-.008 7.38 2.44 7.387 5.468M84.685 72.712c.006 3.028-3.292 5.489-7.366 5.498-4.074.008-7.38-2.44-7.387-5.468-.006-3.028 3.292-5.49 7.365-5.497 4.075-.008 7.381 2.44 7.388 5.467" transform="translate(83.3 33.2)"/>
            <path fill="#FFF" d="M29.939 59.696c.183-3.19 1.865-5.206 3.792-5.956 1.822-1.093 3.696-.781 3.696-.781 5.722-.053 7.523 4.323 7.256 7.741-.246 3.136-2.877 6.51-7.092 6.607 0 0-7.76 0-7.652-7.611" transform="translate(83.3 33.2)"/>
            <path fill="#FFF" d="M33.889 59.953c-.039-3.457 1.237-5.78 3.176-7.027-.63-.033-1.995.01-3.334.814-1.928.75-3.61 2.767-3.792 5.956-.109 7.611 7.652 7.611 7.652 7.611.113-.003.224-.009.334-.016-2.185-1.057-3.993-3.427-4.036-7.338" transform="translate(83.3 33.2)"/>
            <path fill="#542E29" d="M44.683 60.7c.266-3.418-1.534-7.794-7.256-7.741 0 0-.135-.022-.362-.034-1.939 1.248-3.215 3.57-3.176 7.028.043 3.911 1.851 6.282 4.036 7.338 4.02-.261 6.519-3.538 6.758-6.59" transform="translate(83.3 33.2)"/>
            <path fill="#FFF" d="M78.138 59.696c-.182-3.19-1.864-5.206-3.792-5.956-1.822-1.093-3.696-.781-3.696-.781-5.722-.053-7.522 4.323-7.255 7.741.245 3.136 2.876 6.51 7.092 6.607 0 0 7.76 0 7.651-7.611" transform="translate(83.3 33.2)"/>
            <path fill="#FFF" d="M67.343 60.7c-.237-3.031 1.154-6.812 5.462-7.594-1.205-.302-2.155-.147-2.155-.147-5.722-.053-7.522 4.323-7.255 7.742.245 3.135 2.876 6.51 7.092 6.606 0 0 .876-.001 2.033-.29-3.088-.89-4.972-3.687-5.177-6.316" transform="translate(83.3 33.2)"/>
            <path fill="#542E29" d="M78.138 59.696c-.182-3.19-1.864-5.206-3.792-5.956-.525-.315-1.054-.511-1.541-.633-4.308.78-5.7 4.562-5.462 7.593.205 2.63 2.09 5.426 5.177 6.318 2.291-.57 5.69-2.266 5.618-7.322" transform="translate(83.3 33.2)"/>
            <path fill="#8D592D" d="M64.362 54.885s7.005-5.022 13.398 1.363c0 0-5.895-7.093-13.398-1.363" transform="translate(83.3 33.2)"/>
            <path fill="#562920" d="M77.76 57.116c-.222 0-.445-.084-.614-.254-5.78-5.77-12.017-1.455-12.28-1.27-.386.275-.921.19-1.204-.193-.28-.38-.205-.917.173-1.205 8.07-6.164 14.528 1.42 14.594 1.498.296.357.26.884-.083 1.197-.166.152-.376.227-.586.227" transform="translate(83.3 33.2)"/>
            <path fill="#8D592D" d="M43.494 54.885s-7.005-5.022-13.397 1.363c0 0 5.893-7.093 13.397-1.363" transform="translate(83.3 33.2)"/>
            <path fill="#562920" d="M30.096 57.116c-.21 0-.42-.075-.585-.227-.344-.312-.38-.84-.083-1.197.064-.078 6.52-7.663 14.593-1.498.378.288.455.826.172 1.208-.282.381-.818.465-1.205.19-.272-.193-6.503-4.497-12.277 1.27-.17.17-.392.254-.615.254" transform="translate(83.3 33.2)"/>
            <path fill="#9A6745" d="M54.858 64.477c-.517 0-.944-.411-.958-.932-.016-.53.4-.972.93-.987 1.8-.053 2.191-.89 2.33-1.515.224-1.013.01-2.362-1.334-2.833-.227-.079-.433-.167-.627-.251-.521-.224-.66-.265-.915-.18-.266.09-.56.057-.8-.09-.242-.145-.406-.39-.45-.668l-.448-2.782c-.085-.523.271-1.016.794-1.1.525-.087 1.017.272 1.1.795l.306 1.9c.453.052.838.218 1.174.363.154.067.318.138.499.202 2.02.706 3.08 2.786 2.574 5.06-.24 1.088-1.1 2.928-4.146 3.017l-.029.001" transform="translate(83.3 33.2)"/>
            <path fill="#562920" d="M66.766 47.627c-.345 0-.685-.159-.902-.456-.344-.474-.267-1.132.184-1.507 3.826-3.186 8.494-2.549 8.69-2.521.542.078.947.54.953 1.088.006.548-.387 1.02-.928 1.11-5.47.925-7.38 2.102-7.4 2.114-.184.116-.391.172-.597.172M42.81 48.071c-.175 0-.352-.041-.517-.128-.06-.03-2.082-1.012-7.56-1.436-.546-.042-.98-.475-1.023-1.022-.043-.546.318-1.042.85-1.17.194-.047 4.785-1.102 8.883 1.727.487.336.626.993.318 1.497-.209.341-.575.532-.95.532" transform="translate(83.3 33.2)"/>
            <path fill="#563A36" d="M19.406 32.907c-1.567 1.751-5.093.661-6.64-1.107-1.55-1.77-1.887-5.23-.442-7.082 1.359-1.741 3.402-3.145 5.588-2.824 2.186.32 4.115 2.311 4.016 4.518-.055 1.236-1.038 2.585-2.258 2.379-.586-.1-1.058-.53-1.446-.982-2.245-2.606-4.25-9.164-2.262-12.287 1.847-2.902 5.395-3.885 8.817-3.54 1.473.148 3.854 2.29 4.739 3.478 1.537 2.063.242 5.54-2.27 6.094-2.707.597-3.729-2.546-3.89-5.313-.16-2.766 1.371-4.833 2.982-7.088.71-.993 2.657-3.256 6.491-3.54 3.694-.274 5.872 1.971 7.075 4.53 1.204 2.561.194 6.09-2.396 7.225-1.004-3.114-.186-6.714 1.96-9.184 2.149-2.47 5.521-3.775 8.785-3.54 2.04.147 4.094.906 5.496 2.394 1.404 1.487 2.038 3.765 1.29 5.668-.515 1.306-2.012 2.41-3.284 1.817-.95-.443-1.324-1.624-1.297-2.672.076-2.961 2.506-5.422 5.234-6.576 2.429-1.028 5.276-1.245 7.692-.186 2.415 1.06 4.265 3.522 4.214 6.158-.052 2.636-2.28 5.164-4.916 5.194-.389.004-.807-.055-1.088-.322-.343-.328-.374-.862-.337-1.335.327-4.273 4.726-7.485 8.95-8.208 4.97-.853 7.789 1.012 9.23 2.555 1.988 2.13 2.654 5.803 1.275 9.757-.348.995-1.23 2.2-2.172 1.73-.415-.207-.622-.685-.695-1.142-.351-2.203 1.696-4.136 3.835-4.773 3.627-1.08 8.079.773 9.318 4.35 1.24 3.576-1.706 8.108-5.487 7.912.754-1.08 1.547-2.195 2.694-2.842 1.147-.647 2.143.233 3.03 1.207.616.676 2.97 2.956 2.97 5.528 0 2.13-.494 2.625-1.42 3.55-.852.852-2.234 1.203-4.118.994-1.048-.116-3.454-1.324-3.669-2.357" transform="translate(83.3 33.2)"/>
            <g transform="translate(83.3 33.2) translate(7.15 .48)">
                <mask id="prefix__r" fill="#fff">
                    <use xlink:href="#prefix__q"/>
                </mask>
                <path fill="#563A36" d="M51.672 7.852c.119.401.21.81.275 1.22.275-.45.58-.888.92-1.315-.39-.005-.79.025-1.195.095m-28.68 2.303c1.16.975 2.054 1.986 2.457 2.527.251.337.47.694.656 1.066.048-1.602.381-3.204.977-4.706-.447-.126-.84-.098-1.117-.078-1.377.103-2.33.616-2.974 1.19m-11.127 7.554c.246.054.488.117.726.192-.075-.434-.13-.86-.169-1.268-.133.142-.256.3-.366.472-.092.145-.156.351-.191.604M82.05 31.113c.558.053.861.008.986-.02l.156-.159c.01-.112.022-.29.022-.557 0-.187-.081-.536-.468-1.13-.635.348-1.303.616-1.991.8.177.203.333.427.465.667.246.154.608.33.83.399m.466 7.71c-.447 0-.92-.026-1.42-.082-1.544-.17-6.267-1.83-7.008-5.394-.334-1.604.386-3.185 1.689-4.02-.353-.321-.65-.711-.866-1.156-.614-1.254-.498-2.742.301-3.887.854-1.224 2.025-2.9 3.957-3.99.294-.165.647-.331 1.05-.463v-.002c-.328-.945-1.348-1.674-2.506-1.951-.139.597-.312 1.197-.52 1.795-.32.916-1.305 3.14-3.55 4.053-1.304.529-2.712.476-3.967-.15-1.475-.734-2.488-2.183-2.774-3.975-.48-3.01 1.016-5.619 3.187-7.322-.162-.41-.371-.75-.61-1.005C68.3 10.01 66.543 9.517 64.254 9.8c.032.345.045.692.038 1.04-.093 4.806-4.084 8.91-8.715 8.962-1.925.014-3.113-.743-3.786-1.387-.59-.561-1.244-1.474-1.461-2.857-.75.912-1.713 1.636-2.78 2.061-1.518.606-3.14.572-4.568-.095-2.24-1.045-3.585-3.441-3.513-6.253.028-1.126.265-2.235.683-3.29-1.24.039-2.48.416-3.516 1.054.675 2.043.627 4.325-.157 6.412-.855 2.278-2.48 4.04-4.576 4.96-.996.436-2.13.43-3.12-.016-.919-.413-1.635-1.169-2-2.1-.086.55-.228 1.1-.43 1.641-.938 2.521-2.967 4.35-5.426 4.893-.8.176-1.594.208-2.352.102.045.387.06.78.042 1.174-.082 1.875-.982 3.68-2.406 4.83-.105.085-.212.166-.32.242.436 1.274.19 2.74-.77 3.814-1.252 1.4-3.066 2.169-5.11 2.169h-.045c-2.655-.015-5.497-1.313-7.242-3.307-2.844-3.25-3.11-8.734-.58-11.977.635-.814 1.336-1.525 2.082-2.122-.207-2.465.142-4.884 1.344-6.773 2.015-3.167 5.51-5.07 9.65-5.351.243-.35.487-.69.726-1.025l.116-.163c1.254-1.755 4.133-4.754 9.336-5.14 2.438-.181 4.671.389 6.56 1.62C34.662 1.053 38.043.096 41.382.33c1.761.128 3.415.57 4.873 1.29.258-.129.522-.25.792-.364 3.592-1.52 7.504-1.582 10.732-.166.985.432 1.887.998 2.684 1.666.623-.182 1.271-.332 1.946-.448C69.32 1.12 73.327 4.13 75.1 6.029c1.072 1.148 1.868 2.532 2.375 4.064 4.444.293 8.574 3.083 10.008 7.22.622 1.796.645 3.79.123 5.68 1.244 1.392 3.295 4.048 3.295 7.384 0 3.443-1.153 4.876-2.547 6.269-1.034 1.034-2.853 2.176-5.837 2.177" mask="url(#prefix__r)"/>
            </g>
            <path fill="#563A36" d="M24.018 23.737c-2.774 2.424-1.238 7.531 2.117 9.055 3.354 1.524 7.39.262 10.359-1.92 2.914-2.142 5.272-5.405 5.293-9.023.006-1.147-.431-2.525-1.553-2.769-.434-.094-.888.01-1.301.173-2.604 1.02-3.83 4.407-2.81 7.011 1.019 2.604 3.885 4.232 6.681 4.176 2.796-.055 5.432-1.605 7.204-3.769.86-1.052 1.569-2.356 1.416-3.708-.152-1.35-1.488-2.607-2.8-2.246-.854.236-1.426 1.04-1.784 1.852-2.002 4.536-.102 8.206 4.623 9.71 3.125.993 6.911 1.539 11.171-1.585 1.953-1.432 6.835-3.837 6.984-6.254.15-2.417-1.291-5.027-3.64-5.62-2.976-.754-6.03 2.354-5.68 5.405.348 3.05 1.728 5.222 4.798 5.213 3.07-.009 7.623-1.836 9.305-4.404.37-.563.703-1.206.634-1.876-.068-.67-.708-1.313-1.36-1.147-.912 2.817-.34 6.168 1.76 8.254 2.103 2.086 5.749 2.561 8.11.774 1.103-.834 1.858-2.053 2.41-3.322.84-1.93 1.256-4.124.695-6.153-.56-2.029-2.252-3.82-4.341-4.071-2.09-.251-4.341 1.406-4.354 3.51" transform="translate(83.3 33.2)"/>
            <path fill="#563A36" d="M65.036 22.545c-.042.007-.312.113-.575.423-.266.314-.366.645-.345.82.058.515.15.898.24 1.172.582-.412 1.113-.825 1.41-1.154-.092-.664-.49-1.2-.73-1.261zm12.677 4.447c.126.202.27.386.43.546.8.792 2.326 1.009 3.083.436.29-.22.735-.708 1.205-1.79.594-1.368.777-2.645.515-3.597-.203-.735-.774-1.24-1.095-1.279-.013.009-.12.065-.159.11.035-.04.106-.188.107-.392l-3.452-.02c.272.551.449 1.148.511 1.76.203 1.977-.717 3.558-1.145 4.226zm-48.338 10.32c-1.688 0-3.323-.336-4.83-1.02-2.967-1.349-5.206-4.407-5.703-7.792-.442-3.01.522-5.801 2.647-7.657l5.058 5.788c-.128.112-.142.468-.1.752.119.812.668 1.634 1.277 1.91 1.58.719 3.598.165 5.232-.72-.152-.294-.29-.597-.413-.907-1.814-4.635.516-10.238 4.987-11.991 1.214-.477 2.398-.594 3.522-.35 1.752.38 3.133 1.58 3.903 3.257.76-.76 1.657-1.296 2.648-1.57 1.607-.44 3.352-.137 4.788.835 1.575 1.066 2.641 2.817 2.852 4.685.166 1.468-.06 3.725-2.016 6.264 1.573.443 3.001.595 4.49.16-.59-1.12-1.036-2.527-1.238-4.295-.318-2.775.87-5.71 3.1-7.66 2.122-1.856 4.797-2.553 7.342-1.908 1.976.5 3.662 1.76 4.829 3.442l.974-.248c.655-.168 1.335-.188 1.993-.07.43-.963 1.076-1.846 1.906-2.578 1.688-1.488 3.984-2.223 6.144-1.962 3.521.423 6.571 3.181 7.588 6.864.74 2.679.437 5.69-.875 8.708-.924 2.125-2.107 3.713-3.617 4.855-3.822 2.893-9.592 2.405-13.134-1.11-.382-.38-.731-.785-1.05-1.213-1.994.874-4.122 1.39-5.987 1.484-.313.201-.587.383-.786.528-5.79 4.247-11.11 3.26-14.608 2.148-1.634-.52-3.053-1.25-4.229-2.165-1.047.312-2.12.485-3.188.507-1.294.03-2.567-.178-3.761-.577l-.35.263c-2.998 2.203-6.286 3.343-9.395 3.343z" transform="translate(83.3 33.2)"/>
            <path fill="#563A36" d="M14.154 25.939c-.544 1.155-.96 2.442-.713 3.695.248 1.252 1.355 2.406 2.628 2.315 1.167-.084 2.023-1.101 2.69-2.063 1.076-1.552 2.044-3.18 2.892-4.868.233-.465.364-1.19-.127-1.362-1.021.416-.778 2.111.188 2.646.965.534 2.164.26 3.213-.083 3.697-1.213 7.307-3.295 9.29-6.644.292-.492.546-1.114.27-1.615-.447-.806-1.685-.475-2.44.054-2.104 1.472-3.665 3.705-4.323 6.187-.198.747-.313 1.563-.02 2.278.226.55.675.985 1.183 1.295 1.348.82 3.176.768 4.475-.128 1.298-.896 1.995-2.588 1.705-4.139-.467 1.529.638 3.199 2.095 3.856 1.457.658 3.14.531 4.714.248 4.452-.802 8.688-2.773 12.17-5.662.862-.715 1.74-1.617 1.752-2.736-1.09.928-2.078 2.027-2.617 3.353-.54 1.326-.576 2.91.157 4.14 1.363 2.287 4.728 2.461 7.163 1.387 2.236-.988 4.203-3.015 4.33-5.457.023-.467-.03-.967-.315-1.339-.432-.564-1.245-.659-1.952-.59-2.483.246-4.74 2.058-5.518 4.428-.39 1.193.34 1.765.869 2.903 1.009 2.168 7.353 3.711 9.738 3.541 4.13-.295 5.985-2.81 8.408-7.472-1.26 1.408-2.238 3.699-.914 5.046.506.515 1.24.739 1.953.846 2.87.432 5.932-.823 7.674-3.146-1.231.212-1.783 1.875-1.205 2.983.578 1.107 1.892 1.65 3.138 1.728.29.018.598.011.851-.133.351-.201.512-.613.647-.993.252-.707.507-1.44.455-2.19-.052-.749-.495-1.524-1.22-1.724-.724-.198-1.612.456-1.45 1.19-.173-2.658-1.209-5.407-3.38-6.947-2.17-1.542-5.592-1.41-7.164.738 2.19-.953-2.28-1.746-3.22-3.942-.94-2.196 2.092-5.82-.186-6.54-.773-.244-1.587-.423-2.391-.324-2.568.314-3.965 3.178-4.419 5.725-.082.465-.068 1.082.376 1.242.43.155.831-.277 1.074-.664 1.259-2.003 2.17-4.224 2.679-6.534l-7.315.157c-2.721.06-5.517.132-8.026 1.188-2.195.923-4.069 2.591-5.239 4.665 1.171-.296 1.752-1.666 1.734-2.874-.038-2.632-2.338-5.03-4.966-5.18-2.628-.15-5.185 1.975-5.52 4.584-.11.855.02 1.796.605 2.428.982 1.061 2.94.699 3.723-.516.784-1.214.498-2.909-.402-4.039s-2.294-1.767-3.702-2.094c-4.794-1.115-10.188 1.3-12.55 5.619-.24.439-.38 1.119.075 1.329 1.21-.762 2.037-2.104 2.173-3.528.034-.37.018-.77-.198-1.074-.422-.593-1.323-.504-2.014-.28-4.293 1.395-7.391 5.836-7.218 10.347.89-.814.157-2.52-1.031-2.722-1.19-.203-2.34.748-2.746 1.883" transform="translate(83.3 33.2)"/>
            <path fill="#563A36" d="M33.601 13.636c.39.001.772.044 1.14.129.523.121 1.01.32 1.45.591-.064-.588-.059-1.196.019-1.815-.918.202-1.807.569-2.603 1.07l-.006.025zm22.195 1.733c.554 0 1.11.12 1.63.363.843.395 1.494 1.07 1.866 1.885.658-.275 1.346-.483 2.054-.615-.01-.394.02-.811.098-1.25.078-.438.172-.864.28-1.276-2.21.05-4.458.139-6.219.88l-.072.031c.12-.012.242-.018.363-.018zM24.651 21.3l.005.005c.328-.784.722-1.538 1.176-2.251-.35-.2-.667-.443-.944-.724-.102.24-.191.483-.266.73.168.757.174 1.519.03 2.24zm-7.573-.819c.013.13.038.257.075.381.132.45.407.781.732 1.011.208-.308.45-.592.723-.845l-1.53-.547zm21.89 3.455c.459.11 1.207.073 2.226-.109 3.19-.574 6.228-1.839 8.882-3.686.01-.016.018-.033.027-.05-.127.042-.256.08-.386.112-1.478.373-3.037-.163-3.972-1.365-.89.581-1.93.947-3.023 1.042-1.585.137-3.105-.311-4.279-1.246-.026.666-.187 1.42-.573 2.244.489.52.835 1.181.974 1.923.07.377.11.756.124 1.135zm40.908-.275c.087.74-.04 1.512-.407 2.217l-.109.209c.348-.095.686-.23 1.002-.403.221-.371.478-.71.765-1.013-.22-.316-.47-.577-.743-.772-.156-.11-.33-.188-.508-.238zm-12.97 4.081c.178.01.337.012.47.003 1.367-.098 2.262-.42 3.677-2.6.218-.665.528-1.328.925-1.977-.107-.224-.192-.456-.254-.693-.874-.59-1.832-1.369-2.534-2.461-.242.258-.496.478-.755.664.194.66.271 1.38.231 2.156-.09 1.758-.713 3.441-1.76 4.908zm-50.964 8.053c-2.946 0-5.655-2.305-6.271-5.415-.37-1.87-.04-3.858 1.006-6.08l5.473 2.578c.315-.48.619-.97.91-1.465-.039-.323-.049-.651-.03-.98.026-.42.1-.828.217-1.215-.342-.554-.545-1.196-.57-1.872-.013-.337-.014-.673-.001-1.008l-3.555-1.27c.82-2.292 2.776-3.932 4.959-4.354 1.673-3.482 4.711-6.296 8.468-7.516 1.122-.366 2.22-.444 3.208-.262 3.352-2.03 7.455-2.804 11.364-1.893.263.06.52.128.773.203 1.205-.494 2.524-.736 3.87-.66 2.725.155 5.174 1.59 6.753 3.687l.01-.004c3.217-1.354 6.52-1.424 9.434-1.487l7.314-.157c.471-.01.934.066 1.368.22 1.016.066 1.902.306 2.552.512 2.147.678 3.508 2.505 3.555 4.769.023 1.143-.282 2.194-.551 3.121-.07.241-.16.553-.227.82.132.09.281.186.424.275 2.708-.89 5.904-.51 8.439 1.29 1.781 1.264 3.155 3.105 4.012 5.31 2.04.74 3.486 2.715 3.646 5.042.109 1.56-.359 2.873-.669 3.742-.205.578-.753 2.12-2.357 3.039-1.296.741-2.578.661-3.002.633-1.914-.118-3.622-.817-4.877-1.95-1.629.473-3.356.607-5.06.35-.87-.13-1.655-.363-2.35-.696-1.628 1.271-3.633 2.123-6.253 2.31-1.602.12-7.207-.486-10.817-2.854-2.69-.091-5.326-1.184-6.911-3.627-2.42 1.152-4.99 1.984-7.641 2.461-1.784.32-4.447.615-6.977-.527l-.07-.032c-2.539 1.729-5.997 1.82-8.622.222-.486-.296-.924-.636-1.31-1.014-.64.19-1.552.403-2.582.405-.348.551-.706 1.095-1.077 1.628-.659.952-2.41 3.48-5.573 3.707-.134.01-.269.014-.402.014z" transform="translate(83.3 33.2)"/>
            <path fill="#563A36" d="M78.23 20.867c-.296-.223-.754-.062-.963.245-.208.306-.226.701-.207 1.072.059 1.136.47 2.34 1.417 2.972.844.563 2.037.545 2.863-.045.825-.59 1.23-1.711.972-2.693" transform="translate(83.3 33.2)"/>
            <path fill="#563A36" d="M80.956 22.317c-.01-.021-.034-.064-.078-.118.021-.138.02-.224.02-.233.01.204.046.321.058.351m-1.081 7.099c-1.234 0-2.468-.354-3.531-1.064-1.85-1.234-2.989-3.41-3.122-5.97-.026-.494-.105-2.003.869-3.433.708-1.043 1.83-1.76 3.077-1.968 1.207-.198 2.406.088 3.372.814l-4.619 6.144c.72.542 1.633.77 2.506.624.83-.137 1.547-.596 2.019-1.291.1-.146.178-.29.238-.424l5.344-1.41c.67 2.54-.316 5.273-2.454 6.8-1.098.784-2.399 1.178-3.7 1.178" transform="translate(83.3 33.2)"/>
            <path fill="#684946" d="M24.243 21.115c-1.205 0-2.299-.535-3.143-1.573-1.679-2.066-1.546-5.312.295-7.235 1.046-1.092 2.538-1.637 4.033-1.64-.032-.319-.036-.645-.012-.976.117-1.576.872-2.956 2.07-3.783 1.2-.828 2.756-1.046 4.272-.598 1.516.447 2.704 1.477 3.26 2.824.28.68-.043 1.458-.723 1.739-.68.278-1.458-.044-1.738-.724-.243-.59-.824-1.071-1.553-1.287-.73-.215-1.479-.127-2.005.236-.525.363-.872 1.032-.928 1.79-.057.759.188 1.472.654 1.908.515.483.564 1.284.112 1.825-.454.541-1.25.635-1.815.215-1.06-.787-2.792-.641-3.705.312-.913.954-.984 2.69-.15 3.714.512.632 1.087.749 1.926.39.674-.288 1.458.024 1.748.7.289.676-.024 1.459-.7 1.748-.649.278-1.288.415-1.898.415M78.965 19.133c-1.217 0-2.207-.626-2.765-1.803-.316-.664-.033-1.458.632-1.773.663-.315 1.457-.032 1.773.632.11.231.224.469 1.051.121.324-.152.543-.42.625-.794.13-.603-.115-1.38-.627-1.981-.37-.435-1.007-.676-1.694-.634-.445.024-.854.158-1.174.377-.21.297-.469.558-.775.775-.524.372-1.24.313-1.7-.138-.46-.451-.53-1.166-.169-1.698.164-.241.353-.463.565-.666.076-.243.034-.519.003-.66-.146-.654-.639-1.215-1.146-1.305-1.346-.238-2.677 1.094-3.032 2.44-.188.712-.917 1.137-1.626.949-.711-.187-1.135-.915-.948-1.626.66-2.51 3.171-4.897 6.072-4.384 1.571.279 2.885 1.616 3.274 3.331.169-.026.34-.044.513-.053 1.508-.086 2.96.504 3.864 1.567 1.062 1.247 1.512 2.843 1.2 4.271-.258 1.19-1.02 2.135-2.145 2.662-.624.263-1.22.39-1.77.39M40.186 16.73c-1.234 0-2.61-.94-3.306-3.024-.404-1.213.052-3.09 1.083-4.466 1.449-1.931 3.504-2.058 5.156-2.16 1.277-.082 2.514.31 3.477 1.01.13-.197.275-.385.433-.565.91-1.035 2.17-1.655 3.455-1.702 1.293-.05 2.587.48 3.57 1.443.983.965 1.535 2.256 1.513 3.542-.013.735-.623 1.331-1.354 1.308-.735-.013-1.32-.62-1.308-1.354.01-.558-.251-1.14-.715-1.595-.464-.455-1.066-.7-1.608-.684-.558.02-1.125.312-1.555.8-.43.489-.647 1.087-.596 1.643.064.701-.43 1.33-1.126 1.437-.689.101-1.353-.35-1.5-1.038-.221-1.029-1.462-1.64-2.523-1.588-1.685.104-2.549.246-3.189 1.1-.643.857-.749 1.79-.685 2.034.276.829.645 1.123.781 1.186.667-.163 1.357.21 1.577.872.233.697-.144 1.451-.842 1.683-.235.08-.483.119-.738.119M30.35 32.278c-2.286 0-3.974-1.295-4.293-3.374-.112-.726.387-1.406 1.114-1.517.726-.114 1.405.387 1.517 1.113.165 1.076 1.222 1.186 2.078 1.092 1.056-.117 2.34-.684 2.963-1.885-.323-.885-.391-1.827-.175-2.71.09-.371.336-.685.674-.863.534-.28 1.16-.276 1.715.01.605.313 1.036.921 1.125 1.587.089.674-.188 1.184-.354 1.489-.027.052-.06.103-.08.158l-.023.113c.03.04.063.082.098.122.511.607 1.213.945 1.86.895.653-.047 1.294-.477 1.715-1.15.42-.673.526-1.437.282-2.044-.275-.682.056-1.458.738-1.732.685-.274 1.457.057 1.731.739.561 1.394.376 3.057-.494 4.448-.87 1.392-2.284 2.287-3.783 2.394-1.198.079-2.414-.336-3.393-1.148-1.127 1.312-2.776 2.053-4.305 2.223-.242.027-.479.04-.71.04" transform="translate(83.3 33.2)"/>
            <path fill="#684946" d="M24.018 32.756c-.694 0-1.374-.148-1.986-.44-1.158-.556-2.061-1.626-2.477-2.938-.057-.18-.104-.36-.14-.541-.7.197-1.433.234-2.14.09-2.055-.42-3.515-2.372-3.256-4.353.324-2.466 2.094-3.774 4.85-3.599.734.048 1.29.681 1.242 1.414-.047.734-.681 1.29-1.414 1.243-1.706-.114-1.94.546-2.038 1.289-.077.582.482 1.262 1.149 1.398.735.147 1.64-.236 2.194-.94.43-.547 1.206-.672 1.785-.286.578.386.762 1.15.424 1.758-.27.48-.313 1.109-.119 1.723.195.613.592 1.102 1.09 1.34.498.24 1.127.242 1.727.009.6-.233 1.063-.66 1.269-1.172.275-.682 1.049-1.012 1.732-.738.682.275 1.012 1.05.737 1.732-.48 1.191-1.491 2.16-2.775 2.659-.604.235-1.234.352-1.854.352M55.544 27.484c-.703 0-1.453-.096-2.245-.292-1.313-.323-2.494-1.175-3.16-2.278-.042-.07-.082-.142-.12-.214-.34.163-.708.3-1.1.394-1.424.34-2.879-.021-3.8-.941-.613-.612-1.006-1.471-1.137-2.486-.312-2.428.984-4.918 3.151-6.056.652-.342 1.456-.092 1.798.56.341.65.091 1.455-.56 1.797-1.183.621-1.918 2.034-1.748 3.36.053.418.187.752.376.94.265.264.786.358 1.301.237.537-.129 1.101-.454 1.83-1.053.441-.367 1.069-.407 1.556-.1.486.307.72.89.581 1.448-.057.229-.006.478.152.74.295.487.904.917 1.517 1.068 3.006.741 4.038-.553 4.557-1.591.06-.16.152-.75.138-1.002l-.079-.224c-.042-.12-.124-.357-.196-.528-.34-.195-.591-.538-.654-.955-.11-.727.39-1.405 1.116-1.515 1.426-.222 1.987 1.367 2.25 2.129.029.083.053.156.074.21.343.864.016 2.506-.268 3.076-1.077 2.153-2.93 3.276-5.33 3.276M74.8 31.255c-.465 0-.93-.055-1.387-.17-1.215-.306-2.32-1.001-3.172-1.953-2.549.507-4.86-.514-6.019-2.07-.852-1.143-1.213-2.61-.993-4.025.216-1.385.988-2.612 2.173-3.459.597-.426 1.43-.289 1.856.31.427.598.29 1.43-.31 1.857-.765.546-1.015 1.227-1.089 1.702-.11.703.077 1.46.498 2.025.485.652 1.38 1.11 2.452 1.133-.136-.454-.243-1.053-.084-1.698.252-1.02 1.15-1.754 2.289-1.87 1.139-.117 2.167.42 2.62 1.366.575 1.203.238 2.709-.719 3.565.354.25.744.434 1.149.536 1.173.297 2.514-.145 3.19-1.044.535-.711.651-1.383-.197-3.08-.329-.657-.062-1.457.596-1.786.658-.327 1.456-.06 1.786.596.86 1.721 1.526 3.765-.057 5.87-1.042 1.384-2.801 2.195-4.582 2.195" transform="translate(83.3 33.2)"/>
            <path fill="#684946" d="M83.087 33.552c-.806 0-1.611-.168-2.298-.44-1.639-.649-2.836-2.263-2.98-4.018-.06-.733.485-1.375 1.218-1.435.718-.058 1.376.485 1.435 1.218.062.757.599 1.48 1.306 1.76.902.357 1.977.336 2.399-.045.146-.149.204-.696.102-.906-.613-.365-.83-1.151-.488-1.78.346-.637 1.139-.88 1.781-.546l.091.05c.524.276 1.221.263 1.878-.036.675-.309 1.148-.849 1.266-1.445.117-.595-.116-1.274-.625-1.816-.507-.541-1.17-.813-1.773-.739-.732.09-1.398-.418-1.493-1.147-.095-.728.418-1.397 1.147-1.492 1.454-.189 2.969.392 4.06 1.557 1.094 1.165 1.578 2.717 1.295 4.15-.282 1.436-1.318 2.688-2.77 3.353-.54.246-1.102.396-1.662.45-.053.915-.423 1.778-1.023 2.321-.777.703-1.82.986-2.866.986M64.319 9.63c-.544 0-1.055-.335-1.251-.877-.212-.583-.807-1.057-1.555-1.237-.747-.18-1.494-.028-1.947.395-.538.502-1.38.472-1.881-.065-.502-.537-.472-1.38.065-1.881 1.117-1.041 2.756-1.43 4.386-1.037 1.63.392 2.914 1.483 3.434 2.917.25.692-.107 1.455-.797 1.705-.15.055-.303.08-.454.08" transform="translate(83.3 33.2)"/>
            <path fill="#563A36" d="M14.35 49.931c-3.243 0-6.194-3.018-6.762-6.966-.1-.693-.119-1.387-.06-2.065-1.101-1.285-1.815-3.067-1.893-4.901-.113-2.645 1.07-5.148 3.087-6.533 1.708-1.174 3.545-1.3 4.759-1.384 1.974-.12 3.671 1.35 3.806 3.316.112 1.626-.884 3.072-2.344 3.602.504.266.944.654 1.275 1.14.53.776.725 1.717.569 2.62h.014c1.982-.076 3.611 1.501 3.664 3.472.113 4.193-2.491 7.573-5.928 7.696-.062.002-.125.003-.187.003M91.657 48.562l-.168-.003c-3.13-.11-5.499-3.188-5.396-7.004.05-1.793 1.53-3.207 3.335-3.159h.013c-.143-.822.035-1.679.517-2.385.302-.441.702-.794 1.16-1.037-1.329-.482-2.234-1.798-2.132-3.277.122-1.789 1.68-3.146 3.462-3.018 1.106.076 2.776.19 4.332 1.26 1.835 1.26 2.911 3.539 2.809 5.945-.072 1.67-.721 3.29-1.723 4.46.053.616.037 1.248-.054 1.879-.518 3.592-3.204 6.339-6.155 6.339" transform="translate(83.3 33.2)"/>
            <path fill="#C83831" d="M65.53 68.676c-9.955 2.91-18.555 1.227-22.346.16-1.018-.287-1.995.51-1.78 1.448.726 3.185 3.318 8.871 12.544 9.475 9.707.636 12.945-5.362 13.394-9.65.1-.964-.787-1.733-1.812-1.433" transform="translate(83.3 33.2)"/>
            <path fill="#FFF" d="M48.032 73.081c5.638.762 8.94.777 13.481-.196 0 0 4.204-.732 4.116-4.225-.033.007-.065.009-.1.016-7.748 1.68-15.552 1.309-22.027.246-.165.674.32 3.59 4.53 4.159" transform="translate(83.3 33.2)"/>
            <path fill="#684946" d="M16.274 48.769c-.278 0-.538-.176-.63-.455-.117-.349.071-.726.42-.842 1.852-.617 3.675-.624 3.751-.624.368 0 .665.297.665.665 0 .367-.297.665-.664.666-.017 0-1.69.008-3.33.556-.07.023-.142.034-.212.034M16.273 52.605c-.33 0-.617-.246-.659-.583-.045-.365.213-.698.578-.743 2.374-.297 3.29-.3 3.328-.3.367 0 .665.298.665.665 0 .368-.297.666-.664.666-.032 0-.924.01-3.164.29-.028.003-.056.005-.084.005M89.966 48.769c-.07 0-.14-.011-.21-.034-1.65-.55-3.314-.556-3.33-.556-.368 0-.666-.299-.666-.666 0-.367.298-.665.665-.665.077 0 1.9.007 3.752.624.349.116.537.493.42.842-.092.279-.352.455-.63.455M89.967 52.605c-.028 0-.055-.002-.083-.006-2.27-.282-3.156-.289-3.164-.289-.368-.001-.665-.3-.664-.667 0-.367.298-.664.665-.664.037 0 .954.003 3.328.3.365.045.623.378.577.743-.041.336-.328.583-.659.583" transform="translate(83.3 33.2)"/>
            <path fill="#EE5D30" d="M39.098 108.784l.195 12.905s14.815.731 30.91-.183l.058-13.352c.03-4.778-.47-9.803-.783-11.69-.076-.46-.417-.824-.87-.936-3.726-.924-7.943-1.582-7.943-1.582-1.386 2.393-3.873 4.041-6.639 4.094-2.766.053-5.533-1.992-6.307-4.205 0 0-2.926.648-6.904 1.745 0 0-1.555.503-1.583 1.845-.034 1.646-.146 10.343-.134 11.36" transform="translate(83.3 33.2)"/>
            <path fill="#BE8751" d="M73.95 99.71s9.253 8.882 19.987 2.59l3.285 6.692s-15.5 6.633-25.122-1.14l1.85-8.142z" transform="translate(83.3 33.2)"/>
            <path fill="#BE8751" d="M93.212 103.628c-.696-2.226 1.157-5.398 1.761-7.674.256-.963.808-2.148 1.8-2.063.942.082 1.33 1.296 1.172 2.227-.156.931-.155 1.638-.169 2.684 1.624-.953 2.883-2.105 5.259-3.276.484-.239 1.557-.496 2.054-.059.619.543.401 1.33.155 1.868-.58 1.272-2.856 2.173-3.81 3.431.818-.322 1.2-.517 1.785-.908.718-.48 1.91-1.107 2.827-1.428 1.38-.482 2.189.096 2.216 1.066.016.582-.375 1.166-.832 1.526-1.463 1.15-3.1 2.001-4.461 2.844 1.446-.751 3.277-1.685 4.802-1.835.662-.066 1.514.104 1.585 1.16.028.416-.095.836-.42 1.1-1.213.983-2.807 1.685-4.272 2.224 1.194-.306 3.522-.606 3.794.564.258.926-1.235 1.668-3.504 2.207-2.928.696-5.776 1.214-7.858.28-.824-.095-2.029 0-3.884-5.938" transform="translate(83.3 33.2)"/>
            <path fill="#EE5D30" d="M68.783 95.596c2.316 1.34 6.115 3.627 8.735 5.275 0 0-3.72 7.495-4.35 9.138l-3.125-1.569-5.334-2.75s-3.105-2.243-.69-7.17c0 0 1.571-3.576 4.764-2.924" transform="translate(83.3 33.2)"/>
            <path fill="#FFF" d="M78.87 101.766s-1.769 5.667-4.887 8.854l-1.757-1.027s3.492-4.336 4.843-9.036l1.802 1.21z" transform="translate(83.3 33.2)"/>
            <path fill="#BE8751" d="M35.41 99.71s-9.253 8.882-19.987 2.59l-3.285 6.692s15.499 6.633 25.122-1.14l-1.85-8.142z" transform="translate(83.3 33.2)"/>
            <path fill="#BE8751" d="M16.148 103.628c.696-2.226-1.157-5.398-1.761-7.674-.256-.963-.808-2.148-1.801-2.063-.941.082-1.328 1.296-1.172 2.227.157.931.156 1.638.17 2.684-1.624-.953-2.883-2.105-5.259-3.276-.484-.239-1.557-.496-2.055-.059-.618.543-.4 1.33-.155 1.868.58 1.272 2.856 2.173 3.811 3.431-.818-.322-1.2-.517-1.786-.908-.717-.48-1.91-1.107-2.826-1.428-1.38-.482-2.189.096-2.216 1.066-.016.582.375 1.166.832 1.526 1.463 1.15 3.099 2.001 4.461 2.844-1.446-.751-3.277-1.685-4.802-1.835-.662-.066-1.515.104-1.585 1.16-.028.416.095.836.42 1.1 1.213.983 2.807 1.685 4.273 2.224-1.195-.306-3.524-.606-3.795.564-.258.926 1.234 1.668 3.504 2.207 2.928.696 5.776 1.214 7.858.28.823-.095 2.029 0 3.884-5.938" transform="translate(83.3 33.2)"/>
            <path fill="#EE5D30" d="M40.577 95.596c-2.317 1.34-6.115 3.627-8.735 5.275 0 0 3.72 7.495 4.35 9.138l3.124-1.569 5.335-2.75s3.105-2.243.69-7.17c0 0-1.571-3.576-4.764-2.924" transform="translate(83.3 33.2)"/>
            <path fill="#FFF" d="M30.489 101.766s1.77 5.667 4.887 8.854l1.758-1.027s-3.492-4.336-4.843-9.036l-1.802 1.21z" transform="translate(83.3 33.2)"/>
            <path fill="#F6921E" d="M53.906 111.1c-.423 0-.84-.023-1.227-.088-.204-.035-.583-.099-.814-.397-.196-.255-.2-.57-.203-.779l-.132-9.324c-.005-.324-.012-.767.231-1.136.101-.153.307-.194.461-.094.154.102.196.308.094.462-.12.181-.126.45-.121.758l.132 9.326c.002.127.004.3.065.38.063.081.228.119.397.148.796.135 1.78.069 2.65.01.246-.016.486-.032.715-.044.187.003.34.132.35.316.008.183-.133.34-.317.349-.226.01-.462.027-.704.043-.504.034-1.045.07-1.577.07" transform="translate(83.3 33.2)"/>
            <path fill="#FFF" d="M53.403 97.487c.154.04.294.16.344.312.051.15.022.342-.088.457-1.805 1.886-2.182 2.582-3.461 3.577-2.106-1.359-3.246-2.364-4.717-4.712-.205-.327-.405-.688-.377-1.073 0 0 .553-1.77 2.766-2.324 0 0 1.12 2.625 5.533 3.763M54.648 97.487c-.154.04-.295.16-.345.312-.05.15-.017.338.088.457 1.476 1.668 2.39 2.4 3.462 3.577 2.106-1.359 3.246-2.364 4.717-4.712.204-.327.405-.688.377-1.073 0 0-.553-1.77-2.766-2.324 0 0-1.12 2.625-5.533 3.763" transform="translate(83.3 33.2)"/>
            <path fill="#F6921E" d="M55.395 103.021c0 .55-.446.996-.996.996s-.996-.446-.996-.996.446-.997.996-.997.996.447.996.997M55.395 107.336c0 .55-.446.996-.996.996s-.996-.446-.996-.996.446-.996.996-.996.996.446.996.996" transform="translate(83.3 33.2)"/>
        </g>
    </g>
</svg>
