<svg xmlns="http://www.w3.org/2000/svg" width="105" height="87" viewBox="0 0 105 87">
    <g fill="none" fill-rule="evenodd">
        <path fill="#FFF" d="M14.685 46.289L8.024 46.202 8.082 41.274 27.895 41.503 27.837 46.431 20.698 46.343 21.106 63.402 14.245 63.319zM33.508 53.214c0 4.076 2.174 6.568 5.568 6.568 3.452 0 5.448-2.717 5.448-6.624 0-3.729-2.046-6.558-5.488-6.558-3.354 0-5.528 2.628-5.528 6.614m16.407-.243c0 7.052-4.289 11.541-11.137 11.541-6.882 0-10.661-5.1-10.661-11.191 0-6.384 4.231-11.451 11.03-11.451 7.138 0 10.768 5.229 10.768 11.101M80.245 53.214c0 4.076 2.173 6.568 5.567 6.568 3.452 0 5.448-2.717 5.448-6.624 0-3.729-2.045-6.558-5.487-6.558-3.355 0-5.528 2.628-5.528 6.614m16.593-.243c0 7.052-4.29 11.541-11.138 11.541-6.882 0-10.66-5.1-10.66-11.191 0-6.384 4.23-11.451 11.03-11.451 7.138 0 10.768 5.229 10.768 11.101M58.232 58.39c.29.06 2.05.06 2.424.06 3.573.045 6.214-1.893 6.214-6.48 0-3.974-2.397-5.844-5.702-5.844-.863 0-2.654.067-2.936.135V58.39zm-5.365 4.77l-.02-21.603 6.86-.097c4.138 0 6.732.665 8.878 2.12 2.377 1.621 3.906 4.278 3.906 8.194 0 4.341-1.665 7.165-3.77 8.787-2.37 1.819-5.908 2.625-10.127 2.625l-5.727-.025zM12.367 78.709L4.747 78.709 4.747 81.937 13 81.992 13.061 85.77 0 85.77.592 68.295 12.235 68.362 12.184 72.09 4.747 72.09 4.747 74.915 12.352 75.056zM20.739 86.274H16.06l.49-17.513h5.112l5.526 10.67.163-10.67h3.918l.045 17.513h-5.01l-3.005-5.82c-.986-1.858-2.137-4.21-2.985-6.327h-.092l.517 12.147zM49.911 85.323c-1.335.442-3.807.994-6.121.994-3.479 0-5.865-.857-7.456-2.364-1.67-1.553-2.538-3.813-2.525-6.32.026-6.087 4.832-9.202 10.356-9.18 1.641.007 3.129.24 4.333.704v3.992c-1.225-.423-2.341-.83-4.36-.83-2.925 0-5.763 1.513-5.763 5.073 0 3.26 2.561 5.157 5.467 5.157.651 0 1.65-.058 1.88-.15v-3.013h-2.76v-3.644h6.495l.454 9.581zM53.164 68.943L57.42 68.943 57.543 82.526 64.216 82.516 64.368 86.455 52.796 86.455zM71.69 68.785L72.163 85.971 67.416 85.971 67.759 68.798zM75.984 82.18c1.42.449 2.802.776 4.577.732 1.623-.04 2.586-.81 2.564-1.693-.02-.838-.66-1.414-2.63-2.181-3.216-1.253-5.271-2.77-5.385-4.884-.167-3.095 2.389-5.378 6.865-5.487 2.116-.051 3.328.343 4.794.757l-.964 3.542c-1.233-.333-2.41-.622-3.759-.615-1.95.01-2.313.764-2.292 1.387.03.89 1.025 1.313 3.28 2.084 3.224 1.078 4.692 2.731 4.753 5.167.075 3.026-2.24 5.655-7.413 5.78-2.135.053-4.22-.448-5.239-.937l.849-3.653zM94.658 68.483L94.535 74.935 100.106 74.935 100.106 68.459 104.208 68.459 104.861 85.971 100.382 85.971 100.168 79.027 94.358 79.001 94.107 85.971 89.577 85.971 90.373 68.459zM70.486 35.507l-36.106.267c-.188.001-.342-.15-.342-.339V32.9c0-.188.152-.34.34-.34h36.106c.187 0 .34.152.34.34v2.268c0 .186-.151.338-.338.34"/>
        <path fill="#1F96DB" d="M39.589 30.62h-3.673c-.342 0-.622-.244-.636-.553l-.364-12.182c-.015-.328.274-.6.636-.6h4.675c.367 0 .658.28.636.611l-.639 12.183c-.02.304-.299.542-.635.542"/>
        <path fill="#9857DB" d="M49.538 30.62h-4.66c-.366 0-.658-.272-.643-.6l.556-12.182c.013-.31.298-.554.644-.554h3.916c.356 0 .645.258.645.577l.187 12.183c0 .318-.289.577-.645.577"/>
        <path fill="#E6801B" d="M59.218 30.62h-3.862c-.345 0-.627-.25-.634-.565l-.273-12.182c-.007-.323.279-.589.634-.589h4.681c.36 0 .648.273.634.6l-.547 12.183c-.014.31-.293.554-.633.554"/>
        <path fill="#D63679" d="M69.463 30.62H64.76c-.354 0-.637-.272-.622-.6l.537-12.182c.014-.31.288-.554.623-.554h3.628c.334 0 .609.244.622.554l.538 12.182c.014.328-.269.6-.623.6"/>
        <path fill="#FFF" d="M56.628 12.105c-.071 0-.14-.022-.196-.066-.02-.017-.041-.033-.063-.048l-3.16-2.317c-.22-.155-.498-.24-.768-.24s-.547.085-.77.24l-3.158 2.317-.048.036c-.057.045-.129.068-.201.066l-13.873-.086c-.182-.004-.33.477-.33.658v2.141c0 .18.145.324.324.324H49.18l-.002-.016c.309.025.616-.06.874-.24l2.06-1.548s.143-.121.33-.122c.184 0 .328.122.328.122l2.06 1.548c.271.188.596.271.919.234l-.003.022H70.5c.179 0 .324-.145.324-.324v-2.042c0-.18-.145-.659-.324-.659H56.628zM52.13 1.01l5.271.04c.219.001.396.179.396.398v4.156c0 .225-.186.405-.41.398l-5.272-.203c-.215-.006-.386-.182-.386-.397V1.408c0-.22.18-.399.4-.398"/>
        <path fill="#FFF" d="M56.693 2.749l-.077 3.7c-.006.304.296.517.58.408l5.634-2.073c.12-.045.152-.199.062-.289-.023-.023-.053-.04-.085-.047L56.91 2.581c-.109-.025-.213.056-.216.168M52.794.23c.193.04.3.135.3.3v11.102c0 .166-.134.3-.3.3h-.764c-.166 0-.301-.134-.301-.3V.53c0-.166.104-.261.3-.3 0 0 .388-.1.765 0"/>
    </g>
</svg>
