<svg width="149" height="34" viewBox="0 0 149 34" fill="none" xmlns="http://www.w3.org/2000/svg">
<path fill-rule="evenodd" clip-rule="evenodd" d="M2.73766 3.92678C2.5048 3.79663 2.26315 3.69683 1.91986 3.70003C1.9498 3.7366 1.97286 3.76584 1.99206 3.7902L1.99206 3.79021C2.02316 3.82965 2.04415 3.85628 2.0679 3.88047C3.30026 5.13204 4.53285 6.38343 5.76545 7.63484L5.76576 7.63516L5.76607 7.63548L5.76791 7.63734L5.76798 7.63741C9.11094 11.0314 12.454 14.4254 15.7928 17.8233C15.9768 18.011 16.0617 17.9319 16.1985 17.7938L16.3303 17.6622C17.5611 16.4342 18.7914 15.2065 20.033 13.9885C20.2371 13.7881 20.2419 13.7059 19.9778 13.5582C15.4445 11.0312 10.9141 8.4982 6.38367 5.96515L2.73766 3.92678ZM0.307762 16.0133L0.307718 18.1064H0.300516C0.300516 18.6905 0.300338 19.2748 0.30016 19.859C0.299805 21.0277 0.299449 22.1964 0.300516 23.3648C0.301049 24.1912 0.30185 25.0175 0.30265 25.8439C0.30425 27.4966 0.305851 29.1494 0.305317 30.8021C0.305317 31.3906 0.490161 31.8848 0.969476 32.2529C1.23194 32.4549 1.42479 32.4836 1.69845 32.2105C6.18273 27.7306 10.6774 23.2626 15.1761 18.7994C15.3649 18.6118 15.3497 18.5176 15.1713 18.3379C13.6042 16.7627 12.0434 15.1805 10.4827 13.5983L9.66836 12.7729L8.82017 11.913C6.27415 9.33177 3.72812 6.75055 1.18793 4.16351C1.01349 3.98626 0.911863 4.02698 0.769428 4.17788C0.405341 4.56592 0.304517 5.03459 0.305317 5.54878C0.307984 9.03721 0.307873 12.5251 0.307762 16.0133ZM3.20609 32.1037L5.39507 29.8964L5.39696 29.8945C8.83763 26.4254 12.2781 22.9564 15.7099 19.4782C15.9684 19.2171 16.0892 19.2523 16.3204 19.4926C17.3767 20.5904 18.4497 21.6739 19.5268 22.7518C19.7165 22.9418 19.7317 23.0192 19.4748 23.1598C15.2197 25.4838 10.9672 27.8133 6.71475 30.1428L6.71366 30.1434L3.42214 31.9464C3.36534 31.9776 3.31149 32.0211 3.26811 32.0562L3.2681 32.0562C3.24365 32.076 3.22253 32.0931 3.20609 32.1037ZM26.4513 19.2741C26.7889 19.0258 27.0122 18.6944 27.0298 18.2226C27.009 17.6365 26.6225 17.278 26.1272 17.0002C25.7101 16.7672 25.2929 16.5345 24.8756 16.3017C23.6884 15.6396 22.501 14.9774 21.318 14.3087C21.1204 14.1969 21.0076 14.2145 20.8483 14.3734C19.5032 15.7227 18.1509 17.0664 16.7922 18.4022C16.6185 18.5731 16.6225 18.6665 16.7929 18.8365C17.9588 20.0046 19.1191 21.1807 20.269 22.3656C20.449 22.5516 20.5787 22.5572 20.7971 22.4358C21.8218 21.8653 22.85 21.3006 23.8781 20.736C24.4702 20.4108 25.0622 20.0857 25.6535 19.7595L25.676 19.7471C25.9415 19.6003 26.2085 19.4527 26.4513 19.2741Z" fill="#342D51"/>
<path fill-rule="evenodd" clip-rule="evenodd" d="M123.883 25.9698H126.344V9.25429H123.883V25.9698ZM146.06 15.2754L143.239 22.5226H143.153L140.225 15.2754H137.573L141.966 25.4042L139.461 31.0388H142.029L148.8 15.2754H146.06ZM132.095 24.071C131.29 24.071 130.166 23.6619 130.166 22.651C130.166 21.362 131.566 20.8659 132.776 20.8659C133.857 20.8659 134.367 21.1039 135.025 21.4248C134.835 22.9746 133.519 24.071 132.095 24.071ZM132.393 14.909C130.611 14.909 128.765 15.7059 128 17.4683L130.186 18.3936C130.654 17.4683 131.524 17.1674 132.436 17.1674C133.709 17.1674 135.005 17.9416 135.025 19.3175V19.49C134.579 19.232 133.625 18.8455 132.457 18.8455C130.101 18.8455 127.702 20.1572 127.702 22.6082C127.702 24.8452 129.634 26.2867 131.8 26.2867C133.454 26.2867 134.367 25.5339 134.94 24.6513H135.025V25.9417H137.402V19.5328C137.402 16.5657 135.216 14.909 132.393 14.909ZM117.177 17.3105H113.674V11.5809H117.177C119.017 11.5809 120.062 13.1239 120.062 14.445C120.062 15.7407 119.017 17.3105 117.177 17.3105ZM117.113 9.25295H111.213V25.9698H113.674V19.6371H117.113C119.842 19.6371 122.526 17.6354 122.526 14.445C122.526 11.256 119.842 9.25295 117.113 9.25295ZM84.94 24.0737C83.239 24.0737 81.8152 22.6309 81.8152 20.6493C81.8152 18.645 83.239 17.1808 84.94 17.1808C86.6198 17.1808 87.938 18.645 87.938 20.6493C87.938 22.6309 86.6198 24.0737 84.94 24.0737ZM87.7678 16.2114H87.682C87.1291 15.5441 86.0669 14.9398 84.7275 14.9398C81.9208 14.9398 79.3489 17.4402 79.3489 20.6493C79.3489 23.837 81.9208 26.3147 84.7275 26.3147C86.0669 26.3147 87.1291 25.7117 87.682 25.0217H87.7678V25.8401C87.7678 28.0169 86.6198 29.1789 84.7697 29.1789C83.2614 29.1789 82.3259 28.0811 81.9432 27.1545L79.7962 28.0597C80.4112 29.5666 82.0488 31.4199 84.7697 31.4199C87.6622 31.4199 90.1061 29.6963 90.1061 25.4951V15.2847H87.7678V16.2114ZM91.807 25.9698H94.272V9.25429H91.807V25.9698ZM97.9075 20.4554C97.8441 18.2572 99.5886 17.138 100.842 17.138C101.82 17.138 102.649 17.6341 102.926 18.3441L97.9075 20.4554ZM105.561 18.5594C105.094 17.2891 103.669 14.9398 100.756 14.9398C97.8652 14.9398 95.4636 17.245 95.4636 20.6279C95.4636 23.8156 97.8441 26.3147 101.032 26.3147C103.605 26.3147 105.094 24.7209 105.71 23.7942L103.797 22.5012C103.159 23.4493 102.288 24.0737 101.032 24.0737C99.7786 24.0737 98.8853 23.4921 98.3126 22.3501L105.816 19.2052L105.561 18.5594ZM45.7735 16.6861V19.0982H51.4715C51.3012 20.4554 50.8552 21.4462 50.1743 22.1349C49.3443 22.9759 48.0485 23.9026 45.7735 23.9026C42.2661 23.9026 39.524 21.0371 39.524 17.483C39.524 13.9289 42.2661 11.0621 45.7735 11.0621C47.6658 11.0621 49.0474 11.8162 50.0674 12.787L51.7472 11.0848C50.3234 9.70624 48.4311 8.6499 45.7735 8.6499C40.9689 8.6499 36.9297 12.6145 36.9297 17.483C36.9297 22.3501 40.9689 26.3147 45.7735 26.3147C48.3665 26.3147 50.3234 25.4523 51.8528 23.837C53.4271 22.2432 53.9153 20.0035 53.9153 18.193C53.9153 17.6341 53.8731 17.1166 53.7886 16.6861H45.7735ZM60.3931 24.0737C58.6922 24.0737 57.2248 22.6523 57.2248 20.6279C57.2248 18.5808 58.6922 17.1808 60.3931 17.1808C62.0941 17.1808 63.5601 18.5808 63.5601 20.6279C63.5601 22.6523 62.0941 24.0737 60.3931 24.0737ZM60.3931 14.9398C57.2895 14.9398 54.7598 17.3319 54.7598 20.6279C54.7598 23.9026 57.2895 26.3147 60.3931 26.3147C63.4968 26.3147 66.0264 23.9026 66.0264 20.6279C66.0264 17.3319 63.4968 14.9398 60.3931 14.9398ZM72.6824 24.0737C70.9814 24.0737 69.5154 22.6523 69.5154 20.6279C69.5154 18.5808 70.9814 17.1808 72.6824 17.1808C74.3833 17.1808 75.8494 18.5808 75.8494 20.6279C75.8494 22.6523 74.3833 24.0737 72.6824 24.0737ZM72.6824 14.9398C69.5787 14.9398 67.0491 17.3319 67.0491 20.6279C67.0491 23.9026 69.5787 26.3147 72.6824 26.3147C75.7873 26.3147 78.317 23.9026 78.317 20.6279C78.317 17.3319 75.7873 14.9398 72.6824 14.9398Z" fill="#342D51"/>
</svg>
