<svg xmlns="http://www.w3.org/2000/svg" width="105" height="85" viewBox="0 0 105 85">
    <g fill="none" fill-rule="evenodd">
        <path fill="#372C77" d="M8.65 44.576L15.402 44.662 14.785 61.46 21.74 61.544 21.337 44.718 28.376 44.805 28.436 39.76 8.709 39.532zM39.37 57.788c-3.33 0-5.399-2.446-5.399-6.385 0-3.908 2.104-6.433 5.36-6.433 3.183 0 5.322 2.563 5.322 6.377 0 3.973-2.024 6.441-5.283 6.441m.072-17.667c-6.46 0-10.972 4.682-10.972 11.386 0 3.062.971 5.844 2.735 7.834 1.912 2.157 4.634 3.297 7.872 3.297 3.335 0 6.133-1.076 8.092-3.112 1.953-2.03 2.985-4.921 2.985-8.363 0-3-.956-5.738-2.693-7.708-1.923-2.181-4.696-3.334-8.019-3.334M85.652 57.788c-3.33 0-5.399-2.446-5.399-6.385 0-3.908 2.104-6.433 5.36-6.433 3.183 0 5.322 2.563 5.322 6.377 0 3.973-2.024 6.441-5.283 6.441m8.274-14.333c-1.923-2.181-4.696-3.334-8.019-3.334-6.46 0-10.972 4.682-10.972 11.386 0 3.062.971 5.844 2.735 7.834 1.912 2.157 4.634 3.297 7.872 3.297 3.335 0 6.133-1.076 8.092-3.112 1.953-2.03 2.986-4.921 2.986-8.363 0-3-.957-5.738-2.694-7.708M65.227 54.956c-1.03 1.017-2.548 1.541-4.387 1.519-1.55 0-2.105-.026-2.3-.047V44.62c.424-.06 2.023-.118 2.805-.118 3.516 0 5.532 2.067 5.532 5.673 0 2.09-.555 3.698-1.65 4.78m3.485-13.132c-2.177-1.477-4.811-2.107-8.81-2.107l-6.857.097.02 21.49 5.74.026c4.41 0 7.79-.878 10.045-2.609 1.713-1.319 3.755-3.906 3.755-8.74 0-3.65-1.31-6.395-3.893-8.157M4.868 79.642L4.868 76.641 12.385 76.641 12.369 72.856 4.868 72.717 4.868 70.112 12.203 70.112 12.256 66.252.59 66.185 0 83.605 13.071 83.605 13.007 79.696zM27.166 66.646l-.157 10.25-5.31-10.25h-5.186l-.488 17.457h4.805l-.502-11.797c.974 2.388 2.196 4.774 2.85 6.006l2.989 5.79h5.09l-.045-17.456h-4.046zM42.928 73.715v3.777h2.724v2.813c-.284.071-1.137.124-1.763.124-2.634 0-5.3-1.716-5.3-4.996 0-3.626 3.012-4.912 5.592-4.912 1.918 0 3.01.378 4.165.778l.227.078v-4.129l-.06-.022c-1.172-.452-2.66-.694-4.306-.7h-.055c-5.092 0-10.224 2.822-10.251 9.144-.013 2.541.882 4.78 2.519 6.301 1.675 1.586 4.1 2.357 7.417 2.357 2.135 0 4.586-.494 6.067-.984l.066-.022-.456-9.607h-6.586zM57.86 80.222L57.739 66.825 53.36 66.825 52.993 84.282 64.596 84.282 64.44 80.212zM67.756 66.682L67.414 83.804 72.284 83.804 71.812 66.669zM83.126 73.615c-2.186-.747-3.147-1.16-3.174-1.972-.01-.3.08-.55.266-.744.333-.346.974-.524 1.904-.53 1.314-.004 2.445.27 3.683.604l.089.024.998-3.67-.391-.111c-1.341-.381-2.499-.71-4.452-.663-2.456.06-4.465.803-5.657 2.092-.858.927-1.274 2.109-1.204 3.416.106 1.955 1.812 3.512 5.37 4.898 1.852.721 2.516 1.263 2.536 2.068.01.405-.21.785-.617 1.07-.448.313-1.079.489-1.823.506-1.705.042-3.027-.257-4.485-.718l-.094-.03-.876 3.77.066.033c.966.462 2.88.938 4.901.937.103 0 .206 0 .309-.003 2.404-.059 4.36-.682 5.654-1.801 1.182-1.022 1.786-2.404 1.746-3.996-.061-2.471-1.57-4.118-4.749-5.18M104.256 66.436L104.253 66.347 100.027 66.347 100.027 72.735 94.717 72.735 94.838 66.372 90.431 66.347 89.637 83.804 94.289 83.804 94.537 76.929 100.09 76.954 100.301 83.804 104.904 83.804zM69.46 30.598H35.627c-.219 0-.396.178-.396.396v2.376c0 .106.041.206.117.28.075.075.174.116.279.116h.003l33.833-.25c.217-.002.393-.18.393-.396v-2.126c0-.218-.178-.396-.396-.396"/>
        <path fill="#1F96DB" d="M41.624 16.497c-.13-.138-.317-.218-.516-.218h-4.381c-.195 0-.382.078-.51.212-.116.121-.176.276-.168.436l.34 11.416c.016.335.314.598.68.598h3.441c.358 0 .656-.257.678-.586l.598-11.414c.011-.163-.046-.32-.162-.444"/>
        <path fill="#9857DB" d="M50.17 28.766c.161-.097.267-.262.267-.448 0 .186-.106.351-.266.448zm.258-11.866c0-.387-.346-.704-.77-.704h-3.67c-.414 0-.752.297-.77.677l-.52 11.415c-.009.183.059.359.19.496.146.153.357.24.579.24h4.366c.425 0 .77-.317.77-.706L50.428 16.9z"/>
        <path fill="#E6801B" d="M59.923 16.49c-.129-.134-.313-.21-.508-.21h-4.387c-.19 0-.374.074-.502.205-.116.118-.177.271-.173.43l.256 11.416c.007.336.31.61.675.61h3.62c.363 0 .66-.263.675-.597l.512-11.416c.007-.161-.053-.316-.168-.437"/>
        <path fill="#D63679" d="M68.665 16.877c-.015-.335-.307-.597-.665-.597h-3.4c-.358 0-.65.262-.665.597l-.503 11.415c-.007.163.053.32.169.44.126.132.307.208.496.208h4.406c.19 0 .37-.076.496-.207.117-.122.176-.278.17-.44l-.504-11.416z"/>
        <path fill="#372C77" d="M69.474 11.43H56.477c-.051 0-.1-.016-.135-.045l-.062-.046-2.962-2.172c-.217-.152-.495-.24-.765-.24-.272 0-.544.085-.768.24l-2.957 2.17-.049.037c-.038.03-.088.045-.14.045l-12.998-.08c-.054 0-.107.022-.155.07-.145.142-.234.485-.234.625v2.006c0 .21.171.382.382.382h13.863l.066-.012c.281.006.56-.078.799-.244l1.934-1.453c.001-.001.115-.095.257-.096.141 0 .257.095.261.098l1.933 1.452c.243.169.528.253.817.241l-.002.014h13.912c.21 0 .382-.172.382-.382v-1.914c0-.173-.136-.696-.382-.696"/>
        <path fill="#372C77" d="M62.401 4.323c-.032-.033-.072-.055-.11-.064L57.65 2.791V1.522c0-.247-.201-.45-.448-.45l-3.88-.03V.663c0-.13-.052-.361-.402-.434-.387-.101-.775-.003-.783-.001-.355.07-.408.303-.408.435v10.402c0 .242.197.438.439.438h.716c.242 0 .438-.196.438-.438V5.72l3.073.118-.008.37c-.003.16.073.31.203.401.082.058.178.087.276.087.057 0 .114-.01.17-.031l5.28-1.943c.077-.03.134-.096.151-.177.017-.08-.007-.164-.066-.222"/>
    </g>
</svg>
