<svg width="37" height="36" viewBox="0 0 37 36" fill="none" xmlns="http://www.w3.org/2000/svg">
<path fill-rule="evenodd" clip-rule="evenodd" d="M36.4863 35.507L0.379594 35.7739C0.191458 35.7752 0.0380859 35.623 0.0380859 35.4348V32.8996C0.0380859 32.7122 0.18997 32.5605 0.377177 32.5605H36.4839C36.6711 32.5605 36.823 32.7122 36.823 32.8996V35.1679C36.823 35.3541 36.6726 35.5057 36.4863 35.507Z" fill="white"/>
<path fill-rule="evenodd" clip-rule="evenodd" d="M5.58905 30.6206H1.91556C1.57405 30.6206 1.29371 30.3766 1.27958 30.0672L0.915575 17.8847C0.900888 17.5571 1.18997 17.2842 1.55156 17.2842H6.22744C6.59423 17.2842 6.88536 17.5645 6.86287 17.8964L6.22428 30.0789C6.20383 30.3834 5.92553 30.6206 5.58905 30.6206Z" fill="#1F96DB"/>
<path fill-rule="evenodd" clip-rule="evenodd" d="M15.5376 30.6206H10.8783C10.5117 30.6206 10.2191 30.3477 10.2339 30.0202L10.79 17.8376C10.8039 17.5285 11.0882 17.2842 11.4341 17.2842H15.3502C15.7064 17.2842 15.9951 17.5424 15.9951 17.861L16.1824 30.0438C16.1824 30.3624 15.8936 30.6206 15.5376 30.6206Z" fill="#9857DB"/>
<path fill-rule="evenodd" clip-rule="evenodd" d="M25.218 30.6206H21.3562C21.0112 30.6206 20.7295 30.3695 20.7224 30.0555L20.4494 17.8729C20.4421 17.5497 20.728 17.2842 21.0829 17.2842H25.7644C26.1247 17.2842 26.4124 17.5571 26.3978 17.8847L25.8512 30.0672C25.8373 30.3766 25.558 30.6206 25.218 30.6206Z" fill="#E6801B"/>
<path fill-rule="evenodd" clip-rule="evenodd" d="M35.4627 30.6206H30.7598C30.4059 30.6206 30.1229 30.3477 30.1372 30.0202L30.6747 17.8376C30.6883 17.5285 30.963 17.2842 31.2973 17.2842H34.9254C35.2597 17.2842 35.5344 17.5285 35.548 17.8376L36.0853 30.0202C36.0998 30.3477 35.8168 30.6206 35.4627 30.6206Z" fill="#D63679"/>
<path fill-rule="evenodd" clip-rule="evenodd" d="M22.628 12.1049C22.5569 12.1049 22.487 12.0829 22.4318 12.0383C22.4116 12.0218 22.3907 12.006 22.369 11.9909L19.209 9.67397C18.9883 9.51874 18.7109 9.43359 18.4412 9.43359C18.1712 9.43359 17.8941 9.51874 17.6712 9.67397L14.5132 11.9909C14.4968 12.0024 14.4808 12.0143 14.4652 12.0266C14.4078 12.0716 14.3364 12.0945 14.2635 12.0932L0.390714 12.0063C0.209271 12.0032 0.0605469 12.4837 0.0605469 12.6652V14.8061C0.0605469 14.9851 0.205739 15.1301 0.384766 15.1301H15.18L15.178 15.1134C15.4866 15.1387 15.7941 15.053 16.0523 14.8734L18.1127 13.3257C18.1127 13.3257 18.2553 13.2047 18.4412 13.2036C18.626 13.2047 18.7695 13.3257 18.7695 13.3257L20.8301 14.8734C21.1011 15.0613 21.4255 15.1452 21.7486 15.1078L21.746 15.1301H36.4987C36.6779 15.1301 36.8229 14.9851 36.8229 14.8061V12.7637C36.8229 12.5847 36.6779 12.1049 36.4987 12.1049H22.628Z" fill="white"/>
<path fill-rule="evenodd" clip-rule="evenodd" d="M18.1288 1.00977L23.4005 1.04918C23.6193 1.05049 23.7959 1.22821 23.7959 1.44702V5.60368C23.7959 5.82825 23.61 6.00839 23.3854 6.00133L18.1139 5.79888C17.8992 5.792 17.7285 5.61595 17.7285 5.40123V1.40761C17.7285 1.18694 17.9081 1.00847 18.1288 1.00977Z" fill="white"/>
<path fill-rule="evenodd" clip-rule="evenodd" d="M22.6935 2.74873L22.6163 6.44918C22.61 6.7522 22.9125 6.96525 23.1956 6.85705L28.8302 4.78384C28.9494 4.73829 28.9821 4.58511 28.8919 4.49494C28.8687 4.4717 28.8395 4.45534 28.8075 4.44791L22.9095 2.58086C22.8004 2.55539 22.6957 2.63682 22.6935 2.74873Z" fill="white"/>
<path fill-rule="evenodd" clip-rule="evenodd" d="M18.7936 0.229999C18.9869 0.269225 19.0942 0.364594 19.0942 0.530608V11.6312C19.0942 11.7972 18.9598 11.9318 18.7936 11.9318H18.0293C17.8633 11.9318 17.7285 11.7972 17.7285 11.6312V0.530608C17.7285 0.364594 17.8324 0.269225 18.0293 0.229999C18.0293 0.229999 18.4167 0.129982 18.7936 0.229999Z" fill="white"/>
</svg>
