<svg width="35" height="34" viewBox="0 0 35 34" fill="none" xmlns="http://www.w3.org/2000/svg">
<path fill-rule="evenodd" clip-rule="evenodd" d="M34.2291 30.415H0.395891C0.1775 30.415 0 30.5927 0 30.8111V33.1866C0 33.293 0.0414411 33.3927 0.116989 33.4677C0.191619 33.542 0.290638 33.5827 0.395891 33.5827H0.398825L34.232 33.3326C34.4488 33.331 34.6252 33.1535 34.6252 32.9365V30.8111C34.6252 30.5927 34.4475 30.415 34.2291 30.415Z" fill="#372C77"/>
<path fill-rule="evenodd" clip-rule="evenodd" d="M6.3928 16.3132C6.26352 16.1749 6.07575 16.0957 5.87717 16.0957H1.49578C1.30031 16.0957 1.11419 16.1731 0.985281 16.3079C0.869759 16.4285 0.810164 16.5836 0.817499 16.7432L1.15856 28.1598C1.1736 28.4948 1.47157 28.7572 1.83702 28.7572H5.27902C5.63677 28.7572 5.93438 28.5005 5.95675 28.1716L6.55489 16.7573C6.5659 16.5945 6.50832 16.4368 6.3928 16.3132Z" fill="#1F96DB"/>
<path fill-rule="evenodd" clip-rule="evenodd" d="M14.9399 28.5831C15.1005 28.4859 15.2063 28.3214 15.2063 28.135C15.2063 28.3214 15.1005 28.4861 14.9399 28.5831ZM15.1966 16.7168C15.1968 16.3297 14.8513 16.0127 14.4266 16.0127H10.7569C10.3428 16.0127 10.0047 16.3101 9.98747 16.6897L9.46652 28.1052C9.45809 28.2877 9.52575 28.4635 9.65668 28.6007C9.80282 28.7536 10.0141 28.8415 10.2359 28.8415H14.6021C15.0268 28.8415 15.3722 28.5244 15.3722 28.135L15.1966 16.7168Z" fill="#9857DB"/>
<path fill-rule="evenodd" clip-rule="evenodd" d="M24.6919 16.3079C24.5635 16.1737 24.3787 16.0967 24.1843 16.0967H19.7976C19.6064 16.0967 19.4232 16.1717 19.2952 16.3026C19.1797 16.4207 19.1181 16.5733 19.1217 16.7324L19.3777 28.1478C19.3852 28.4843 19.6885 28.7579 20.0536 28.7579H23.6724C24.036 28.7579 24.3329 28.4956 24.3479 28.1608L24.8599 16.7453C24.8672 16.5841 24.8074 16.4288 24.6919 16.3079Z" fill="#E6801B"/>
<path fill-rule="evenodd" clip-rule="evenodd" d="M33.4337 16.6932C33.4191 16.3587 33.127 16.0967 32.769 16.0967H29.369C29.0111 16.0967 28.719 16.3587 28.7041 16.6932L28.2008 28.1086C28.1935 28.2714 28.2536 28.4278 28.3695 28.5492C28.4957 28.6808 28.6765 28.7566 28.8655 28.7566H33.2724C33.4614 28.7566 33.6422 28.6808 33.7684 28.5492C33.8845 28.4278 33.9444 28.2714 33.9371 28.1086L33.4337 16.6932Z" fill="#D63679"/>
<path fill-rule="evenodd" clip-rule="evenodd" d="M34.2426 11.2471H21.2453C21.1944 11.2471 21.1467 11.2312 21.1107 11.202C21.0902 11.1855 21.0691 11.1695 21.0489 11.1554L18.0866 8.98344C17.8701 8.83124 17.5914 8.74414 17.322 8.74414C17.0495 8.74414 16.7774 8.82904 16.554 8.98435L13.5965 11.1545C13.5798 11.1661 13.5637 11.1782 13.5479 11.1904C13.5096 11.2207 13.4593 11.2359 13.408 11.2359L0.409614 11.1549C0.355521 11.156 0.303261 11.1774 0.254668 11.2249C0.109441 11.3678 0.0205078 11.711 0.0205078 11.8506V13.8564C0.0205078 14.0671 0.191957 14.2386 0.402646 14.2386H14.2662L14.3322 14.2267C14.6127 14.2331 14.8924 14.1482 15.1306 13.9822L17.0647 12.5294C17.0658 12.5285 17.1802 12.4342 17.3216 12.4335C17.463 12.4342 17.5783 12.5287 17.5827 12.5322L19.5158 13.9839C19.7584 14.1522 20.0443 14.2362 20.3325 14.2248L20.3309 14.2386H34.2426C34.4533 14.2386 34.6248 14.0671 34.6248 13.8564V11.9428C34.6248 11.7697 34.4892 11.2471 34.2426 11.2471Z" fill="#372C77"/>
<path fill-rule="evenodd" clip-rule="evenodd" d="M27.1701 4.13937C27.1378 4.1071 27.0974 4.08472 27.0591 4.07611L22.4186 2.60733V1.33916C22.4186 1.0918 22.2175 0.889358 21.9705 0.887891L18.0911 0.858919V0.480081C18.0911 0.348973 18.0389 0.118663 17.6885 0.045683C17.3016 -0.0553527 16.9137 0.0423824 16.906 0.0447661C16.551 0.115363 16.498 0.347873 16.498 0.480081V10.8818C16.498 11.1235 16.6948 11.3202 16.9367 11.3202H17.6527C17.8946 11.3202 18.0911 11.1235 18.0911 10.8818V5.53663L21.1635 5.65472L21.1558 6.02439C21.1525 6.18392 21.2284 6.33391 21.3588 6.42578C21.4407 6.48354 21.5372 6.51306 21.6344 6.51306C21.6916 6.51306 21.7491 6.5028 21.804 6.48171L27.0848 4.53874C27.1622 4.50922 27.2186 4.44321 27.2359 4.36216C27.2533 4.28111 27.2285 4.19786 27.1701 4.13937Z" fill="#372C77"/>
</svg>
