<svg width="134" height="34" viewBox="0 0 134 34" fill="none" xmlns="http://www.w3.org/2000/svg">
<path fill-rule="evenodd" clip-rule="evenodd" d="M20.8458 17.2046C20.877 14.8761 22.1301 12.7245 24.1663 11.5062C22.8752 9.70965 20.7916 8.61273 18.5428 8.54409C16.1774 8.30121 13.8838 9.92217 12.6781 9.92217C11.4494 9.92217 9.59337 8.56785 7.59514 8.60745C4.96559 8.69061 2.57313 10.1122 1.2929 12.3523C-1.43148 16.9485 0.601984 23.703 3.21121 27.4188C4.51717 29.2377 6.04261 31.2705 8.03949 31.1979C9.99437 31.12 10.7232 29.9835 13.0832 29.9835C15.4201 29.9835 16.1042 31.1979 18.1418 31.153C20.2389 31.12 21.5598 29.3249 22.8197 27.4887C23.7571 26.1925 24.4792 24.759 24.9588 23.2436C22.4688 22.2166 20.8485 19.8406 20.8458 17.2046Z" fill="#342D51"/>
<path fill-rule="evenodd" clip-rule="evenodd" d="M17.2771 6.31802C18.379 4.97349 18.9221 3.24537 18.7902 1.5C17.1074 1.67918 15.5526 2.49811 14.4351 3.79088C13.3333 5.0664 12.7745 6.73479 12.8829 8.42972C14.5879 8.44697 16.208 7.66919 17.2771 6.31802Z" fill="#342D51"/>
<path fill-rule="evenodd" clip-rule="evenodd" d="M38.6959 10.4099L32.6699 26.2499H35.3644L36.8924 21.9691H43.2531L44.7797 26.2499H47.5199L41.4953 10.4099H38.6959ZM40.0385 13.0452H40.107L42.5932 19.9933H37.5509L40.0385 13.0452Z" fill="#342D51"/>
<path fill-rule="evenodd" clip-rule="evenodd" d="M57.5785 20.4366C57.5785 18.0548 56.3197 16.4891 54.3975 16.4891C52.5099 16.4891 51.2404 18.0873 51.2404 20.4366C51.2404 22.8066 52.5099 24.3945 54.3975 24.3945C56.3197 24.3945 57.5785 22.8404 57.5785 20.4366ZM60.1175 20.4366C60.1175 24.0917 58.1155 26.441 55.0954 26.441C53.5335 26.5216 52.0633 25.7211 51.3082 24.3828H51.2511V30.2092H48.7812V14.5543H51.1726V16.5112H51.2178C52.0061 15.1806 53.4776 14.3815 55.0502 14.4309C58.1049 14.4309 60.1175 16.7905 60.1175 20.4366Z" fill="#342D51"/>
<path fill-rule="evenodd" clip-rule="evenodd" d="M70.8246 20.4366C70.8246 18.0548 69.5658 16.4891 67.6436 16.4891C65.756 16.4891 64.4865 18.0873 64.4865 20.4366C64.4865 22.8066 65.756 24.3945 67.6436 24.3945C69.5658 24.3945 70.8246 22.8404 70.8246 20.4366ZM73.3649 20.4366C73.3649 24.0917 71.3616 26.441 68.3415 26.441C66.7796 26.5216 65.3094 25.7211 64.5543 24.3828H64.4972V30.2092H62.0273V14.5543H64.4187V16.5112H64.4639C65.2522 15.1806 66.7237 14.3815 68.2963 14.4309C71.351 14.4309 73.3649 16.7905 73.3649 20.4366Z" fill="#342D51"/>
<path fill-rule="evenodd" clip-rule="evenodd" d="M82.1185 21.8223C82.302 23.4219 83.8918 24.4731 86.0652 24.4731C88.1469 24.4731 89.645 23.4219 89.645 21.9796C89.645 20.727 88.741 19.9772 86.6022 19.464L84.4634 18.9598C81.4313 18.2439 80.0249 16.8587 80.0249 14.6095C80.0249 11.8263 82.5067 9.91357 86.0293 9.91357C89.5187 9.91357 91.9101 11.8263 91.9912 14.6095H89.4974C89.3472 12.9996 87.986 12.0277 85.9961 12.0277C84.0061 12.0277 82.6449 13.0113 82.6449 14.4419C82.6449 15.5827 83.5143 16.2545 85.6411 16.7678L87.4609 17.2044C90.8466 17.9879 92.253 19.3172 92.253 21.6781C92.253 24.6966 89.7938 26.5872 85.8804 26.5872C82.2195 26.5872 79.7484 24.7407 79.5889 21.8223H82.1185Z" fill="#342D51"/>
<path fill-rule="evenodd" clip-rule="evenodd" d="M97.587 11.77V14.5546H99.876V16.466H97.587V22.9511C97.587 23.9595 98.0456 24.4285 99.0518 24.4285C99.323 24.4233 99.5942 24.4064 99.864 24.3727V26.2736C99.4107 26.3568 98.9508 26.3945 98.4922 26.3854C96.0556 26.3854 95.1052 25.4914 95.1052 23.2097V16.466H93.3545V14.5546H95.1038V11.77H97.587Z" fill="#342D51"/>
<path fill-rule="evenodd" clip-rule="evenodd" d="M110.1 20.4367C110.1 17.8978 108.909 16.3996 106.908 16.3996C104.906 16.3996 103.715 17.9095 103.715 20.4367C103.715 22.9861 104.906 24.4726 106.908 24.4726C108.909 24.4726 110.1 22.9861 110.1 20.4367ZM101.2 20.4367C101.2 16.7348 103.429 14.4089 106.908 14.4089C110.398 14.4089 112.617 16.7348 112.617 20.4367C112.617 24.1478 110.408 26.4645 106.908 26.4645C103.408 26.4645 101.2 24.1478 101.2 20.4367Z" fill="#342D51"/>
<path fill-rule="evenodd" clip-rule="evenodd" d="M114.654 14.554H117.009V16.5563H117.066C117.396 15.2673 118.603 14.3799 119.962 14.4305C120.246 14.4292 120.531 14.4604 120.808 14.5215V16.7798C120.448 16.672 120.073 16.6239 119.698 16.6343C118.324 16.5797 117.166 17.6231 117.11 18.9666C117.105 19.0914 117.109 19.2161 117.124 19.3409V26.3185H114.654V14.554Z" fill="#342D51"/>
<path fill-rule="evenodd" clip-rule="evenodd" d="M123.847 19.3518H129.863C129.952 17.7925 128.731 16.4555 127.134 16.3697C127.06 16.3658 126.985 16.3645 126.912 16.3658C125.228 16.3554 123.856 17.6821 123.847 19.3258V19.3518ZM132.198 22.8627C131.865 24.9988 129.738 26.4645 127.016 26.4645C123.515 26.4645 121.341 24.1711 121.341 20.4926C121.341 16.8024 123.527 14.4089 126.912 14.4089C130.242 14.4089 132.336 16.6452 132.336 20.2119V21.0396H123.835V21.1852C123.682 22.8705 124.956 24.3595 126.681 24.5077C126.81 24.5194 126.942 24.522 127.073 24.5181C128.271 24.6285 129.402 23.9541 129.853 22.8627H132.198Z" fill="#342D51"/>
</svg>
