<svg xmlns="http://www.w3.org/2000/svg" width="134" height="34" viewBox="0 0 134 34">
    <g fill="#FFF" fill-rule="evenodd">
        <path d="M20.846 16.805c.031-2.329 1.284-4.48 3.32-5.699-1.29-1.796-3.374-2.893-5.623-2.962-2.365-.243-4.659 1.378-5.865 1.378-1.228 0-3.084-1.354-5.083-1.314-2.63.083-5.022 1.504-6.302 3.744C-1.43 16.55.603 23.303 3.211 27.02c1.306 1.819 2.832 3.852 4.829 3.779 1.955-.078 2.683-1.214 5.043-1.214 2.337 0 3.021 1.214 5.059 1.17 2.097-.034 3.418-1.83 4.678-3.665.937-1.296 1.66-2.73 2.139-4.245-2.49-1.027-4.11-3.403-4.113-6.04M17.278 5.918c1.101-1.345 1.644-3.073 1.513-4.818-1.683.18-3.238.998-4.356 2.29-1.101 1.276-1.66 2.945-1.552 4.64 1.705.017 3.325-.76 4.395-2.112" transform="translate(0 .4)"/>
        <g>
            <path d="M6.026.99L0 16.83h2.695l1.528-4.28h6.36l1.527 4.28h2.74L8.825.99H6.026zm1.343 2.635h.068l2.486 6.948H4.881l2.488-6.948zM24.909 11.017c0-2.382-1.259-3.948-3.181-3.948-1.888 0-3.157 1.598-3.157 3.948 0 2.37 1.27 3.958 3.157 3.958 1.922 0 3.18-1.554 3.18-3.958m2.54 0c0 3.655-2.002 6.004-5.022 6.004-1.562.08-3.032-.72-3.787-2.058h-.058v5.826h-2.47V5.134h2.392v1.957h.045c.788-1.33 2.26-2.13 3.833-2.08 3.054 0 5.067 2.36 5.067 6.006M38.155 11.017c0-2.382-1.259-3.948-3.181-3.948-1.888 0-3.157 1.598-3.157 3.948 0 2.37 1.27 3.958 3.157 3.958 1.922 0 3.181-1.554 3.181-3.958m2.54 0c0 3.655-2.003 6.004-5.023 6.004-1.562.08-3.032-.72-3.787-2.058h-.057v5.826h-2.47V5.134h2.391v1.957h.045c.789-1.33 2.26-2.13 3.833-2.08 3.054 0 5.068 2.36 5.068 6.006M49.449 12.402c.183 1.6 1.773 2.651 3.946 2.651 2.082 0 3.58-1.051 3.58-2.493 0-1.253-.904-2.003-3.043-2.516l-2.138-.504c-3.032-.716-4.439-2.101-4.439-4.35 0-2.784 2.482-4.696 6.005-4.696 3.489 0 5.88 1.912 5.961 4.696h-2.493c-.15-1.61-1.512-2.582-3.502-2.582-1.99 0-3.35.983-3.35 2.414 0 1.14.869 1.813 2.995 2.326l1.82.436c3.386.784 4.792 2.113 4.792 4.474 0 3.019-2.459 4.91-6.372 4.91-3.661 0-6.132-1.847-6.292-4.766h2.53zM64.917 2.35v2.785h2.29v1.911h-2.29v6.485c0 1.008.459 1.478 1.465 1.478.271-.006.543-.023.812-.056v1.9c-.453.084-.913.122-1.371.112-2.437 0-3.387-.894-3.387-3.175V7.046h-1.751V5.135h1.75V2.35h2.482zM77.43 11.017c0-2.54-1.19-4.037-3.192-4.037-2.001 0-3.192 1.51-3.192 4.037 0 2.55 1.19 4.036 3.192 4.036 2.001 0 3.192-1.487 3.192-4.036m-8.9 0c0-3.702 2.23-6.028 5.708-6.028 3.49 0 5.71 2.326 5.71 6.028 0 3.71-2.21 6.028-5.71 6.028s-5.708-2.317-5.708-6.028M81.984 5.134h2.356v2.002h.057c.33-1.289 1.536-2.176 2.895-2.125.284-.002.569.03.847.09V7.36c-.36-.108-.735-.156-1.11-.146-1.375-.054-2.533.99-2.588 2.333-.006.125-.002.25.013.374v6.978h-2.47V5.134zM91.177 9.932h6.017c.089-1.56-1.133-2.896-2.73-2.982-.074-.004-.148-.005-.221-.004-1.684-.01-3.056 1.316-3.066 2.96v.026zm8.351 3.51c-.332 2.137-2.46 3.603-5.182 3.603-3.5 0-5.674-2.294-5.674-5.972 0-3.69 2.185-6.084 5.57-6.084 3.33 0 5.424 2.236 5.424 5.803v.828h-8.5v.145c-.153 1.686 1.12 3.175 2.845 3.323.13.012.261.014.393.01 1.197.11 2.329-.564 2.78-1.655h2.344z" transform="translate(0 .4) translate(32.67 9.02)"/>
        </g>
    </g>
</svg>
