<svg width="112" height="54" viewBox="0 0 112 54" fill="none" xmlns="http://www.w3.org/2000/svg">
<path fill-rule="evenodd" clip-rule="evenodd" d="M0 0.558594V6.45227H8.00455V30.187H15.1329V6.45227H23.1772V0.558594H0Z" fill="white"/>
<path fill-rule="evenodd" clip-rule="evenodd" d="M43.3084 22.0824C44.4366 20.3969 45.0009 18.1072 45.0009 15.2131C45.0009 9.13375 42.8902 6.09367 38.6687 6.09367C34.4737 6.09367 32.377 9.13375 32.377 15.2131C32.377 18.1072 32.9346 20.3969 34.0494 22.0824C35.1645 23.7688 36.7042 24.6112 38.6687 24.6112C40.6334 24.6112 42.1795 23.7688 43.3084 22.0824M28.833 26.6417C26.3375 23.9074 25.0898 20.0976 25.0898 15.2125C25.0898 10.328 26.3375 6.57086 28.833 3.94256C31.3285 1.31404 34.6074 0 38.6692 0C42.7314 0 46.0102 1.32104 48.5057 3.9625C51.0012 6.60437 52.2492 10.3541 52.2492 15.2125C52.2492 20.0976 51.0012 23.9074 48.5057 26.6417C46.0102 29.3765 42.7314 30.7434 38.6692 30.7434C34.6074 30.7434 31.3285 29.3765 28.833 26.6417" fill="white"/>
<path fill-rule="evenodd" clip-rule="evenodd" d="M65.2471 24.4511C67.6626 24.4511 69.6276 23.801 71.1408 22.4999C72.6543 21.1995 73.4108 18.7702 73.4108 15.2122C73.4108 11.6549 72.6543 9.26553 71.1408 8.04398C69.6276 6.82307 67.6626 6.21208 65.2471 6.21208H64.2914V24.4511H65.2471ZM57.1641 0.558594H65.6858C70.2258 0.558594 73.8626 1.70716 76.5977 4.00324C79.3316 6.30016 80.6993 10.0365 80.6993 15.2136C80.6993 20.3906 79.3515 24.1806 76.6573 26.583C73.9624 28.986 70.4384 30.187 66.0842 30.187H57.1641V0.558594Z" fill="white"/>
<path fill-rule="evenodd" clip-rule="evenodd" d="M103.058 22.0824C104.186 20.3969 104.751 18.1072 104.751 15.2131C104.751 9.13375 102.64 6.09367 98.4187 6.09367C94.2237 6.09367 92.127 9.13375 92.127 15.2131C92.127 18.1072 92.6845 20.3969 93.7994 22.0824C94.9144 23.7688 96.454 24.6112 98.4187 24.6112C100.383 24.6112 101.93 23.7688 103.058 22.0824M88.5832 26.6417C86.0877 23.9074 84.8398 20.0976 84.8398 15.2125C84.8398 10.328 86.0877 6.57086 88.5832 3.94256C91.0787 1.31404 94.3576 0 98.4194 0C102.481 0 105.76 1.32104 108.256 3.9625C110.751 6.60437 111.999 10.3541 111.999 15.2125C111.999 20.0976 110.751 23.9074 108.256 26.6417C105.76 29.3765 102.481 30.7434 98.4194 30.7434C94.3576 30.7434 91.0787 29.3765 88.5832 26.6417" fill="white"/>
<path fill-rule="evenodd" clip-rule="evenodd" d="M1.19922 34.3906H13.1769V38.1463H5.74152V41.6484H12.0606V45.4548H5.74152V49.4646H13.4561V53.2709H1.19922V34.3906Z" fill="white"/>
<path fill-rule="evenodd" clip-rule="evenodd" d="M17.1855 34.3906H21.8042L26.4988 43.4247L28.3515 47.6119H28.4782C28.3426 46.5968 28.2075 45.4635 28.0723 44.2114C27.9366 42.9597 27.8691 41.767 27.8691 40.6333V34.3906H32.1833V53.2709H27.5647L22.8953 44.1607L21.0428 40.0244H20.916C21.0174 41.09 21.1402 42.232 21.284 43.4502C21.4274 44.6681 21.4996 45.8525 21.4996 47.0028V53.2709H17.1855V34.3906Z" fill="white"/>
<path fill-rule="evenodd" clip-rule="evenodd" d="M38.0619 51.1977C36.2602 49.5737 35.3594 47.1543 35.3594 43.9399C35.3594 40.7765 36.2727 38.336 38.0999 36.6187C39.9271 34.902 42.1095 34.043 44.6472 34.043C46.0342 34.043 47.2267 34.2927 48.2253 34.7916C49.2232 35.2908 50.0436 35.8617 50.6866 36.5045L48.276 39.3974C47.819 38.9748 47.3245 38.6235 46.7914 38.3443C46.2585 38.0653 45.5942 37.9255 44.7993 37.9255C43.3949 37.9255 42.2446 38.4419 41.3483 39.4735C40.4511 40.5058 40.0031 41.9438 40.0031 43.7876C40.0031 47.7462 41.7287 49.7258 45.1801 49.7258C45.9581 49.7258 46.5587 49.5652 46.9817 49.2436V46.1984H43.9872V42.4935H51.0167V51.3245C50.357 51.9678 49.4725 52.5132 48.3647 52.9613C47.2564 53.4093 46.0429 53.6338 44.7232 53.6338C42.084 53.6338 39.8635 52.8217 38.0619 51.1977" fill="white"/>
<path fill-rule="evenodd" clip-rule="evenodd" d="M54.8223 34.3906H59.3648V49.4646H66.6987V53.2709H54.8223V34.3906Z" fill="white"/>
<path fill-rule="evenodd" clip-rule="evenodd" d="M69.9746 53.2709H74.5171V34.3906H69.9746V53.2709Z" fill="white"/>
<path fill-rule="evenodd" clip-rule="evenodd" d="M80.999 52.9615C79.7556 52.5134 78.6429 51.8322 77.6621 50.9185L80.2251 47.7971C81.7477 49.0832 83.2785 49.7258 84.8183 49.7258C86.459 49.7258 87.2796 49.1763 87.2796 48.0765C87.2796 47.5351 87.0388 47.1291 86.5564 46.8582C86.0744 46.5879 85.4271 46.2833 84.6153 45.9449L82.2044 44.9298C81.2063 44.5407 80.3178 43.9233 79.5398 43.0771C78.7615 42.2315 78.3724 41.1232 78.3724 39.7527C78.3724 38.1629 79.0109 36.8136 80.2883 35.7051C81.5656 34.5973 83.2108 34.043 85.2243 34.043C87.6604 34.043 89.7072 34.872 91.3654 36.53L89.1071 39.3721C87.838 38.4077 86.5439 37.9257 85.2243 37.9257C83.7181 37.9257 82.9658 38.4503 82.9658 39.499C82.9658 40.0236 83.2321 40.4214 83.765 40.6917C84.2981 40.9626 84.9871 41.267 85.8332 41.6054L88.1933 42.5442C90.6801 43.5427 91.9237 45.2681 91.9237 47.7212C91.9237 49.3115 91.2975 50.6945 90.0458 51.8702C88.7935 53.0461 87.0172 53.634 84.7167 53.634C83.4815 53.634 82.2424 53.4093 80.999 52.9615" fill="white"/>
<path fill-rule="evenodd" clip-rule="evenodd" d="M95.0723 34.3906H99.6148V41.5725H105.832V34.3906H110.324V53.2709H105.832V45.5057H99.6148V53.2709H95.0723V34.3906Z" fill="white"/>
</svg>
