<svg xmlns="http://www.w3.org/2000/svg" width="292" height="101" viewBox="0 0 292 101">
    <g fill="none" fill-rule="evenodd">
        <g fill="#FFF">
            <path d="M142.008 17.778L129.956 17.778 129.956 22.884 143.009 22.97 143.106 28.945 122.449 28.945 123.386 1.308 141.8 1.414 141.718 7.309 129.956 7.309 129.956 11.778 141.984 12zM155.888 29.742h-7.399l.775-27.696h8.084l8.74 16.874.258-16.874h6.197l.07 27.696h-7.924l-4.752-9.205c-1.56-2.938-3.379-6.657-4.72-10.006h-.146l.817 19.211zM202.985 28.238c-2.111.7-6.02 1.572-9.68 1.572-5.502 0-9.275-1.356-11.793-3.739-2.64-2.456-4.013-6.03-3.993-9.996.042-9.626 7.642-14.552 16.378-14.517 2.596.01 4.949.38 6.853 1.114v6.313c-1.936-.67-3.702-1.314-6.894-1.314-4.627 0-9.114 2.394-9.114 8.024 0 5.157 4.05 8.156 8.646 8.156 1.03 0 2.609-.091 2.973-.236V18.85h-4.367v-5.764h10.273l.718 15.153zM208.769 2.332L215.502 2.332 215.695 23.814 226.249 23.799 226.489 30.029 208.188 30.029zM238.069 2.083L238.817 29.264 231.31 29.264 231.852 2.103zM245.18 23.266c2.246.712 4.433 1.228 7.24 1.16 2.567-.063 4.09-1.281 4.054-2.678-.033-1.325-1.043-2.236-4.16-3.45-5.086-1.982-8.336-4.38-8.516-7.725-.264-4.893 3.779-8.504 10.858-8.676 3.346-.082 5.263.542 7.582 1.196l-1.524 5.602c-1.95-.527-3.813-.984-5.945-.973-3.086.018-3.66 1.21-3.626 2.194.047 1.406 1.621 2.077 5.189 3.295 5.097 1.705 7.42 4.32 7.515 8.172.12 4.786-3.542 8.944-11.723 9.143-3.378.083-6.674-.71-8.285-1.483l1.341-5.777zM275.354 1.605L275.16 11.809 283.971 11.809 283.971 1.567 290.458 1.567 291.491 29.264 284.407 29.264 284.068 18.281 274.88 18.239 274.482 29.264 267.319 29.264 268.578 1.567zM8.388 6.331L0 6.222.074.016 25.023.305 24.95 6.511 15.96 6.4 16.475 27.882 7.834 27.777zM32.092 15.052c0 5.133 2.737 8.27 7.01 8.27 4.348 0 6.861-3.42 6.861-8.34 0-4.696-2.575-8.26-6.91-8.26-4.224 0-6.961 3.31-6.961 8.33m20.66-.306c0 8.88-5.4 14.533-14.025 14.533-8.666 0-13.425-6.421-13.425-14.093 0-8.039 5.33-14.42 13.891-14.42 8.988 0 13.56 6.585 13.56 13.98M91.585 15.052c0 5.133 2.737 8.27 7.01 8.27 4.348 0 6.862-3.42 6.862-8.34 0-4.696-2.576-8.26-6.911-8.26-4.224 0-6.96 3.31-6.96 8.33m20.894-.306c0 8.88-5.4 14.533-14.025 14.533-8.666 0-13.425-6.421-13.425-14.093 0-8.039 5.328-14.42 13.891-14.42 8.988 0 13.56 6.585 13.56 13.98M63.545 21.569c.365.076 2.581.076 3.053.076 4.5.057 7.825-2.384 7.825-8.159 0-5.004-3.018-7.36-7.18-7.36-1.087 0-3.343.085-3.698.17V21.57zm-6.755 6.008L56.763.373l8.64-.122c5.211 0 8.478.836 11.18 2.67 2.993 2.04 4.919 5.387 4.919 10.317 0 5.468-2.097 9.024-4.749 11.065-2.984 2.29-7.439 3.306-12.752 3.306l-7.211-.032z" transform="translate(0 70.4)"/>
        </g>
        <g>
            <path fill="#FFF" d="M50.698 49.13l-50.223.372c-.262.002-.475-.21-.475-.472v-3.526c0-.26.211-.472.472-.472h50.222c.26 0 .472.211.472.472v3.155c0 .259-.21.47-.468.471" transform="translate(120.32)"/>
            <path fill="#1F96DB" d="M7.72 42.333H2.612c-.475 0-.865-.34-.885-.77L1.22 24.619c-.02-.456.382-.835.885-.835h6.504c.51 0 .915.39.884.851L8.604 41.58c-.028.423-.415.753-.883.753" transform="translate(120.32)"/>
            <path fill="#9857DB" d="M21.56 42.333h-6.481c-.51 0-.917-.38-.897-.835l.774-16.945c.02-.43.415-.77.896-.77h5.447c.495 0 .897.36.897.802l.26 16.946c0 .443-.401.802-.896.802" transform="translate(120.32)"/>
            <path fill="#E6801B" d="M35.023 42.333h-5.371c-.48 0-.872-.349-.882-.786l-.38-16.945c-.01-.45.388-.82.882-.82h6.511c.502 0 .902.38.881.836l-.76 16.946c-.02.43-.408.77-.88.77" transform="translate(120.32)"/>
            <path fill="#D63679" d="M49.274 42.333h-6.541c-.493 0-.886-.38-.866-.835l.747-16.945c.02-.43.401-.77.866-.77h5.047c.465 0 .847.34.866.77l.747 16.945c.02.456-.373.835-.866.835" transform="translate(120.32)"/>
            <path fill="#FFF" d="M31.421 16.58c-.099 0-.196-.031-.273-.093-.028-.023-.057-.045-.087-.066l-4.395-3.223c-.307-.216-.693-.334-1.068-.334-.376 0-.761.118-1.071.334l-4.393 3.223c-.023.016-.045.032-.067.05-.08.062-.179.094-.28.092L.49 16.443c-.252-.005-.459.663-.459.916v2.977c0 .25.202.451.451.451h20.58l-.003-.023c.429.035.857-.084 1.216-.334l2.866-2.153s.198-.168.457-.17c.257.002.456.17.456.17l2.866 2.153c.377.261.829.378 1.278.326l-.003.031h20.52c.25 0 .45-.202.45-.45v-2.841c0-.25-.2-.917-.45-.917H31.42zM25.164 1.147l7.333.055c.304.001.55.249.55.553v5.782c0 .312-.259.563-.571.553l-7.333-.282c-.298-.01-.536-.254-.536-.553V1.7c0-.307.25-.555.557-.553" transform="translate(120.32)"/>
            <path fill="#FFF" d="M31.512 3.565l-.107 5.147c-.009.422.412.718.806.568l7.837-2.884c.166-.063.211-.276.086-.402-.032-.032-.073-.055-.118-.065l-8.203-2.597c-.152-.036-.298.078-.3.233M26.088.062c.27.054.419.187.419.418v15.44c0 .231-.187.419-.419.419h-1.063c-.23 0-.418-.188-.418-.419V.48c0-.23.145-.364.418-.418 0 0 .54-.14 1.063 0" transform="translate(120.32)"/>
        </g>
    </g>
</svg>
