<svg xmlns="http://www.w3.org/2000/svg" width="88" height="71" viewBox="0 0 88 71">
    <g fill="none" fill-rule="evenodd">
        <path fill="#372C77" d="M7.249 37.359L12.908 37.431 12.391 51.509 18.221 51.58 17.882 37.478 23.782 37.551 23.832 33.323 7.299 33.132zM32.996 48.432c-2.791 0-4.525-2.05-4.525-5.352 0-3.275 1.763-5.391 4.493-5.391 2.667 0 4.46 2.148 4.46 5.345 0 3.33-1.697 5.398-4.428 5.398m.06-14.807c-5.414 0-9.196 3.924-9.196 9.543 0 2.566.814 4.897 2.293 6.565 1.602 1.808 3.883 2.763 6.597 2.763 2.795 0 5.14-.902 6.782-2.607 1.637-1.701 2.502-4.125 2.502-7.01 0-2.515-.802-4.809-2.257-6.46-1.612-1.828-3.936-2.794-6.72-2.794M71.785 48.432c-2.791 0-4.525-2.05-4.525-5.352 0-3.275 1.763-5.391 4.492-5.391 2.668 0 4.46 2.148 4.46 5.345 0 3.33-1.696 5.398-4.427 5.398m6.934-12.013c-1.612-1.828-3.935-2.794-6.72-2.794-5.415 0-9.196 3.924-9.196 9.543 0 2.566.814 4.897 2.292 6.565 1.602 1.808 3.884 2.763 6.597 2.763 2.795 0 5.14-.902 6.782-2.607 1.637-1.701 2.502-4.125 2.502-7.01 0-2.515-.801-4.809-2.257-6.46M54.666 46.058c-.863.852-2.135 1.292-3.676 1.273-1.3 0-1.764-.022-1.927-.04v-9.894c.355-.051 1.695-.1 2.35-.1 2.946 0 4.637 1.733 4.637 4.755 0 1.752-.466 3.1-1.384 4.006m2.921-11.006c-1.824-1.237-4.032-1.765-7.383-1.765l-5.747.081.017 18.01 4.81.022c3.697 0 6.529-.735 8.419-2.186 1.436-1.105 3.147-3.274 3.147-7.325 0-3.06-1.098-5.36-3.263-6.837M4.08 66.748L4.08 64.232 10.38 64.232 10.366 61.06 4.08 60.944 4.08 58.76 10.227 58.76 10.272 55.526.495 55.47 0 70.069 10.955 70.069 10.901 66.793zM22.767 55.855l-.131 8.591-4.45-8.59H13.84l-.41 14.63h4.027l-.42-9.887c.816 2.002 1.84 4.001 2.388 5.034l2.505 4.853h4.266l-.037-14.63h-3.392zM35.978 61.78v3.166h2.282v2.358c-.237.059-.952.103-1.477.103-2.207 0-4.442-1.438-4.442-4.187 0-3.038 2.525-4.117 4.687-4.117 1.607 0 2.522.317 3.49.653l.19.065v-3.46l-.049-.02c-.983-.378-2.23-.581-3.61-.587h-.045c-4.268 0-8.569 2.366-8.592 7.665-.011 2.13.74 4.005 2.111 5.28 1.404 1.33 3.437 1.976 6.217 1.976 1.79 0 3.843-.414 5.084-.825l.055-.018-.381-8.052h-5.52zM48.492 67.234L48.391 56.005 44.721 56.005 44.414 70.636 54.138 70.636 54.007 67.226zM56.786 55.886L56.499 70.236 60.581 70.236 60.186 55.875zM69.668 61.696c-1.832-.626-2.638-.971-2.66-1.652-.01-.251.066-.461.222-.624.28-.29.817-.44 1.596-.443 1.101-.005 2.05.225 3.087.505l.074.02.837-3.075-.328-.094c-1.124-.32-2.094-.595-3.731-.555-2.059.05-3.742.672-4.741 1.753-.72.777-1.068 1.767-1.01 2.863.09 1.639 1.52 2.943 4.5 4.105 1.553.605 2.11 1.058 2.127 1.734.008.339-.176.657-.517.896-.376.263-.904.41-1.528.424-1.43.035-2.537-.215-3.759-.602l-.079-.025-.734 3.16.055.027c.81.388 2.414.786 4.108.786.086 0 .172 0 .258-.003 2.016-.05 3.654-.571 4.74-1.51.99-.856 1.496-2.014 1.463-3.348-.052-2.071-1.317-3.451-3.98-4.342M87.377 55.679L87.374 55.606 83.832 55.606 83.832 60.959 79.382 60.959 79.483 55.626 75.79 55.605 75.124 70.236 79.023 70.236 79.231 64.474 83.885 64.495 84.062 70.236 87.919 70.236zM58.214 25.644H29.86c-.183 0-.332.15-.332.332v1.991c0 .09.035.173.098.236.062.062.145.096.234.096h.002l28.356-.21c.181-.001.329-.15.329-.332v-1.78c0-.184-.149-.333-.332-.333"/>
        <path fill="#1F96DB" d="M34.885 13.826c-.108-.116-.266-.182-.432-.182H30.78c-.164 0-.32.064-.428.177-.097.102-.147.232-.14.365l.285 9.569c.013.28.262.5.569.5h2.884c.3 0 .55-.215.568-.49l.502-9.567c.009-.136-.04-.269-.136-.372"/>
        <path fill="#9857DB" d="M42.048 24.109c.135-.082.223-.22.223-.376 0 .156-.088.294-.223.376zm.215-9.945c0-.325-.29-.59-.645-.59h-3.076c-.347 0-.63.249-.645.567l-.436 9.567c-.007.153.05.3.16.415.122.129.299.202.485.202h3.659c.356 0 .645-.265.645-.592l-.147-9.57z"/>
        <path fill="#E6801B" d="M50.22 13.82c-.107-.112-.262-.176-.424-.176h-3.677c-.16 0-.314.063-.421.172-.097.1-.148.227-.145.36l.214 9.568c.006.282.26.511.567.511h3.032c.305 0 .554-.22.567-.5l.429-9.568c.006-.135-.044-.265-.141-.366"/>
        <path fill="#D63679" d="M57.548 14.144c-.013-.28-.257-.5-.557-.5h-2.85c-.3 0-.545.22-.557.5l-.422 9.567c-.006.137.044.268.141.37.106.11.258.174.416.174h3.693c.159 0 .31-.064.416-.174.097-.102.148-.233.142-.37l-.422-9.567z"/>
        <path fill="#372C77" d="M58.226 9.58H47.333c-.043 0-.083-.014-.113-.038l-.052-.039-2.483-1.82c-.181-.128-.415-.2-.64-.2-.229 0-.457.07-.644.2l-2.479 1.82c-.014.009-.027.019-.04.03-.033.025-.075.037-.118.037L29.87 9.503c-.045 0-.089.018-.13.058-.121.12-.196.408-.196.525v1.68c0 .177.144.32.32.32h11.62l.055-.01c.235.006.47-.065.669-.204l1.621-1.218s.097-.08.215-.08c.119 0 .215.08.22.083l1.62 1.216c.203.142.442.212.684.202l-.002.012h11.66c.176 0 .32-.144.32-.32v-1.604c0-.145-.114-.583-.32-.583"/>
        <path fill="#372C77" d="M52.298 3.623c-.027-.027-.06-.046-.093-.053l-3.889-1.231V1.276c0-.207-.169-.377-.376-.378L44.69.873V.556c0-.11-.045-.303-.338-.364-.325-.085-.65-.003-.656 0-.298.058-.342.253-.342.364v8.718c0 .202.165.367.368.367h.6c.202 0 .367-.165.367-.367v-4.48l2.575.099-.006.31c-.003.133.06.259.17.336.068.048.15.073.23.073.049 0 .097-.008.143-.026l4.426-1.629c.065-.024.112-.08.126-.148.015-.067-.006-.137-.055-.186"/>
    </g>
</svg>
