<svg width="121" height="118" viewBox="0 0 121 118" fill="none" xmlns="http://www.w3.org/2000/svg">
<path fill-rule="evenodd" clip-rule="evenodd" d="M49.8073 50.032H0.0735625V41.2593L48.9133 42.1735L49.8073 50.032Z" fill="white"/>
<path fill-rule="evenodd" clip-rule="evenodd" d="M121 50.032H71.4055L72.2999 42.1735H121V50.032Z" fill="white"/>
<path fill-rule="evenodd" clip-rule="evenodd" d="M71.6914 49.9196C72.8467 49.7078 73.8524 49.0567 74.5287 48.0658C75.2085 47.0745 75.4694 45.8829 75.2652 44.698C75.0654 43.5149 74.4179 42.4776 73.4554 41.7904L63.0606 34.0006C62.3342 33.4793 61.4218 33.1926 60.5348 33.1926C59.6474 33.1926 58.735 33.4793 58.0016 34.0006L47.6138 41.7904C46.6552 42.4776 46.0112 43.5149 45.811 44.698C45.6033 45.8829 45.8572 47.0745 46.5374 48.0658C47.2207 49.0567 48.2294 49.7078 49.3813 49.9196C50.5336 50.135 51.7108 49.8559 52.6764 49.1682L59.4541 43.9653C59.4541 43.9653 59.9231 43.5582 60.5348 43.555C61.1426 43.5582 61.6147 43.9653 61.6147 43.9653L68.3924 49.1682C69.3623 49.8559 70.5391 50.135 71.6914 49.9196Z" fill="white"/>
<path fill-rule="evenodd" clip-rule="evenodd" d="M58.1925 2.61406L82.003 2.76256V19.4477L58.1925 18.6825V2.61406Z" fill="white"/>
<path fill-rule="evenodd" clip-rule="evenodd" d="M77.6571 8.73537L77.3451 24.0385L100.864 14.8569L100.116 14.0917L77.6571 8.73537Z" fill="white"/>
<path fill-rule="evenodd" clip-rule="evenodd" d="M58.1925 39.342H62.6844V0H58.1925V39.342Z" fill="white"/>
<path fill-rule="evenodd" clip-rule="evenodd" d="M121 117.086L0 118V108.313H121V117.086Z" fill="white"/>
<path fill-rule="evenodd" clip-rule="evenodd" d="M19.0692 102.318H5.63638L3.84793 57.553H21.7516L19.0692 102.318Z" fill="white"/>
<path fill-rule="evenodd" clip-rule="evenodd" d="M51.2024 102.318H34.1927L35.9812 57.553H51.2024V102.318Z" fill="white"/>
<path fill-rule="evenodd" clip-rule="evenodd" d="M83.3358 102.318H68.1145L67.2201 57.553H85.1242L83.3358 102.318Z" fill="white"/>
<path fill-rule="evenodd" clip-rule="evenodd" d="M117.258 102.318H98.4602L100.249 57.553H115.469L117.258 102.318Z" fill="white"/>
</svg>
