<svg xmlns="http://www.w3.org/2000/svg" width="149" height="34" viewBox="0 0 149 34">
    <g fill="#FFF" fill-rule="evenodd">
        <path d="M.888 3.764c2.822 2.874 5.652 5.741 8.48 8.609 1.833 1.857 3.664 3.716 5.503 5.565.179.18.194.274.005.462-4.498 4.463-8.993 8.93-13.477 13.41-.274.274-.467.245-.73.043-.479-.368-.663-.862-.663-1.45 0-2.48-.004-4.959-.005-7.438v-5.258h.007c0-4.187 0-8.372-.002-12.558-.001-.514.1-.983.464-1.371.142-.15.244-.192.418-.014zm15.133 15.329c1.056 1.098 2.129 2.181 3.206 3.259.19.19.205.267-.052.408-5.353 2.924-10.703 5.856-16.053 8.787-.088.048-.17.127-.216.157 4.17-4.206 8.344-8.41 12.504-12.626.259-.26.38-.226.61.015zm4.997-5.184c1.599.904 3.206 1.795 4.81 2.691.495.278.881.637.902 1.223-.018.472-.24.803-.579 1.051-.25.184-.524.335-.797.486-1.618.892-3.242 1.777-4.857 2.676-.218.121-.348.116-.528-.07-1.15-1.185-2.31-2.361-3.476-3.53-.17-.17-.174-.263 0-.434 1.358-1.335 2.71-2.68 4.056-4.029.159-.158.272-.176.47-.064zM1.62 3.3c.343-.003.585.097.818.227 5.746 3.212 11.49 6.426 17.24 9.631.264.148.26.23.055.43-1.286 1.262-2.56 2.534-3.834 3.806-.137.138-.222.217-.406.03-4.57-4.652-9.15-9.297-13.725-13.943-.038-.04-.07-.085-.148-.18zM123.584 25.57h2.46V8.854h-2.46V25.57zm22.177-10.695l-2.822 7.248h-.085l-2.929-7.248h-2.652l4.393 10.13-2.505 5.634h2.568l6.771-15.764h-2.74zm-13.966 8.796c-.805 0-1.929-.409-1.929-1.42 0-1.289 1.4-1.785 2.61-1.785 1.081 0 1.592.238 2.249.559-.19 1.55-1.506 2.646-2.93 2.646zm.299-9.162c-1.783 0-3.63.797-4.393 2.56l2.185.925c.468-.926 1.338-1.226 2.25-1.226 1.273 0 2.57.774 2.589 2.15v.172c-.446-.258-1.4-.644-2.568-.644-2.355 0-4.754 1.311-4.754 3.762 0 2.237 1.931 3.679 4.097 3.679 1.655 0 2.568-.753 3.14-1.636h.085v1.29h2.378v-6.408c0-2.967-2.187-4.624-5.01-4.624zm-15.216 2.402h-3.504v-5.73h3.504c1.84 0 2.884 1.543 2.884 2.864 0 1.296-1.045 2.866-2.884 2.866zm-.065-8.058h-5.9V25.57h2.461v-6.333h3.439c2.729 0 5.413-2.001 5.413-5.192 0-3.189-2.684-5.192-5.413-5.192zM84.64 23.673c-1.7 0-3.124-1.442-3.124-3.424 0-2.004 1.423-3.468 3.124-3.468 1.68 0 2.998 1.464 2.998 3.468 0 1.982-1.318 3.425-2.998 3.425zm2.828-7.862h-.086c-.553-.667-1.615-1.271-2.954-1.271-2.807 0-5.379 2.5-5.379 5.71 0 3.187 2.572 5.665 5.379 5.665 1.34 0 2.401-.603 2.954-1.293h.086v.818c0 2.177-1.148 3.339-2.998 3.339-1.508 0-2.444-1.098-2.827-2.024l-2.146.905c.614 1.507 2.252 3.36 4.973 3.36 2.893 0 5.336-1.724 5.336-5.925v-10.21h-2.338v.926zm4.04 9.759h2.464V8.854h-2.465V25.57zm6.1-5.514c-.064-2.199 1.68-3.318 2.935-3.318.977 0 1.806.496 2.083 1.206l-5.018 2.112zm7.653-1.897c-.467-1.27-1.892-3.62-4.804-3.62-2.891 0-5.293 2.306-5.293 5.689 0 3.188 2.38 5.687 5.569 5.687 2.573 0 4.061-1.594 4.677-2.52l-1.913-1.294c-.637.948-1.508 1.573-2.764 1.573-1.254 0-2.147-.582-2.72-1.724l7.503-3.145-.255-.646zm-59.787-1.873v2.412h5.698c-.17 1.358-.616 2.348-1.297 3.037-.83.841-2.126 1.768-4.401 1.768-3.508 0-6.25-2.866-6.25-6.42s2.742-6.42 6.25-6.42c1.892 0 3.274.753 4.294 1.724l1.68-1.702C50.024 9.306 48.13 8.25 45.474 8.25c-4.805 0-8.844 3.965-8.844 8.833 0 4.867 4.04 8.832 8.844 8.832 2.593 0 4.55-.863 6.08-2.478 1.573-1.594 2.062-3.833 2.062-5.644 0-.559-.043-1.076-.127-1.507h-8.015zm14.62 7.388c-1.701 0-3.169-1.422-3.169-3.446 0-2.047 1.468-3.447 3.168-3.447 1.701 0 3.167 1.4 3.167 3.447 0 2.024-1.466 3.446-3.167 3.446zm0-9.134c-3.104 0-5.634 2.392-5.634 5.688 0 3.275 2.53 5.687 5.633 5.687 3.104 0 5.634-2.412 5.634-5.687 0-3.296-2.53-5.688-5.634-5.688zm12.289 9.134c-1.701 0-3.167-1.422-3.167-3.446 0-2.047 1.466-3.447 3.167-3.447 1.7 0 3.167 1.4 3.167 3.447 0 2.024-1.466 3.446-3.167 3.446zm0-9.134c-3.104 0-5.634 2.392-5.634 5.688 0 3.275 2.53 5.687 5.634 5.687 3.105 0 5.634-2.412 5.634-5.687 0-3.296-2.53-5.688-5.634-5.688z" transform="translate(.3 .4)"/>
    </g>
</svg>
