<svg width="100" height="66" viewBox="0 0 100 66" fill="none" xmlns="http://www.w3.org/2000/svg">
<path d="M13.8768 0.682865L89.5408 5.97381C94.9334 6.35089 99.0059 10.9515 98.6351 16.2541L95.8668 55.8437C95.496 61.1463 90.8228 65.1354 85.4302 64.7583L9.76614 59.4674C4.37356 59.0903 0.301039 54.4896 0.671833 49.187L3.44021 9.59747C3.811 4.29487 8.48418 0.305779 13.8768 0.682865Z" fill="#15AA98"/>
<path d="M10.311 29.94C9.73429 38.1878 15.9548 45.3437 24.2027 45.9205C32.4505 46.4972 39.6064 40.2767 40.1832 32.0288C40.7599 23.781 34.5394 16.6251 26.2915 16.0483C18.0437 15.4716 10.8878 21.6921 10.311 29.94Z" fill="#FFB019"/>
<path fill-rule="evenodd" clip-rule="evenodd" d="M9.21475 29.8619C9.83386 21.0082 17.516 14.3302 26.3697 14.9493C35.2234 15.5684 41.9014 23.2506 41.2823 32.1043C40.6632 40.958 32.981 47.636 24.1273 47.0169C15.2737 46.3978 8.59564 38.7156 9.21475 29.8619ZM26.2162 17.1447C18.5742 16.6104 11.9445 22.3734 11.4102 30.0154C10.8758 37.6574 16.6389 44.2871 24.2809 44.8214C31.9228 45.3558 38.5525 39.5928 39.0869 31.9508C39.6213 24.3088 33.8582 17.6791 26.2162 17.1447Z" fill="#372C77"/>
<path fill-rule="evenodd" clip-rule="evenodd" d="M18.073 30.4937C18.2913 30.304 18.5816 30.2037 18.8695 30.2239L31.6701 31.119C31.958 31.1391 32.232 31.2728 32.4213 31.497C32.611 31.7152 32.7112 32.0055 32.6911 32.2935C32.3958 36.5163 28.8916 39.5625 24.6687 39.2672C20.4458 38.9719 17.3997 35.4677 17.695 31.2448C17.7156 30.9509 17.8488 30.683 18.073 30.4937ZM19.9157 32.5032C20.224 34.9901 22.1889 36.8876 24.8223 37.0717C27.4556 37.2559 29.6595 35.6499 30.3169 33.2305L19.9157 32.5032ZM18.4233 26.9497C18.3776 27.6036 18.8686 28.1684 19.5224 28.2141C20.1762 28.2598 20.741 27.7688 20.7867 27.115C20.8324 26.4612 20.3415 25.8964 19.6877 25.8507C19.0334 25.811 18.4686 26.3019 18.4233 26.9497ZM30.2102 27.774C30.1645 28.4278 30.6555 28.9926 31.3093 29.0383C31.9631 29.084 32.5279 28.5931 32.5736 27.9392C32.6193 27.2854 32.1284 26.7206 31.4746 26.6749C30.8203 26.6352 30.2555 27.1261 30.2102 27.774Z" fill="#372C77"/>
<path d="M52.7276 24.6051C53.0395 24.6269 53.2959 24.7533 53.4963 24.9903C53.6967 25.2274 53.7922 25.4993 53.77 25.8172C53.7482 26.1291 53.6218 26.3855 53.3907 26.5863C53.1597 26.7872 52.8878 26.8827 52.5699 26.8605L48.0231 26.5425C47.7052 26.5203 47.4372 26.387 47.2252 26.1431C47.0192 25.8997 46.9245 25.6158 46.9467 25.2979L47.4811 17.6559C47.5034 17.338 47.6366 17.07 47.8805 16.858C48.1244 16.646 48.4023 16.5509 48.7262 16.5736L49.2061 16.6071C49.524 16.6293 49.7919 16.7626 50.0039 17.0065C50.2159 17.2504 50.311 17.5283 50.2884 17.8522L49.8408 24.2525C49.8337 24.3545 49.8783 24.4058 49.9803 24.4129L52.7276 24.6051Z" fill="#372C77"/>
<path d="M58.2359 19.9826C59.3276 20.0589 60.1648 20.4128 60.748 21.0383C61.3311 21.6637 61.6152 22.5154 61.6061 23.5938C61.6018 23.9129 61.469 24.1749 61.2075 24.3796C60.9461 24.5844 60.6442 24.6778 60.3083 24.6543L57.0211 24.4245C56.9732 24.4211 56.9419 24.437 56.9214 24.4717C56.9009 24.5065 56.8924 24.542 56.9018 24.5789C57.0566 25.2105 57.5386 25.5577 58.3544 25.6147C58.7203 25.6403 59.0956 25.6183 59.4866 25.5432C59.7252 25.4936 59.9519 25.5275 60.1607 25.6446C60.3695 25.7617 60.4965 25.9273 60.559 26.1547C60.6138 26.4056 60.5794 26.6383 60.4615 26.8591C60.3436 27.0799 60.1536 27.2113 59.903 27.2601C59.2979 27.3805 58.6682 27.4209 58.0023 27.3743C56.8266 27.2921 55.908 26.8964 55.2467 26.181C54.5855 25.4657 54.294 24.5472 54.3729 23.4195C54.4526 22.2798 54.839 21.4087 55.5394 20.7886C56.2214 20.1732 57.1262 19.905 58.2359 19.9826ZM59.1055 23.0633C59.2075 23.0704 59.2592 23.0198 59.2668 22.9118C59.2836 22.1535 58.9202 21.7483 58.1884 21.6971C57.5405 21.6518 57.1362 22.0033 56.9754 22.7516C56.9669 22.7871 56.9703 22.8235 56.9978 22.8616C57.0253 22.8997 57.06 22.9202 57.102 22.9232L59.1055 23.0633Z" fill="#372C77"/>
<path d="M66.4075 22.7545C66.3055 22.7474 66.2542 22.792 66.247 22.894L66.1048 24.9274C66.0742 25.3653 66.1021 25.6566 66.1936 25.8137C66.2855 25.9648 66.4604 26.0493 66.7243 26.0678C66.8683 26.0779 66.9767 26.0794 67.0551 26.0789C67.3083 26.0785 67.5324 26.1484 67.7271 26.2947C67.9159 26.4405 68.0228 26.6348 68.0425 26.8713C68.072 27.1385 68.0008 27.3807 67.8293 27.5917C67.6579 27.8028 67.4447 27.9205 67.1902 27.9388C66.7786 27.9643 66.3506 27.9645 65.9127 27.9339C65.0129 27.871 64.3554 27.6201 63.9468 27.1696C63.5383 26.719 63.3681 26.0501 63.431 25.1504L63.6017 22.709C63.6089 22.607 63.5642 22.5557 63.4623 22.5485L63.0664 22.5209C62.8204 22.5037 62.6164 22.405 62.4546 22.2189C62.2928 22.0328 62.2235 21.817 62.2407 21.571C62.2579 21.3251 62.3565 21.121 62.5426 20.9592C62.7288 20.7974 62.9446 20.7281 63.1905 20.7453L63.5864 20.773C63.6884 20.7801 63.7397 20.7355 63.7469 20.6335L63.8366 19.3499C63.8589 19.032 63.9921 18.764 64.236 18.552C64.4799 18.34 64.7578 18.2449 65.0817 18.2676L65.4116 18.2906C65.7295 18.3129 65.9975 18.4461 66.2095 18.69C66.4215 18.9339 66.5166 19.2118 66.4939 19.5357L66.4042 20.8194C66.397 20.9213 66.4417 20.9727 66.5436 20.9798L67.7013 21.0608C67.9473 21.078 68.1513 21.1766 68.3131 21.3627C68.4749 21.5489 68.5442 21.7647 68.527 22.0106C68.5098 22.2565 68.4112 22.4606 68.225 22.6224C68.0389 22.7842 67.8231 22.8535 67.5772 22.8363L66.4075 22.7545Z" fill="#372C77"/>
<path d="M72.6218 17.6988C72.9037 17.7185 73.1176 17.848 73.2572 18.0928C73.3968 18.3377 73.4096 18.5857 73.2952 18.8429L72.2921 21.0332C72.1504 21.3367 71.9412 21.5692 71.6583 21.7363C71.3754 21.9034 71.0747 21.9788 70.7448 21.9557C70.4629 21.936 70.2365 21.8117 70.0721 21.5772C69.9076 21.3426 69.8588 21.0921 69.9325 20.8139L70.4782 18.7002C70.5672 18.3749 70.7481 18.1163 71.0275 17.9128C71.3065 17.7153 71.6084 17.6219 71.9384 17.645L72.6222 17.6928L72.6218 17.6988Z" fill="#372C77"/>
<path d="M77.0473 24.0472C78.1594 24.2636 78.9387 24.5833 79.4033 25.0076C79.8619 25.4315 80.0705 25.9825 80.0235 26.6543C79.9753 27.3442 79.6608 27.8767 79.0808 28.24C78.5009 28.6033 77.6948 28.7519 76.6571 28.6793C75.7993 28.6194 74.9919 28.4423 74.2225 28.1535C73.9764 28.0519 73.7958 27.8765 73.6806 27.6273C73.5714 27.3786 73.5591 27.1245 73.6495 26.8657C73.7314 26.6423 73.8807 26.49 74.1098 26.4036C74.3388 26.3171 74.5616 26.3206 74.7965 26.4094C75.3058 26.6258 75.8749 26.7621 76.5108 26.8065C77.1046 26.8481 77.4094 26.7127 77.4308 26.4067C77.4392 26.2868 77.3967 26.2054 77.3101 26.1512C77.2235 26.0969 76.9993 26.027 76.6376 25.9414C75.546 25.6902 74.78 25.3534 74.3338 24.9243C73.8876 24.4953 73.691 23.9451 73.7379 23.2733C73.7858 22.5894 74.099 22.0749 74.6717 21.7292C75.2444 21.3834 76.08 21.2429 77.1718 21.3193C77.9516 21.3738 78.6779 21.503 79.3388 21.7059C79.587 21.7775 79.7689 21.9349 79.8849 22.1721C79.9949 22.4088 80.0081 22.6508 79.9181 22.9037C79.8349 23.1451 79.6844 23.3154 79.4481 23.4194C79.2117 23.5234 78.9761 23.5311 78.7284 23.4535C78.2629 23.3004 77.7932 23.2072 77.3193 23.1741C76.9294 23.1468 76.657 23.1639 76.5084 23.2199C76.3598 23.2758 76.2803 23.3787 76.2698 23.5287C76.2602 23.6666 76.313 23.7728 76.428 23.8532C76.5322 23.9147 76.7379 23.9894 77.0473 24.0472Z" fill="#372C77"/>
<path d="M54.3678 31.8781L47.6856 31.4108C47.2237 31.3785 46.8165 31.5128 46.4643 31.8077C46.1117 32.1085 45.9161 32.4927 45.8838 32.9545C45.8515 33.4164 45.9914 33.83 46.2986 34.177C46.6055 34.53 46.99 34.7197 47.4519 34.752L48.9515 34.8568L48.1504 46.3138C48.1151 46.8177 48.2645 47.2681 48.5992 47.6532C48.928 48.0379 49.3533 48.2484 49.8631 48.2841C50.367 48.3193 50.8175 48.17 51.2025 47.8352C51.5876 47.5005 51.7982 47.0752 51.8334 46.5713L52.6346 35.1144L54.1342 35.2192C54.596 35.2515 55.0097 35.1117 55.3562 34.8104C55.7092 34.5036 55.9049 34.1194 55.9372 33.6575C55.9695 33.1957 55.8296 32.782 55.5219 32.441C55.2142 32.1 54.8237 31.91 54.3678 31.8781Z" fill="#372C77"/>
<path d="M64.3031 34.5392C64.2285 33.9673 63.9678 33.4729 63.5375 33.0751C62.6765 32.2856 61.3568 32.1933 60.3943 32.8553C59.9128 33.1894 59.5862 33.6367 59.4088 34.1909L55.6079 46.8245C55.4668 47.2908 55.5386 47.7298 55.8177 48.1351C56.0972 48.5344 56.4912 48.7609 56.9771 48.7949C57.487 48.8305 57.9546 48.6944 58.3735 48.3922C58.7865 48.0896 59.0562 47.6805 59.1819 47.1769L59.6374 45.2316L62.4446 45.4279L62.6155 47.3808C62.681 47.9098 62.9083 48.3657 63.2867 48.7297C63.6711 49.0942 64.1208 49.3004 64.6307 49.3361C65.1345 49.3713 65.5623 49.2023 65.8954 48.8338C66.2286 48.4653 66.3616 48.0285 66.2876 47.5351L64.3031 34.5392ZM62.1361 42.2538L60.3906 42.1318L61.6333 36.86L62.1361 42.2538Z" fill="#372C77"/>
<path d="M74.9221 46.7938L71.9229 46.5841L72.732 35.0131C72.7672 34.5093 72.6179 34.0588 72.2832 33.6737C71.9484 33.2886 71.5291 33.0785 71.0192 33.0428C70.5094 33.0072 70.0649 33.1569 69.6798 33.4917C69.2948 33.8264 69.0846 34.2457 69.049 34.7556L68.1652 47.3943C68.1237 47.9881 68.3035 48.5191 68.6941 48.9683C69.0846 49.4176 69.5853 49.6696 70.1792 49.7111L74.684 50.0261C75.1339 50.0576 75.5291 49.9225 75.8628 49.6323C76.1966 49.3422 76.3858 48.9637 76.4168 48.5198C76.4479 48.0759 76.3192 47.6751 76.0231 47.341C75.745 47.0081 75.372 46.8253 74.9221 46.7938Z" fill="#372C77"/>
<path d="M87.6382 48.9891L85.2292 42.0636C85.2188 42.0387 85.1986 41.9831 85.2606 41.8729L88.3953 36.1789C88.6291 35.7672 88.6301 35.3213 88.4007 34.8953C88.1713 34.4694 87.7905 34.2258 87.3106 34.1922C86.7588 34.1536 86.2324 34.2675 85.744 34.5287C85.2556 34.7899 84.8787 35.1795 84.6339 35.6627L82.5777 39.4671L82.8394 35.7241C82.8746 35.2202 82.7253 34.7697 82.3906 34.3846C82.0558 33.9996 81.6365 33.7894 81.1267 33.7538C80.6168 33.7181 80.1723 33.8679 79.7873 34.2026C79.4022 34.5373 79.192 34.9566 79.1564 35.4665L78.2495 48.4351C78.2143 48.939 78.3636 49.3894 78.6984 49.7745C79.0331 50.1596 79.4584 50.3702 79.9623 50.4054C80.4661 50.4406 80.9166 50.2913 81.3017 49.9565C81.6868 49.6218 81.8973 49.1965 81.9326 48.6926L82.2337 44.3858L83.7884 48.9611C83.9627 49.4856 84.2817 49.9238 84.7222 50.262C85.1682 50.6067 85.6732 50.7987 86.231 50.8377C86.7229 50.8721 87.1459 50.6847 87.4379 50.3012C87.7424 49.9126 87.8043 49.4589 87.6382 48.9891Z" fill="#372C77"/>
</svg>
