<svg width="310" height="152" viewBox="0 0 310 152" fill="none" xmlns="http://www.w3.org/2000/svg">
<path opacity="0.5" d="M26.2411 96.7162C27.9318 97.2754 29.2601 97.3708 30.226 97.0025C31.22 96.6435 31.9314 95.8159 32.3601 94.5197C33.0591 92.4063 31.8587 90.837 28.759 89.8118L27.1106 89.2666C26.8006 89.1641 26.5944 89.2678 26.4918 89.5778L24.5627 95.4108C24.4601 95.7208 24.5546 95.9552 24.8459 96.1141C25.297 96.3571 25.762 96.5578 26.2411 96.7162ZM30.4061 77.7426L28.7565 82.7303C28.654 83.0402 28.7577 83.2465 29.0677 83.349L29.8708 83.6146C33.1114 84.6864 35.0812 84.1655 35.7802 82.0521C36.4325 80.0796 35.3498 78.6273 32.5319 77.6954C32.0528 77.5369 31.5598 77.4208 31.0528 77.3469C30.7242 77.3007 30.5086 77.4326 30.4061 77.7426ZM35.1893 88.234C37.2659 89.2334 38.7239 90.6379 39.5635 92.4473C40.4031 94.2568 40.5153 96.0915 39.9002 97.9513C38.8471 101.135 37.0263 103.144 34.4377 103.976C31.8867 104.789 28.3146 104.436 23.7215 102.917C21.608 102.218 19.593 101.457 17.6764 100.636C16.6617 100.207 15.9421 99.4997 15.5174 98.5152C15.0927 97.5307 15.0528 96.5171 15.3977 95.4745L23.0864 72.2268C23.4312 71.1842 24.0676 70.3943 24.9956 69.8572C25.9235 69.32 26.9227 69.1816 27.9933 69.4419C29.9091 69.8879 31.8391 70.4324 33.7834 71.0755C42.2371 73.8714 45.5786 77.9464 43.8079 83.3004C43.2114 85.1038 42.1258 86.4485 40.5511 87.3345C39.0139 88.2016 37.2359 88.4732 35.2172 88.1495C35.189 88.1402 35.1703 88.1496 35.161 88.1778C35.1517 88.2059 35.1611 88.2247 35.1893 88.234Z" fill="url(#paint0_linear)"/>
<path fill-rule="evenodd" clip-rule="evenodd" d="M262.155 47.5102C262.166 47.4835 262.184 47.4757 262.211 47.4867C262.238 47.4976 262.246 47.5164 262.235 47.5431L260.269 58.8012C260.241 58.9455 260.17 59.0412 260.057 59.0883C259.971 59.1463 259.861 59.1479 259.728 59.0931L255.808 57.4804C255.701 57.4365 255.624 57.3581 255.577 57.2452C255.53 57.1323 255.547 57.0146 255.629 56.8923L262.155 47.5102ZM258.743 71.5445C258.189 70.5025 258.007 69.4012 258.205 68.2556L258.523 66.226L258.526 66.2141C258.54 66.1454 258.533 66.1166 258.531 66.1104C258.527 66.1048 258.508 66.0856 258.451 66.062L251.811 63.3303C251.754 63.3068 251.727 63.3073 251.72 63.3083C251.714 63.3111 251.689 63.3268 251.651 63.3859L251.645 63.3961L250.442 65.0622C249.777 66.0153 248.873 66.6699 247.745 67.0199L247.737 67.0226C246.615 67.3454 245.506 67.2843 244.427 66.8404L242.907 66.2151C241.951 65.8215 241.326 65.1033 241.059 64.0965L241.057 64.0884C240.802 63.0519 241.021 62.1091 241.711 61.3086L258.173 41.5231L258.174 41.5219C258.924 40.608 259.886 40.0134 261.046 39.7446C262.214 39.4498 263.356 39.5279 264.457 39.981L266.057 40.6392C267.158 41.0923 268.025 41.8403 268.647 42.8717C269.282 43.8787 269.547 44.9781 269.437 46.1551L269.436 46.1567L267.21 71.7991C267.137 72.8523 266.629 73.6758 265.72 74.2332C264.84 74.7803 263.886 74.8457 262.907 74.4432L261.227 73.752C260.148 73.3081 259.318 72.5712 258.748 71.5526L258.743 71.5445Z" fill="url(#paint1_linear)"/>
<path fill-rule="evenodd" clip-rule="evenodd" d="M260.953 110.304C261.751 106.928 264.006 104.189 267.669 102.083C268.964 101.338 270.299 100.687 271.674 100.131C272.59 99.7606 273.526 99.7744 274.466 100.165C275.411 100.519 276.141 101.141 276.648 102.023C277.072 102.76 277.093 103.551 276.732 104.365L276.731 104.367C276.379 105.146 275.785 105.665 274.967 105.912L274.964 105.913C273.973 106.201 272.908 106.67 271.77 107.325C270.092 108.29 269.135 109.603 268.859 111.268L268.859 111.271C268.571 112.919 269.05 114.872 270.36 117.15C271.641 119.377 273.135 120.762 274.83 121.36C276.512 121.936 278.203 121.741 279.925 120.751C281.064 120.096 282.005 119.412 282.752 118.7L282.756 118.697C283.4 118.104 284.157 117.844 285.01 117.932C285.866 118.019 286.52 118.435 286.942 119.169C287.448 120.049 287.631 120.986 287.483 121.97C287.335 122.959 286.869 123.763 286.09 124.368C284.896 125.288 283.651 126.121 282.356 126.866C278.609 129.021 275.047 129.659 271.688 128.734C268.325 127.808 265.494 125.302 263.18 121.279C260.916 117.342 260.156 113.679 260.953 110.304ZM267.95 102.571C269.223 101.839 270.535 101.2 271.885 100.653L267.95 102.571Z" fill="#F7BFF9"/>
<path d="M267.95 102.571C264.388 104.619 262.255 107.243 261.501 110.434C260.747 113.628 261.452 117.144 263.668 120.998C265.935 124.94 268.663 127.317 271.838 128.191C275.016 129.067 278.423 128.478 282.075 126.378C283.348 125.646 284.571 124.828 285.745 123.923C286.407 123.409 286.799 122.735 286.926 121.886C287.054 121.032 286.899 120.223 286.454 119.45C286.125 118.878 285.634 118.562 284.952 118.492C284.267 118.422 283.668 118.623 283.139 119.109C282.352 119.858 281.373 120.568 280.206 121.239C278.359 122.301 276.499 122.527 274.647 121.892M267.95 102.571L271.885 100.653M267.95 102.571C269.223 101.839 270.535 101.2 271.885 100.653M269.872 117.431C268.529 115.095 267.985 113.004 268.304 111.175C268.611 109.321 269.686 107.874 271.489 106.836C272.657 106.165 273.762 105.676 274.806 105.372C275.467 105.173 275.932 104.765 276.218 104.136C276.512 103.472 276.486 102.872 276.159 102.304C275.716 101.533 275.087 100.998 274.264 100.69L274.254 100.687C273.443 100.349 272.659 100.34 271.885 100.653M267.669 102.083C264.006 104.189 261.751 106.928 260.953 110.304C260.156 113.679 260.916 117.342 263.18 121.279C265.494 125.302 268.325 127.808 271.688 128.734C275.047 129.659 278.609 129.021 282.356 126.866C283.651 126.121 284.896 125.288 286.09 124.368C286.869 123.763 287.335 122.959 287.483 121.97C287.631 120.986 287.448 120.049 286.942 119.169C286.52 118.435 285.866 118.019 285.01 117.932C284.157 117.844 283.4 118.104 282.756 118.697L282.752 118.7C282.005 119.412 281.064 120.096 279.925 120.751C278.203 121.741 276.512 121.936 274.83 121.36C273.135 120.762 271.641 119.377 270.36 117.15C269.05 114.872 268.571 112.919 268.859 111.271L268.859 111.268C269.135 109.603 270.092 108.29 271.77 107.325C272.908 106.67 273.973 106.201 274.964 105.913L274.967 105.912C275.785 105.665 276.379 105.146 276.731 104.367L276.732 104.365C277.093 103.551 277.072 102.76 276.648 102.023C276.141 101.141 275.411 100.519 274.466 100.165C273.526 99.7744 272.59 99.7606 271.674 100.131C270.299 100.687 268.964 101.338 267.669 102.083Z" stroke="#F7BFF9" stroke-width="0.3" stroke-linecap="round"/>
<circle cx="147" cy="67" r="67" fill="url(#paint2_linear)"/>
<g filter="url(#filter0_d)">
<path d="M124.002 62.1495L129.454 56.6975L134.638 79.79L120.053 83.4363C118.965 83.7083 117.974 82.7337 118.228 81.6413L121.867 65.9942C122.205 64.5383 122.945 63.2064 124.002 62.1495Z" fill="#9059B7"/>
<path d="M169.779 62.1495L164.328 56.6975L159.143 79.79L173.729 83.4363C174.817 83.7083 175.808 82.7337 175.554 81.6413L171.915 65.9942C171.576 64.5383 170.836 63.2064 169.779 62.1495Z" fill="#9059B7"/>
<path d="M129.371 56.0911C127.813 66.9138 131.317 77.0279 133.264 80.7321H146.891H160.518C162.464 77.0279 165.969 66.9138 164.411 56.0911C162.703 44.2233 157.625 31.9836 150.161 25.5697C148.272 23.9461 145.51 23.9461 143.621 25.5697C136.157 31.9836 131.078 44.2233 129.371 56.0911Z" fill="white"/>
<path d="M143.621 25.5696C139.287 29.2941 135.757 34.9833 133.225 41.4235L160.559 41.4235C158.026 34.9833 154.496 29.2941 150.162 25.5696C148.272 23.946 145.511 23.946 143.621 25.5696Z" fill="url(#paint3_linear)"/>
<path d="M155.374 58.1101C155.374 62.7951 151.576 66.5931 146.891 66.5931C142.206 66.5931 138.408 62.7951 138.408 58.1101C138.408 53.4251 142.206 49.6272 146.891 49.6272C151.576 49.6272 155.374 53.4251 155.374 58.1101Z" fill="white"/>
<path fill-rule="evenodd" clip-rule="evenodd" d="M146.891 62.206C149.153 62.206 150.987 60.3722 150.987 58.1101C150.987 55.8481 149.153 54.0143 146.891 54.0143C144.629 54.0143 142.795 55.8481 142.795 58.1101C142.795 60.3722 144.629 62.206 146.891 62.206ZM146.891 66.5931C151.576 66.5931 155.374 62.7951 155.374 58.1101C155.374 53.4251 151.576 49.6272 146.891 49.6272C142.206 49.6272 138.408 53.4251 138.408 58.1101C138.408 62.7951 142.206 66.5931 146.891 66.5931Z" fill="url(#paint4_linear)"/>
<path d="M133.225 80.7322H160.559C160.559 80.7322 160.087 82.2403 158.673 84.5024C156.317 88.2726 154.432 88.2726 153.961 88.2726C153.489 88.2726 140.294 88.2726 139.822 88.2726C139.351 88.2726 137.466 88.2726 135.11 84.5024C133.696 82.2403 133.225 80.7322 133.225 80.7322Z" fill="url(#paint5_linear)"/>
<path d="M146.559 92.0408C141.835 92.0408 138.006 96.0092 138.006 100.905C138.006 104.056 139.716 112.605 146.559 121.587C153.401 112.605 155.111 104.056 155.111 100.905C155.111 96.0092 151.282 92.0408 146.559 92.0408Z" fill="url(#paint6_linear)"/>
<path d="M146.559 95.7114C143.696 95.7114 141.375 97.9902 141.375 100.801C141.375 102.611 142.412 107.52 146.559 112.677C150.706 107.52 151.743 102.611 151.743 100.801C151.743 97.9902 149.422 95.7114 146.559 95.7114Z" fill="url(#paint7_linear)"/>
</g>
<path fill-rule="evenodd" clip-rule="evenodd" d="M68.123 136.421C69.3914 126.664 77.0722 122.375 83.7811 122.987C86.8702 123.269 89.8288 121.4 91.3799 118.298C93.3827 114.293 97.0566 109.918 103.538 110.001C109.94 110.083 113.69 113.544 115.892 117.137C117.84 120.315 121.239 121.861 124.492 120.852C127.261 119.994 130.823 119.977 134.688 122.682C135.6 123.321 136.406 124.149 137.033 125.147C137.464 125.831 137.95 126.737 138.382 127.857C139.645 131.134 142.482 133.192 145.582 133.306C146.9 133.355 148.346 133.509 149.826 133.844C149.867 133.853 149.908 133.863 149.948 133.873C154.538 134.979 153.727 142 149.015 142H71.9812C69.6889 142 67.8653 140 68.0078 137.631C68.0318 137.234 68.0698 136.831 68.123 136.421Z" fill="#DFEEFC"/>
<path fill-rule="evenodd" clip-rule="evenodd" d="M225.876 136.421C224.592 126.664 216.821 122.375 210.033 122.987C206.908 123.269 203.914 121.4 202.345 118.298C200.319 114.293 196.602 109.918 190.044 110.001C183.567 110.083 179.773 113.544 177.544 117.137C175.573 120.315 172.135 121.861 168.844 120.852C166.041 119.994 162.438 119.977 158.527 122.682C157.604 123.321 156.789 124.149 156.154 125.147C155.719 125.831 155.227 126.737 154.79 127.857C153.512 131.134 150.642 133.192 147.505 133.306C146.171 133.355 144.708 133.509 143.211 133.844C143.17 133.853 143.129 133.863 143.088 133.873C138.444 134.979 139.265 142 144.032 142H221.972C224.291 142 226.136 140 225.992 137.631C225.968 137.234 225.929 136.831 225.876 136.421Z" fill="#DFEEFC"/>
<circle r="1.84915" transform="matrix(-1 0 0 1 187.379 47.105)" fill="url(#paint8_linear)"/>
<circle r="1.84915" transform="matrix(-1 0 0 1 117.987 29.8152)" fill="url(#paint9_linear)"/>
<path d="M106.162 89.357L108.464 84.7527L103.86 87.0548L99.2559 84.7527L101.558 89.357L99.2559 93.9613L103.86 91.6592L108.464 93.9613L106.162 89.357Z" fill="url(#paint10_linear)"/>
<path d="M213.245 40.5482L220.794 38.0317L213.245 35.5153L210.729 27.9661L208.212 35.5153L200.663 38.0317L208.212 40.5482L210.729 48.0974L213.245 40.5482Z" fill="url(#paint11_linear)"/>
<path d="M71.9308 35.4076C70.756 33.227 68.0079 30.0759 62.4215 29.0129" stroke="#F7BFF9" stroke-width="5" stroke-linecap="round"/>
<circle opacity="0.5" r="4.28647" transform="matrix(-1 0 0 1 55.9909 91.1759)" fill="url(#paint12_linear)"/>
<circle opacity="0.5" r="3.83693" transform="matrix(-1 0 0 1 228.944 88.5896)" fill="url(#paint13_linear)"/>
<circle r="1.84915" transform="matrix(-1 0 0 1 245.374 120.367)" fill="url(#paint14_linear)"/>
<path fill-rule="evenodd" clip-rule="evenodd" d="M44.7347 118.868C43.5068 119.024 42.6377 120.146 42.7935 121.374C42.8606 121.903 42.8463 122.476 42.7381 122.959C42.6271 123.455 42.4587 123.686 42.3634 123.771C41.8144 124.261 41.6048 124.446 41.3878 124.588C41.2351 124.688 41.0304 124.796 40.5395 124.935C40.4714 124.954 40.2927 124.985 39.9146 124.995C39.673 125.002 39.4612 125.001 39.2127 124.999C39.0414 124.998 38.8526 124.996 38.6245 124.997C38.1448 125 37.5529 125.016 36.9631 125.112C36.3773 125.208 35.6483 125.405 34.9742 125.868C33.6628 126.768 32.9918 128.079 32.6166 129.193C32.2545 130.269 32.0934 131.399 31.98 132.194C31.977 132.215 31.974 132.236 31.9711 132.257C31.7961 133.482 32.6476 134.617 33.8729 134.792C35.0982 134.967 36.2334 134.116 36.4084 132.89C36.5319 132.025 36.6457 131.274 36.8647 130.623C37.0702 130.013 37.295 129.724 37.4839 129.582C37.508 129.574 37.5701 129.555 37.6863 129.536C37.9163 129.498 38.2209 129.482 38.6477 129.48C38.7623 129.479 38.9037 129.48 39.0579 129.481C39.3713 129.482 39.7377 129.484 40.0405 129.476C40.5224 129.462 41.1472 129.421 41.7596 129.248C42.5664 129.02 43.2163 128.749 43.8429 128.338C44.3571 128.002 44.8146 127.592 45.2317 127.219C45.2708 127.184 45.3096 127.149 45.348 127.115C46.3688 126.204 46.8747 124.999 47.1122 123.938C47.3525 122.865 47.3608 121.76 47.2401 120.81C47.0843 119.582 45.9626 118.713 44.7347 118.868Z" fill="#F8D155"/>
<defs>
<filter id="filter0_d" x="108.188" y="24.3518" width="77.4053" height="127.235" filterUnits="userSpaceOnUse" color-interpolation-filters="sRGB">
<feFlood flood-opacity="0" result="BackgroundImageFix"/>
<feColorMatrix in="SourceAlpha" type="matrix" values="0 0 0 0 0 0 0 0 0 0 0 0 0 0 0 0 0 0 127 0"/>
<feOffset dy="20"/>
<feGaussianBlur stdDeviation="5"/>
<feColorMatrix type="matrix" values="0 0 0 0 0.371368 0 0 0 0 0.114583 0 0 0 0 0.55 0 0 0 0.5 0"/>
<feBlend mode="normal" in2="BackgroundImageFix" result="effect1_dropShadow"/>
<feBlend mode="normal" in="SourceGraphic" in2="effect1_dropShadow" result="shape"/>
</filter>
<linearGradient id="paint0_linear" x1="35.8969" y1="71.7745" x2="25.4122" y2="103.476" gradientUnits="userSpaceOnUse">
<stop stop-color="#14B285"/>
<stop offset="1" stop-color="#35BDA5"/>
</linearGradient>
<linearGradient id="paint1_linear" x1="265.257" y1="40.3101" x2="252.907" y2="70.3291" gradientUnits="userSpaceOnUse">
<stop stop-color="#F8D155"/>
<stop offset="1" stop-color="#F2BC2F"/>
</linearGradient>
<linearGradient id="paint2_linear" x1="147" y1="0" x2="147" y2="134" gradientUnits="userSpaceOnUse">
<stop stop-color="#8035B5"/>
<stop offset="1" stop-color="#561F7D"/>
</linearGradient>
<linearGradient id="paint3_linear" x1="146.892" y1="23.2366" x2="146.892" y2="41.4235" gradientUnits="userSpaceOnUse">
<stop stop-color="#EC4C8C"/>
<stop offset="1" stop-color="#F44F92"/>
</linearGradient>
<linearGradient id="paint4_linear" x1="146.891" y1="49.6272" x2="146.891" y2="66.5931" gradientUnits="userSpaceOnUse">
<stop stop-color="#EC4C8C"/>
<stop offset="1" stop-color="#F44F92"/>
</linearGradient>
<linearGradient id="paint5_linear" x1="146.892" y1="80.7322" x2="146.892" y2="88.2726" gradientUnits="userSpaceOnUse">
<stop stop-color="#EC4C8C"/>
<stop offset="1" stop-color="#F44F92"/>
</linearGradient>
<linearGradient id="paint6_linear" x1="146.559" y1="92.0408" x2="146.559" y2="121.587" gradientUnits="userSpaceOnUse">
<stop stop-color="#FA9247"/>
<stop offset="1" stop-color="#FC9D59" stop-opacity="0.5"/>
</linearGradient>
<linearGradient id="paint7_linear" x1="146.559" y1="95.7114" x2="146.559" y2="112.677" gradientUnits="userSpaceOnUse">
<stop stop-color="#F8D155"/>
<stop offset="1" stop-color="#F2BC2F"/>
</linearGradient>
<linearGradient id="paint8_linear" x1="1.84915" y1="0" x2="1.84915" y2="3.6983" gradientUnits="userSpaceOnUse">
<stop stop-color="#F8D155"/>
<stop offset="1" stop-color="#F2BC2F"/>
</linearGradient>
<linearGradient id="paint9_linear" x1="1.84915" y1="0" x2="1.84915" y2="3.6983" gradientUnits="userSpaceOnUse">
<stop stop-color="#F8D155"/>
<stop offset="1" stop-color="#F2BC2F"/>
</linearGradient>
<linearGradient id="paint10_linear" x1="103.86" y1="84.7527" x2="103.86" y2="93.9613" gradientUnits="userSpaceOnUse">
<stop stop-color="#F8D155"/>
<stop offset="1" stop-color="#F2BC2F"/>
</linearGradient>
<linearGradient id="paint11_linear" x1="215.761" y1="32.9989" x2="205.696" y2="43.0646" gradientUnits="userSpaceOnUse">
<stop stop-color="#F8D155"/>
<stop offset="1" stop-color="#F2BC2F"/>
</linearGradient>
<linearGradient id="paint12_linear" x1="4.28647" y1="0" x2="4.28647" y2="8.57294" gradientUnits="userSpaceOnUse">
<stop stop-color="#14B285"/>
<stop offset="1" stop-color="#41BEA8"/>
</linearGradient>
<linearGradient id="paint13_linear" x1="3.83693" y1="0" x2="3.83693" y2="7.67385" gradientUnits="userSpaceOnUse">
<stop stop-color="#14B285"/>
<stop offset="1" stop-color="#41BEA8"/>
</linearGradient>
<linearGradient id="paint14_linear" x1="1.84915" y1="0" x2="1.84915" y2="3.6983" gradientUnits="userSpaceOnUse">
<stop stop-color="#F8D155"/>
<stop offset="1" stop-color="#F2BC2F"/>
</linearGradient>
</defs>
</svg>
